<?xml version="1.0" encoding="utf-8" standalone="no"?>
<!DOCTYPE svg PUBLIC "-//W3C//DTD SVG 1.1//EN"
  "http://www.w3.org/Graphics/SVG/1.1/DTD/svg11.dtd">
<!-- Created with matplotlib (http://matplotlib.org/) -->
<svg height="345pt" version="1.1" viewBox="0 0 460 345" width="460pt" xmlns="http://www.w3.org/2000/svg" xmlns:xlink="http://www.w3.org/1999/xlink">
 <defs>
  <style type="text/css">
*{stroke-linecap:butt;stroke-linejoin:round;}
  </style>
 </defs>
 <g id="figure_1">
  <g id="patch_1">
   <path d="M 0 345.6 
L 460.8 345.6 
L 460.8 0 
L 0 0 
z
" style="fill:#ffffff;"/>
  </g>
  <g id="axes_1">
   <g id="patch_2">
    <path d="M 57.6 307.584 
L 414.72 307.584 
L 414.72 41.472 
L 57.6 41.472 
z
" style="fill:#ffffff;"/>
   </g>
   <g id="PolyCollection_1">
    <path clip-path="url(#pb939dbe17d)" d="M 73.832727 91.643628 
L 73.832727 93.302777 
L 75.202578 94.516105 
L 76.572428 93.657905 
L 77.942278 99.374031 
L 79.312129 97.763984 
L 80.681979 95.336722 
L 82.05183 94.450064 
L 83.42168 96.68651 
L 84.79153 96.349905 
L 86.161381 86.51635 
L 87.531231 82.230973 
L 88.901082 74.825658 
L 90.270932 73.202476 
L 91.640783 71.226827 
L 93.010633 73.06056 
L 94.380483 73.592258 
L 95.750334 74.389906 
L 97.120184 66.173202 
L 98.490035 62.695879 
L 99.859885 62.98308 
L 101.229735 58.62863 
L 102.599586 63.022617 
L 103.969436 60.981533 
L 105.339287 57.871361 
L 106.709137 56.537199 
L 108.078987 59.568363 
L 109.448838 72.555264 
L 110.818688 75.856959 
L 112.188539 111.428878 
L 113.558389 116.465765 
L 114.928239 128.797339 
L 116.29809 128.985123 
L 117.66794 131.843726 
L 119.037791 126.625822 
L 120.407641 123.551449 
L 121.777491 111.918277 
L 123.147342 106.567685 
L 124.517192 105.579322 
L 125.887043 100.043504 
L 127.256893 96.50078 
L 128.626743 96.203139 
L 129.996594 97.279535 
L 131.366444 99.820627 
L 132.736295 100.957945 
L 134.106145 107.939061 
L 135.475995 108.846161 
L 136.845846 104.600725 
L 138.215696 101.415452 
L 139.585547 105.948695 
L 140.955397 104.404184 
L 142.325247 105.889692 
L 143.695098 108.009884 
L 145.064948 112.816149 
L 146.434799 100.633969 
L 147.804649 99.807526 
L 149.174499 99.476276 
L 150.54435 95.734249 
L 151.9142 101.72983 
L 153.284051 96.606459 
L 154.653901 88.729661 
L 156.023751 81.456663 
L 157.393602 91.633323 
L 158.763452 90.604547 
L 160.133303 86.946208 
L 161.503153 82.170489 
L 162.873003 79.848333 
L 164.242854 79.89272 
L 165.612704 86.346684 
L 166.982555 90.786674 
L 168.352405 88.073457 
L 169.722255 89.854586 
L 171.092106 88.624655 
L 172.461956 87.4675 
L 173.831807 86.931929 
L 175.201657 78.247446 
L 176.571507 79.300335 
L 177.941358 84.890609 
L 179.311208 95.819992 
L 180.681059 109.574972 
L 182.050909 120.780408 
L 183.420759 114.954056 
L 184.79061 124.096046 
L 186.16046 116.360793 
L 187.530311 110.744318 
L 188.900161 135.297945 
L 190.270012 152.84035 
L 191.639862 154.130025 
L 193.009712 160.774333 
L 194.379563 160.152278 
L 195.749413 162.107283 
L 197.119264 164.244987 
L 198.489114 157.865282 
L 199.858964 149.507941 
L 201.228815 148.532779 
L 202.598665 153.655948 
L 203.968516 150.743563 
L 205.338366 154.826169 
L 206.708216 149.927561 
L 208.078067 180.802868 
L 209.447917 188.235496 
L 210.817768 188.617498 
L 212.187618 185.762129 
L 213.557468 179.641672 
L 214.927319 172.379317 
L 216.297169 167.474175 
L 217.66702 161.244738 
L 219.03687 173.855598 
L 220.40672 181.059354 
L 221.776571 183.500761 
L 223.146421 189.326541 
L 224.516272 191.47839 
L 225.886122 190.43557 
L 227.255972 187.954054 
L 228.625823 188.160193 
L 229.995673 188.116884 
L 231.365524 192.812182 
L 232.735374 188.962455 
L 234.105224 182.154778 
L 235.475075 188.556879 
L 236.844925 189.285051 
L 238.214776 190.186796 
L 239.584626 188.183801 
L 240.954476 184.221558 
L 242.324327 181.224037 
L 243.694177 181.810595 
L 245.064028 168.750817 
L 246.433878 169.0951 
L 247.803728 169.799496 
L 249.173579 206.138551 
L 250.543429 235.120314 
L 251.91328 233.669628 
L 253.28313 213.680832 
L 254.65298 216.031075 
L 256.022831 220.681144 
L 257.392681 237.828176 
L 258.762532 248.87388 
L 260.132382 253.060448 
L 261.502232 254.841408 
L 262.872083 262.802232 
L 264.241933 270.735205 
L 265.611784 268.557121 
L 266.981634 263.829189 
L 268.351484 260.997058 
L 269.721335 252.114788 
L 271.091185 245.033617 
L 272.461036 255.123557 
L 273.830886 249.852578 
L 275.200736 248.05094 
L 276.570587 243.900575 
L 277.940437 247.151923 
L 279.310288 245.202138 
L 280.680138 237.472307 
L 282.049988 225.141071 
L 283.419839 226.386696 
L 284.789689 219.681061 
L 286.15954 215.344663 
L 287.52939 219.922393 
L 288.899241 220.126175 
L 290.269091 222.950426 
L 291.638941 221.552613 
L 293.008792 219.643309 
L 294.378642 208.455385 
L 295.748493 203.933761 
L 297.118343 206.636976 
L 298.488193 199.198623 
L 299.858044 189.032134 
L 301.227894 187.501228 
L 302.597745 194.196625 
L 303.967595 199.466391 
L 305.337445 193.384259 
L 306.707296 195.282282 
L 308.077146 192.914898 
L 309.446997 192.091049 
L 310.816847 189.917175 
L 312.186697 187.899193 
L 313.556548 184.194313 
L 314.926398 190.506832 
L 316.296249 227.547925 
L 317.666099 227.93929 
L 319.035949 226.671404 
L 320.4058 226.044298 
L 321.77565 225.617336 
L 323.145501 229.229941 
L 324.515351 235.258661 
L 325.885201 230.140577 
L 327.255052 237.347836 
L 328.624902 238.61461 
L 329.994753 231.75544 
L 331.364603 232.496578 
L 332.734453 232.886629 
L 334.104304 227.013128 
L 335.474154 225.859679 
L 336.844005 227.62087 
L 338.213855 228.35864 
L 339.583705 225.119652 
L 340.953556 227.908441 
L 342.323406 233.80619 
L 343.693257 235.673936 
L 345.063107 232.777717 
L 346.432957 230.096763 
L 347.802808 233.226838 
L 349.172658 221.830451 
L 350.542509 221.540658 
L 351.912359 219.350114 
L 353.282209 218.830842 
L 354.65206 217.706355 
L 356.02191 210.140634 
L 357.391761 208.522235 
L 358.761611 206.776838 
L 360.131461 202.89239 
L 361.501312 248.213534 
L 362.871162 244.101798 
L 364.241013 239.57886 
L 365.610863 239.368175 
L 366.980713 232.768893 
L 368.350564 230.980053 
L 369.720414 223.043982 
L 371.090265 223.381025 
L 372.460115 227.30144 
L 373.829965 221.802802 
L 375.199816 220.477598 
L 376.569666 215.284212 
L 377.939517 225.76124 
L 379.309367 219.367356 
L 380.679217 211.299371 
L 382.049068 222.549598 
L 383.418918 225.600834 
L 384.788769 238.08207 
L 386.158619 235.72132 
L 387.52847 256.064132 
L 388.89832 271.566362 
L 390.26817 283.427395 
L 391.638021 270.838527 
L 393.007871 278.207437 
L 394.377722 275.022468 
L 395.747572 285.068291 
L 397.117422 294.37594 
L 398.487273 291.420818 
L 398.487273 280.399025 
L 398.487273 280.399025 
L 397.117422 281.952933 
L 395.747572 273.563059 
L 394.377722 270.924909 
L 393.007871 275.928153 
L 391.638021 264.247698 
L 390.26817 279.233452 
L 388.89832 263.380338 
L 387.52847 247.24009 
L 386.158619 225.023234 
L 384.788769 228.810355 
L 383.418918 220.024469 
L 382.049068 220.912575 
L 380.679217 205.394449 
L 379.309367 212.862001 
L 377.939517 210.100558 
L 376.569666 213.787522 
L 375.199816 213.157217 
L 373.829965 217.410634 
L 372.460115 221.656272 
L 371.090265 222.885159 
L 369.720414 217.500957 
L 368.350564 228.667125 
L 366.980713 229.535159 
L 365.610863 232.974056 
L 364.241013 231.952352 
L 362.871162 238.091398 
L 361.501312 198.078076 
L 360.131461 201.241727 
L 358.761611 206.487078 
L 357.391761 207.362285 
L 356.02191 209.166483 
L 354.65206 212.637979 
L 353.282209 217.228675 
L 351.912359 217.49183 
L 350.542509 211.874614 
L 349.172658 213.693529 
L 347.802808 231.378254 
L 346.432957 223.379846 
L 345.063107 232.229415 
L 343.693257 231.890688 
L 342.323406 229.835628 
L 340.953556 227.400755 
L 339.583705 220.980873 
L 338.213855 227.582107 
L 336.844005 222.631602 
L 335.474154 223.474917 
L 334.104304 225.34428 
L 332.734453 231.659998 
L 331.364603 230.654359 
L 329.994753 227.150498 
L 328.624902 235.015948 
L 327.255052 228.639577 
L 325.885201 227.310264 
L 324.515351 229.349799 
L 323.145501 225.266957 
L 321.77565 224.859293 
L 320.4058 224.691882 
L 319.035949 223.979606 
L 317.666099 226.415928 
L 316.296249 208.142489 
L 314.926398 185.9322 
L 313.556548 183.012844 
L 312.186697 185.102221 
L 310.816847 187.717908 
L 309.446997 190.763184 
L 308.077146 187.134246 
L 306.707296 191.298991 
L 305.337445 186.773123 
L 303.967595 196.28873 
L 302.597745 184.621813 
L 301.227894 182.901742 
L 299.858044 185.93449 
L 298.488193 192.753583 
L 297.118343 202.534871 
L 295.748493 195.903225 
L 294.378642 201.511449 
L 293.008792 216.061317 
L 291.638941 218.612276 
L 290.269091 217.261006 
L 288.899241 216.323529 
L 287.52939 209.887178 
L 286.15954 209.798001 
L 284.789689 214.052866 
L 283.419839 222.384612 
L 282.049988 216.360069 
L 280.680138 222.64211 
L 279.310288 238.904707 
L 277.940437 243.539621 
L 276.570587 243.208607 
L 275.200736 247.890602 
L 273.830886 247.888817 
L 272.461036 250.245829 
L 271.091185 240.018889 
L 269.721335 249.609697 
L 268.351484 257.87456 
L 266.981634 260.650922 
L 265.611784 262.67675 
L 264.241933 266.326669 
L 262.872083 257.981183 
L 261.502232 253.311378 
L 260.132382 251.53163 
L 258.762532 242.633128 
L 257.392681 228.82258 
L 256.022831 214.104561 
L 254.65298 214.889614 
L 253.28313 208.580934 
L 251.91328 222.870611 
L 250.543429 226.515411 
L 249.173579 173.625413 
L 247.803728 165.554026 
L 246.433878 161.838975 
L 245.064028 165.28976 
L 243.694177 172.538274 
L 242.324327 180.826071 
L 240.954476 178.476671 
L 239.584626 186.418265 
L 238.214776 182.380248 
L 236.844925 187.294617 
L 235.475075 186.503704 
L 234.105224 178.223316 
L 232.735374 186.811684 
L 231.365524 186.445645 
L 229.995673 186.28103 
L 228.625823 186.630466 
L 227.255972 181.98336 
L 225.886122 188.819158 
L 224.516272 189.820453 
L 223.146421 188.405432 
L 221.776571 177.149682 
L 220.40672 176.853287 
L 219.03687 165.561065 
L 217.66702 156.586451 
L 216.297169 162.420651 
L 214.927319 169.282279 
L 213.557468 176.391571 
L 212.187618 184.236948 
L 210.817768 185.234337 
L 209.447917 182.052331 
L 208.078067 174.345401 
L 206.708216 147.663129 
L 205.338366 146.272186 
L 203.968516 147.822322 
L 202.598665 148.255379 
L 201.228815 147.011842 
L 199.858964 146.600035 
L 198.489114 154.453327 
L 197.119264 160.272607 
L 195.749413 160.046834 
L 194.379563 155.655542 
L 193.009712 150.130198 
L 191.639862 151.268189 
L 190.270012 146.595051 
L 188.900161 123.510834 
L 187.530311 96.320572 
L 186.16046 107.505532 
L 184.79061 111.673948 
L 183.420759 111.419347 
L 182.050909 112.75654 
L 180.681059 65.641773 
L 179.311208 87.476661 
L 177.941358 77.924548 
L 176.571507 78.127353 
L 175.201657 77.687324 
L 173.831807 79.330578 
L 172.461956 83.594839 
L 171.092106 86.537534 
L 169.722255 87.863243 
L 168.352405 85.285578 
L 166.982555 89.38546 
L 165.612704 85.555906 
L 164.242854 75.401439 
L 162.873003 73.803987 
L 161.503153 80.002138 
L 160.133303 83.064454 
L 158.763452 83.626664 
L 157.393602 87.593353 
L 156.023751 75.851807 
L 154.653901 80.373902 
L 153.284051 92.391602 
L 151.9142 98.961955 
L 150.54435 93.741694 
L 149.174499 97.456745 
L 147.804649 99.086157 
L 146.434799 93.463317 
L 145.064948 109.927642 
L 143.695098 105.136835 
L 142.325247 102.384384 
L 140.955397 103.73131 
L 139.585547 103.015632 
L 138.215696 97.166345 
L 136.845846 101.721916 
L 135.475995 106.903617 
L 134.106145 103.753301 
L 132.736295 100.598776 
L 131.366444 99.218375 
L 129.996594 95.045109 
L 128.626743 96.107361 
L 127.256893 95.018942 
L 125.887043 97.679353 
L 124.517192 100.967712 
L 123.147342 104.347505 
L 121.777491 103.370962 
L 120.407641 116.276532 
L 119.037791 123.352988 
L 117.66794 128.887021 
L 116.29809 119.370303 
L 114.928239 122.816946 
L 113.558389 112.018737 
L 112.188539 101.438218 
L 110.818688 75.079214 
L 109.448838 63.321436 
L 108.078987 57.751301 
L 106.709137 54.163955 
L 105.339287 53.905346 
L 103.969436 55.235131 
L 102.599586 59.022352 
L 101.229735 54.297081 
L 99.859885 56.909636 
L 98.490035 56.607887 
L 97.120184 65.477293 
L 95.750334 68.251903 
L 94.380483 68.1341 
L 93.010633 69.82046 
L 91.640783 68.030071 
L 90.270932 67.570644 
L 88.901082 73.310176 
L 87.531231 77.212608 
L 86.161381 83.617235 
L 84.79153 87.962625 
L 83.42168 93.071481 
L 82.05183 91.49336 
L 80.681979 93.876404 
L 79.312129 93.125399 
L 77.942278 88.668065 
L 76.572428 87.204985 
L 75.202578 93.260681 
L 73.832727 91.643628 
z
" style="fill:#008000;fill-opacity:0.4;"/>
   </g>
   <g id="matplotlib.axis_1">
    <g id="xtick_1">
     <g id="line2d_1">
      <defs>
       <path d="M 0 0 
L 0 3.5 
" id="m4db411c6f4" style="stroke:#000000;stroke-width:0.8;"/>
      </defs>
      <g>
       <use style="stroke:#000000;stroke-width:0.8;" x="73.832727" xlink:href="#m4db411c6f4" y="307.584"/>
      </g>
     </g>
     <g id="text_1">
      <!-- 0 -->
      <defs>
       <path d="M 31.78125 66.40625 
Q 24.171875 66.40625 20.328125 58.90625 
Q 16.5 51.421875 16.5 36.375 
Q 16.5 21.390625 20.328125 13.890625 
Q 24.171875 6.390625 31.78125 6.390625 
Q 39.453125 6.390625 43.28125 13.890625 
Q 47.125 21.390625 47.125 36.375 
Q 47.125 51.421875 43.28125 58.90625 
Q 39.453125 66.40625 31.78125 66.40625 
z
M 31.78125 74.21875 
Q 44.046875 74.21875 50.515625 64.515625 
Q 56.984375 54.828125 56.984375 36.375 
Q 56.984375 17.96875 50.515625 8.265625 
Q 44.046875 -1.421875 31.78125 -1.421875 
Q 19.53125 -1.421875 13.0625 8.265625 
Q 6.59375 17.96875 6.59375 36.375 
Q 6.59375 54.828125 13.0625 64.515625 
Q 19.53125 74.21875 31.78125 74.21875 
z
" id="DejaVuSans-30"/>
      </defs>
      <g transform="translate(70.651477 322.182437)scale(0.1 -0.1)">
       <use xlink:href="#DejaVuSans-30"/>
      </g>
     </g>
    </g>
    <g id="xtick_2">
     <g id="line2d_2">
      <g>
       <use style="stroke:#000000;stroke-width:0.8;" x="142.325247" xlink:href="#m4db411c6f4" y="307.584"/>
      </g>
     </g>
     <g id="text_2">
      <!-- 50 -->
      <defs>
       <path d="M 10.796875 72.90625 
L 49.515625 72.90625 
L 49.515625 64.59375 
L 19.828125 64.59375 
L 19.828125 46.734375 
Q 21.96875 47.46875 24.109375 47.828125 
Q 26.265625 48.1875 28.421875 48.1875 
Q 40.625 48.1875 47.75 41.5 
Q 54.890625 34.8125 54.890625 23.390625 
Q 54.890625 11.625 47.5625 5.09375 
Q 40.234375 -1.421875 26.90625 -1.421875 
Q 22.3125 -1.421875 17.546875 -0.640625 
Q 12.796875 0.140625 7.71875 1.703125 
L 7.71875 11.625 
Q 12.109375 9.234375 16.796875 8.0625 
Q 21.484375 6.890625 26.703125 6.890625 
Q 35.15625 6.890625 40.078125 11.328125 
Q 45.015625 15.765625 45.015625 23.390625 
Q 45.015625 31 40.078125 35.4375 
Q 35.15625 39.890625 26.703125 39.890625 
Q 22.75 39.890625 18.8125 39.015625 
Q 14.890625 38.140625 10.796875 36.28125 
z
" id="DejaVuSans-35"/>
      </defs>
      <g transform="translate(135.962747 322.182437)scale(0.1 -0.1)">
       <use xlink:href="#DejaVuSans-35"/>
       <use x="63.623047" xlink:href="#DejaVuSans-30"/>
      </g>
     </g>
    </g>
    <g id="xtick_3">
     <g id="line2d_3">
      <g>
       <use style="stroke:#000000;stroke-width:0.8;" x="210.817768" xlink:href="#m4db411c6f4" y="307.584"/>
      </g>
     </g>
     <g id="text_3">
      <!-- 100 -->
      <defs>
       <path d="M 12.40625 8.296875 
L 28.515625 8.296875 
L 28.515625 63.921875 
L 10.984375 60.40625 
L 10.984375 69.390625 
L 28.421875 72.90625 
L 38.28125 72.90625 
L 38.28125 8.296875 
L 54.390625 8.296875 
L 54.390625 0 
L 12.40625 0 
z
" id="DejaVuSans-31"/>
      </defs>
      <g transform="translate(201.274018 322.182437)scale(0.1 -0.1)">
       <use xlink:href="#DejaVuSans-31"/>
       <use x="63.623047" xlink:href="#DejaVuSans-30"/>
       <use x="127.246094" xlink:href="#DejaVuSans-30"/>
      </g>
     </g>
    </g>
    <g id="xtick_4">
     <g id="line2d_4">
      <g>
       <use style="stroke:#000000;stroke-width:0.8;" x="279.310288" xlink:href="#m4db411c6f4" y="307.584"/>
      </g>
     </g>
     <g id="text_4">
      <!-- 150 -->
      <g transform="translate(269.766538 322.182437)scale(0.1 -0.1)">
       <use xlink:href="#DejaVuSans-31"/>
       <use x="63.623047" xlink:href="#DejaVuSans-35"/>
       <use x="127.246094" xlink:href="#DejaVuSans-30"/>
      </g>
     </g>
    </g>
    <g id="xtick_5">
     <g id="line2d_5">
      <g>
       <use style="stroke:#000000;stroke-width:0.8;" x="347.802808" xlink:href="#m4db411c6f4" y="307.584"/>
      </g>
     </g>
     <g id="text_5">
      <!-- 200 -->
      <defs>
       <path d="M 19.1875 8.296875 
L 53.609375 8.296875 
L 53.609375 0 
L 7.328125 0 
L 7.328125 8.296875 
Q 12.9375 14.109375 22.625 23.890625 
Q 32.328125 33.6875 34.8125 36.53125 
Q 39.546875 41.84375 41.421875 45.53125 
Q 43.3125 49.21875 43.3125 52.78125 
Q 43.3125 58.59375 39.234375 62.25 
Q 35.15625 65.921875 28.609375 65.921875 
Q 23.96875 65.921875 18.8125 64.3125 
Q 13.671875 62.703125 7.8125 59.421875 
L 7.8125 69.390625 
Q 13.765625 71.78125 18.9375 73 
Q 24.125 74.21875 28.421875 74.21875 
Q 39.75 74.21875 46.484375 68.546875 
Q 53.21875 62.890625 53.21875 53.421875 
Q 53.21875 48.921875 51.53125 44.890625 
Q 49.859375 40.875 45.40625 35.40625 
Q 44.1875 33.984375 37.640625 27.21875 
Q 31.109375 20.453125 19.1875 8.296875 
z
" id="DejaVuSans-32"/>
      </defs>
      <g transform="translate(338.259058 322.182437)scale(0.1 -0.1)">
       <use xlink:href="#DejaVuSans-32"/>
       <use x="63.623047" xlink:href="#DejaVuSans-30"/>
       <use x="127.246094" xlink:href="#DejaVuSans-30"/>
      </g>
     </g>
    </g>
   </g>
   <g id="matplotlib.axis_2">
    <g id="ytick_1">
     <g id="line2d_6">
      <defs>
       <path d="M 0 0 
L -3.5 0 
" id="mdf0d989836" style="stroke:#000000;stroke-width:0.8;"/>
      </defs>
      <g>
       <use style="stroke:#000000;stroke-width:0.8;" x="57.6" xlink:href="#mdf0d989836" y="279.388873"/>
      </g>
     </g>
     <g id="text_6">
      <!-- 0.3 -->
      <defs>
       <path d="M 10.6875 12.40625 
L 21 12.40625 
L 21 0 
L 10.6875 0 
z
" id="DejaVuSans-2e"/>
       <path d="M 40.578125 39.3125 
Q 47.65625 37.796875 51.625 33 
Q 55.609375 28.21875 55.609375 21.1875 
Q 55.609375 10.40625 48.1875 4.484375 
Q 40.765625 -1.421875 27.09375 -1.421875 
Q 22.515625 -1.421875 17.65625 -0.515625 
Q 12.796875 0.390625 7.625 2.203125 
L 7.625 11.71875 
Q 11.71875 9.328125 16.59375 8.109375 
Q 21.484375 6.890625 26.8125 6.890625 
Q 36.078125 6.890625 40.9375 10.546875 
Q 45.796875 14.203125 45.796875 21.1875 
Q 45.796875 27.640625 41.28125 31.265625 
Q 36.765625 34.90625 28.71875 34.90625 
L 20.21875 34.90625 
L 20.21875 43.015625 
L 29.109375 43.015625 
Q 36.375 43.015625 40.234375 45.921875 
Q 44.09375 48.828125 44.09375 54.296875 
Q 44.09375 59.90625 40.109375 62.90625 
Q 36.140625 65.921875 28.71875 65.921875 
Q 24.65625 65.921875 20.015625 65.03125 
Q 15.375 64.15625 9.8125 62.3125 
L 9.8125 71.09375 
Q 15.4375 72.65625 20.34375 73.4375 
Q 25.25 74.21875 29.59375 74.21875 
Q 40.828125 74.21875 47.359375 69.109375 
Q 53.90625 64.015625 53.90625 55.328125 
Q 53.90625 49.265625 50.4375 45.09375 
Q 46.96875 40.921875 40.578125 39.3125 
z
" id="DejaVuSans-33"/>
      </defs>
      <g transform="translate(34.696875 283.188091)scale(0.1 -0.1)">
       <use xlink:href="#DejaVuSans-30"/>
       <use x="63.623047" xlink:href="#DejaVuSans-2e"/>
       <use x="95.410156" xlink:href="#DejaVuSans-33"/>
      </g>
     </g>
    </g>
    <g id="ytick_2">
     <g id="line2d_7">
      <g>
       <use style="stroke:#000000;stroke-width:0.8;" x="57.6" xlink:href="#mdf0d989836" y="245.711508"/>
      </g>
     </g>
     <g id="text_7">
      <!-- 0.4 -->
      <defs>
       <path d="M 37.796875 64.3125 
L 12.890625 25.390625 
L 37.796875 25.390625 
z
M 35.203125 72.90625 
L 47.609375 72.90625 
L 47.609375 25.390625 
L 58.015625 25.390625 
L 58.015625 17.1875 
L 47.609375 17.1875 
L 47.609375 0 
L 37.796875 0 
L 37.796875 17.1875 
L 4.890625 17.1875 
L 4.890625 26.703125 
z
" id="DejaVuSans-34"/>
      </defs>
      <g transform="translate(34.696875 249.510727)scale(0.1 -0.1)">
       <use xlink:href="#DejaVuSans-30"/>
       <use x="63.623047" xlink:href="#DejaVuSans-2e"/>
       <use x="95.410156" xlink:href="#DejaVuSans-34"/>
      </g>
     </g>
    </g>
    <g id="ytick_3">
     <g id="line2d_8">
      <g>
       <use style="stroke:#000000;stroke-width:0.8;" x="57.6" xlink:href="#mdf0d989836" y="212.034144"/>
      </g>
     </g>
     <g id="text_8">
      <!-- 0.5 -->
      <g transform="translate(34.696875 215.833363)scale(0.1 -0.1)">
       <use xlink:href="#DejaVuSans-30"/>
       <use x="63.623047" xlink:href="#DejaVuSans-2e"/>
       <use x="95.410156" xlink:href="#DejaVuSans-35"/>
      </g>
     </g>
    </g>
    <g id="ytick_4">
     <g id="line2d_9">
      <g>
       <use style="stroke:#000000;stroke-width:0.8;" x="57.6" xlink:href="#mdf0d989836" y="178.35678"/>
      </g>
     </g>
     <g id="text_9">
      <!-- 0.6 -->
      <defs>
       <path d="M 33.015625 40.375 
Q 26.375 40.375 22.484375 35.828125 
Q 18.609375 31.296875 18.609375 23.390625 
Q 18.609375 15.53125 22.484375 10.953125 
Q 26.375 6.390625 33.015625 6.390625 
Q 39.65625 6.390625 43.53125 10.953125 
Q 47.40625 15.53125 47.40625 23.390625 
Q 47.40625 31.296875 43.53125 35.828125 
Q 39.65625 40.375 33.015625 40.375 
z
M 52.59375 71.296875 
L 52.59375 62.3125 
Q 48.875 64.0625 45.09375 64.984375 
Q 41.3125 65.921875 37.59375 65.921875 
Q 27.828125 65.921875 22.671875 59.328125 
Q 17.53125 52.734375 16.796875 39.40625 
Q 19.671875 43.65625 24.015625 45.921875 
Q 28.375 48.1875 33.59375 48.1875 
Q 44.578125 48.1875 50.953125 41.515625 
Q 57.328125 34.859375 57.328125 23.390625 
Q 57.328125 12.15625 50.6875 5.359375 
Q 44.046875 -1.421875 33.015625 -1.421875 
Q 20.359375 -1.421875 13.671875 8.265625 
Q 6.984375 17.96875 6.984375 36.375 
Q 6.984375 53.65625 15.1875 63.9375 
Q 23.390625 74.21875 37.203125 74.21875 
Q 40.921875 74.21875 44.703125 73.484375 
Q 48.484375 72.75 52.59375 71.296875 
z
" id="DejaVuSans-36"/>
      </defs>
      <g transform="translate(34.696875 182.155998)scale(0.1 -0.1)">
       <use xlink:href="#DejaVuSans-30"/>
       <use x="63.623047" xlink:href="#DejaVuSans-2e"/>
       <use x="95.410156" xlink:href="#DejaVuSans-36"/>
      </g>
     </g>
    </g>
    <g id="ytick_5">
     <g id="line2d_10">
      <g>
       <use style="stroke:#000000;stroke-width:0.8;" x="57.6" xlink:href="#mdf0d989836" y="144.679415"/>
      </g>
     </g>
     <g id="text_10">
      <!-- 0.7 -->
      <defs>
       <path d="M 8.203125 72.90625 
L 55.078125 72.90625 
L 55.078125 68.703125 
L 28.609375 0 
L 18.3125 0 
L 43.21875 64.59375 
L 8.203125 64.59375 
z
" id="DejaVuSans-37"/>
      </defs>
      <g transform="translate(34.696875 148.478634)scale(0.1 -0.1)">
       <use xlink:href="#DejaVuSans-30"/>
       <use x="63.623047" xlink:href="#DejaVuSans-2e"/>
       <use x="95.410156" xlink:href="#DejaVuSans-37"/>
      </g>
     </g>
    </g>
    <g id="ytick_6">
     <g id="line2d_11">
      <g>
       <use style="stroke:#000000;stroke-width:0.8;" x="57.6" xlink:href="#mdf0d989836" y="111.002051"/>
      </g>
     </g>
     <g id="text_11">
      <!-- 0.8 -->
      <defs>
       <path d="M 31.78125 34.625 
Q 24.75 34.625 20.71875 30.859375 
Q 16.703125 27.09375 16.703125 20.515625 
Q 16.703125 13.921875 20.71875 10.15625 
Q 24.75 6.390625 31.78125 6.390625 
Q 38.8125 6.390625 42.859375 10.171875 
Q 46.921875 13.96875 46.921875 20.515625 
Q 46.921875 27.09375 42.890625 30.859375 
Q 38.875 34.625 31.78125 34.625 
z
M 21.921875 38.8125 
Q 15.578125 40.375 12.03125 44.71875 
Q 8.5 49.078125 8.5 55.328125 
Q 8.5 64.0625 14.71875 69.140625 
Q 20.953125 74.21875 31.78125 74.21875 
Q 42.671875 74.21875 48.875 69.140625 
Q 55.078125 64.0625 55.078125 55.328125 
Q 55.078125 49.078125 51.53125 44.71875 
Q 48 40.375 41.703125 38.8125 
Q 48.828125 37.15625 52.796875 32.3125 
Q 56.78125 27.484375 56.78125 20.515625 
Q 56.78125 9.90625 50.3125 4.234375 
Q 43.84375 -1.421875 31.78125 -1.421875 
Q 19.734375 -1.421875 13.25 4.234375 
Q 6.78125 9.90625 6.78125 20.515625 
Q 6.78125 27.484375 10.78125 32.3125 
Q 14.796875 37.15625 21.921875 38.8125 
z
M 18.3125 54.390625 
Q 18.3125 48.734375 21.84375 45.5625 
Q 25.390625 42.390625 31.78125 42.390625 
Q 38.140625 42.390625 41.71875 45.5625 
Q 45.3125 48.734375 45.3125 54.390625 
Q 45.3125 60.0625 41.71875 63.234375 
Q 38.140625 66.40625 31.78125 66.40625 
Q 25.390625 66.40625 21.84375 63.234375 
Q 18.3125 60.0625 18.3125 54.390625 
z
" id="DejaVuSans-38"/>
      </defs>
      <g transform="translate(34.696875 114.80127)scale(0.1 -0.1)">
       <use xlink:href="#DejaVuSans-30"/>
       <use x="63.623047" xlink:href="#DejaVuSans-2e"/>
       <use x="95.410156" xlink:href="#DejaVuSans-38"/>
      </g>
     </g>
    </g>
    <g id="ytick_7">
     <g id="line2d_12">
      <g>
       <use style="stroke:#000000;stroke-width:0.8;" x="57.6" xlink:href="#mdf0d989836" y="77.324686"/>
      </g>
     </g>
     <g id="text_12">
      <!-- 0.9 -->
      <defs>
       <path d="M 10.984375 1.515625 
L 10.984375 10.5 
Q 14.703125 8.734375 18.5 7.8125 
Q 22.3125 6.890625 25.984375 6.890625 
Q 35.75 6.890625 40.890625 13.453125 
Q 46.046875 20.015625 46.78125 33.40625 
Q 43.953125 29.203125 39.59375 26.953125 
Q 35.25 24.703125 29.984375 24.703125 
Q 19.046875 24.703125 12.671875 31.3125 
Q 6.296875 37.9375 6.296875 49.421875 
Q 6.296875 60.640625 12.9375 67.421875 
Q 19.578125 74.21875 30.609375 74.21875 
Q 43.265625 74.21875 49.921875 64.515625 
Q 56.59375 54.828125 56.59375 36.375 
Q 56.59375 19.140625 48.40625 8.859375 
Q 40.234375 -1.421875 26.421875 -1.421875 
Q 22.703125 -1.421875 18.890625 -0.6875 
Q 15.09375 0.046875 10.984375 1.515625 
z
M 30.609375 32.421875 
Q 37.25 32.421875 41.125 36.953125 
Q 45.015625 41.5 45.015625 49.421875 
Q 45.015625 57.28125 41.125 61.84375 
Q 37.25 66.40625 30.609375 66.40625 
Q 23.96875 66.40625 20.09375 61.84375 
Q 16.21875 57.28125 16.21875 49.421875 
Q 16.21875 41.5 20.09375 36.953125 
Q 23.96875 32.421875 30.609375 32.421875 
z
" id="DejaVuSans-39"/>
      </defs>
      <g transform="translate(34.696875 81.123905)scale(0.1 -0.1)">
       <use xlink:href="#DejaVuSans-30"/>
       <use x="63.623047" xlink:href="#DejaVuSans-2e"/>
       <use x="95.410156" xlink:href="#DejaVuSans-39"/>
      </g>
     </g>
    </g>
    <g id="ytick_8">
     <g id="line2d_13">
      <g>
       <use style="stroke:#000000;stroke-width:0.8;" x="57.6" xlink:href="#mdf0d989836" y="43.647322"/>
      </g>
     </g>
     <g id="text_13">
      <!-- 1.0 -->
      <g transform="translate(34.696875 47.446541)scale(0.1 -0.1)">
       <use xlink:href="#DejaVuSans-31"/>
       <use x="63.623047" xlink:href="#DejaVuSans-2e"/>
       <use x="95.410156" xlink:href="#DejaVuSans-30"/>
      </g>
     </g>
    </g>
   </g>
   <g id="line2d_14">
    <path clip-path="url(#pb939dbe17d)" d="M 73.832727 92.405859 
L 75.202578 93.960294 
L 76.572428 90.922259 
L 77.942278 93.049321 
L 79.312129 95.568613 
L 80.681979 94.589275 
L 82.05183 92.956821 
L 83.42168 94.63575 
L 84.79153 92.946156 
L 86.161381 85.15995 
L 87.531231 80.027744 
L 88.901082 74.047879 
L 90.270932 70.856275 
L 91.640783 69.480442 
L 93.010633 71.378274 
L 94.380483 70.374015 
L 95.750334 71.893875 
L 98.490035 59.864208 
L 99.859885 59.646652 
L 101.229735 56.790812 
L 102.599586 61.075134 
L 103.969436 58.207618 
L 105.339287 56.161382 
L 106.709137 55.621758 
L 108.078987 58.886105 
L 109.448838 67.55028 
L 110.818688 75.392728 
L 112.188539 107.303041 
L 113.558389 114.236986 
L 114.928239 126.405965 
L 116.29809 123.322915 
L 117.66794 130.443993 
L 119.037791 125.160239 
L 120.407641 120.515682 
L 121.777491 108.426181 
L 123.147342 105.347621 
L 124.517192 103.831242 
L 125.887043 98.941738 
L 127.256893 95.718252 
L 128.626743 96.155721 
L 129.996594 96.108573 
L 131.366444 99.586098 
L 132.736295 100.738874 
L 134.106145 105.536102 
L 135.475995 108.009143 
L 136.845846 103.266697 
L 138.215696 99.756842 
L 139.585547 104.64455 
L 140.955397 104.015569 
L 142.325247 103.82967 
L 143.695098 106.728281 
L 145.064948 111.333548 
L 146.434799 97.485079 
L 147.804649 99.367868 
L 149.174499 98.681075 
L 150.54435 94.645404 
L 151.9142 100.117302 
L 153.284051 94.387211 
L 154.653901 84.491903 
L 156.023751 78.259682 
L 157.393602 90.020267 
L 158.763452 87.311035 
L 160.133303 84.900073 
L 162.873003 77.371273 
L 164.242854 78.21781 
L 165.612704 85.970901 
L 166.982555 90.227944 
L 168.352405 86.893885 
L 169.722255 88.707411 
L 171.092106 87.516579 
L 172.461956 85.536238 
L 173.831807 83.983263 
L 175.201657 77.959056 
L 176.571507 78.602181 
L 177.941358 80.674462 
L 179.311208 90.807868 
L 180.681059 86.725049 
L 182.050909 117.791632 
L 183.420759 113.295928 
L 184.79061 116.544335 
L 186.16046 112.982055 
L 187.530311 103.379292 
L 188.900161 127.925937 
L 190.270012 150.279512 
L 191.639862 152.879292 
L 193.009712 154.791717 
L 194.379563 157.838059 
L 195.749413 161.315472 
L 197.119264 162.187603 
L 198.489114 155.984345 
L 199.858964 147.717113 
L 201.228815 147.805236 
L 202.598665 151.086421 
L 203.968516 149.082169 
L 205.338366 150.155804 
L 206.708216 148.948695 
L 208.078067 176.897203 
L 209.447917 185.441262 
L 210.817768 187.103352 
L 212.187618 185.127389 
L 214.927319 171.18496 
L 216.297169 165.281655 
L 217.66702 158.576716 
L 219.03687 169.011872 
L 220.40672 178.498 
L 221.776571 179.95275 
L 223.146421 188.842451 
L 224.516272 190.820884 
L 225.886122 189.79698 
L 227.255972 185.549928 
L 228.625823 187.375802 
L 229.995673 186.97347 
L 231.365524 190.214692 
L 232.735374 188.139942 
L 234.105224 179.814336 
L 235.475075 187.433166 
L 236.844925 188.462908 
L 238.214776 186.943048 
L 239.584626 187.08034 
L 240.954476 180.955662 
L 242.324327 181.049846 
L 243.694177 178.031119 
L 245.064028 167.148728 
L 246.433878 164.898743 
L 247.803728 167.55005 
L 249.173579 186.025564 
L 250.543429 231.114504 
L 251.91328 229.616871 
L 253.28313 210.598029 
L 254.65298 215.477318 
L 256.022831 216.898502 
L 257.392681 232.342493 
L 258.762532 245.006753 
L 260.132382 252.277023 
L 261.502232 254.163853 
L 262.872083 260.081864 
L 264.241933 268.200466 
L 265.611784 265.657601 
L 266.981634 262.082973 
L 268.351484 259.363751 
L 269.721335 250.835407 
L 271.091185 243.081306 
L 272.461036 252.130975 
L 273.830886 248.620222 
L 275.200736 247.967667 
L 276.570587 243.479822 
L 277.940437 244.911222 
L 279.310288 242.613191 
L 282.049988 221.786772 
L 283.419839 224.078404 
L 284.789689 216.352929 
L 286.15954 212.117215 
L 287.52939 213.900094 
L 288.899241 217.903772 
L 290.269091 219.511529 
L 291.638941 220.43036 
L 293.008792 218.256374 
L 294.378642 205.317306 
L 295.748493 199.723496 
L 297.118343 204.09841 
L 298.488193 196.448372 
L 299.858044 187.463588 
L 301.227894 185.666564 
L 302.597745 190.603329 
L 303.967595 197.681974 
L 305.337445 190.382405 
L 306.707296 193.530228 
L 308.077146 189.818534 
L 309.446997 191.370499 
L 312.186697 186.387708 
L 313.556548 183.57026 
L 314.926398 187.923621 
L 316.296249 216.964398 
L 317.666099 227.034042 
L 319.035949 225.106462 
L 320.4058 225.488476 
L 321.77565 225.216587 
L 323.145501 227.559746 
L 324.515351 232.955309 
L 325.885201 228.672221 
L 327.255052 232.069482 
L 328.624902 236.976723 
L 329.994753 229.364291 
L 331.364603 231.736637 
L 332.734453 232.221254 
L 334.104304 226.358811 
L 335.474154 224.860056 
L 336.844005 224.577391 
L 338.213855 227.967466 
L 339.583705 222.850079 
L 340.953556 227.707365 
L 342.323406 231.5623 
L 343.693257 233.592933 
L 345.063107 232.447342 
L 346.432957 227.365652 
L 347.802808 232.528504 
L 349.172658 218.751319 
L 350.542509 216.182522 
L 351.912359 218.269508 
L 353.282209 218.165782 
L 354.65206 215.721366 
L 356.02191 209.625427 
L 358.761611 206.656318 
L 360.131461 202.255023 
L 361.501312 216.801961 
L 362.871162 241.827161 
L 364.241013 235.845837 
L 365.610863 236.89107 
L 366.980713 231.567128 
L 368.350564 229.957686 
L 369.720414 220.735701 
L 371.090265 223.073135 
L 372.460115 224.082221 
L 373.829965 220.008383 
L 375.199816 217.67645 
L 376.569666 214.596767 
L 377.939517 219.71393 
L 379.309367 216.796797 
L 380.679217 207.804155 
L 382.049068 221.706844 
L 383.418918 222.500058 
L 384.788769 234.230446 
L 386.158619 229.362832 
L 387.52847 251.165108 
L 388.89832 266.931616 
L 390.26817 281.348222 
L 391.638021 266.721357 
L 393.007871 277.225663 
L 394.377722 273.265654 
L 395.747572 278.423904 
L 397.117422 287.180019 
L 398.487273 286.635456 
L 398.487273 286.635456 
" style="fill:none;opacity:0.4;stroke:#1f77b4;stroke-linecap:square;stroke-width:1.5;"/>
   </g>
   <g id="line2d_15">
    <path clip-path="url(#pb939dbe17d)" d="M 73.832727 93.302777 
L 75.202578 94.516105 
L 76.572428 93.657905 
L 77.942278 99.374031 
L 79.312129 97.763984 
L 80.681979 95.336722 
L 82.05183 94.450064 
L 83.42168 96.68651 
L 84.79153 96.349905 
L 86.161381 86.51635 
L 87.531231 82.230973 
L 88.901082 74.825658 
L 90.270932 73.202476 
L 91.640783 71.226827 
L 93.010633 73.06056 
L 94.380483 73.592258 
L 95.750334 74.389906 
L 97.120184 66.173202 
L 98.490035 62.695879 
L 99.859885 62.98308 
L 101.229735 58.62863 
L 102.599586 63.022617 
L 103.969436 60.981533 
L 105.339287 57.871361 
L 106.709137 56.537199 
L 108.078987 59.568363 
L 109.448838 72.555264 
L 110.818688 75.856959 
L 112.188539 111.428878 
L 113.558389 116.465765 
L 114.928239 128.797339 
L 116.29809 128.985123 
L 117.66794 131.843726 
L 119.037791 126.625822 
L 120.407641 123.551449 
L 121.777491 111.918277 
L 123.147342 106.567685 
L 124.517192 105.579322 
L 125.887043 100.043504 
L 127.256893 96.50078 
L 128.626743 96.203139 
L 129.996594 97.279535 
L 131.366444 99.820627 
L 132.736295 100.957945 
L 134.106145 107.939061 
L 135.475995 108.846161 
L 136.845846 104.600725 
L 138.215696 101.415452 
L 139.585547 105.948695 
L 140.955397 104.404184 
L 142.325247 105.889692 
L 143.695098 108.009884 
L 145.064948 112.816149 
L 146.434799 100.633969 
L 147.804649 99.807526 
L 149.174499 99.476276 
L 150.54435 95.734249 
L 151.9142 101.72983 
L 153.284051 96.606459 
L 156.023751 81.456663 
L 157.393602 91.633323 
L 158.763452 90.604547 
L 160.133303 86.946208 
L 161.503153 82.170489 
L 162.873003 79.848333 
L 164.242854 79.89272 
L 165.612704 86.346684 
L 166.982555 90.786674 
L 168.352405 88.073457 
L 169.722255 89.854586 
L 172.461956 87.4675 
L 173.831807 86.931929 
L 175.201657 78.247446 
L 176.571507 79.300335 
L 177.941358 84.890609 
L 179.311208 95.819992 
L 180.681059 109.574972 
L 182.050909 120.780408 
L 183.420759 114.954056 
L 184.79061 124.096046 
L 186.16046 116.360793 
L 187.530311 110.744318 
L 188.900161 135.297945 
L 190.270012 152.84035 
L 191.639862 154.130025 
L 193.009712 160.774333 
L 194.379563 160.152278 
L 197.119264 164.244987 
L 198.489114 157.865282 
L 199.858964 149.507941 
L 201.228815 148.532779 
L 202.598665 153.655948 
L 203.968516 150.743563 
L 205.338366 154.826169 
L 206.708216 149.927561 
L 208.078067 180.802868 
L 209.447917 188.235496 
L 210.817768 188.617498 
L 212.187618 185.762129 
L 213.557468 179.641672 
L 214.927319 172.379317 
L 216.297169 167.474175 
L 217.66702 161.244738 
L 219.03687 173.855598 
L 220.40672 181.059354 
L 221.776571 183.500761 
L 223.146421 189.326541 
L 224.516272 191.47839 
L 225.886122 190.43557 
L 227.255972 187.954054 
L 228.625823 188.160193 
L 229.995673 188.116884 
L 231.365524 192.812182 
L 232.735374 188.962455 
L 234.105224 182.154778 
L 235.475075 188.556879 
L 236.844925 189.285051 
L 238.214776 190.186796 
L 239.584626 188.183801 
L 240.954476 184.221558 
L 242.324327 181.224037 
L 243.694177 181.810595 
L 245.064028 168.750817 
L 246.433878 169.0951 
L 247.803728 169.799496 
L 249.173579 206.138551 
L 250.543429 235.120314 
L 251.91328 233.669628 
L 253.28313 213.680832 
L 254.65298 216.031075 
L 256.022831 220.681144 
L 257.392681 237.828176 
L 258.762532 248.87388 
L 260.132382 253.060448 
L 261.502232 254.841408 
L 264.241933 270.735205 
L 265.611784 268.557121 
L 266.981634 263.829189 
L 268.351484 260.997058 
L 269.721335 252.114788 
L 271.091185 245.033617 
L 272.461036 255.123557 
L 273.830886 249.852578 
L 275.200736 248.05094 
L 276.570587 243.900575 
L 277.940437 247.151923 
L 279.310288 245.202138 
L 280.680138 237.472307 
L 282.049988 225.141071 
L 283.419839 226.386696 
L 284.789689 219.681061 
L 286.15954 215.344663 
L 287.52939 219.922393 
L 288.899241 220.126175 
L 290.269091 222.950426 
L 291.638941 221.552613 
L 293.008792 219.643309 
L 294.378642 208.455385 
L 295.748493 203.933761 
L 297.118343 206.636976 
L 298.488193 199.198623 
L 299.858044 189.032134 
L 301.227894 187.501228 
L 302.597745 194.196625 
L 303.967595 199.466391 
L 305.337445 193.384259 
L 306.707296 195.282282 
L 308.077146 192.914898 
L 309.446997 192.091049 
L 312.186697 187.899193 
L 313.556548 184.194313 
L 314.926398 190.506832 
L 316.296249 227.547925 
L 317.666099 227.93929 
L 319.035949 226.671404 
L 320.4058 226.044298 
L 321.77565 225.617336 
L 323.145501 229.229941 
L 324.515351 235.258661 
L 325.885201 230.140577 
L 327.255052 237.347836 
L 328.624902 238.61461 
L 329.994753 231.75544 
L 331.364603 232.496578 
L 332.734453 232.886629 
L 334.104304 227.013128 
L 335.474154 225.859679 
L 336.844005 227.62087 
L 338.213855 228.35864 
L 339.583705 225.119652 
L 340.953556 227.908441 
L 342.323406 233.80619 
L 343.693257 235.673936 
L 346.432957 230.096763 
L 347.802808 233.226838 
L 349.172658 221.830451 
L 350.542509 221.540658 
L 351.912359 219.350114 
L 353.282209 218.830842 
L 354.65206 217.706355 
L 356.02191 210.140634 
L 358.761611 206.776838 
L 360.131461 202.89239 
L 361.501312 248.213534 
L 362.871162 244.101798 
L 364.241013 239.57886 
L 365.610863 239.368175 
L 366.980713 232.768893 
L 368.350564 230.980053 
L 369.720414 223.043982 
L 371.090265 223.381025 
L 372.460115 227.30144 
L 373.829965 221.802802 
L 375.199816 220.477598 
L 376.569666 215.284212 
L 377.939517 225.76124 
L 379.309367 219.367356 
L 380.679217 211.299371 
L 382.049068 222.549598 
L 383.418918 225.600834 
L 384.788769 238.08207 
L 386.158619 235.72132 
L 387.52847 256.064132 
L 388.89832 271.566362 
L 390.26817 283.427395 
L 391.638021 270.838527 
L 393.007871 278.207437 
L 394.377722 275.022468 
L 397.117422 294.37594 
L 398.487273 291.420818 
L 398.487273 291.420818 
" style="fill:none;opacity:0.4;stroke:#ff7f0e;stroke-linecap:square;stroke-width:1.5;"/>
   </g>
   <g id="line2d_16">
    <path clip-path="url(#pb939dbe17d)" d="M 73.832727 91.643628 
L 75.202578 93.260681 
L 76.572428 87.204985 
L 77.942278 88.668065 
L 79.312129 93.125399 
L 80.681979 93.876404 
L 82.05183 91.49336 
L 83.42168 93.071481 
L 84.79153 87.962625 
L 86.161381 83.617235 
L 87.531231 77.212608 
L 88.901082 73.310176 
L 90.270932 67.570644 
L 91.640783 68.030071 
L 93.010633 69.82046 
L 94.380483 68.1341 
L 95.750334 68.251903 
L 97.120184 65.477293 
L 98.490035 56.607887 
L 99.859885 56.909636 
L 101.229735 54.297081 
L 102.599586 59.022352 
L 103.969436 55.235131 
L 105.339287 53.905346 
L 106.709137 54.163955 
L 108.078987 57.751301 
L 109.448838 63.321436 
L 110.818688 75.079214 
L 112.188539 101.438218 
L 114.928239 122.816946 
L 116.29809 119.370303 
L 117.66794 128.887021 
L 119.037791 123.352988 
L 120.407641 116.276532 
L 121.777491 103.370962 
L 123.147342 104.347505 
L 125.887043 97.679353 
L 127.256893 95.018942 
L 128.626743 96.107361 
L 129.996594 95.045109 
L 131.366444 99.218375 
L 132.736295 100.598776 
L 135.475995 106.903617 
L 136.845846 101.721916 
L 138.215696 97.166345 
L 139.585547 103.015632 
L 140.955397 103.73131 
L 142.325247 102.384384 
L 143.695098 105.136835 
L 145.064948 109.927642 
L 146.434799 93.463317 
L 147.804649 99.086157 
L 149.174499 97.456745 
L 150.54435 93.741694 
L 151.9142 98.961955 
L 153.284051 92.391602 
L 154.653901 80.373902 
L 156.023751 75.851807 
L 157.393602 87.593353 
L 158.763452 83.626664 
L 160.133303 83.064454 
L 161.503153 80.002138 
L 162.873003 73.803987 
L 164.242854 75.401439 
L 165.612704 85.555906 
L 166.982555 89.38546 
L 168.352405 85.285578 
L 169.722255 87.863243 
L 171.092106 86.537534 
L 172.461956 83.594839 
L 173.831807 79.330578 
L 175.201657 77.687324 
L 176.571507 78.127353 
L 177.941358 77.924548 
L 179.311208 87.476661 
L 180.681059 65.641773 
L 182.050909 112.75654 
L 183.420759 111.419347 
L 184.79061 111.673948 
L 186.16046 107.505532 
L 187.530311 96.320572 
L 188.900161 123.510834 
L 190.270012 146.595051 
L 191.639862 151.268189 
L 193.009712 150.130198 
L 194.379563 155.655542 
L 195.749413 160.046834 
L 197.119264 160.272607 
L 198.489114 154.453327 
L 199.858964 146.600035 
L 201.228815 147.011842 
L 202.598665 148.255379 
L 203.968516 147.822322 
L 205.338366 146.272186 
L 206.708216 147.663129 
L 208.078067 174.345401 
L 209.447917 182.052331 
L 210.817768 185.234337 
L 212.187618 184.236948 
L 213.557468 176.391571 
L 216.297169 162.420651 
L 217.66702 156.586451 
L 219.03687 165.561065 
L 220.40672 176.853287 
L 221.776571 177.149682 
L 223.146421 188.405432 
L 224.516272 189.820453 
L 225.886122 188.819158 
L 227.255972 181.98336 
L 228.625823 186.630466 
L 229.995673 186.28103 
L 231.365524 186.445645 
L 232.735374 186.811684 
L 234.105224 178.223316 
L 235.475075 186.503704 
L 236.844925 187.294617 
L 238.214776 182.380248 
L 239.584626 186.418265 
L 240.954476 178.476671 
L 242.324327 180.826071 
L 243.694177 172.538274 
L 245.064028 165.28976 
L 246.433878 161.838975 
L 247.803728 165.554026 
L 249.173579 173.625413 
L 250.543429 226.515411 
L 251.91328 222.870611 
L 253.28313 208.580934 
L 254.65298 214.889614 
L 256.022831 214.104561 
L 258.762532 242.633128 
L 260.132382 251.53163 
L 261.502232 253.311378 
L 262.872083 257.981183 
L 264.241933 266.326669 
L 265.611784 262.67675 
L 266.981634 260.650922 
L 268.351484 257.87456 
L 269.721335 249.609697 
L 271.091185 240.018889 
L 272.461036 250.245829 
L 273.830886 247.888817 
L 275.200736 247.890602 
L 276.570587 243.208607 
L 277.940437 243.539621 
L 279.310288 238.904707 
L 280.680138 222.64211 
L 282.049988 216.360069 
L 283.419839 222.384612 
L 284.789689 214.052866 
L 286.15954 209.798001 
L 287.52939 209.887178 
L 288.899241 216.323529 
L 290.269091 217.261006 
L 291.638941 218.612276 
L 293.008792 216.061317 
L 294.378642 201.511449 
L 295.748493 195.903225 
L 297.118343 202.534871 
L 298.488193 192.753583 
L 299.858044 185.93449 
L 301.227894 182.901742 
L 302.597745 184.621813 
L 303.967595 196.28873 
L 305.337445 186.773123 
L 306.707296 191.298991 
L 308.077146 187.134246 
L 309.446997 190.763184 
L 310.816847 187.717908 
L 312.186697 185.102221 
L 313.556548 183.012844 
L 314.926398 185.9322 
L 316.296249 208.142489 
L 317.666099 226.415928 
L 319.035949 223.979606 
L 320.4058 224.691882 
L 321.77565 224.859293 
L 323.145501 225.266957 
L 324.515351 229.349799 
L 325.885201 227.310264 
L 327.255052 228.639577 
L 328.624902 235.015948 
L 329.994753 227.150498 
L 331.364603 230.654359 
L 332.734453 231.659998 
L 334.104304 225.34428 
L 335.474154 223.474917 
L 336.844005 222.631602 
L 338.213855 227.582107 
L 339.583705 220.980873 
L 340.953556 227.400755 
L 342.323406 229.835628 
L 343.693257 231.890688 
L 345.063107 232.229415 
L 346.432957 223.379846 
L 347.802808 231.378254 
L 349.172658 213.693529 
L 350.542509 211.874614 
L 351.912359 217.49183 
L 353.282209 217.228675 
L 354.65206 212.637979 
L 356.02191 209.166483 
L 357.391761 207.362285 
L 358.761611 206.487078 
L 360.131461 201.241727 
L 361.501312 198.078076 
L 362.871162 238.091398 
L 364.241013 231.952352 
L 365.610863 232.974056 
L 366.980713 229.535159 
L 368.350564 228.667125 
L 369.720414 217.500957 
L 371.090265 222.885159 
L 372.460115 221.656272 
L 375.199816 213.157217 
L 376.569666 213.787522 
L 377.939517 210.100558 
L 379.309367 212.862001 
L 380.679217 205.394449 
L 382.049068 220.912575 
L 383.418918 220.024469 
L 384.788769 228.810355 
L 386.158619 225.023234 
L 387.52847 247.24009 
L 390.26817 279.233452 
L 391.638021 264.247698 
L 393.007871 275.928153 
L 394.377722 270.924909 
L 395.747572 273.563059 
L 397.117422 281.952933 
L 398.487273 280.399025 
L 398.487273 280.399025 
" style="fill:none;opacity:0.4;stroke:#2ca02c;stroke-linecap:square;stroke-width:1.5;"/>
   </g>
   <g id="line2d_17">
    <path clip-path="url(#pb939dbe17d)" d="M 73.832727 93.423814 
L 75.202578 94.555036 
L 76.572428 86.636141 
L 77.942278 100.385262 
L 79.312129 92.81459 
L 80.681979 95.425259 
L 82.05183 91.33548 
L 83.42168 96.991594 
L 84.79153 87.15814 
L 86.161381 83.416248 
L 87.531231 76.802687 
L 88.901082 73.23457 
L 90.270932 67.056458 
L 91.640783 69.057567 
L 93.010633 69.667127 
L 94.380483 74.10513 
L 95.750334 67.665345 
L 97.120184 65.402563 
L 98.490035 56.178669 
L 99.859885 56.700668 
L 101.229735 53.915887 
L 102.599586 61.225559 
L 103.969436 54.873335 
L 105.339287 53.568 
L 106.709137 53.915887 
L 108.078987 59.572337 
L 109.448838 73.23457 
L 110.818688 75.932464 
L 112.188539 111.611274 
L 113.558389 114.221944 
L 116.29809 129.885623 
L 117.66794 131.974293 
L 119.037791 123.09795 
L 120.407641 115.614503 
L 121.777491 102.561156 
L 123.147342 106.73816 
L 124.517192 100.472486 
L 125.887043 97.513593 
L 127.256893 95.599371 
L 128.626743 96.208258 
L 129.996594 97.426705 
L 131.366444 99.776375 
L 132.736295 100.994822 
L 134.106145 108.304494 
L 135.475995 106.73816 
L 138.215696 96.730594 
L 139.585547 106.042049 
L 140.955397 103.866491 
L 142.325247 106.216161 
L 143.695098 104.910826 
L 145.064948 109.783604 
L 146.434799 98.73204 
L 147.804649 99.079927 
L 149.174499 97.252593 
L 150.54435 94.380924 
L 151.9142 98.906152 
L 153.284051 92.205367 
L 154.653901 79.935356 
L 156.023751 81.937138 
L 157.393602 91.683367 
L 158.763452 83.155248 
L 160.133303 82.893912 
L 161.503153 81.327578 
L 162.873003 73.23457 
L 165.612704 86.026917 
L 166.982555 89.24681 
L 168.352405 87.506364 
L 169.722255 90.030146 
L 171.092106 87.332252 
L 172.461956 87.680476 
L 173.831807 78.543133 
L 175.201657 78.282134 
L 176.571507 79.413357 
L 177.941358 85.591806 
L 179.311208 96.643706 
L 180.681059 112.394273 
L 182.050909 111.872274 
L 183.420759 111.176163 
L 184.79061 125.360732 
L 186.16046 106.564048 
L 187.530311 111.611274 
L 188.900161 136.586408 
L 190.270012 152.946535 
L 191.639862 151.031976 
L 193.009712 161.648766 
L 194.379563 160.430318 
L 195.749413 161.996653 
L 197.119264 160.082431 
L 198.489114 154.338757 
L 199.858964 149.813866 
L 201.228815 147.899308 
L 202.598665 147.899308 
L 203.968516 148.508531 
L 205.338366 155.469979 
L 206.708216 149.987641 
L 208.078067 174.963112 
L 209.447917 188.45157 
L 210.817768 184.97034 
L 212.187618 185.492676 
L 213.557468 176.094334 
L 216.297169 161.996653 
L 217.66702 161.648766 
L 219.03687 174.614888 
L 220.40672 181.489448 
L 221.776571 184.01323 
L 223.146421 188.364345 
L 224.516272 191.497014 
L 225.886122 190.452679 
L 227.255972 181.40256 
L 228.625823 187.32001 
L 229.995673 186.275675 
L 231.365524 185.8409 
L 232.735374 188.973569 
L 234.105224 182.533783 
L 235.475075 188.712569 
L 236.844925 189.321456 
L 238.214776 181.663897 
L 239.584626 186.449787 
L 240.954476 184.709341 
L 242.324327 180.793337 
L 243.694177 171.655994 
L 245.064028 165.042434 
L 246.433878 169.741773 
L 247.803728 170.08966 
L 249.173579 209.597587 
L 250.543429 231.962051 
L 251.91328 221.693486 
L 253.28313 209.075587 
L 254.65298 214.818925 
L 256.022831 221.258374 
L 257.392681 238.749724 
L 258.762532 249.540625 
L 260.132382 251.454846 
L 261.502232 254.413739 
L 262.872083 263.202858 
L 264.241933 271.121753 
L 265.611784 262.332635 
L 266.981634 264.073081 
L 268.351484 261.201412 
L 269.721335 250.758735 
L 271.091185 244.667173 
L 272.461036 255.63185 
L 273.830886 247.887066 
L 275.200736 248.061178 
L 276.570587 243.971062 
L 277.940437 247.538842 
L 279.310288 238.314949 
L 280.680138 221.084599 
L 282.049988 215.428149 
L 283.419839 226.740712 
L 284.789689 220.214039 
L 286.15954 209.684474 
L 287.52939 220.910487 
L 288.899241 220.475039 
L 290.269091 223.521156 
L 291.638941 218.299818 
L 293.008792 215.689148 
L 294.378642 200.98258 
L 295.748493 204.463472 
L 297.118343 207.073805 
L 298.488193 192.193125 
L 301.227894 182.446895 
L 302.597745 183.578118 
L 303.967595 196.196016 
L 305.337445 186.275675 
L 306.707296 190.975014 
L 308.077146 193.324347 
L 309.446997 190.713678 
L 310.816847 187.58101 
L 312.186697 188.103009 
L 313.556548 184.274229 
L 314.926398 190.88779 
L 316.296249 229.003494 
L 317.666099 226.392825 
L 319.035949 226.914824 
L 320.4058 224.565154 
L 321.77565 224.826491 
L 323.145501 224.913378 
L 324.515351 228.742495 
L 325.885201 227.175824 
L 327.255052 238.227724 
L 328.624902 234.746832 
L 329.994753 232.049275 
L 331.364603 230.482941 
L 332.734453 231.614164 
L 334.104304 225.174378 
L 335.474154 223.25982 
L 336.844005 228.133271 
L 338.213855 227.959159 
L 339.583705 225.435378 
L 340.953556 227.349936 
L 342.323406 234.137609 
L 343.693257 235.965279 
L 345.063107 232.832274 
L 346.432957 222.737821 
L 347.802808 231.178715 
L 349.172658 212.817479 
L 350.542509 222.302709 
L 351.912359 219.518265 
L 353.282209 217.081371 
L 354.65206 212.121032 
L 356.02191 210.20681 
L 357.391761 207.248254 
L 358.761611 206.725918 
L 360.131461 201.069468 
L 361.501312 253.717628 
L 362.871162 237.444389 
L 364.241013 239.968171 
L 365.610863 232.310275 
L 366.980713 229.177606 
L 368.350564 228.481158 
L 369.720414 216.994483 
L 371.090265 223.434269 
L 372.460115 227.785047 
L 373.829965 216.994483 
L 375.199816 212.382368 
L 376.569666 215.341261 
L 377.939517 208.466364 
L 379.309367 212.208256 
L 380.679217 211.860032 
L 382.049068 222.650933 
L 383.418918 226.044601 
L 384.788769 227.959159 
L 386.158619 236.748278 
L 387.52847 256.763072 
L 388.89832 272.253313 
L 390.26817 283.652764 
L 391.638021 271.556865 
L 393.007871 275.733868 
L 394.377722 275.124982 
L 395.747572 286.089658 
L 397.117422 295.488 
L 398.487273 279.47576 
L 398.487273 279.47576 
" style="fill:none;stroke:#000000;stroke-linecap:square;stroke-width:1.5;"/>
   </g>
   <g id="patch_3">
    <path d="M 57.6 307.584 
L 57.6 41.472 
" style="fill:none;stroke:#000000;stroke-linecap:square;stroke-linejoin:miter;stroke-width:0.8;"/>
   </g>
   <g id="patch_4">
    <path d="M 414.72 307.584 
L 414.72 41.472 
" style="fill:none;stroke:#000000;stroke-linecap:square;stroke-linejoin:miter;stroke-width:0.8;"/>
   </g>
   <g id="patch_5">
    <path d="M 57.6 307.584 
L 414.72 307.584 
" style="fill:none;stroke:#000000;stroke-linecap:square;stroke-linejoin:miter;stroke-width:0.8;"/>
   </g>
   <g id="patch_6">
    <path d="M 57.6 41.472 
L 414.72 41.472 
" style="fill:none;stroke:#000000;stroke-linecap:square;stroke-linejoin:miter;stroke-width:0.8;"/>
   </g>
   <g id="text_14">
    <!-- Plot of Train Data for ACFinance -->
    <defs>
     <path d="M 19.671875 64.796875 
L 19.671875 37.40625 
L 32.078125 37.40625 
Q 38.96875 37.40625 42.71875 40.96875 
Q 46.484375 44.53125 46.484375 51.125 
Q 46.484375 57.671875 42.71875 61.234375 
Q 38.96875 64.796875 32.078125 64.796875 
z
M 9.8125 72.90625 
L 32.078125 72.90625 
Q 44.34375 72.90625 50.609375 67.359375 
Q 56.890625 61.8125 56.890625 51.125 
Q 56.890625 40.328125 50.609375 34.8125 
Q 44.34375 29.296875 32.078125 29.296875 
L 19.671875 29.296875 
L 19.671875 0 
L 9.8125 0 
z
" id="DejaVuSans-50"/>
     <path d="M 9.421875 75.984375 
L 18.40625 75.984375 
L 18.40625 0 
L 9.421875 0 
z
" id="DejaVuSans-6c"/>
     <path d="M 30.609375 48.390625 
Q 23.390625 48.390625 19.1875 42.75 
Q 14.984375 37.109375 14.984375 27.296875 
Q 14.984375 17.484375 19.15625 11.84375 
Q 23.34375 6.203125 30.609375 6.203125 
Q 37.796875 6.203125 41.984375 11.859375 
Q 46.1875 17.53125 46.1875 27.296875 
Q 46.1875 37.015625 41.984375 42.703125 
Q 37.796875 48.390625 30.609375 48.390625 
z
M 30.609375 56 
Q 42.328125 56 49.015625 48.375 
Q 55.71875 40.765625 55.71875 27.296875 
Q 55.71875 13.875 49.015625 6.21875 
Q 42.328125 -1.421875 30.609375 -1.421875 
Q 18.84375 -1.421875 12.171875 6.21875 
Q 5.515625 13.875 5.515625 27.296875 
Q 5.515625 40.765625 12.171875 48.375 
Q 18.84375 56 30.609375 56 
z
" id="DejaVuSans-6f"/>
     <path d="M 18.3125 70.21875 
L 18.3125 54.6875 
L 36.8125 54.6875 
L 36.8125 47.703125 
L 18.3125 47.703125 
L 18.3125 18.015625 
Q 18.3125 11.328125 20.140625 9.421875 
Q 21.96875 7.515625 27.59375 7.515625 
L 36.8125 7.515625 
L 36.8125 0 
L 27.59375 0 
Q 17.1875 0 13.234375 3.875 
Q 9.28125 7.765625 9.28125 18.015625 
L 9.28125 47.703125 
L 2.6875 47.703125 
L 2.6875 54.6875 
L 9.28125 54.6875 
L 9.28125 70.21875 
z
" id="DejaVuSans-74"/>
     <path id="DejaVuSans-20"/>
     <path d="M 37.109375 75.984375 
L 37.109375 68.5 
L 28.515625 68.5 
Q 23.6875 68.5 21.796875 66.546875 
Q 19.921875 64.59375 19.921875 59.515625 
L 19.921875 54.6875 
L 34.71875 54.6875 
L 34.71875 47.703125 
L 19.921875 47.703125 
L 19.921875 0 
L 10.890625 0 
L 10.890625 47.703125 
L 2.296875 47.703125 
L 2.296875 54.6875 
L 10.890625 54.6875 
L 10.890625 58.5 
Q 10.890625 67.625 15.140625 71.796875 
Q 19.390625 75.984375 28.609375 75.984375 
z
" id="DejaVuSans-66"/>
     <path d="M -0.296875 72.90625 
L 61.375 72.90625 
L 61.375 64.59375 
L 35.5 64.59375 
L 35.5 0 
L 25.59375 0 
L 25.59375 64.59375 
L -0.296875 64.59375 
z
" id="DejaVuSans-54"/>
     <path d="M 41.109375 46.296875 
Q 39.59375 47.171875 37.8125 47.578125 
Q 36.03125 48 33.890625 48 
Q 26.265625 48 22.1875 43.046875 
Q 18.109375 38.09375 18.109375 28.8125 
L 18.109375 0 
L 9.078125 0 
L 9.078125 54.6875 
L 18.109375 54.6875 
L 18.109375 46.1875 
Q 20.953125 51.171875 25.484375 53.578125 
Q 30.03125 56 36.53125 56 
Q 37.453125 56 38.578125 55.875 
Q 39.703125 55.765625 41.0625 55.515625 
z
" id="DejaVuSans-72"/>
     <path d="M 34.28125 27.484375 
Q 23.390625 27.484375 19.1875 25 
Q 14.984375 22.515625 14.984375 16.5 
Q 14.984375 11.71875 18.140625 8.90625 
Q 21.296875 6.109375 26.703125 6.109375 
Q 34.1875 6.109375 38.703125 11.40625 
Q 43.21875 16.703125 43.21875 25.484375 
L 43.21875 27.484375 
z
M 52.203125 31.203125 
L 52.203125 0 
L 43.21875 0 
L 43.21875 8.296875 
Q 40.140625 3.328125 35.546875 0.953125 
Q 30.953125 -1.421875 24.3125 -1.421875 
Q 15.921875 -1.421875 10.953125 3.296875 
Q 6 8.015625 6 15.921875 
Q 6 25.140625 12.171875 29.828125 
Q 18.359375 34.515625 30.609375 34.515625 
L 43.21875 34.515625 
L 43.21875 35.40625 
Q 43.21875 41.609375 39.140625 45 
Q 35.0625 48.390625 27.6875 48.390625 
Q 23 48.390625 18.546875 47.265625 
Q 14.109375 46.140625 10.015625 43.890625 
L 10.015625 52.203125 
Q 14.9375 54.109375 19.578125 55.046875 
Q 24.21875 56 28.609375 56 
Q 40.484375 56 46.34375 49.84375 
Q 52.203125 43.703125 52.203125 31.203125 
z
" id="DejaVuSans-61"/>
     <path d="M 9.421875 54.6875 
L 18.40625 54.6875 
L 18.40625 0 
L 9.421875 0 
z
M 9.421875 75.984375 
L 18.40625 75.984375 
L 18.40625 64.59375 
L 9.421875 64.59375 
z
" id="DejaVuSans-69"/>
     <path d="M 54.890625 33.015625 
L 54.890625 0 
L 45.90625 0 
L 45.90625 32.71875 
Q 45.90625 40.484375 42.875 44.328125 
Q 39.84375 48.1875 33.796875 48.1875 
Q 26.515625 48.1875 22.3125 43.546875 
Q 18.109375 38.921875 18.109375 30.90625 
L 18.109375 0 
L 9.078125 0 
L 9.078125 54.6875 
L 18.109375 54.6875 
L 18.109375 46.1875 
Q 21.34375 51.125 25.703125 53.5625 
Q 30.078125 56 35.796875 56 
Q 45.21875 56 50.046875 50.171875 
Q 54.890625 44.34375 54.890625 33.015625 
z
" id="DejaVuSans-6e"/>
     <path d="M 19.671875 64.796875 
L 19.671875 8.109375 
L 31.59375 8.109375 
Q 46.6875 8.109375 53.6875 14.9375 
Q 60.6875 21.78125 60.6875 36.53125 
Q 60.6875 51.171875 53.6875 57.984375 
Q 46.6875 64.796875 31.59375 64.796875 
z
M 9.8125 72.90625 
L 30.078125 72.90625 
Q 51.265625 72.90625 61.171875 64.09375 
Q 71.09375 55.28125 71.09375 36.53125 
Q 71.09375 17.671875 61.125 8.828125 
Q 51.171875 0 30.078125 0 
L 9.8125 0 
z
" id="DejaVuSans-44"/>
     <path d="M 34.1875 63.1875 
L 20.796875 26.90625 
L 47.609375 26.90625 
z
M 28.609375 72.90625 
L 39.796875 72.90625 
L 67.578125 0 
L 57.328125 0 
L 50.6875 18.703125 
L 17.828125 18.703125 
L 11.1875 0 
L 0.78125 0 
z
" id="DejaVuSans-41"/>
     <path d="M 64.40625 67.28125 
L 64.40625 56.890625 
Q 59.421875 61.53125 53.78125 63.8125 
Q 48.140625 66.109375 41.796875 66.109375 
Q 29.296875 66.109375 22.65625 58.46875 
Q 16.015625 50.828125 16.015625 36.375 
Q 16.015625 21.96875 22.65625 14.328125 
Q 29.296875 6.6875 41.796875 6.6875 
Q 48.140625 6.6875 53.78125 8.984375 
Q 59.421875 11.28125 64.40625 15.921875 
L 64.40625 5.609375 
Q 59.234375 2.09375 53.4375 0.328125 
Q 47.65625 -1.421875 41.21875 -1.421875 
Q 24.65625 -1.421875 15.125 8.703125 
Q 5.609375 18.84375 5.609375 36.375 
Q 5.609375 53.953125 15.125 64.078125 
Q 24.65625 74.21875 41.21875 74.21875 
Q 47.75 74.21875 53.53125 72.484375 
Q 59.328125 70.75 64.40625 67.28125 
z
" id="DejaVuSans-43"/>
     <path d="M 9.8125 72.90625 
L 51.703125 72.90625 
L 51.703125 64.59375 
L 19.671875 64.59375 
L 19.671875 43.109375 
L 48.578125 43.109375 
L 48.578125 34.8125 
L 19.671875 34.8125 
L 19.671875 0 
L 9.8125 0 
z
" id="DejaVuSans-46"/>
     <path d="M 48.78125 52.59375 
L 48.78125 44.1875 
Q 44.96875 46.296875 41.140625 47.34375 
Q 37.3125 48.390625 33.40625 48.390625 
Q 24.65625 48.390625 19.8125 42.84375 
Q 14.984375 37.3125 14.984375 27.296875 
Q 14.984375 17.28125 19.8125 11.734375 
Q 24.65625 6.203125 33.40625 6.203125 
Q 37.3125 6.203125 41.140625 7.25 
Q 44.96875 8.296875 48.78125 10.40625 
L 48.78125 2.09375 
Q 45.015625 0.34375 40.984375 -0.53125 
Q 36.96875 -1.421875 32.421875 -1.421875 
Q 20.0625 -1.421875 12.78125 6.34375 
Q 5.515625 14.109375 5.515625 27.296875 
Q 5.515625 40.671875 12.859375 48.328125 
Q 20.21875 56 33.015625 56 
Q 37.15625 56 41.109375 55.140625 
Q 45.0625 54.296875 48.78125 52.59375 
z
" id="DejaVuSans-63"/>
     <path d="M 56.203125 29.59375 
L 56.203125 25.203125 
L 14.890625 25.203125 
Q 15.484375 15.921875 20.484375 11.0625 
Q 25.484375 6.203125 34.421875 6.203125 
Q 39.59375 6.203125 44.453125 7.46875 
Q 49.3125 8.734375 54.109375 11.28125 
L 54.109375 2.78125 
Q 49.265625 0.734375 44.1875 -0.34375 
Q 39.109375 -1.421875 33.890625 -1.421875 
Q 20.796875 -1.421875 13.15625 6.1875 
Q 5.515625 13.8125 5.515625 26.8125 
Q 5.515625 40.234375 12.765625 48.109375 
Q 20.015625 56 32.328125 56 
Q 43.359375 56 49.78125 48.890625 
Q 56.203125 41.796875 56.203125 29.59375 
z
M 47.21875 32.234375 
Q 47.125 39.59375 43.09375 43.984375 
Q 39.0625 48.390625 32.421875 48.390625 
Q 24.90625 48.390625 20.390625 44.140625 
Q 15.875 39.890625 15.1875 32.171875 
z
" id="DejaVuSans-65"/>
    </defs>
    <g transform="translate(140.016563 35.472)scale(0.12 -0.12)">
     <use xlink:href="#DejaVuSans-50"/>
     <use x="60.302734" xlink:href="#DejaVuSans-6c"/>
     <use x="88.085938" xlink:href="#DejaVuSans-6f"/>
     <use x="149.267578" xlink:href="#DejaVuSans-74"/>
     <use x="188.476562" xlink:href="#DejaVuSans-20"/>
     <use x="220.263672" xlink:href="#DejaVuSans-6f"/>
     <use x="281.445312" xlink:href="#DejaVuSans-66"/>
     <use x="316.650391" xlink:href="#DejaVuSans-20"/>
     <use x="348.4375" xlink:href="#DejaVuSans-54"/>
     <use x="409.302734" xlink:href="#DejaVuSans-72"/>
     <use x="450.416016" xlink:href="#DejaVuSans-61"/>
     <use x="511.695312" xlink:href="#DejaVuSans-69"/>
     <use x="539.478516" xlink:href="#DejaVuSans-6e"/>
     <use x="602.857422" xlink:href="#DejaVuSans-20"/>
     <use x="634.644531" xlink:href="#DejaVuSans-44"/>
     <use x="711.646484" xlink:href="#DejaVuSans-61"/>
     <use x="772.925781" xlink:href="#DejaVuSans-74"/>
     <use x="812.134766" xlink:href="#DejaVuSans-61"/>
     <use x="873.414062" xlink:href="#DejaVuSans-20"/>
     <use x="905.201172" xlink:href="#DejaVuSans-66"/>
     <use x="940.40625" xlink:href="#DejaVuSans-6f"/>
     <use x="1001.587891" xlink:href="#DejaVuSans-72"/>
     <use x="1042.701172" xlink:href="#DejaVuSans-20"/>
     <use x="1074.488281" xlink:href="#DejaVuSans-41"/>
     <use x="1142.880859" xlink:href="#DejaVuSans-43"/>
     <use x="1212.705078" xlink:href="#DejaVuSans-46"/>
     <use x="1270.115234" xlink:href="#DejaVuSans-69"/>
     <use x="1297.898438" xlink:href="#DejaVuSans-6e"/>
     <use x="1361.277344" xlink:href="#DejaVuSans-61"/>
     <use x="1422.556641" xlink:href="#DejaVuSans-6e"/>
     <use x="1485.935547" xlink:href="#DejaVuSans-63"/>
     <use x="1540.916016" xlink:href="#DejaVuSans-65"/>
    </g>
   </g>
   <g id="legend_1">
    <g id="patch_7">
     <path d="M 277.843437 108.1845 
L 407.72 108.1845 
Q 409.72 108.1845 409.72 106.1845 
L 409.72 48.472 
Q 409.72 46.472 407.72 46.472 
L 277.843437 46.472 
Q 275.843437 46.472 275.843437 48.472 
L 275.843437 106.1845 
Q 275.843437 108.1845 277.843437 108.1845 
z
" style="fill:#ffffff;opacity:0.8;stroke:#cccccc;stroke-linejoin:miter;"/>
    </g>
    <g id="line2d_18">
     <path d="M 279.843437 54.570438 
L 299.843437 54.570438 
" style="fill:none;opacity:0.4;stroke:#1f77b4;stroke-linecap:square;stroke-width:1.5;"/>
    </g>
    <g id="line2d_19"/>
    <g id="text_15">
     <!-- pred. (mean) -->
     <defs>
      <path d="M 18.109375 8.203125 
L 18.109375 -20.796875 
L 9.078125 -20.796875 
L 9.078125 54.6875 
L 18.109375 54.6875 
L 18.109375 46.390625 
Q 20.953125 51.265625 25.265625 53.625 
Q 29.59375 56 35.59375 56 
Q 45.5625 56 51.78125 48.09375 
Q 58.015625 40.1875 58.015625 27.296875 
Q 58.015625 14.40625 51.78125 6.484375 
Q 45.5625 -1.421875 35.59375 -1.421875 
Q 29.59375 -1.421875 25.265625 0.953125 
Q 20.953125 3.328125 18.109375 8.203125 
z
M 48.6875 27.296875 
Q 48.6875 37.203125 44.609375 42.84375 
Q 40.53125 48.484375 33.40625 48.484375 
Q 26.265625 48.484375 22.1875 42.84375 
Q 18.109375 37.203125 18.109375 27.296875 
Q 18.109375 17.390625 22.1875 11.75 
Q 26.265625 6.109375 33.40625 6.109375 
Q 40.53125 6.109375 44.609375 11.75 
Q 48.6875 17.390625 48.6875 27.296875 
z
" id="DejaVuSans-70"/>
      <path d="M 45.40625 46.390625 
L 45.40625 75.984375 
L 54.390625 75.984375 
L 54.390625 0 
L 45.40625 0 
L 45.40625 8.203125 
Q 42.578125 3.328125 38.25 0.953125 
Q 33.9375 -1.421875 27.875 -1.421875 
Q 17.96875 -1.421875 11.734375 6.484375 
Q 5.515625 14.40625 5.515625 27.296875 
Q 5.515625 40.1875 11.734375 48.09375 
Q 17.96875 56 27.875 56 
Q 33.9375 56 38.25 53.625 
Q 42.578125 51.265625 45.40625 46.390625 
z
M 14.796875 27.296875 
Q 14.796875 17.390625 18.875 11.75 
Q 22.953125 6.109375 30.078125 6.109375 
Q 37.203125 6.109375 41.296875 11.75 
Q 45.40625 17.390625 45.40625 27.296875 
Q 45.40625 37.203125 41.296875 42.84375 
Q 37.203125 48.484375 30.078125 48.484375 
Q 22.953125 48.484375 18.875 42.84375 
Q 14.796875 37.203125 14.796875 27.296875 
z
" id="DejaVuSans-64"/>
      <path d="M 31 75.875 
Q 24.46875 64.65625 21.28125 53.65625 
Q 18.109375 42.671875 18.109375 31.390625 
Q 18.109375 20.125 21.3125 9.0625 
Q 24.515625 -2 31 -13.1875 
L 23.1875 -13.1875 
Q 15.875 -1.703125 12.234375 9.375 
Q 8.59375 20.453125 8.59375 31.390625 
Q 8.59375 42.28125 12.203125 53.3125 
Q 15.828125 64.359375 23.1875 75.875 
z
" id="DejaVuSans-28"/>
      <path d="M 52 44.1875 
Q 55.375 50.25 60.0625 53.125 
Q 64.75 56 71.09375 56 
Q 79.640625 56 84.28125 50.015625 
Q 88.921875 44.046875 88.921875 33.015625 
L 88.921875 0 
L 79.890625 0 
L 79.890625 32.71875 
Q 79.890625 40.578125 77.09375 44.375 
Q 74.3125 48.1875 68.609375 48.1875 
Q 61.625 48.1875 57.5625 43.546875 
Q 53.515625 38.921875 53.515625 30.90625 
L 53.515625 0 
L 44.484375 0 
L 44.484375 32.71875 
Q 44.484375 40.625 41.703125 44.40625 
Q 38.921875 48.1875 33.109375 48.1875 
Q 26.21875 48.1875 22.15625 43.53125 
Q 18.109375 38.875 18.109375 30.90625 
L 18.109375 0 
L 9.078125 0 
L 9.078125 54.6875 
L 18.109375 54.6875 
L 18.109375 46.1875 
Q 21.1875 51.21875 25.484375 53.609375 
Q 29.78125 56 35.6875 56 
Q 41.65625 56 45.828125 52.96875 
Q 50 49.953125 52 44.1875 
z
" id="DejaVuSans-6d"/>
      <path d="M 8.015625 75.875 
L 15.828125 75.875 
Q 23.140625 64.359375 26.78125 53.3125 
Q 30.421875 42.28125 30.421875 31.390625 
Q 30.421875 20.453125 26.78125 9.375 
Q 23.140625 -1.703125 15.828125 -13.1875 
L 8.015625 -13.1875 
Q 14.5 -2 17.703125 9.0625 
Q 20.90625 20.125 20.90625 31.390625 
Q 20.90625 42.671875 17.703125 53.65625 
Q 14.5 64.65625 8.015625 75.875 
z
" id="DejaVuSans-29"/>
     </defs>
     <g transform="translate(307.843437 58.070438)scale(0.1 -0.1)">
      <use xlink:href="#DejaVuSans-70"/>
      <use x="63.476562" xlink:href="#DejaVuSans-72"/>
      <use x="104.558594" xlink:href="#DejaVuSans-65"/>
      <use x="166.082031" xlink:href="#DejaVuSans-64"/>
      <use x="229.558594" xlink:href="#DejaVuSans-2e"/>
      <use x="261.345703" xlink:href="#DejaVuSans-20"/>
      <use x="293.132812" xlink:href="#DejaVuSans-28"/>
      <use x="332.146484" xlink:href="#DejaVuSans-6d"/>
      <use x="429.558594" xlink:href="#DejaVuSans-65"/>
      <use x="491.082031" xlink:href="#DejaVuSans-61"/>
      <use x="552.361328" xlink:href="#DejaVuSans-6e"/>
      <use x="615.740234" xlink:href="#DejaVuSans-29"/>
     </g>
    </g>
    <g id="line2d_20">
     <path d="M 279.843437 69.248563 
L 299.843437 69.248563 
" style="fill:none;opacity:0.4;stroke:#ff7f0e;stroke-linecap:square;stroke-width:1.5;"/>
    </g>
    <g id="line2d_21"/>
    <g id="text_16">
     <!-- pred.(5th percen.) -->
     <defs>
      <path d="M 54.890625 33.015625 
L 54.890625 0 
L 45.90625 0 
L 45.90625 32.71875 
Q 45.90625 40.484375 42.875 44.328125 
Q 39.84375 48.1875 33.796875 48.1875 
Q 26.515625 48.1875 22.3125 43.546875 
Q 18.109375 38.921875 18.109375 30.90625 
L 18.109375 0 
L 9.078125 0 
L 9.078125 75.984375 
L 18.109375 75.984375 
L 18.109375 46.1875 
Q 21.34375 51.125 25.703125 53.5625 
Q 30.078125 56 35.796875 56 
Q 45.21875 56 50.046875 50.171875 
Q 54.890625 44.34375 54.890625 33.015625 
z
" id="DejaVuSans-68"/>
     </defs>
     <g transform="translate(307.843437 72.748563)scale(0.1 -0.1)">
      <use xlink:href="#DejaVuSans-70"/>
      <use x="63.476562" xlink:href="#DejaVuSans-72"/>
      <use x="104.558594" xlink:href="#DejaVuSans-65"/>
      <use x="166.082031" xlink:href="#DejaVuSans-64"/>
      <use x="229.558594" xlink:href="#DejaVuSans-2e"/>
      <use x="261.345703" xlink:href="#DejaVuSans-28"/>
      <use x="300.359375" xlink:href="#DejaVuSans-35"/>
      <use x="363.982422" xlink:href="#DejaVuSans-74"/>
      <use x="403.191406" xlink:href="#DejaVuSans-68"/>
      <use x="466.570312" xlink:href="#DejaVuSans-20"/>
      <use x="498.357422" xlink:href="#DejaVuSans-70"/>
      <use x="561.833984" xlink:href="#DejaVuSans-65"/>
      <use x="623.357422" xlink:href="#DejaVuSans-72"/>
      <use x="664.439453" xlink:href="#DejaVuSans-63"/>
      <use x="719.419922" xlink:href="#DejaVuSans-65"/>
      <use x="780.943359" xlink:href="#DejaVuSans-6e"/>
      <use x="844.322266" xlink:href="#DejaVuSans-2e"/>
      <use x="876.109375" xlink:href="#DejaVuSans-29"/>
     </g>
    </g>
    <g id="line2d_22">
     <path d="M 279.843437 83.926688 
L 299.843437 83.926688 
" style="fill:none;opacity:0.4;stroke:#2ca02c;stroke-linecap:square;stroke-width:1.5;"/>
    </g>
    <g id="line2d_23"/>
    <g id="text_17">
     <!-- pred.(95th percen.) -->
     <g transform="translate(307.843437 87.426688)scale(0.1 -0.1)">
      <use xlink:href="#DejaVuSans-70"/>
      <use x="63.476562" xlink:href="#DejaVuSans-72"/>
      <use x="104.558594" xlink:href="#DejaVuSans-65"/>
      <use x="166.082031" xlink:href="#DejaVuSans-64"/>
      <use x="229.558594" xlink:href="#DejaVuSans-2e"/>
      <use x="261.345703" xlink:href="#DejaVuSans-28"/>
      <use x="300.359375" xlink:href="#DejaVuSans-39"/>
      <use x="363.982422" xlink:href="#DejaVuSans-35"/>
      <use x="427.605469" xlink:href="#DejaVuSans-74"/>
      <use x="466.814453" xlink:href="#DejaVuSans-68"/>
      <use x="530.193359" xlink:href="#DejaVuSans-20"/>
      <use x="561.980469" xlink:href="#DejaVuSans-70"/>
      <use x="625.457031" xlink:href="#DejaVuSans-65"/>
      <use x="686.980469" xlink:href="#DejaVuSans-72"/>
      <use x="728.0625" xlink:href="#DejaVuSans-63"/>
      <use x="783.042969" xlink:href="#DejaVuSans-65"/>
      <use x="844.566406" xlink:href="#DejaVuSans-6e"/>
      <use x="907.945312" xlink:href="#DejaVuSans-2e"/>
      <use x="939.732422" xlink:href="#DejaVuSans-29"/>
     </g>
    </g>
    <g id="line2d_24">
     <path d="M 279.843437 98.604813 
L 299.843437 98.604813 
" style="fill:none;stroke:#000000;stroke-linecap:square;stroke-width:1.5;"/>
    </g>
    <g id="line2d_25"/>
    <g id="text_18">
     <!-- actual -->
     <defs>
      <path d="M 8.5 21.578125 
L 8.5 54.6875 
L 17.484375 54.6875 
L 17.484375 21.921875 
Q 17.484375 14.15625 20.5 10.265625 
Q 23.53125 6.390625 29.59375 6.390625 
Q 36.859375 6.390625 41.078125 11.03125 
Q 45.3125 15.671875 45.3125 23.6875 
L 45.3125 54.6875 
L 54.296875 54.6875 
L 54.296875 0 
L 45.3125 0 
L 45.3125 8.40625 
Q 42.046875 3.421875 37.71875 1 
Q 33.40625 -1.421875 27.6875 -1.421875 
Q 18.265625 -1.421875 13.375 4.4375 
Q 8.5 10.296875 8.5 21.578125 
z
M 31.109375 56 
z
" id="DejaVuSans-75"/>
     </defs>
     <g transform="translate(307.843437 102.104813)scale(0.1 -0.1)">
      <use xlink:href="#DejaVuSans-61"/>
      <use x="61.279297" xlink:href="#DejaVuSans-63"/>
      <use x="116.259766" xlink:href="#DejaVuSans-74"/>
      <use x="155.46875" xlink:href="#DejaVuSans-75"/>
      <use x="218.847656" xlink:href="#DejaVuSans-61"/>
      <use x="280.126953" xlink:href="#DejaVuSans-6c"/>
     </g>
    </g>
   </g>
  </g>
 </g>
 <defs>
  <clipPath id="pb939dbe17d">
   <rect height="266.112" width="357.12" x="57.6" y="41.472"/>
  </clipPath>
 </defs>
</svg>
