<?xml version="1.0" encoding="utf-8" standalone="no"?>
<!DOCTYPE svg PUBLIC "-//W3C//DTD SVG 1.1//EN"
  "http://www.w3.org/Graphics/SVG/1.1/DTD/svg11.dtd">
<!-- Created with matplotlib (http://matplotlib.org/) -->
<svg height="345pt" version="1.1" viewBox="0 0 460 345" width="460pt" xmlns="http://www.w3.org/2000/svg" xmlns:xlink="http://www.w3.org/1999/xlink">
 <defs>
  <style type="text/css">
*{stroke-linecap:butt;stroke-linejoin:round;}
  </style>
 </defs>
 <g id="figure_1">
  <g id="patch_1">
   <path d="M 0 345.6 
L 460.8 345.6 
L 460.8 0 
L 0 0 
z
" style="fill:#ffffff;"/>
  </g>
  <g id="axes_1">
   <g id="patch_2">
    <path d="M 57.6 307.584 
L 414.72 307.584 
L 414.72 41.472 
L 57.6 41.472 
z
" style="fill:#ffffff;"/>
   </g>
   <g id="PolyCollection_1">
    <path clip-path="url(#p60bda94f78)" d="M 73.832727 77.127683 
L 73.832727 86.666139 
L 74.92584 86.465861 
L 76.018953 132.244824 
L 77.112066 82.964084 
L 78.205179 104.007477 
L 79.298292 74.535909 
L 80.391405 210.656976 
L 81.484518 136.996402 
L 82.577631 174.034312 
L 83.670744 267.999778 
L 84.763857 117.305464 
L 85.85697 83.46469 
L 86.950083 99.435246 
L 88.043196 84.944042 
L 89.136309 141.786667 
L 90.229421 108.249786 
L 91.322534 76.586109 
L 92.415647 158.275193 
L 93.50876 123.940053 
L 94.601873 119.071488 
L 95.694986 104.64664 
L 96.788099 75.261217 
L 97.881212 229.539386 
L 98.974325 114.363303 
L 100.067438 83.914593 
L 101.160551 98.929863 
L 102.253664 91.3156 
L 103.346777 111.243469 
L 104.43989 70.29328 
L 105.533003 220.391823 
L 106.626116 123.255964 
L 107.719229 112.243824 
L 108.812342 89.219012 
L 109.905455 94.10216 
L 110.998567 116.906085 
L 112.09168 70.356711 
L 113.184793 219.029956 
L 114.277906 125.096437 
L 115.371019 119.2728 
L 116.464132 107.39783 
L 117.557245 78.217284 
L 118.650358 191.599496 
L 119.743471 157.031417 
L 120.836584 236.9277 
L 121.929697 216.603625 
L 123.02281 260.799477 
L 124.115923 124.64575 
L 125.209036 112.223358 
L 126.302149 89.279805 
L 127.395262 92.789354 
L 128.488375 123.303921 
L 129.581488 73.39475 
L 130.674601 180.582507 
L 131.767713 156.877599 
L 132.860826 235.639747 
L 133.953939 220.837697 
L 135.047052 254.55981 
L 136.140165 150.624846 
L 137.233278 208.436627 
L 138.326391 283.030844 
L 139.419504 151.591007 
L 140.512617 151.976302 
L 141.60573 211.211492 
L 142.698843 279.439286 
L 143.791956 136.89268 
L 144.885069 121.37192 
L 145.978182 101.297327 
L 147.071295 73.987811 
L 148.164408 250.77425 
L 149.257521 124.176094 
L 150.350634 81.233324 
L 151.443747 110.462005 
L 152.53686 71.420248 
L 153.629972 222.215752 
L 154.723085 120.848566 
L 155.816198 103.712783 
L 156.909311 75.63635 
L 158.002424 215.27891 
L 159.095537 135.714261 
L 160.18865 168.622676 
L 161.281763 255.937045 
L 162.374876 130.214163 
L 163.467989 133.530994 
L 164.561102 157.311136 
L 165.654215 239.346258 
L 166.747328 188.983156 
L 167.840441 281.564755 
L 168.933554 146.251289 
L 170.026667 140.397844 
L 171.11978 164.900797 
L 172.212893 255.867409 
L 173.306006 130.347088 
L 174.399118 134.154362 
L 175.492231 159.515012 
L 176.585344 244.8455 
L 177.678457 164.733429 
L 178.77157 248.222232 
L 179.864683 148.864456 
L 180.957796 210.145674 
L 182.050909 279.787 
L 183.144022 137.921738 
L 184.237135 123.941586 
L 185.330248 107.926353 
L 186.423361 79.939416 
L 187.516474 169.856219 
L 188.609587 141.514187 
L 189.7027 185.80745 
L 190.795813 290.000061 
L 191.888926 211.833969 
L 192.982039 171.663425 
L 194.075152 261.966557 
L 195.168264 120.682625 
L 196.261377 96.44306 
L 197.35449 72.441318 
L 198.447603 262.423235 
L 199.540716 161.011586 
L 200.633829 162.647538 
L 201.726942 227.189572 
L 202.820055 242.298082 
L 203.913168 185.43549 
L 205.006281 272.188675 
L 206.099394 120.262958 
L 207.192507 86.320778 
L 208.28562 87.612975 
L 209.378733 125.793826 
L 210.471846 75.625546 
L 211.564959 156.952547 
L 212.658072 135.288105 
L 213.751185 161.229799 
L 214.844298 244.561039 
L 215.93741 166.080036 
L 217.030523 251.17534 
L 218.123636 140.510088 
L 219.216749 179.748807 
L 220.309862 282.827678 
L 221.402975 159.691257 
L 222.496088 148.92942 
L 223.589201 199.523357 
L 224.682314 292.980374 
L 225.775427 228.116441 
L 226.86854 139.811951 
L 227.961653 148.772856 
L 229.054766 204.063605 
L 230.147879 287.51718 
L 231.240992 179.028349 
L 232.334105 174.018802 
L 233.427218 275.284476 
L 234.520331 124.686112 
L 235.613444 93.20189 
L 236.706556 72.743322 
L 237.799669 236.933868 
L 238.892782 108.833469 
L 239.985895 71.130153 
L 241.079008 196.771882 
L 242.172121 153.334141 
L 243.265234 228.474638 
L 244.358347 246.035258 
L 245.45146 168.696234 
L 246.544573 244.669789 
L 247.637686 161.673426 
L 248.730799 239.753624 
L 249.823912 181.078263 
L 250.917025 274.762478 
L 252.010138 124.428357 
L 253.103251 93.03898 
L 254.196364 72.921707 
L 255.289477 234.948669 
L 256.38259 109.325695 
L 257.475702 72.232626 
L 258.568815 185.569769 
L 259.661928 157.008384 
L 260.755041 236.495161 
L 261.848154 217.884946 
L 262.941267 259.091642 
L 264.03438 130.06334 
L 265.127493 134.737261 
L 266.220606 161.378055 
L 267.313719 249.182582 
L 268.406832 147.021059 
L 269.499945 204.303353 
L 270.593058 288.545525 
L 271.686171 187.218094 
L 272.779284 175.04219 
L 273.872397 274.156082 
L 274.96551 122.468295 
L 276.058623 89.648912 
L 277.151736 78.46206 
L 278.244848 188.707003 
L 279.337961 158.617345 
L 280.431074 237.579842 
L 281.524187 213.80052 
L 282.6173 264.117235 
L 283.710413 117.879164 
L 284.803526 88.46165 
L 285.896639 82.434741 
L 286.989752 172.4778 
L 288.082865 148.240375 
L 289.175978 205.4218 
L 290.269091 289.599363 
L 291.362204 196.682743 
L 292.455317 172.845588 
L 293.54843 265.760247 
L 294.641543 117.63806 
L 295.734656 85.973884 
L 296.827769 89.633224 
L 297.920882 123.249617 
L 299.013994 73.428588 
L 300.107107 180.204878 
L 301.20022 156.786641 
L 302.293333 235.37397 
L 303.386446 221.763817 
L 304.479559 252.945144 
L 305.572672 160.204342 
L 306.665785 229.182866 
L 307.758898 228.702727 
L 308.852011 239.177001 
L 309.945124 228.335866 
L 311.038237 255.931269 
L 312.13135 143.496962 
L 313.224463 190.030006 
L 314.317576 292.940903 
L 315.410689 233.486288 
L 316.503802 141.551625 
L 317.596915 156.42192 
L 318.690028 226.785808 
L 319.78314 237.114821 
L 320.876253 207.721125 
L 321.969366 281.345972 
L 323.062479 143.921335 
L 324.155592 137.734296 
L 325.248705 154.299874 
L 326.341818 229.062849 
L 327.434931 229.55996 
L 328.528044 234.013885 
L 329.621157 243.958102 
L 330.71427 209.320602 
L 331.807383 280.402702 
L 332.900496 140.114774 
L 333.993609 129.194376 
L 335.086722 123.598936 
L 336.179835 118.382479 
L 337.272948 101.279534 
L 338.366061 73.816699 
L 339.459174 259.888903 
L 340.552287 150.006791 
L 341.645399 142.107532 
L 342.738512 152.434335 
L 343.831625 223.312092 
L 344.924738 246.574193 
L 346.017851 163.950217 
L 347.110964 235.997052 
L 348.204077 200.163376 
L 349.29719 281.03559 
L 350.390303 142.675313 
L 351.483416 135.038087 
L 352.576529 144.026983 
L 353.669642 195.702463 
L 354.762755 294.00608 
L 355.855868 237.758584 
L 356.948981 125.943722 
L 358.042094 95.603726 
L 359.135207 73.34009 
L 360.22832 260.046287 
L 361.321433 150.378894 
L 362.414545 143.394773 
L 363.507658 157.172186 
L 364.600771 236.515164 
L 365.693884 201.331847 
L 366.786997 279.670406 
L 367.88011 137.424199 
L 368.973223 122.644719 
L 370.066336 104.533683 
L 371.159449 75.996757 
L 372.252562 218.87168 
L 373.345675 130.385774 
L 374.438788 143.928359 
L 375.531901 187.817894 
L 376.625014 293.474847 
L 377.718127 237.87778 
L 378.81124 133.553885 
L 379.904353 121.562214 
L 380.997466 113.904379 
L 382.090579 89.865841 
L 383.183691 93.185489 
L 384.276804 121.576833 
L 385.369917 72.224033 
L 386.46303 194.142599 
L 387.556143 154.045257 
L 388.649256 229.858041 
L 389.742369 242.053413 
L 390.835482 187.883322 
L 391.928595 274.92849 
L 393.021708 124.741164 
L 394.114821 93.587078 
L 395.207934 72.344299 
L 396.301047 241.335736 
L 397.39416 109.36759 
L 398.487273 70.583445 
L 398.487273 53.568 
L 398.487273 53.568 
L 397.39416 104.397478 
L 396.301047 236.83799 
L 395.207934 69.566582 
L 394.114821 87.893656 
L 393.021708 121.452893 
L 391.928595 264.789629 
L 390.835482 176.548784 
L 389.742369 238.353427 
L 388.649256 221.190189 
L 387.556143 150.261194 
L 386.46303 187.835615 
L 385.369917 70.910586 
L 384.276804 113.839593 
L 383.183691 85.706574 
L 382.090579 86.542592 
L 380.997466 112.52258 
L 379.904353 117.064147 
L 378.81124 126.175092 
L 377.718127 223.516185 
L 376.625014 278.67458 
L 375.531901 182.859013 
L 374.438788 137.750056 
L 373.345675 126.347237 
L 372.252562 213.124347 
L 371.159449 69.982434 
L 370.066336 103.416306 
L 368.973223 115.984102 
L 367.88011 129.141428 
L 366.786997 270.875477 
L 365.693884 195.852787 
L 364.600771 233.89886 
L 363.507658 153.070432 
L 362.414545 131.505397 
L 361.321433 146.196593 
L 360.22832 249.2146 
L 359.135207 67.497128 
L 358.042094 89.434729 
L 356.948981 116.135068 
L 355.855868 229.090411 
L 354.762755 279.453549 
L 353.669642 190.577997 
L 352.576529 141.158129 
L 351.483416 127.237309 
L 350.390303 137.0849 
L 349.29719 271.218271 
L 348.204077 193.821734 
L 347.110964 233.24629 
L 346.017851 156.441459 
L 344.924738 243.649182 
L 343.831625 219.0685 
L 342.738512 148.751998 
L 341.645399 130.288113 
L 340.552287 145.600823 
L 339.459174 250.164324 
L 338.366061 66.898399 
L 337.272948 99.171858 
L 336.179835 116.977254 
L 335.086722 122.206868 
L 333.993609 121.78959 
L 332.900496 133.009388 
L 331.807383 271.377045 
L 330.71427 195.419499 
L 329.621157 233.068333 
L 328.528044 220.98852 
L 327.434931 224.577974 
L 326.341818 225.409393 
L 325.248705 150.559775 
L 324.155592 129.845591 
L 323.062479 138.85046 
L 321.969366 271.587378 
L 320.876253 193.87265 
L 319.78314 233.058634 
L 318.690028 222.806958 
L 317.596915 149.329049 
L 316.503802 133.722287 
L 315.410689 218.474869 
L 314.317576 278.868439 
L 313.224463 182.401872 
L 312.13135 139.608606 
L 311.038237 249.970857 
L 309.945124 214.574355 
L 308.852011 227.141936 
L 307.758898 222.575446 
L 306.665785 225.573694 
L 305.572672 153.33193 
L 304.479559 245.665509 
L 303.386446 215.837741 
L 302.293333 228.254785 
L 301.20022 152.507429 
L 300.107107 174.659391 
L 299.013994 71.993519 
L 297.920882 115.585222 
L 296.827769 84.985296 
L 295.734656 74.81873 
L 294.641543 112.810749 
L 293.54843 262.043894 
L 292.455317 166.86881 
L 291.362204 191.975128 
L 290.269091 277.405132 
L 289.175978 197.072923 
L 288.082865 143.096977 
L 286.989752 164.107423 
L 285.896639 77.891427 
L 284.803526 78.179988 
L 283.710413 105.696164 
L 282.6173 262.475827 
L 281.524187 207.650777 
L 280.431074 230.666354 
L 279.337961 153.536843 
L 278.244848 181.117378 
L 277.151736 75.590318 
L 276.058623 81.834656 
L 274.96551 120.392067 
L 273.872397 268.244126 
L 272.779284 170.584236 
L 271.686171 184.183977 
L 270.593058 277.248853 
L 269.499945 197.273058 
L 268.406832 145.676163 
L 267.313719 247.176631 
L 266.220606 157.848787 
L 265.127493 128.812469 
L 264.03438 124.692423 
L 262.941267 255.320737 
L 261.848154 211.802913 
L 260.755041 229.447537 
L 259.661928 152.891547 
L 258.568815 179.704665 
L 257.475702 57.245595 
L 256.38259 104.069339 
L 255.289477 232.429918 
L 254.196364 70.26882 
L 253.103251 87.06156 
L 252.010138 121.003062 
L 250.917025 264.443591 
L 249.823912 176.419425 
L 248.730799 237.629261 
L 247.637686 158.81067 
L 246.544573 242.100978 
L 245.45146 160.576159 
L 244.358347 242.781644 
L 243.265234 219.589215 
L 242.172121 149.720797 
L 241.079008 192.041804 
L 239.985895 55.143195 
L 238.892782 103.650599 
L 237.799669 233.815033 
L 236.706556 70.050322 
L 235.613444 87.301487 
L 234.520331 122.564957 
L 233.427218 269.118367 
L 232.334105 170.802413 
L 231.240992 177.282969 
L 230.147879 276.133223 
L 229.054766 198.886191 
L 227.961653 142.037469 
L 226.86854 132.075673 
L 225.775427 219.709481 
L 224.682314 279.07189 
L 223.589201 192.855038 
L 222.496088 141.48773 
L 221.402975 148.247292 
L 220.309862 272.199122 
L 219.216749 172.400499 
L 218.123636 138.705663 
L 217.030523 247.339292 
L 215.93741 163.459239 
L 214.844298 242.664515 
L 213.751185 156.021899 
L 212.658072 131.583946 
L 211.564959 152.604662 
L 210.471846 73.971302 
L 209.378733 118.158633 
L 208.28562 84.33048 
L 207.192507 76.581117 
L 206.099394 115.762965 
L 205.006281 262.901484 
L 203.913168 174.538982 
L 202.820055 238.94146 
L 201.726942 221.081867 
L 200.633829 150.027793 
L 199.540716 156.494907 
L 198.447603 250.853156 
L 197.35449 67.086446 
L 196.261377 88.738873 
L 195.168264 115.969875 
L 194.075152 259.166056 
L 192.982039 165.306701 
L 191.888926 193.831753 
L 190.795813 276.46639 
L 189.7027 178.36223 
L 188.609587 137.65375 
L 187.516474 160.086393 
L 186.423361 74.899989 
L 185.330248 106.836253 
L 184.237135 117.100623 
L 183.144022 125.552615 
L 182.050909 271.669493 
L 180.957796 203.619835 
L 179.864683 147.357185 
L 178.77157 244.927865 
L 177.678457 162.228157 
L 176.585344 242.849176 
L 175.492231 156.114425 
L 174.399118 128.30081 
L 173.306006 127.092512 
L 172.212893 252.483831 
L 171.11978 160.264101 
L 170.026667 132.5024 
L 168.933554 143.379868 
L 167.840441 269.602214 
L 166.747328 184.341967 
L 165.654215 237.234089 
L 164.561102 154.064261 
L 163.467989 127.734884 
L 162.374876 126.938408 
L 161.281763 252.859606 
L 160.18865 160.149932 
L 159.095537 132.306936 
L 158.002424 208.747616 
L 156.909311 70.309075 
L 155.816198 98.474719 
L 154.723085 115.950015 
L 153.629972 214.077707 
L 152.53686 69.383169 
L 151.443747 107.693914 
L 150.350634 71.530887 
L 149.257521 115.921562 
L 148.164408 245.097514 
L 147.071295 67.33682 
L 145.978182 100.148502 
L 144.885069 114.879775 
L 143.791956 124.090663 
L 142.698843 271.17609 
L 141.60573 204.503061 
L 140.512617 144.844282 
L 139.419504 143.817506 
L 138.326391 273.863991 
L 137.233278 201.585395 
L 136.140165 145.351162 
L 135.047052 248.097188 
L 133.953939 214.867979 
L 132.860826 228.543346 
L 131.767713 152.605125 
L 130.674601 175.016803 
L 129.581488 71.963212 
L 128.488375 115.541651 
L 127.395262 85.387456 
L 126.302149 86.593865 
L 125.209036 106.313007 
L 124.115923 116.562258 
L 123.02281 258.222322 
L 121.929697 210.47474 
L 120.836584 229.832583 
L 119.743471 153.024971 
L 118.650358 181.980173 
L 117.557245 72.690088 
L 116.464132 105.846916 
L 115.371019 115.163665 
L 114.277906 120.545743 
L 113.184793 211.227894 
L 112.09168 69.19858 
L 110.998567 109.28084 
L 109.905455 86.581849 
L 108.812342 86.259023 
L 107.719229 107.709175 
L 106.626116 118.544498 
L 105.533003 212.496058 
L 104.43989 69.144776 
L 103.346777 108.771891 
L 102.253664 85.449533 
L 101.160551 92.78012 
L 100.067438 74.45572 
L 98.974325 109.108873 
L 97.881212 227.135197 
L 96.788099 68.914119 
L 95.694986 102.819751 
L 94.601873 117.600158 
L 93.50876 120.931608 
L 92.415647 149.441435 
L 91.322534 75.793163 
L 90.229421 105.471426 
L 89.136309 140.759143 
L 88.043196 79.880227 
L 86.950083 95.034733 
L 85.85697 71.526858 
L 84.763857 113.576276 
L 83.670744 261.779757 
L 82.577631 164.959878 
L 81.484518 133.843873 
L 80.391405 203.864468 
L 79.298292 71.342625 
L 78.205179 99.184658 
L 77.112066 80.68986 
L 76.018953 124.630489 
L 74.92584 83.231823 
L 73.832727 77.127683 
z
" style="fill:#008000;fill-opacity:0.4;"/>
   </g>
   <g id="matplotlib.axis_1">
    <g id="xtick_1">
     <g id="line2d_1">
      <defs>
       <path d="M 0 0 
L 0 3.5 
" id="macd7d2a0c7" style="stroke:#000000;stroke-width:0.8;"/>
      </defs>
      <g>
       <use style="stroke:#000000;stroke-width:0.8;" x="73.832727" xlink:href="#macd7d2a0c7" y="307.584"/>
      </g>
     </g>
     <g id="text_1">
      <!-- 0 -->
      <defs>
       <path d="M 31.78125 66.40625 
Q 24.171875 66.40625 20.328125 58.90625 
Q 16.5 51.421875 16.5 36.375 
Q 16.5 21.390625 20.328125 13.890625 
Q 24.171875 6.390625 31.78125 6.390625 
Q 39.453125 6.390625 43.28125 13.890625 
Q 47.125 21.390625 47.125 36.375 
Q 47.125 51.421875 43.28125 58.90625 
Q 39.453125 66.40625 31.78125 66.40625 
z
M 31.78125 74.21875 
Q 44.046875 74.21875 50.515625 64.515625 
Q 56.984375 54.828125 56.984375 36.375 
Q 56.984375 17.96875 50.515625 8.265625 
Q 44.046875 -1.421875 31.78125 -1.421875 
Q 19.53125 -1.421875 13.0625 8.265625 
Q 6.59375 17.96875 6.59375 36.375 
Q 6.59375 54.828125 13.0625 64.515625 
Q 19.53125 74.21875 31.78125 74.21875 
z
" id="DejaVuSans-30"/>
      </defs>
      <g transform="translate(70.651477 322.182437)scale(0.1 -0.1)">
       <use xlink:href="#DejaVuSans-30"/>
      </g>
     </g>
    </g>
    <g id="xtick_2">
     <g id="line2d_2">
      <g>
       <use style="stroke:#000000;stroke-width:0.8;" x="128.488375" xlink:href="#macd7d2a0c7" y="307.584"/>
      </g>
     </g>
     <g id="text_2">
      <!-- 50 -->
      <defs>
       <path d="M 10.796875 72.90625 
L 49.515625 72.90625 
L 49.515625 64.59375 
L 19.828125 64.59375 
L 19.828125 46.734375 
Q 21.96875 47.46875 24.109375 47.828125 
Q 26.265625 48.1875 28.421875 48.1875 
Q 40.625 48.1875 47.75 41.5 
Q 54.890625 34.8125 54.890625 23.390625 
Q 54.890625 11.625 47.5625 5.09375 
Q 40.234375 -1.421875 26.90625 -1.421875 
Q 22.3125 -1.421875 17.546875 -0.640625 
Q 12.796875 0.140625 7.71875 1.703125 
L 7.71875 11.625 
Q 12.109375 9.234375 16.796875 8.0625 
Q 21.484375 6.890625 26.703125 6.890625 
Q 35.15625 6.890625 40.078125 11.328125 
Q 45.015625 15.765625 45.015625 23.390625 
Q 45.015625 31 40.078125 35.4375 
Q 35.15625 39.890625 26.703125 39.890625 
Q 22.75 39.890625 18.8125 39.015625 
Q 14.890625 38.140625 10.796875 36.28125 
z
" id="DejaVuSans-35"/>
      </defs>
      <g transform="translate(122.125875 322.182437)scale(0.1 -0.1)">
       <use xlink:href="#DejaVuSans-35"/>
       <use x="63.623047" xlink:href="#DejaVuSans-30"/>
      </g>
     </g>
    </g>
    <g id="xtick_3">
     <g id="line2d_3">
      <g>
       <use style="stroke:#000000;stroke-width:0.8;" x="183.144022" xlink:href="#macd7d2a0c7" y="307.584"/>
      </g>
     </g>
     <g id="text_3">
      <!-- 100 -->
      <defs>
       <path d="M 12.40625 8.296875 
L 28.515625 8.296875 
L 28.515625 63.921875 
L 10.984375 60.40625 
L 10.984375 69.390625 
L 28.421875 72.90625 
L 38.28125 72.90625 
L 38.28125 8.296875 
L 54.390625 8.296875 
L 54.390625 0 
L 12.40625 0 
z
" id="DejaVuSans-31"/>
      </defs>
      <g transform="translate(173.600272 322.182437)scale(0.1 -0.1)">
       <use xlink:href="#DejaVuSans-31"/>
       <use x="63.623047" xlink:href="#DejaVuSans-30"/>
       <use x="127.246094" xlink:href="#DejaVuSans-30"/>
      </g>
     </g>
    </g>
    <g id="xtick_4">
     <g id="line2d_4">
      <g>
       <use style="stroke:#000000;stroke-width:0.8;" x="237.799669" xlink:href="#macd7d2a0c7" y="307.584"/>
      </g>
     </g>
     <g id="text_4">
      <!-- 150 -->
      <g transform="translate(228.255919 322.182437)scale(0.1 -0.1)">
       <use xlink:href="#DejaVuSans-31"/>
       <use x="63.623047" xlink:href="#DejaVuSans-35"/>
       <use x="127.246094" xlink:href="#DejaVuSans-30"/>
      </g>
     </g>
    </g>
    <g id="xtick_5">
     <g id="line2d_5">
      <g>
       <use style="stroke:#000000;stroke-width:0.8;" x="292.455317" xlink:href="#macd7d2a0c7" y="307.584"/>
      </g>
     </g>
     <g id="text_5">
      <!-- 200 -->
      <defs>
       <path d="M 19.1875 8.296875 
L 53.609375 8.296875 
L 53.609375 0 
L 7.328125 0 
L 7.328125 8.296875 
Q 12.9375 14.109375 22.625 23.890625 
Q 32.328125 33.6875 34.8125 36.53125 
Q 39.546875 41.84375 41.421875 45.53125 
Q 43.3125 49.21875 43.3125 52.78125 
Q 43.3125 58.59375 39.234375 62.25 
Q 35.15625 65.921875 28.609375 65.921875 
Q 23.96875 65.921875 18.8125 64.3125 
Q 13.671875 62.703125 7.8125 59.421875 
L 7.8125 69.390625 
Q 13.765625 71.78125 18.9375 73 
Q 24.125 74.21875 28.421875 74.21875 
Q 39.75 74.21875 46.484375 68.546875 
Q 53.21875 62.890625 53.21875 53.421875 
Q 53.21875 48.921875 51.53125 44.890625 
Q 49.859375 40.875 45.40625 35.40625 
Q 44.1875 33.984375 37.640625 27.21875 
Q 31.109375 20.453125 19.1875 8.296875 
z
" id="DejaVuSans-32"/>
      </defs>
      <g transform="translate(282.911567 322.182437)scale(0.1 -0.1)">
       <use xlink:href="#DejaVuSans-32"/>
       <use x="63.623047" xlink:href="#DejaVuSans-30"/>
       <use x="127.246094" xlink:href="#DejaVuSans-30"/>
      </g>
     </g>
    </g>
    <g id="xtick_6">
     <g id="line2d_6">
      <g>
       <use style="stroke:#000000;stroke-width:0.8;" x="347.110964" xlink:href="#macd7d2a0c7" y="307.584"/>
      </g>
     </g>
     <g id="text_6">
      <!-- 250 -->
      <g transform="translate(337.567214 322.182437)scale(0.1 -0.1)">
       <use xlink:href="#DejaVuSans-32"/>
       <use x="63.623047" xlink:href="#DejaVuSans-35"/>
       <use x="127.246094" xlink:href="#DejaVuSans-30"/>
      </g>
     </g>
    </g>
    <g id="xtick_7">
     <g id="line2d_7">
      <g>
       <use style="stroke:#000000;stroke-width:0.8;" x="401.766612" xlink:href="#macd7d2a0c7" y="307.584"/>
      </g>
     </g>
     <g id="text_7">
      <!-- 300 -->
      <defs>
       <path d="M 40.578125 39.3125 
Q 47.65625 37.796875 51.625 33 
Q 55.609375 28.21875 55.609375 21.1875 
Q 55.609375 10.40625 48.1875 4.484375 
Q 40.765625 -1.421875 27.09375 -1.421875 
Q 22.515625 -1.421875 17.65625 -0.515625 
Q 12.796875 0.390625 7.625 2.203125 
L 7.625 11.71875 
Q 11.71875 9.328125 16.59375 8.109375 
Q 21.484375 6.890625 26.8125 6.890625 
Q 36.078125 6.890625 40.9375 10.546875 
Q 45.796875 14.203125 45.796875 21.1875 
Q 45.796875 27.640625 41.28125 31.265625 
Q 36.765625 34.90625 28.71875 34.90625 
L 20.21875 34.90625 
L 20.21875 43.015625 
L 29.109375 43.015625 
Q 36.375 43.015625 40.234375 45.921875 
Q 44.09375 48.828125 44.09375 54.296875 
Q 44.09375 59.90625 40.109375 62.90625 
Q 36.140625 65.921875 28.71875 65.921875 
Q 24.65625 65.921875 20.015625 65.03125 
Q 15.375 64.15625 9.8125 62.3125 
L 9.8125 71.09375 
Q 15.4375 72.65625 20.34375 73.4375 
Q 25.25 74.21875 29.59375 74.21875 
Q 40.828125 74.21875 47.359375 69.109375 
Q 53.90625 64.015625 53.90625 55.328125 
Q 53.90625 49.265625 50.4375 45.09375 
Q 46.96875 40.921875 40.578125 39.3125 
z
" id="DejaVuSans-33"/>
      </defs>
      <g transform="translate(392.222862 322.182437)scale(0.1 -0.1)">
       <use xlink:href="#DejaVuSans-33"/>
       <use x="63.623047" xlink:href="#DejaVuSans-30"/>
       <use x="127.246094" xlink:href="#DejaVuSans-30"/>
      </g>
     </g>
    </g>
   </g>
   <g id="matplotlib.axis_2">
    <g id="ytick_1">
     <g id="line2d_8">
      <defs>
       <path d="M 0 0 
L -3.5 0 
" id="m0333dbe494" style="stroke:#000000;stroke-width:0.8;"/>
      </defs>
      <g>
       <use style="stroke:#000000;stroke-width:0.8;" x="57.6" xlink:href="#m0333dbe494" y="287.779962"/>
      </g>
     </g>
     <g id="text_8">
      <!-- 0.2 -->
      <defs>
       <path d="M 10.6875 12.40625 
L 21 12.40625 
L 21 0 
L 10.6875 0 
z
" id="DejaVuSans-2e"/>
      </defs>
      <g transform="translate(34.696875 291.579181)scale(0.1 -0.1)">
       <use xlink:href="#DejaVuSans-30"/>
       <use x="63.623047" xlink:href="#DejaVuSans-2e"/>
       <use x="95.410156" xlink:href="#DejaVuSans-32"/>
      </g>
     </g>
    </g>
    <g id="ytick_2">
     <g id="line2d_9">
      <g>
       <use style="stroke:#000000;stroke-width:0.8;" x="57.6" xlink:href="#m0333dbe494" y="252.124315"/>
      </g>
     </g>
     <g id="text_9">
      <!-- 0.3 -->
      <g transform="translate(34.696875 255.923534)scale(0.1 -0.1)">
       <use xlink:href="#DejaVuSans-30"/>
       <use x="63.623047" xlink:href="#DejaVuSans-2e"/>
       <use x="95.410156" xlink:href="#DejaVuSans-33"/>
      </g>
     </g>
    </g>
    <g id="ytick_3">
     <g id="line2d_10">
      <g>
       <use style="stroke:#000000;stroke-width:0.8;" x="57.6" xlink:href="#m0333dbe494" y="216.468668"/>
      </g>
     </g>
     <g id="text_10">
      <!-- 0.4 -->
      <defs>
       <path d="M 37.796875 64.3125 
L 12.890625 25.390625 
L 37.796875 25.390625 
z
M 35.203125 72.90625 
L 47.609375 72.90625 
L 47.609375 25.390625 
L 58.015625 25.390625 
L 58.015625 17.1875 
L 47.609375 17.1875 
L 47.609375 0 
L 37.796875 0 
L 37.796875 17.1875 
L 4.890625 17.1875 
L 4.890625 26.703125 
z
" id="DejaVuSans-34"/>
      </defs>
      <g transform="translate(34.696875 220.267887)scale(0.1 -0.1)">
       <use xlink:href="#DejaVuSans-30"/>
       <use x="63.623047" xlink:href="#DejaVuSans-2e"/>
       <use x="95.410156" xlink:href="#DejaVuSans-34"/>
      </g>
     </g>
    </g>
    <g id="ytick_4">
     <g id="line2d_11">
      <g>
       <use style="stroke:#000000;stroke-width:0.8;" x="57.6" xlink:href="#m0333dbe494" y="180.813021"/>
      </g>
     </g>
     <g id="text_11">
      <!-- 0.5 -->
      <g transform="translate(34.696875 184.61224)scale(0.1 -0.1)">
       <use xlink:href="#DejaVuSans-30"/>
       <use x="63.623047" xlink:href="#DejaVuSans-2e"/>
       <use x="95.410156" xlink:href="#DejaVuSans-35"/>
      </g>
     </g>
    </g>
    <g id="ytick_5">
     <g id="line2d_12">
      <g>
       <use style="stroke:#000000;stroke-width:0.8;" x="57.6" xlink:href="#m0333dbe494" y="145.157374"/>
      </g>
     </g>
     <g id="text_12">
      <!-- 0.6 -->
      <defs>
       <path d="M 33.015625 40.375 
Q 26.375 40.375 22.484375 35.828125 
Q 18.609375 31.296875 18.609375 23.390625 
Q 18.609375 15.53125 22.484375 10.953125 
Q 26.375 6.390625 33.015625 6.390625 
Q 39.65625 6.390625 43.53125 10.953125 
Q 47.40625 15.53125 47.40625 23.390625 
Q 47.40625 31.296875 43.53125 35.828125 
Q 39.65625 40.375 33.015625 40.375 
z
M 52.59375 71.296875 
L 52.59375 62.3125 
Q 48.875 64.0625 45.09375 64.984375 
Q 41.3125 65.921875 37.59375 65.921875 
Q 27.828125 65.921875 22.671875 59.328125 
Q 17.53125 52.734375 16.796875 39.40625 
Q 19.671875 43.65625 24.015625 45.921875 
Q 28.375 48.1875 33.59375 48.1875 
Q 44.578125 48.1875 50.953125 41.515625 
Q 57.328125 34.859375 57.328125 23.390625 
Q 57.328125 12.15625 50.6875 5.359375 
Q 44.046875 -1.421875 33.015625 -1.421875 
Q 20.359375 -1.421875 13.671875 8.265625 
Q 6.984375 17.96875 6.984375 36.375 
Q 6.984375 53.65625 15.1875 63.9375 
Q 23.390625 74.21875 37.203125 74.21875 
Q 40.921875 74.21875 44.703125 73.484375 
Q 48.484375 72.75 52.59375 71.296875 
z
" id="DejaVuSans-36"/>
      </defs>
      <g transform="translate(34.696875 148.956593)scale(0.1 -0.1)">
       <use xlink:href="#DejaVuSans-30"/>
       <use x="63.623047" xlink:href="#DejaVuSans-2e"/>
       <use x="95.410156" xlink:href="#DejaVuSans-36"/>
      </g>
     </g>
    </g>
    <g id="ytick_6">
     <g id="line2d_13">
      <g>
       <use style="stroke:#000000;stroke-width:0.8;" x="57.6" xlink:href="#m0333dbe494" y="109.501727"/>
      </g>
     </g>
     <g id="text_13">
      <!-- 0.7 -->
      <defs>
       <path d="M 8.203125 72.90625 
L 55.078125 72.90625 
L 55.078125 68.703125 
L 28.609375 0 
L 18.3125 0 
L 43.21875 64.59375 
L 8.203125 64.59375 
z
" id="DejaVuSans-37"/>
      </defs>
      <g transform="translate(34.696875 113.300945)scale(0.1 -0.1)">
       <use xlink:href="#DejaVuSans-30"/>
       <use x="63.623047" xlink:href="#DejaVuSans-2e"/>
       <use x="95.410156" xlink:href="#DejaVuSans-37"/>
      </g>
     </g>
    </g>
    <g id="ytick_7">
     <g id="line2d_14">
      <g>
       <use style="stroke:#000000;stroke-width:0.8;" x="57.6" xlink:href="#m0333dbe494" y="73.84608"/>
      </g>
     </g>
     <g id="text_14">
      <!-- 0.8 -->
      <defs>
       <path d="M 31.78125 34.625 
Q 24.75 34.625 20.71875 30.859375 
Q 16.703125 27.09375 16.703125 20.515625 
Q 16.703125 13.921875 20.71875 10.15625 
Q 24.75 6.390625 31.78125 6.390625 
Q 38.8125 6.390625 42.859375 10.171875 
Q 46.921875 13.96875 46.921875 20.515625 
Q 46.921875 27.09375 42.890625 30.859375 
Q 38.875 34.625 31.78125 34.625 
z
M 21.921875 38.8125 
Q 15.578125 40.375 12.03125 44.71875 
Q 8.5 49.078125 8.5 55.328125 
Q 8.5 64.0625 14.71875 69.140625 
Q 20.953125 74.21875 31.78125 74.21875 
Q 42.671875 74.21875 48.875 69.140625 
Q 55.078125 64.0625 55.078125 55.328125 
Q 55.078125 49.078125 51.53125 44.71875 
Q 48 40.375 41.703125 38.8125 
Q 48.828125 37.15625 52.796875 32.3125 
Q 56.78125 27.484375 56.78125 20.515625 
Q 56.78125 9.90625 50.3125 4.234375 
Q 43.84375 -1.421875 31.78125 -1.421875 
Q 19.734375 -1.421875 13.25 4.234375 
Q 6.78125 9.90625 6.78125 20.515625 
Q 6.78125 27.484375 10.78125 32.3125 
Q 14.796875 37.15625 21.921875 38.8125 
z
M 18.3125 54.390625 
Q 18.3125 48.734375 21.84375 45.5625 
Q 25.390625 42.390625 31.78125 42.390625 
Q 38.140625 42.390625 41.71875 45.5625 
Q 45.3125 48.734375 45.3125 54.390625 
Q 45.3125 60.0625 41.71875 63.234375 
Q 38.140625 66.40625 31.78125 66.40625 
Q 25.390625 66.40625 21.84375 63.234375 
Q 18.3125 60.0625 18.3125 54.390625 
z
" id="DejaVuSans-38"/>
      </defs>
      <g transform="translate(34.696875 77.645298)scale(0.1 -0.1)">
       <use xlink:href="#DejaVuSans-30"/>
       <use x="63.623047" xlink:href="#DejaVuSans-2e"/>
       <use x="95.410156" xlink:href="#DejaVuSans-38"/>
      </g>
     </g>
    </g>
   </g>
   <g id="line2d_15">
    <path clip-path="url(#p60bda94f78)" d="M 73.832727 81.812383 
L 74.92584 84.988945 
L 76.018953 127.749455 
L 77.112066 81.815949 
L 78.205179 101.389116 
L 79.298292 72.885398 
L 80.391405 207.327986 
L 81.484518 135.789447 
L 82.577631 168.832605 
L 83.670744 264.530816 
L 84.763857 115.551896 
L 85.85697 77.530259 
L 86.950083 97.37738 
L 88.043196 82.393332 
L 89.136309 141.273404 
L 91.322534 76.114135 
L 92.415647 152.871354 
L 93.50876 122.612665 
L 94.601873 118.256495 
L 95.694986 103.689975 
L 96.788099 71.926974 
L 97.881212 228.198187 
L 98.974325 111.468611 
L 100.067438 78.877329 
L 101.160551 95.703823 
L 102.253664 88.348539 
L 103.346777 110.317171 
L 104.43989 69.838623 
L 105.533003 217.048072 
L 106.626116 120.742407 
L 107.719229 110.19618 
L 108.812342 87.617717 
L 109.905455 89.845363 
L 110.998567 112.721075 
L 112.09168 69.880934 
L 113.184793 215.675568 
L 114.277906 122.703824 
L 115.371019 117.681845 
L 116.464132 106.57832 
L 117.557245 75.327809 
L 118.650358 186.336081 
L 119.743471 154.607428 
L 120.836584 233.340207 
L 121.929697 213.133558 
L 123.02281 259.183064 
L 124.115923 120.293265 
L 125.209036 109.217432 
L 126.302149 87.807048 
L 127.395262 88.576497 
L 128.488375 118.917908 
L 129.581488 72.704148 
L 130.674601 177.765295 
L 131.767713 154.251584 
L 132.860826 232.110682 
L 133.953939 217.456448 
L 135.047052 251.091014 
L 136.140165 148.046075 
L 137.233278 204.394359 
L 138.326391 277.339157 
L 139.419504 148.34487 
L 140.512617 147.577204 
L 142.698843 274.326136 
L 143.791956 131.32322 
L 144.885069 118.008332 
L 145.978182 100.671249 
L 147.071295 70.453326 
L 148.164408 247.520815 
L 149.257521 119.837467 
L 150.350634 76.434561 
L 151.443747 109.30467 
L 152.53686 70.368347 
L 153.629972 218.84583 
L 154.723085 118.201823 
L 155.816198 100.832056 
L 156.909311 72.844631 
L 158.002424 211.872536 
L 159.095537 134.162598 
L 160.18865 163.656712 
L 161.281763 254.440506 
L 162.374876 128.576785 
L 163.467989 130.967971 
L 164.561102 155.980051 
L 165.654215 238.050318 
L 166.747328 186.222577 
L 167.840441 274.509168 
L 168.933554 144.978977 
L 170.026667 135.779226 
L 171.11978 162.877755 
L 172.212893 254.244756 
L 173.306006 128.719051 
L 174.399118 131.541195 
L 175.492231 158.116181 
L 176.585344 243.839726 
L 177.678457 163.310615 
L 178.77157 246.457325 
L 179.864683 148.291149 
L 180.957796 206.282325 
L 182.050909 274.833634 
L 183.144022 132.544308 
L 185.330248 107.316036 
L 186.423361 77.300399 
L 187.516474 164.122494 
L 188.609587 139.375811 
L 189.7027 182.314837 
L 190.795813 281.928039 
L 191.888926 200.839847 
L 192.982039 167.784923 
L 194.075152 260.796719 
L 195.168264 118.482909 
L 196.261377 91.891284 
L 197.35449 69.494783 
L 198.447603 256.078408 
L 199.540716 158.526578 
L 200.633829 155.084144 
L 201.726942 224.507234 
L 202.820055 240.189895 
L 203.913168 178.902354 
L 205.006281 266.611323 
L 206.099394 117.984799 
L 207.192507 81.385347 
L 208.28562 86.132421 
L 209.378733 121.433414 
L 210.471846 74.79963 
L 211.564959 155.02341 
L 212.658072 133.350957 
L 213.751185 158.68679 
L 214.844298 243.569099 
L 215.93741 164.567595 
L 217.030523 248.988758 
L 218.123636 139.450093 
L 219.216749 175.146388 
L 220.309862 276.52906 
L 221.402975 152.926739 
L 222.496088 144.408724 
L 223.589201 196.695948 
L 224.682314 284.482171 
L 225.775427 223.779264 
L 226.86854 135.341136 
L 227.961653 144.819834 
L 229.054766 201.798033 
L 230.147879 280.461403 
L 231.240992 178.131241 
L 232.334105 172.230112 
L 233.427218 271.69463 
L 234.520331 123.636101 
L 235.613444 89.814699 
L 236.706556 71.085501 
L 237.799669 235.58057 
L 238.892782 106.481099 
L 239.985895 63.841224 
L 241.079008 194.641707 
L 242.172121 151.339944 
L 243.265234 223.931633 
L 244.358347 244.090266 
L 245.45146 163.799572 
L 246.544573 243.489587 
L 247.637686 160.082352 
L 248.730799 238.901181 
L 249.823912 178.225372 
L 250.917025 268.627888 
L 252.010138 122.501895 
L 253.103251 89.620851 
L 254.196364 71.275664 
L 255.289477 233.927693 
L 256.38259 106.795107 
L 257.475702 65.278265 
L 258.568815 182.651901 
L 259.661928 154.494756 
L 260.755041 232.961782 
L 261.848154 214.441882 
L 262.941267 256.913463 
L 264.03438 126.803867 
L 265.127493 132.05844 
L 266.220606 159.921664 
L 267.313719 248.43348 
L 268.406832 146.355641 
L 269.499945 200.126378 
L 270.593058 281.491376 
L 271.686171 185.929369 
L 272.779284 172.285498 
L 273.872397 270.788739 
L 274.96551 121.174435 
L 276.058623 85.491571 
L 277.151736 76.940871 
L 278.244848 184.954662 
L 279.337961 155.439393 
L 280.431074 234.087074 
L 281.524187 210.313909 
L 282.6173 263.497991 
L 283.710413 111.992868 
L 284.803526 82.99211 
L 285.896639 79.869982 
L 286.989752 167.960824 
L 288.082865 145.147034 
L 289.175978 201.534181 
L 290.269091 282.06769 
L 291.362204 194.516793 
L 292.455317 169.173116 
L 293.54843 263.941547 
L 294.641543 115.409392 
L 295.734656 80.228084 
L 296.827769 87.255099 
L 297.920882 118.924563 
L 299.013994 72.735763 
L 300.107107 177.400062 
L 301.20022 154.155552 
L 302.293333 231.840293 
L 303.386446 218.40572 
L 304.479559 249.076827 
L 305.572672 156.349325 
L 306.665785 226.949527 
L 307.758898 225.225933 
L 308.852011 232.859212 
L 309.945124 220.98089 
L 311.038237 252.683752 
L 312.13135 141.970472 
L 313.224463 185.381936 
L 314.317576 284.417159 
L 315.410689 224.640823 
L 316.503802 137.08137 
L 317.596915 152.025008 
L 318.690028 224.918224 
L 319.78314 234.683474 
L 320.876253 199.991837 
L 321.969366 275.503842 
L 323.062479 141.452039 
L 324.155592 133.175412 
L 325.248705 152.625211 
L 326.341818 227.221936 
L 327.434931 226.688052 
L 328.528044 227.133391 
L 329.621157 238.240125 
L 330.71427 201.582554 
L 331.807383 274.973048 
L 332.900496 136.793034 
L 333.993609 125.11165 
L 335.086722 122.816377 
L 336.179835 117.763021 
L 337.272948 100.166127 
L 338.366061 70.095938 
L 339.459174 254.434088 
L 340.552287 147.733257 
L 341.645399 134.850871 
L 342.738512 150.744376 
L 343.831625 221.262094 
L 344.924738 244.921874 
L 346.017851 159.588878 
L 347.110964 234.54513 
L 348.204077 196.50519 
L 349.29719 275.187933 
L 350.390303 139.982313 
L 351.483416 130.59014 
L 352.576529 142.687983 
L 353.669642 193.386034 
L 354.762755 285.15844 
L 355.855868 233.0987 
L 356.948981 120.514924 
L 358.042094 91.788595 
L 359.135207 70.079417 
L 360.22832 254.186757 
L 361.321433 148.29519 
L 362.414545 136.061618 
L 363.507658 155.317569 
L 364.600771 235.051559 
L 365.693884 198.172924 
L 366.786997 274.398754 
L 367.88011 133.599002 
L 370.066336 103.921499 
L 371.159449 72.846414 
L 372.252562 215.869891 
L 373.345675 128.339675 
L 374.438788 140.378091 
L 375.531901 185.670033 
L 376.625014 284.584622 
L 377.718127 229.409766 
L 378.81124 128.954735 
L 379.904353 119.743098 
L 380.997466 113.220967 
L 382.090579 88.097642 
L 383.183691 88.930795 
L 384.276804 117.240191 
L 385.369917 71.611778 
L 386.46303 190.966561 
L 387.556143 151.914951 
L 388.649256 225.427981 
L 389.742369 239.762978 
L 390.835482 181.153176 
L 391.928595 268.874387 
L 393.021708 122.865701 
L 394.114821 90.283452 
L 395.207934 70.663338 
L 396.301047 239.210077 
L 397.39416 107.510002 
L 398.487273 62.982398 
L 398.487273 62.982398 
" style="fill:none;opacity:0.4;stroke:#1f77b4;stroke-linecap:square;stroke-width:1.5;"/>
   </g>
   <g id="line2d_16">
    <path clip-path="url(#p60bda94f78)" d="M 73.832727 86.666139 
L 74.92584 86.465861 
L 76.018953 132.244824 
L 77.112066 82.964084 
L 78.205179 104.007477 
L 79.298292 74.535909 
L 80.391405 210.656976 
L 81.484518 136.996402 
L 82.577631 174.034312 
L 83.670744 267.999778 
L 84.763857 117.305464 
L 85.85697 83.46469 
L 86.950083 99.435246 
L 88.043196 84.944042 
L 89.136309 141.786667 
L 91.322534 76.586109 
L 92.415647 158.275193 
L 93.50876 123.940053 
L 94.601873 119.071488 
L 95.694986 104.64664 
L 96.788099 75.261217 
L 97.881212 229.539386 
L 98.974325 114.363303 
L 100.067438 83.914593 
L 101.160551 98.929863 
L 102.253664 91.3156 
L 103.346777 111.243469 
L 104.43989 70.29328 
L 105.533003 220.391823 
L 106.626116 123.255964 
L 107.719229 112.243824 
L 108.812342 89.219012 
L 109.905455 94.10216 
L 110.998567 116.906085 
L 112.09168 70.356711 
L 113.184793 219.029956 
L 114.277906 125.096437 
L 115.371019 119.2728 
L 116.464132 107.39783 
L 117.557245 78.217284 
L 118.650358 191.599496 
L 119.743471 157.031417 
L 120.836584 236.9277 
L 121.929697 216.603625 
L 123.02281 260.799477 
L 124.115923 124.64575 
L 125.209036 112.223358 
L 126.302149 89.279805 
L 127.395262 92.789354 
L 128.488375 123.303921 
L 129.581488 73.39475 
L 130.674601 180.582507 
L 131.767713 156.877599 
L 132.860826 235.639747 
L 133.953939 220.837697 
L 135.047052 254.55981 
L 136.140165 150.624846 
L 137.233278 208.436627 
L 138.326391 283.030844 
L 139.419504 151.591007 
L 140.512617 151.976302 
L 141.60573 211.211492 
L 142.698843 279.439286 
L 143.791956 136.89268 
L 144.885069 121.37192 
L 145.978182 101.297327 
L 147.071295 73.987811 
L 148.164408 250.77425 
L 149.257521 124.176094 
L 150.350634 81.233324 
L 151.443747 110.462005 
L 152.53686 71.420248 
L 153.629972 222.215752 
L 154.723085 120.848566 
L 155.816198 103.712783 
L 156.909311 75.63635 
L 158.002424 215.27891 
L 159.095537 135.714261 
L 160.18865 168.622676 
L 161.281763 255.937045 
L 162.374876 130.214163 
L 163.467989 133.530994 
L 164.561102 157.311136 
L 165.654215 239.346258 
L 166.747328 188.983156 
L 167.840441 281.564755 
L 168.933554 146.251289 
L 170.026667 140.397844 
L 171.11978 164.900797 
L 172.212893 255.867409 
L 173.306006 130.347088 
L 174.399118 134.154362 
L 175.492231 159.515012 
L 176.585344 244.8455 
L 177.678457 164.733429 
L 178.77157 248.222232 
L 179.864683 148.864456 
L 180.957796 210.145674 
L 182.050909 279.787 
L 183.144022 137.921738 
L 184.237135 123.941586 
L 185.330248 107.926353 
L 186.423361 79.939416 
L 187.516474 169.856219 
L 188.609587 141.514187 
L 189.7027 185.80745 
L 190.795813 290.000061 
L 191.888926 211.833969 
L 192.982039 171.663425 
L 194.075152 261.966557 
L 195.168264 120.682625 
L 197.35449 72.441318 
L 198.447603 262.423235 
L 199.540716 161.011586 
L 200.633829 162.647538 
L 201.726942 227.189572 
L 202.820055 242.298082 
L 203.913168 185.43549 
L 205.006281 272.188675 
L 206.099394 120.262958 
L 207.192507 86.320778 
L 208.28562 87.612975 
L 209.378733 125.793826 
L 210.471846 75.625546 
L 211.564959 156.952547 
L 212.658072 135.288105 
L 213.751185 161.229799 
L 214.844298 244.561039 
L 215.93741 166.080036 
L 217.030523 251.17534 
L 218.123636 140.510088 
L 219.216749 179.748807 
L 220.309862 282.827678 
L 221.402975 159.691257 
L 222.496088 148.92942 
L 223.589201 199.523357 
L 224.682314 292.980374 
L 225.775427 228.116441 
L 226.86854 139.811951 
L 227.961653 148.772856 
L 229.054766 204.063605 
L 230.147879 287.51718 
L 231.240992 179.028349 
L 232.334105 174.018802 
L 233.427218 275.284476 
L 234.520331 124.686112 
L 235.613444 93.20189 
L 236.706556 72.743322 
L 237.799669 236.933868 
L 238.892782 108.833469 
L 239.985895 71.130153 
L 241.079008 196.771882 
L 242.172121 153.334141 
L 243.265234 228.474638 
L 244.358347 246.035258 
L 245.45146 168.696234 
L 246.544573 244.669789 
L 247.637686 161.673426 
L 248.730799 239.753624 
L 249.823912 181.078263 
L 250.917025 274.762478 
L 252.010138 124.428357 
L 253.103251 93.03898 
L 254.196364 72.921707 
L 255.289477 234.948669 
L 256.38259 109.325695 
L 257.475702 72.232626 
L 258.568815 185.569769 
L 259.661928 157.008384 
L 260.755041 236.495161 
L 261.848154 217.884946 
L 262.941267 259.091642 
L 264.03438 130.06334 
L 265.127493 134.737261 
L 266.220606 161.378055 
L 267.313719 249.182582 
L 268.406832 147.021059 
L 269.499945 204.303353 
L 270.593058 288.545525 
L 271.686171 187.218094 
L 272.779284 175.04219 
L 273.872397 274.156082 
L 274.96551 122.468295 
L 276.058623 89.648912 
L 277.151736 78.46206 
L 278.244848 188.707003 
L 279.337961 158.617345 
L 280.431074 237.579842 
L 281.524187 213.80052 
L 282.6173 264.117235 
L 283.710413 117.879164 
L 284.803526 88.46165 
L 285.896639 82.434741 
L 286.989752 172.4778 
L 288.082865 148.240375 
L 289.175978 205.4218 
L 290.269091 289.599363 
L 291.362204 196.682743 
L 292.455317 172.845588 
L 293.54843 265.760247 
L 294.641543 117.63806 
L 295.734656 85.973884 
L 296.827769 89.633224 
L 297.920882 123.249617 
L 299.013994 73.428588 
L 300.107107 180.204878 
L 301.20022 156.786641 
L 302.293333 235.37397 
L 303.386446 221.763817 
L 304.479559 252.945144 
L 305.572672 160.204342 
L 306.665785 229.182866 
L 307.758898 228.702727 
L 308.852011 239.177001 
L 309.945124 228.335866 
L 311.038237 255.931269 
L 312.13135 143.496962 
L 313.224463 190.030006 
L 314.317576 292.940903 
L 315.410689 233.486288 
L 316.503802 141.551625 
L 317.596915 156.42192 
L 318.690028 226.785808 
L 319.78314 237.114821 
L 320.876253 207.721125 
L 321.969366 281.345972 
L 323.062479 143.921335 
L 324.155592 137.734296 
L 325.248705 154.299874 
L 326.341818 229.062849 
L 327.434931 229.55996 
L 328.528044 234.013885 
L 329.621157 243.958102 
L 330.71427 209.320602 
L 331.807383 280.402702 
L 332.900496 140.114774 
L 333.993609 129.194376 
L 336.179835 118.382479 
L 337.272948 101.279534 
L 338.366061 73.816699 
L 339.459174 259.888903 
L 340.552287 150.006791 
L 341.645399 142.107532 
L 342.738512 152.434335 
L 343.831625 223.312092 
L 344.924738 246.574193 
L 346.017851 163.950217 
L 347.110964 235.997052 
L 348.204077 200.163376 
L 349.29719 281.03559 
L 350.390303 142.675313 
L 351.483416 135.038087 
L 352.576529 144.026983 
L 353.669642 195.702463 
L 354.762755 294.00608 
L 355.855868 237.758584 
L 356.948981 125.943722 
L 358.042094 95.603726 
L 359.135207 73.34009 
L 360.22832 260.046287 
L 361.321433 150.378894 
L 362.414545 143.394773 
L 363.507658 157.172186 
L 364.600771 236.515164 
L 365.693884 201.331847 
L 366.786997 279.670406 
L 367.88011 137.424199 
L 368.973223 122.644719 
L 370.066336 104.533683 
L 371.159449 75.996757 
L 372.252562 218.87168 
L 373.345675 130.385774 
L 374.438788 143.928359 
L 375.531901 187.817894 
L 376.625014 293.474847 
L 377.718127 237.87778 
L 378.81124 133.553885 
L 379.904353 121.562214 
L 380.997466 113.904379 
L 382.090579 89.865841 
L 383.183691 93.185489 
L 384.276804 121.576833 
L 385.369917 72.224033 
L 386.46303 194.142599 
L 387.556143 154.045257 
L 388.649256 229.858041 
L 389.742369 242.053413 
L 390.835482 187.883322 
L 391.928595 274.92849 
L 393.021708 124.741164 
L 394.114821 93.587078 
L 395.207934 72.344299 
L 396.301047 241.335736 
L 397.39416 109.36759 
L 398.487273 70.583445 
L 398.487273 70.583445 
" style="fill:none;opacity:0.4;stroke:#ff7f0e;stroke-linecap:square;stroke-width:1.5;"/>
   </g>
   <g id="line2d_17">
    <path clip-path="url(#p60bda94f78)" d="M 73.832727 77.127683 
L 74.92584 83.231823 
L 76.018953 124.630489 
L 77.112066 80.68986 
L 78.205179 99.184658 
L 79.298292 71.342625 
L 80.391405 203.864468 
L 81.484518 133.843873 
L 82.577631 164.959878 
L 83.670744 261.779757 
L 84.763857 113.576276 
L 85.85697 71.526858 
L 86.950083 95.034733 
L 88.043196 79.880227 
L 89.136309 140.759143 
L 90.229421 105.471426 
L 91.322534 75.793163 
L 92.415647 149.441435 
L 93.50876 120.931608 
L 94.601873 117.600158 
L 95.694986 102.819751 
L 96.788099 68.914119 
L 97.881212 227.135197 
L 98.974325 109.108873 
L 100.067438 74.45572 
L 101.160551 92.78012 
L 102.253664 85.449533 
L 103.346777 108.771891 
L 104.43989 69.144776 
L 105.533003 212.496058 
L 106.626116 118.544498 
L 107.719229 107.709175 
L 108.812342 86.259023 
L 109.905455 86.581849 
L 110.998567 109.28084 
L 112.09168 69.19858 
L 113.184793 211.227894 
L 114.277906 120.545743 
L 115.371019 115.163665 
L 116.464132 105.846916 
L 117.557245 72.690088 
L 118.650358 181.980173 
L 119.743471 153.024971 
L 120.836584 229.832583 
L 121.929697 210.47474 
L 123.02281 258.222322 
L 124.115923 116.562258 
L 125.209036 106.313007 
L 126.302149 86.593865 
L 127.395262 85.387456 
L 128.488375 115.541651 
L 129.581488 71.963212 
L 130.674601 175.016803 
L 131.767713 152.605125 
L 132.860826 228.543346 
L 133.953939 214.867979 
L 135.047052 248.097188 
L 136.140165 145.351162 
L 137.233278 201.585395 
L 138.326391 273.863991 
L 139.419504 143.817506 
L 140.512617 144.844282 
L 141.60573 204.503061 
L 142.698843 271.17609 
L 143.791956 124.090663 
L 144.885069 114.879775 
L 145.978182 100.148502 
L 147.071295 67.33682 
L 148.164408 245.097514 
L 149.257521 115.921562 
L 150.350634 71.530887 
L 151.443747 107.693914 
L 152.53686 69.383169 
L 153.629972 214.077707 
L 154.723085 115.950015 
L 155.816198 98.474719 
L 156.909311 70.309075 
L 158.002424 208.747616 
L 159.095537 132.306936 
L 160.18865 160.149932 
L 161.281763 252.859606 
L 162.374876 126.938408 
L 163.467989 127.734884 
L 164.561102 154.064261 
L 165.654215 237.234089 
L 166.747328 184.341967 
L 167.840441 269.602214 
L 168.933554 143.379868 
L 170.026667 132.5024 
L 171.11978 160.264101 
L 172.212893 252.483831 
L 173.306006 127.092512 
L 174.399118 128.30081 
L 175.492231 156.114425 
L 176.585344 242.849176 
L 177.678457 162.228157 
L 178.77157 244.927865 
L 179.864683 147.357185 
L 180.957796 203.619835 
L 182.050909 271.669493 
L 183.144022 125.552615 
L 184.237135 117.100623 
L 185.330248 106.836253 
L 186.423361 74.899989 
L 187.516474 160.086393 
L 188.609587 137.65375 
L 189.7027 178.36223 
L 190.795813 276.46639 
L 191.888926 193.831753 
L 192.982039 165.306701 
L 194.075152 259.166056 
L 195.168264 115.969875 
L 196.261377 88.738873 
L 197.35449 67.086446 
L 198.447603 250.853156 
L 199.540716 156.494907 
L 200.633829 150.027793 
L 201.726942 221.081867 
L 202.820055 238.94146 
L 203.913168 174.538982 
L 205.006281 262.901484 
L 206.099394 115.762965 
L 207.192507 76.581117 
L 208.28562 84.33048 
L 209.378733 118.158633 
L 210.471846 73.971302 
L 211.564959 152.604662 
L 212.658072 131.583946 
L 213.751185 156.021899 
L 214.844298 242.664515 
L 215.93741 163.459239 
L 217.030523 247.339292 
L 218.123636 138.705663 
L 219.216749 172.400499 
L 220.309862 272.199122 
L 221.402975 148.247292 
L 222.496088 141.48773 
L 223.589201 192.855038 
L 224.682314 279.07189 
L 225.775427 219.709481 
L 226.86854 132.075673 
L 227.961653 142.037469 
L 229.054766 198.886191 
L 230.147879 276.133223 
L 231.240992 177.282969 
L 232.334105 170.802413 
L 233.427218 269.118367 
L 234.520331 122.564957 
L 235.613444 87.301487 
L 236.706556 70.050322 
L 237.799669 233.815033 
L 238.892782 103.650599 
L 239.985895 55.143195 
L 241.079008 192.041804 
L 242.172121 149.720797 
L 243.265234 219.589215 
L 244.358347 242.781644 
L 245.45146 160.576159 
L 246.544573 242.100978 
L 247.637686 158.81067 
L 248.730799 237.629261 
L 249.823912 176.419425 
L 250.917025 264.443591 
L 252.010138 121.003062 
L 253.103251 87.06156 
L 254.196364 70.26882 
L 255.289477 232.429918 
L 256.38259 104.069339 
L 257.475702 57.245595 
L 258.568815 179.704665 
L 259.661928 152.891547 
L 260.755041 229.447537 
L 261.848154 211.802913 
L 262.941267 255.320737 
L 264.03438 124.692423 
L 265.127493 128.812469 
L 266.220606 157.848787 
L 267.313719 247.176631 
L 268.406832 145.676163 
L 269.499945 197.273058 
L 270.593058 277.248853 
L 271.686171 184.183977 
L 272.779284 170.584236 
L 273.872397 268.244126 
L 274.96551 120.392067 
L 276.058623 81.834656 
L 277.151736 75.590318 
L 278.244848 181.117378 
L 279.337961 153.536843 
L 280.431074 230.666354 
L 281.524187 207.650777 
L 282.6173 262.475827 
L 283.710413 105.696164 
L 284.803526 78.179988 
L 285.896639 77.891427 
L 286.989752 164.107423 
L 288.082865 143.096977 
L 289.175978 197.072923 
L 290.269091 277.405132 
L 291.362204 191.975128 
L 292.455317 166.86881 
L 293.54843 262.043894 
L 294.641543 112.810749 
L 295.734656 74.81873 
L 296.827769 84.985296 
L 297.920882 115.585222 
L 299.013994 71.993519 
L 300.107107 174.659391 
L 301.20022 152.507429 
L 302.293333 228.254785 
L 303.386446 215.837741 
L 304.479559 245.665509 
L 305.572672 153.33193 
L 306.665785 225.573694 
L 307.758898 222.575446 
L 308.852011 227.141936 
L 309.945124 214.574355 
L 311.038237 249.970857 
L 312.13135 139.608606 
L 313.224463 182.401872 
L 314.317576 278.868439 
L 315.410689 218.474869 
L 316.503802 133.722287 
L 317.596915 149.329049 
L 318.690028 222.806958 
L 319.78314 233.058634 
L 320.876253 193.87265 
L 321.969366 271.587378 
L 323.062479 138.85046 
L 324.155592 129.845591 
L 325.248705 150.559775 
L 326.341818 225.409393 
L 327.434931 224.577974 
L 328.528044 220.98852 
L 329.621157 233.068333 
L 330.71427 195.419499 
L 331.807383 271.377045 
L 332.900496 133.009388 
L 333.993609 121.78959 
L 335.086722 122.206868 
L 336.179835 116.977254 
L 337.272948 99.171858 
L 338.366061 66.898399 
L 339.459174 250.164324 
L 340.552287 145.600823 
L 341.645399 130.288113 
L 342.738512 148.751998 
L 343.831625 219.0685 
L 344.924738 243.649182 
L 346.017851 156.441459 
L 347.110964 233.24629 
L 348.204077 193.821734 
L 349.29719 271.218271 
L 350.390303 137.0849 
L 351.483416 127.237309 
L 352.576529 141.158129 
L 353.669642 190.577997 
L 354.762755 279.453549 
L 355.855868 229.090411 
L 356.948981 116.135068 
L 358.042094 89.434729 
L 359.135207 67.497128 
L 360.22832 249.2146 
L 361.321433 146.196593 
L 362.414545 131.505397 
L 363.507658 153.070432 
L 364.600771 233.89886 
L 365.693884 195.852787 
L 366.786997 270.875477 
L 367.88011 129.141428 
L 370.066336 103.416306 
L 371.159449 69.982434 
L 372.252562 213.124347 
L 373.345675 126.347237 
L 374.438788 137.750056 
L 375.531901 182.859013 
L 376.625014 278.67458 
L 377.718127 223.516185 
L 378.81124 126.175092 
L 379.904353 117.064147 
L 380.997466 112.52258 
L 382.090579 86.542592 
L 383.183691 85.706574 
L 384.276804 113.839593 
L 385.369917 70.910586 
L 386.46303 187.835615 
L 387.556143 150.261194 
L 388.649256 221.190189 
L 389.742369 238.353427 
L 390.835482 176.548784 
L 391.928595 264.789629 
L 393.021708 121.452893 
L 394.114821 87.893656 
L 395.207934 69.566582 
L 396.301047 236.83799 
L 397.39416 104.397478 
L 398.487273 53.568 
L 398.487273 53.568 
" style="fill:none;opacity:0.4;stroke:#2ca02c;stroke-linecap:square;stroke-width:1.5;"/>
   </g>
   <g id="line2d_18">
    <path clip-path="url(#p60bda94f78)" d="M 73.832727 87.232279 
L 74.92584 85.389239 
L 76.018953 125.783165 
L 77.112066 83.095154 
L 78.205179 104.364105 
L 79.298292 72.731484 
L 80.391405 207.52017 
L 81.484518 137.013267 
L 82.577631 164.740525 
L 83.670744 268.499171 
L 84.763857 117.465059 
L 85.85697 84.113123 
L 86.950083 97.784211 
L 88.043196 82.339611 
L 89.136309 140.701844 
L 91.322534 75.898419 
L 92.415647 149.373654 
L 93.50876 123.117905 
L 94.601873 118.029844 
L 95.694986 102.736781 
L 96.788099 68.630372 
L 97.881212 227.061248 
L 98.974325 114.769849 
L 100.067438 84.572011 
L 101.160551 95.271915 
L 102.253664 88.251318 
L 103.346777 111.24814 
L 104.43989 70.30583 
L 105.533003 218.774162 
L 106.626116 123.585351 
L 107.719229 112.4016 
L 108.812342 86.146565 
L 109.905455 88.426387 
L 110.998567 111.657111 
L 112.09168 70.376785 
L 113.184793 217.237404 
L 114.277906 125.39951 
L 115.371019 119.006453 
L 116.464132 105.779634 
L 117.557245 72.436968 
L 118.650358 181.640232 
L 119.743471 153.405238 
L 120.836584 229.455524 
L 121.929697 210.308085 
L 123.02281 258.219648 
L 124.115923 125.228006 
L 125.209036 112.573461 
L 126.302149 86.500269 
L 127.395262 87.113902 
L 128.488375 117.475399 
L 129.581488 73.463495 
L 130.674601 177.667123 
L 131.767713 152.852219 
L 132.860826 228.140901 
L 133.953939 214.706209 
L 135.047052 247.839933 
L 136.140165 148.211993 
L 137.233278 201.46905 
L 138.326391 284.015082 
L 139.419504 151.74832 
L 140.512617 145.196952 
L 141.60573 203.915028 
L 142.698843 280.319018 
L 143.791956 137.247525 
L 144.885069 117.672575 
L 145.978182 100.523635 
L 147.071295 67.056888 
L 148.164408 251.26751 
L 149.257521 119.233579 
L 150.350634 81.749867 
L 151.443747 110.518626 
L 152.53686 70.273027 
L 153.629972 220.843259 
L 154.723085 121.205336 
L 155.816198 104.115941 
L 156.909311 70.068007 
L 158.002424 208.445078 
L 159.095537 135.838414 
L 160.18865 159.991906 
L 161.281763 256.089936 
L 162.374876 130.395936 
L 163.467989 131.925207 
L 164.561102 153.758586 
L 165.654215 237.219542 
L 166.747328 184.272688 
L 167.840441 282.689762 
L 168.933554 145.445828 
L 170.026667 133.862378 
L 171.11978 159.879947 
L 172.212893 256.025756 
L 173.306006 130.528218 
L 174.399118 132.437222 
L 175.492231 155.796306 
L 176.585344 243.817976 
L 177.678457 162.82439 
L 178.77157 248.455706 
L 179.864683 148.806373 
L 180.957796 203.514615 
L 182.050909 280.621378 
L 183.144022 138.262998 
L 184.237135 119.715643 
L 185.330248 107.129557 
L 186.423361 74.671151 
L 187.516474 159.907402 
L 188.609587 138.781074 
L 189.7027 177.850037 
L 190.795813 291.311297 
L 191.888926 193.685779 
L 192.982039 165.25361 
L 194.075152 262.023392 
L 195.168264 120.877304 
L 196.261377 97.170934 
L 197.35449 66.904282 
L 198.447603 263.305926 
L 199.540716 156.341124 
L 200.633829 149.863919 
L 201.726942 220.58333 
L 202.820055 238.961676 
L 203.913168 174.39857 
L 205.006281 273.104811 
L 206.099394 120.525027 
L 207.192507 86.889985 
L 208.28562 86.591547 
L 209.378733 119.882512 
L 210.471846 75.716931 
L 211.564959 155.722855 
L 212.658072 133.107904 
L 213.751185 155.706454 
L 214.844298 243.444304 
L 215.93741 163.99033 
L 217.030523 251.50355 
L 218.123636 140.677955 
L 219.216749 172.494202 
L 220.309862 283.840013 
L 221.402975 149.948067 
L 222.496088 142.123435 
L 223.589201 192.267398 
L 224.682314 294.414765 
L 225.775427 219.299726 
L 226.86854 131.90417 
L 227.961653 143.147465 
L 229.054766 198.46007 
L 230.147879 288.734107 
L 231.240992 177.196469 
L 232.334105 170.701079 
L 233.427218 275.844234 
L 234.520331 124.799426 
L 235.613444 93.716972 
L 236.706556 70.034134 
L 237.799669 237.0188 
L 238.892782 109.018949 
L 239.985895 71.716368 
L 241.079008 191.678366 
L 242.172121 150.804159 
L 243.265234 219.138563 
L 244.358347 243.181166 
L 245.45146 161.409218 
L 246.544573 244.767842 
L 247.637686 159.626079 
L 248.730799 239.500433 
L 249.823912 176.384946 
L 250.917025 275.753669 
L 252.010138 124.710286 
L 253.103251 93.555095 
L 254.196364 70.258408 
L 255.289477 234.986428 
L 256.38259 109.57589 
L 257.475702 72.834172 
L 258.568815 179.372533 
L 259.661928 153.194157 
L 260.755041 229.060103 
L 261.848154 211.637328 
L 262.941267 255.236697 
L 264.03438 130.60773 
L 265.127493 132.868655 
L 266.220606 157.520613 
L 267.313719 249.158835 
L 268.406832 147.092762 
L 269.499945 197.166127 
L 270.593058 289.775609 
L 271.686171 183.917558 
L 272.779284 170.562735 
L 273.872397 274.660823 
L 274.96551 122.693246 
L 276.058623 90.190272 
L 277.151736 76.697105 
L 278.244848 180.677529 
L 279.337961 153.617389 
L 280.431074 230.297711 
L 281.524187 207.485584 
L 282.6173 264.073592 
L 283.710413 118.468052 
L 284.803526 89.173729 
L 285.896639 79.03255 
L 286.989752 163.784597 
L 288.082865 143.656628 
L 289.175978 196.486174 
L 290.269091 290.891631 
L 291.362204 191.633084 
L 292.455317 166.829946 
L 293.54843 265.949792 
L 294.641543 117.826964 
L 295.734656 86.665711 
L 296.827769 87.100353 
L 297.920882 117.516403 
L 299.013994 73.497724 
L 300.107107 177.308427 
L 301.20022 152.751314 
L 302.293333 227.848168 
L 303.386446 215.677826 
L 304.479559 245.359013 
L 305.572672 155.152721 
L 306.665785 225.724517 
L 307.758898 222.412108 
L 308.852011 226.602003 
L 309.945124 214.013064 
L 311.038237 249.754284 
L 312.13135 143.163867 
L 313.224463 182.335517 
L 314.317576 294.360212 
L 315.410689 218.215082 
L 316.503802 133.525432 
L 317.596915 149.595076 
L 318.690028 222.533694 
L 319.78314 233.006114 
L 320.876253 193.448313 
L 321.969366 282.300759 
L 323.062479 144.174704 
L 324.155592 131.41961 
L 325.248705 150.268254 
L 326.341818 225.212502 
L 327.434931 224.464447 
L 328.528044 220.422523 
L 329.621157 232.580385 
L 330.71427 194.984714 
L 331.807383 281.297052 
L 332.900496 140.410538 
L 333.993609 124.024985 
L 335.086722 122.166613 
L 336.179835 116.863548 
L 337.272948 99.080294 
L 338.366061 66.626168 
L 339.459174 260.683097 
L 340.552287 145.386283 
L 341.645399 131.002438 
L 342.738512 148.482619 
L 343.831625 218.801974 
L 344.924738 244.379552 
L 346.017851 157.854706 
L 347.110964 234.326442 
L 348.204077 193.678292 
L 349.29719 281.983424 
L 350.390303 142.942088 
L 351.483416 129.025689 
L 352.576529 140.957852 
L 353.669642 190.18796 
L 354.762755 295.488 
L 355.855868 228.748473 
L 356.948981 119.016436 
L 358.042094 96.259576 
L 359.135207 67.317887 
L 360.22832 260.838199 
L 361.321433 145.961052 
L 362.414545 132.094571 
L 363.507658 152.758445 
L 364.600771 233.820132 
L 365.693884 195.728135 
L 366.786997 280.533665 
L 367.88011 137.748843 
L 368.973223 118.6909 
L 370.066336 103.768655 
L 371.159449 69.709668 
L 372.252562 212.85996 
L 373.345675 130.621636 
L 374.438788 139.060615 
L 375.531901 182.441414 
L 376.625014 294.935694 
L 377.718127 223.269983 
L 378.81124 126.155053 
L 379.904353 120.971435 
L 380.997466 112.442604 
L 382.090579 86.403642 
L 383.183691 87.458693 
L 384.276804 115.902985 
L 385.369917 72.277944 
L 386.46303 190.902143 
L 387.556143 151.234166 
L 388.649256 220.749842 
L 389.742369 238.336633 
L 390.835482 176.374606 
L 391.928595 275.913763 
L 393.021708 125.022986 
L 394.114821 94.0992 
L 395.207934 69.537451 
L 396.301047 241.532805 
L 397.39416 109.302768 
L 398.487273 71.140173 
L 398.487273 71.140173 
" style="fill:none;stroke:#000000;stroke-linecap:square;stroke-width:1.5;"/>
   </g>
   <g id="patch_3">
    <path d="M 57.6 307.584 
L 57.6 41.472 
" style="fill:none;stroke:#000000;stroke-linecap:square;stroke-linejoin:miter;stroke-width:0.8;"/>
   </g>
   <g id="patch_4">
    <path d="M 414.72 307.584 
L 414.72 41.472 
" style="fill:none;stroke:#000000;stroke-linecap:square;stroke-linejoin:miter;stroke-width:0.8;"/>
   </g>
   <g id="patch_5">
    <path d="M 57.6 307.584 
L 414.72 307.584 
" style="fill:none;stroke:#000000;stroke-linecap:square;stroke-linejoin:miter;stroke-width:0.8;"/>
   </g>
   <g id="patch_6">
    <path d="M 57.6 41.472 
L 414.72 41.472 
" style="fill:none;stroke:#000000;stroke-linecap:square;stroke-linejoin:miter;stroke-width:0.8;"/>
   </g>
   <g id="text_15">
    <!-- Plot of Train Data for Henon -->
    <defs>
     <path d="M 19.671875 64.796875 
L 19.671875 37.40625 
L 32.078125 37.40625 
Q 38.96875 37.40625 42.71875 40.96875 
Q 46.484375 44.53125 46.484375 51.125 
Q 46.484375 57.671875 42.71875 61.234375 
Q 38.96875 64.796875 32.078125 64.796875 
z
M 9.8125 72.90625 
L 32.078125 72.90625 
Q 44.34375 72.90625 50.609375 67.359375 
Q 56.890625 61.8125 56.890625 51.125 
Q 56.890625 40.328125 50.609375 34.8125 
Q 44.34375 29.296875 32.078125 29.296875 
L 19.671875 29.296875 
L 19.671875 0 
L 9.8125 0 
z
" id="DejaVuSans-50"/>
     <path d="M 9.421875 75.984375 
L 18.40625 75.984375 
L 18.40625 0 
L 9.421875 0 
z
" id="DejaVuSans-6c"/>
     <path d="M 30.609375 48.390625 
Q 23.390625 48.390625 19.1875 42.75 
Q 14.984375 37.109375 14.984375 27.296875 
Q 14.984375 17.484375 19.15625 11.84375 
Q 23.34375 6.203125 30.609375 6.203125 
Q 37.796875 6.203125 41.984375 11.859375 
Q 46.1875 17.53125 46.1875 27.296875 
Q 46.1875 37.015625 41.984375 42.703125 
Q 37.796875 48.390625 30.609375 48.390625 
z
M 30.609375 56 
Q 42.328125 56 49.015625 48.375 
Q 55.71875 40.765625 55.71875 27.296875 
Q 55.71875 13.875 49.015625 6.21875 
Q 42.328125 -1.421875 30.609375 -1.421875 
Q 18.84375 -1.421875 12.171875 6.21875 
Q 5.515625 13.875 5.515625 27.296875 
Q 5.515625 40.765625 12.171875 48.375 
Q 18.84375 56 30.609375 56 
z
" id="DejaVuSans-6f"/>
     <path d="M 18.3125 70.21875 
L 18.3125 54.6875 
L 36.8125 54.6875 
L 36.8125 47.703125 
L 18.3125 47.703125 
L 18.3125 18.015625 
Q 18.3125 11.328125 20.140625 9.421875 
Q 21.96875 7.515625 27.59375 7.515625 
L 36.8125 7.515625 
L 36.8125 0 
L 27.59375 0 
Q 17.1875 0 13.234375 3.875 
Q 9.28125 7.765625 9.28125 18.015625 
L 9.28125 47.703125 
L 2.6875 47.703125 
L 2.6875 54.6875 
L 9.28125 54.6875 
L 9.28125 70.21875 
z
" id="DejaVuSans-74"/>
     <path id="DejaVuSans-20"/>
     <path d="M 37.109375 75.984375 
L 37.109375 68.5 
L 28.515625 68.5 
Q 23.6875 68.5 21.796875 66.546875 
Q 19.921875 64.59375 19.921875 59.515625 
L 19.921875 54.6875 
L 34.71875 54.6875 
L 34.71875 47.703125 
L 19.921875 47.703125 
L 19.921875 0 
L 10.890625 0 
L 10.890625 47.703125 
L 2.296875 47.703125 
L 2.296875 54.6875 
L 10.890625 54.6875 
L 10.890625 58.5 
Q 10.890625 67.625 15.140625 71.796875 
Q 19.390625 75.984375 28.609375 75.984375 
z
" id="DejaVuSans-66"/>
     <path d="M -0.296875 72.90625 
L 61.375 72.90625 
L 61.375 64.59375 
L 35.5 64.59375 
L 35.5 0 
L 25.59375 0 
L 25.59375 64.59375 
L -0.296875 64.59375 
z
" id="DejaVuSans-54"/>
     <path d="M 41.109375 46.296875 
Q 39.59375 47.171875 37.8125 47.578125 
Q 36.03125 48 33.890625 48 
Q 26.265625 48 22.1875 43.046875 
Q 18.109375 38.09375 18.109375 28.8125 
L 18.109375 0 
L 9.078125 0 
L 9.078125 54.6875 
L 18.109375 54.6875 
L 18.109375 46.1875 
Q 20.953125 51.171875 25.484375 53.578125 
Q 30.03125 56 36.53125 56 
Q 37.453125 56 38.578125 55.875 
Q 39.703125 55.765625 41.0625 55.515625 
z
" id="DejaVuSans-72"/>
     <path d="M 34.28125 27.484375 
Q 23.390625 27.484375 19.1875 25 
Q 14.984375 22.515625 14.984375 16.5 
Q 14.984375 11.71875 18.140625 8.90625 
Q 21.296875 6.109375 26.703125 6.109375 
Q 34.1875 6.109375 38.703125 11.40625 
Q 43.21875 16.703125 43.21875 25.484375 
L 43.21875 27.484375 
z
M 52.203125 31.203125 
L 52.203125 0 
L 43.21875 0 
L 43.21875 8.296875 
Q 40.140625 3.328125 35.546875 0.953125 
Q 30.953125 -1.421875 24.3125 -1.421875 
Q 15.921875 -1.421875 10.953125 3.296875 
Q 6 8.015625 6 15.921875 
Q 6 25.140625 12.171875 29.828125 
Q 18.359375 34.515625 30.609375 34.515625 
L 43.21875 34.515625 
L 43.21875 35.40625 
Q 43.21875 41.609375 39.140625 45 
Q 35.0625 48.390625 27.6875 48.390625 
Q 23 48.390625 18.546875 47.265625 
Q 14.109375 46.140625 10.015625 43.890625 
L 10.015625 52.203125 
Q 14.9375 54.109375 19.578125 55.046875 
Q 24.21875 56 28.609375 56 
Q 40.484375 56 46.34375 49.84375 
Q 52.203125 43.703125 52.203125 31.203125 
z
" id="DejaVuSans-61"/>
     <path d="M 9.421875 54.6875 
L 18.40625 54.6875 
L 18.40625 0 
L 9.421875 0 
z
M 9.421875 75.984375 
L 18.40625 75.984375 
L 18.40625 64.59375 
L 9.421875 64.59375 
z
" id="DejaVuSans-69"/>
     <path d="M 54.890625 33.015625 
L 54.890625 0 
L 45.90625 0 
L 45.90625 32.71875 
Q 45.90625 40.484375 42.875 44.328125 
Q 39.84375 48.1875 33.796875 48.1875 
Q 26.515625 48.1875 22.3125 43.546875 
Q 18.109375 38.921875 18.109375 30.90625 
L 18.109375 0 
L 9.078125 0 
L 9.078125 54.6875 
L 18.109375 54.6875 
L 18.109375 46.1875 
Q 21.34375 51.125 25.703125 53.5625 
Q 30.078125 56 35.796875 56 
Q 45.21875 56 50.046875 50.171875 
Q 54.890625 44.34375 54.890625 33.015625 
z
" id="DejaVuSans-6e"/>
     <path d="M 19.671875 64.796875 
L 19.671875 8.109375 
L 31.59375 8.109375 
Q 46.6875 8.109375 53.6875 14.9375 
Q 60.6875 21.78125 60.6875 36.53125 
Q 60.6875 51.171875 53.6875 57.984375 
Q 46.6875 64.796875 31.59375 64.796875 
z
M 9.8125 72.90625 
L 30.078125 72.90625 
Q 51.265625 72.90625 61.171875 64.09375 
Q 71.09375 55.28125 71.09375 36.53125 
Q 71.09375 17.671875 61.125 8.828125 
Q 51.171875 0 30.078125 0 
L 9.8125 0 
z
" id="DejaVuSans-44"/>
     <path d="M 9.8125 72.90625 
L 19.671875 72.90625 
L 19.671875 43.015625 
L 55.515625 43.015625 
L 55.515625 72.90625 
L 65.375 72.90625 
L 65.375 0 
L 55.515625 0 
L 55.515625 34.71875 
L 19.671875 34.71875 
L 19.671875 0 
L 9.8125 0 
z
" id="DejaVuSans-48"/>
     <path d="M 56.203125 29.59375 
L 56.203125 25.203125 
L 14.890625 25.203125 
Q 15.484375 15.921875 20.484375 11.0625 
Q 25.484375 6.203125 34.421875 6.203125 
Q 39.59375 6.203125 44.453125 7.46875 
Q 49.3125 8.734375 54.109375 11.28125 
L 54.109375 2.78125 
Q 49.265625 0.734375 44.1875 -0.34375 
Q 39.109375 -1.421875 33.890625 -1.421875 
Q 20.796875 -1.421875 13.15625 6.1875 
Q 5.515625 13.8125 5.515625 26.8125 
Q 5.515625 40.234375 12.765625 48.109375 
Q 20.015625 56 32.328125 56 
Q 43.359375 56 49.78125 48.890625 
Q 56.203125 41.796875 56.203125 29.59375 
z
M 47.21875 32.234375 
Q 47.125 39.59375 43.09375 43.984375 
Q 39.0625 48.390625 32.421875 48.390625 
Q 24.90625 48.390625 20.390625 44.140625 
Q 15.875 39.890625 15.1875 32.171875 
z
" id="DejaVuSans-65"/>
    </defs>
    <g transform="translate(152.213437 35.472)scale(0.12 -0.12)">
     <use xlink:href="#DejaVuSans-50"/>
     <use x="60.302734" xlink:href="#DejaVuSans-6c"/>
     <use x="88.085938" xlink:href="#DejaVuSans-6f"/>
     <use x="149.267578" xlink:href="#DejaVuSans-74"/>
     <use x="188.476562" xlink:href="#DejaVuSans-20"/>
     <use x="220.263672" xlink:href="#DejaVuSans-6f"/>
     <use x="281.445312" xlink:href="#DejaVuSans-66"/>
     <use x="316.650391" xlink:href="#DejaVuSans-20"/>
     <use x="348.4375" xlink:href="#DejaVuSans-54"/>
     <use x="409.302734" xlink:href="#DejaVuSans-72"/>
     <use x="450.416016" xlink:href="#DejaVuSans-61"/>
     <use x="511.695312" xlink:href="#DejaVuSans-69"/>
     <use x="539.478516" xlink:href="#DejaVuSans-6e"/>
     <use x="602.857422" xlink:href="#DejaVuSans-20"/>
     <use x="634.644531" xlink:href="#DejaVuSans-44"/>
     <use x="711.646484" xlink:href="#DejaVuSans-61"/>
     <use x="772.925781" xlink:href="#DejaVuSans-74"/>
     <use x="812.134766" xlink:href="#DejaVuSans-61"/>
     <use x="873.414062" xlink:href="#DejaVuSans-20"/>
     <use x="905.201172" xlink:href="#DejaVuSans-66"/>
     <use x="940.40625" xlink:href="#DejaVuSans-6f"/>
     <use x="1001.587891" xlink:href="#DejaVuSans-72"/>
     <use x="1042.701172" xlink:href="#DejaVuSans-20"/>
     <use x="1074.488281" xlink:href="#DejaVuSans-48"/>
     <use x="1149.683594" xlink:href="#DejaVuSans-65"/>
     <use x="1211.207031" xlink:href="#DejaVuSans-6e"/>
     <use x="1274.585938" xlink:href="#DejaVuSans-6f"/>
     <use x="1335.767578" xlink:href="#DejaVuSans-6e"/>
    </g>
   </g>
   <g id="legend_1">
    <g id="patch_7">
     <path d="M 277.843437 108.1845 
L 407.72 108.1845 
Q 409.72 108.1845 409.72 106.1845 
L 409.72 48.472 
Q 409.72 46.472 407.72 46.472 
L 277.843437 46.472 
Q 275.843437 46.472 275.843437 48.472 
L 275.843437 106.1845 
Q 275.843437 108.1845 277.843437 108.1845 
z
" style="fill:#ffffff;opacity:0.8;stroke:#cccccc;stroke-linejoin:miter;"/>
    </g>
    <g id="line2d_19">
     <path d="M 279.843437 54.570438 
L 299.843437 54.570438 
" style="fill:none;opacity:0.4;stroke:#1f77b4;stroke-linecap:square;stroke-width:1.5;"/>
    </g>
    <g id="line2d_20"/>
    <g id="text_16">
     <!-- pred. (mean) -->
     <defs>
      <path d="M 18.109375 8.203125 
L 18.109375 -20.796875 
L 9.078125 -20.796875 
L 9.078125 54.6875 
L 18.109375 54.6875 
L 18.109375 46.390625 
Q 20.953125 51.265625 25.265625 53.625 
Q 29.59375 56 35.59375 56 
Q 45.5625 56 51.78125 48.09375 
Q 58.015625 40.1875 58.015625 27.296875 
Q 58.015625 14.40625 51.78125 6.484375 
Q 45.5625 -1.421875 35.59375 -1.421875 
Q 29.59375 -1.421875 25.265625 0.953125 
Q 20.953125 3.328125 18.109375 8.203125 
z
M 48.6875 27.296875 
Q 48.6875 37.203125 44.609375 42.84375 
Q 40.53125 48.484375 33.40625 48.484375 
Q 26.265625 48.484375 22.1875 42.84375 
Q 18.109375 37.203125 18.109375 27.296875 
Q 18.109375 17.390625 22.1875 11.75 
Q 26.265625 6.109375 33.40625 6.109375 
Q 40.53125 6.109375 44.609375 11.75 
Q 48.6875 17.390625 48.6875 27.296875 
z
" id="DejaVuSans-70"/>
      <path d="M 45.40625 46.390625 
L 45.40625 75.984375 
L 54.390625 75.984375 
L 54.390625 0 
L 45.40625 0 
L 45.40625 8.203125 
Q 42.578125 3.328125 38.25 0.953125 
Q 33.9375 -1.421875 27.875 -1.421875 
Q 17.96875 -1.421875 11.734375 6.484375 
Q 5.515625 14.40625 5.515625 27.296875 
Q 5.515625 40.1875 11.734375 48.09375 
Q 17.96875 56 27.875 56 
Q 33.9375 56 38.25 53.625 
Q 42.578125 51.265625 45.40625 46.390625 
z
M 14.796875 27.296875 
Q 14.796875 17.390625 18.875 11.75 
Q 22.953125 6.109375 30.078125 6.109375 
Q 37.203125 6.109375 41.296875 11.75 
Q 45.40625 17.390625 45.40625 27.296875 
Q 45.40625 37.203125 41.296875 42.84375 
Q 37.203125 48.484375 30.078125 48.484375 
Q 22.953125 48.484375 18.875 42.84375 
Q 14.796875 37.203125 14.796875 27.296875 
z
" id="DejaVuSans-64"/>
      <path d="M 31 75.875 
Q 24.46875 64.65625 21.28125 53.65625 
Q 18.109375 42.671875 18.109375 31.390625 
Q 18.109375 20.125 21.3125 9.0625 
Q 24.515625 -2 31 -13.1875 
L 23.1875 -13.1875 
Q 15.875 -1.703125 12.234375 9.375 
Q 8.59375 20.453125 8.59375 31.390625 
Q 8.59375 42.28125 12.203125 53.3125 
Q 15.828125 64.359375 23.1875 75.875 
z
" id="DejaVuSans-28"/>
      <path d="M 52 44.1875 
Q 55.375 50.25 60.0625 53.125 
Q 64.75 56 71.09375 56 
Q 79.640625 56 84.28125 50.015625 
Q 88.921875 44.046875 88.921875 33.015625 
L 88.921875 0 
L 79.890625 0 
L 79.890625 32.71875 
Q 79.890625 40.578125 77.09375 44.375 
Q 74.3125 48.1875 68.609375 48.1875 
Q 61.625 48.1875 57.5625 43.546875 
Q 53.515625 38.921875 53.515625 30.90625 
L 53.515625 0 
L 44.484375 0 
L 44.484375 32.71875 
Q 44.484375 40.625 41.703125 44.40625 
Q 38.921875 48.1875 33.109375 48.1875 
Q 26.21875 48.1875 22.15625 43.53125 
Q 18.109375 38.875 18.109375 30.90625 
L 18.109375 0 
L 9.078125 0 
L 9.078125 54.6875 
L 18.109375 54.6875 
L 18.109375 46.1875 
Q 21.1875 51.21875 25.484375 53.609375 
Q 29.78125 56 35.6875 56 
Q 41.65625 56 45.828125 52.96875 
Q 50 49.953125 52 44.1875 
z
" id="DejaVuSans-6d"/>
      <path d="M 8.015625 75.875 
L 15.828125 75.875 
Q 23.140625 64.359375 26.78125 53.3125 
Q 30.421875 42.28125 30.421875 31.390625 
Q 30.421875 20.453125 26.78125 9.375 
Q 23.140625 -1.703125 15.828125 -13.1875 
L 8.015625 -13.1875 
Q 14.5 -2 17.703125 9.0625 
Q 20.90625 20.125 20.90625 31.390625 
Q 20.90625 42.671875 17.703125 53.65625 
Q 14.5 64.65625 8.015625 75.875 
z
" id="DejaVuSans-29"/>
     </defs>
     <g transform="translate(307.843437 58.070438)scale(0.1 -0.1)">
      <use xlink:href="#DejaVuSans-70"/>
      <use x="63.476562" xlink:href="#DejaVuSans-72"/>
      <use x="104.558594" xlink:href="#DejaVuSans-65"/>
      <use x="166.082031" xlink:href="#DejaVuSans-64"/>
      <use x="229.558594" xlink:href="#DejaVuSans-2e"/>
      <use x="261.345703" xlink:href="#DejaVuSans-20"/>
      <use x="293.132812" xlink:href="#DejaVuSans-28"/>
      <use x="332.146484" xlink:href="#DejaVuSans-6d"/>
      <use x="429.558594" xlink:href="#DejaVuSans-65"/>
      <use x="491.082031" xlink:href="#DejaVuSans-61"/>
      <use x="552.361328" xlink:href="#DejaVuSans-6e"/>
      <use x="615.740234" xlink:href="#DejaVuSans-29"/>
     </g>
    </g>
    <g id="line2d_21">
     <path d="M 279.843437 69.248563 
L 299.843437 69.248563 
" style="fill:none;opacity:0.4;stroke:#ff7f0e;stroke-linecap:square;stroke-width:1.5;"/>
    </g>
    <g id="line2d_22"/>
    <g id="text_17">
     <!-- pred.(5th percen.) -->
     <defs>
      <path d="M 54.890625 33.015625 
L 54.890625 0 
L 45.90625 0 
L 45.90625 32.71875 
Q 45.90625 40.484375 42.875 44.328125 
Q 39.84375 48.1875 33.796875 48.1875 
Q 26.515625 48.1875 22.3125 43.546875 
Q 18.109375 38.921875 18.109375 30.90625 
L 18.109375 0 
L 9.078125 0 
L 9.078125 75.984375 
L 18.109375 75.984375 
L 18.109375 46.1875 
Q 21.34375 51.125 25.703125 53.5625 
Q 30.078125 56 35.796875 56 
Q 45.21875 56 50.046875 50.171875 
Q 54.890625 44.34375 54.890625 33.015625 
z
" id="DejaVuSans-68"/>
      <path d="M 48.78125 52.59375 
L 48.78125 44.1875 
Q 44.96875 46.296875 41.140625 47.34375 
Q 37.3125 48.390625 33.40625 48.390625 
Q 24.65625 48.390625 19.8125 42.84375 
Q 14.984375 37.3125 14.984375 27.296875 
Q 14.984375 17.28125 19.8125 11.734375 
Q 24.65625 6.203125 33.40625 6.203125 
Q 37.3125 6.203125 41.140625 7.25 
Q 44.96875 8.296875 48.78125 10.40625 
L 48.78125 2.09375 
Q 45.015625 0.34375 40.984375 -0.53125 
Q 36.96875 -1.421875 32.421875 -1.421875 
Q 20.0625 -1.421875 12.78125 6.34375 
Q 5.515625 14.109375 5.515625 27.296875 
Q 5.515625 40.671875 12.859375 48.328125 
Q 20.21875 56 33.015625 56 
Q 37.15625 56 41.109375 55.140625 
Q 45.0625 54.296875 48.78125 52.59375 
z
" id="DejaVuSans-63"/>
     </defs>
     <g transform="translate(307.843437 72.748563)scale(0.1 -0.1)">
      <use xlink:href="#DejaVuSans-70"/>
      <use x="63.476562" xlink:href="#DejaVuSans-72"/>
      <use x="104.558594" xlink:href="#DejaVuSans-65"/>
      <use x="166.082031" xlink:href="#DejaVuSans-64"/>
      <use x="229.558594" xlink:href="#DejaVuSans-2e"/>
      <use x="261.345703" xlink:href="#DejaVuSans-28"/>
      <use x="300.359375" xlink:href="#DejaVuSans-35"/>
      <use x="363.982422" xlink:href="#DejaVuSans-74"/>
      <use x="403.191406" xlink:href="#DejaVuSans-68"/>
      <use x="466.570312" xlink:href="#DejaVuSans-20"/>
      <use x="498.357422" xlink:href="#DejaVuSans-70"/>
      <use x="561.833984" xlink:href="#DejaVuSans-65"/>
      <use x="623.357422" xlink:href="#DejaVuSans-72"/>
      <use x="664.439453" xlink:href="#DejaVuSans-63"/>
      <use x="719.419922" xlink:href="#DejaVuSans-65"/>
      <use x="780.943359" xlink:href="#DejaVuSans-6e"/>
      <use x="844.322266" xlink:href="#DejaVuSans-2e"/>
      <use x="876.109375" xlink:href="#DejaVuSans-29"/>
     </g>
    </g>
    <g id="line2d_23">
     <path d="M 279.843437 83.926688 
L 299.843437 83.926688 
" style="fill:none;opacity:0.4;stroke:#2ca02c;stroke-linecap:square;stroke-width:1.5;"/>
    </g>
    <g id="line2d_24"/>
    <g id="text_18">
     <!-- pred.(95th percen.) -->
     <defs>
      <path d="M 10.984375 1.515625 
L 10.984375 10.5 
Q 14.703125 8.734375 18.5 7.8125 
Q 22.3125 6.890625 25.984375 6.890625 
Q 35.75 6.890625 40.890625 13.453125 
Q 46.046875 20.015625 46.78125 33.40625 
Q 43.953125 29.203125 39.59375 26.953125 
Q 35.25 24.703125 29.984375 24.703125 
Q 19.046875 24.703125 12.671875 31.3125 
Q 6.296875 37.9375 6.296875 49.421875 
Q 6.296875 60.640625 12.9375 67.421875 
Q 19.578125 74.21875 30.609375 74.21875 
Q 43.265625 74.21875 49.921875 64.515625 
Q 56.59375 54.828125 56.59375 36.375 
Q 56.59375 19.140625 48.40625 8.859375 
Q 40.234375 -1.421875 26.421875 -1.421875 
Q 22.703125 -1.421875 18.890625 -0.6875 
Q 15.09375 0.046875 10.984375 1.515625 
z
M 30.609375 32.421875 
Q 37.25 32.421875 41.125 36.953125 
Q 45.015625 41.5 45.015625 49.421875 
Q 45.015625 57.28125 41.125 61.84375 
Q 37.25 66.40625 30.609375 66.40625 
Q 23.96875 66.40625 20.09375 61.84375 
Q 16.21875 57.28125 16.21875 49.421875 
Q 16.21875 41.5 20.09375 36.953125 
Q 23.96875 32.421875 30.609375 32.421875 
z
" id="DejaVuSans-39"/>
     </defs>
     <g transform="translate(307.843437 87.426688)scale(0.1 -0.1)">
      <use xlink:href="#DejaVuSans-70"/>
      <use x="63.476562" xlink:href="#DejaVuSans-72"/>
      <use x="104.558594" xlink:href="#DejaVuSans-65"/>
      <use x="166.082031" xlink:href="#DejaVuSans-64"/>
      <use x="229.558594" xlink:href="#DejaVuSans-2e"/>
      <use x="261.345703" xlink:href="#DejaVuSans-28"/>
      <use x="300.359375" xlink:href="#DejaVuSans-39"/>
      <use x="363.982422" xlink:href="#DejaVuSans-35"/>
      <use x="427.605469" xlink:href="#DejaVuSans-74"/>
      <use x="466.814453" xlink:href="#DejaVuSans-68"/>
      <use x="530.193359" xlink:href="#DejaVuSans-20"/>
      <use x="561.980469" xlink:href="#DejaVuSans-70"/>
      <use x="625.457031" xlink:href="#DejaVuSans-65"/>
      <use x="686.980469" xlink:href="#DejaVuSans-72"/>
      <use x="728.0625" xlink:href="#DejaVuSans-63"/>
      <use x="783.042969" xlink:href="#DejaVuSans-65"/>
      <use x="844.566406" xlink:href="#DejaVuSans-6e"/>
      <use x="907.945312" xlink:href="#DejaVuSans-2e"/>
      <use x="939.732422" xlink:href="#DejaVuSans-29"/>
     </g>
    </g>
    <g id="line2d_25">
     <path d="M 279.843437 98.604813 
L 299.843437 98.604813 
" style="fill:none;stroke:#000000;stroke-linecap:square;stroke-width:1.5;"/>
    </g>
    <g id="line2d_26"/>
    <g id="text_19">
     <!-- actual -->
     <defs>
      <path d="M 8.5 21.578125 
L 8.5 54.6875 
L 17.484375 54.6875 
L 17.484375 21.921875 
Q 17.484375 14.15625 20.5 10.265625 
Q 23.53125 6.390625 29.59375 6.390625 
Q 36.859375 6.390625 41.078125 11.03125 
Q 45.3125 15.671875 45.3125 23.6875 
L 45.3125 54.6875 
L 54.296875 54.6875 
L 54.296875 0 
L 45.3125 0 
L 45.3125 8.40625 
Q 42.046875 3.421875 37.71875 1 
Q 33.40625 -1.421875 27.6875 -1.421875 
Q 18.265625 -1.421875 13.375 4.4375 
Q 8.5 10.296875 8.5 21.578125 
z
M 31.109375 56 
z
" id="DejaVuSans-75"/>
     </defs>
     <g transform="translate(307.843437 102.104813)scale(0.1 -0.1)">
      <use xlink:href="#DejaVuSans-61"/>
      <use x="61.279297" xlink:href="#DejaVuSans-63"/>
      <use x="116.259766" xlink:href="#DejaVuSans-74"/>
      <use x="155.46875" xlink:href="#DejaVuSans-75"/>
      <use x="218.847656" xlink:href="#DejaVuSans-61"/>
      <use x="280.126953" xlink:href="#DejaVuSans-6c"/>
     </g>
    </g>
   </g>
  </g>
 </g>
 <defs>
  <clipPath id="p60bda94f78">
   <rect height="266.112" width="357.12" x="57.6" y="41.472"/>
  </clipPath>
 </defs>
</svg>
