<?xml version="1.0" encoding="utf-8" standalone="no"?>
<!DOCTYPE svg PUBLIC "-//W3C//DTD SVG 1.1//EN"
  "http://www.w3.org/Graphics/SVG/1.1/DTD/svg11.dtd">
<!-- Created with matplotlib (http://matplotlib.org/) -->
<svg height="345pt" version="1.1" viewBox="0 0 460 345" width="460pt" xmlns="http://www.w3.org/2000/svg" xmlns:xlink="http://www.w3.org/1999/xlink">
 <defs>
  <style type="text/css">
*{stroke-linecap:butt;stroke-linejoin:round;}
  </style>
 </defs>
 <g id="figure_1">
  <g id="patch_1">
   <path d="M 0 345.6 
L 460.8 345.6 
L 460.8 0 
L 0 0 
z
" style="fill:#ffffff;"/>
  </g>
  <g id="axes_1">
   <g id="patch_2">
    <path d="M 57.6 307.584 
L 414.72 307.584 
L 414.72 41.472 
L 57.6 41.472 
z
" style="fill:#ffffff;"/>
   </g>
   <g id="PolyCollection_1">
    <path clip-path="url(#p65946eb4e2)" d="M 73.832727 277.132395 
L 73.832727 279.037087 
L 74.92584 267.666448 
L 76.018953 158.940163 
L 77.112066 257.07784 
L 78.205179 283.579801 
L 79.298292 242.571237 
L 80.391405 175.364428 
L 81.484518 274.80569 
L 82.577631 277.899415 
L 83.670744 190.361405 
L 84.763857 232.818637 
L 85.85697 283.75374 
L 86.950083 270.554215 
L 88.043196 152.169851 
L 89.136309 266.674297 
L 90.229421 283.005743 
L 91.322534 229.570941 
L 92.415647 187.490587 
L 93.50876 278.65532 
L 94.601873 277.058144 
L 95.694986 167.894754 
L 96.788099 241.206359 
L 97.881212 284.744354 
L 98.974325 264.829871 
L 100.067438 143.628981 
L 101.160551 269.249592 
L 102.253664 283.875854 
L 103.346777 235.720514 
L 104.43989 186.13375 
L 105.533003 279.962868 
L 106.626116 280.301775 
L 107.719229 174.661413 
L 108.812342 238.979878 
L 109.905455 286.032341 
L 110.998567 269.73534 
L 112.09168 137.909447 
L 113.184793 268.637288 
L 114.277906 285.9146 
L 115.371019 246.039983 
L 116.464132 163.845527 
L 117.557245 278.979546 
L 118.650358 282.962037 
L 119.743471 191.160229 
L 120.836584 217.413484 
L 121.929697 285.014484 
L 123.02281 276.643953 
L 124.115923 135.938808 
L 125.209036 256.988074 
L 126.302149 287.916611 
L 127.395262 268.961243 
L 128.488375 132.006886 
L 129.581488 273.567364 
L 130.674601 286.891242 
L 131.767713 248.545642 
L 132.860826 162.187807 
L 133.953939 281.059953 
L 135.047052 285.217413 
L 136.140165 206.71874 
L 137.233278 206.390265 
L 138.326391 285.655465 
L 139.419504 282.614151 
L 140.512617 152.613056 
L 141.60573 242.5972 
L 142.698843 288.964901 
L 143.791956 277.961392 
L 144.885069 114.860581 
L 145.978182 263.890407 
L 147.071295 290.469998 
L 148.164408 272.789761 
L 149.257521 104.287556 
L 150.350634 275.292264 
L 151.443747 290.85444 
L 152.53686 268.790095 
L 153.629972 99.704071 
L 154.723085 278.58243 
L 155.816198 290.871287 
L 156.909311 271.991121 
L 158.002424 90.170813 
L 159.095537 281.680412 
L 160.18865 291.972894 
L 161.281763 277.589022 
L 162.374876 72.490408 
L 163.467989 284.817933 
L 164.561102 293.480688 
L 165.654215 289.597735 
L 166.747328 133.534635 
L 167.840441 252.087704 
L 168.933554 293.600434 
L 170.026667 295.001631 
L 171.11978 293.833386 
L 172.212893 191.786538 
L 173.306006 242.003817 
L 174.399118 275.301842 
L 175.492231 228.781025 
L 176.585344 217.829465 
L 177.678457 266.238214 
L 178.77157 253.937174 
L 179.864683 201.581841 
L 180.957796 252.561443 
L 182.050909 268.722718 
L 183.144022 219.333223 
L 184.237135 225.605961 
L 185.330248 268.003174 
L 186.423361 251.519416 
L 187.516474 197.818255 
L 188.609587 255.94815 
L 189.7027 270.322364 
L 190.795813 214.291213 
L 191.888926 226.926456 
L 192.982039 270.985331 
L 194.075152 250.823627 
L 195.168264 193.820428 
L 196.261377 258.899482 
L 197.35449 271.397265 
L 198.447603 211.859265 
L 199.540716 225.721164 
L 200.633829 271.581552 
L 201.726942 254.384872 
L 202.820055 189.683958 
L 203.913168 260.573942 
L 205.006281 270.586773 
L 206.099394 209.933509 
L 207.192507 225.418993 
L 208.28562 274.854762 
L 209.378733 252.026239 
L 210.471846 182.522104 
L 211.564959 261.082421 
L 212.658072 272.31907 
L 213.751185 210.859834 
L 214.844298 221.02316 
L 215.93741 275.626953 
L 217.030523 259.433504 
L 218.123636 177.241175 
L 219.216749 259.95478 
L 220.309862 276.305648 
L 221.402975 217.302565 
L 222.496088 210.84391 
L 223.589201 276.505513 
L 224.682314 265.529155 
L 225.775427 172.863579 
L 226.86854 255.916695 
L 227.961653 278.841197 
L 229.054766 225.543787 
L 230.147879 199.162821 
L 231.240992 273.808272 
L 232.334105 271.193873 
L 233.427218 175.142695 
L 234.520331 249.295799 
L 235.613444 281.116164 
L 236.706556 243.213655 
L 237.799669 178.16955 
L 238.892782 271.420232 
L 239.985895 276.219277 
L 241.079008 187.554653 
L 242.172121 234.315299 
L 243.265234 282.112173 
L 244.358347 258.014019 
L 245.45146 160.976286 
L 246.544573 266.771762 
L 247.637686 277.639915 
L 248.730799 215.86487 
L 249.823912 210.028846 
L 250.917025 279.981283 
L 252.010138 271.578662 
L 253.103251 158.391637 
L 254.196364 256.618659 
L 255.289477 281.405871 
L 256.38259 244.670349 
L 257.475702 175.718629 
L 258.568815 274.914836 
L 259.661928 276.991577 
L 260.755041 182.131219 
L 261.848154 233.093215 
L 262.941267 284.206536 
L 264.03438 266.985113 
L 265.127493 146.583231 
L 266.220606 266.644524 
L 267.313719 282.158971 
L 268.406832 233.858246 
L 269.499945 189.002675 
L 270.593058 279.034172 
L 271.686171 277.736707 
L 272.779284 165.350598 
L 273.872397 244.167336 
L 274.96551 285.235761 
L 276.058623 262.868745 
L 277.151736 142.471462 
L 278.244848 270.026737 
L 279.337961 283.182777 
L 280.431074 225.689446 
L 281.524187 188.968934 
L 282.6173 281.065048 
L 283.710413 278.242199 
L 284.803526 163.732453 
L 285.896639 242.026652 
L 286.989752 286.958012 
L 288.082865 269.045701 
L 289.175978 131.692391 
L 290.269091 268.856052 
L 291.362204 285.200842 
L 292.455317 235.855504 
L 293.54843 169.153627 
L 294.641543 279.966452 
L 295.734656 283.305138 
L 296.827769 192.9768 
L 297.920882 224.3386 
L 299.013994 286.700235 
L 300.107107 277.917912 
L 301.20022 134.211714 
L 302.293333 260.741043 
L 303.386446 287.59571 
L 304.479559 265.161342 
L 305.572672 132.40484 
L 306.665785 274.9216 
L 307.758898 287.161183 
L 308.852011 236.41039 
L 309.945124 168.741851 
L 311.038237 283.057303 
L 312.13135 285.123561 
L 313.224463 189.650007 
L 314.317576 216.260039 
L 315.410689 287.234269 
L 316.503802 282.459313 
L 317.596915 138.930451 
L 318.690028 249.864376 
L 319.78314 289.098713 
L 320.876253 278.229977 
L 321.969366 110.52834 
L 323.062479 269.750739 
L 324.155592 290.349614 
L 325.248705 269.250774 
L 326.341818 105.249409 
L 327.434931 277.378489 
L 328.528044 290.326778 
L 329.621157 270.57839 
L 330.71427 108.011093 
L 331.807383 281.642972 
L 332.900496 291.246542 
L 333.993609 261.135029 
L 335.086722 99.374414 
L 336.179835 283.864399 
L 337.272948 291.365833 
L 338.366061 270.014465 
L 339.459174 73.696515 
L 340.552287 285.392916 
L 341.645399 293.36974 
L 342.738512 284.027791 
L 343.831625 76.730071 
L 344.924738 282.539931 
L 346.017851 294.694405 
L 347.110964 294.274238 
L 348.204077 273.664035 
L 349.29719 60.195255 
L 350.390303 290.620432 
L 351.483416 295.38066 
L 352.576529 280.80848 
L 353.669642 91.650894 
L 354.762755 274.030337 
L 355.855868 291.095104 
L 356.948981 267.089988 
L 358.042094 125.811221 
L 359.135207 278.899274 
L 360.22832 288.185212 
L 361.321433 227.817516 
L 362.414545 182.390635 
L 363.507658 285.086977 
L 364.600771 285.107955 
L 365.693884 173.880458 
L 366.786997 230.536079 
L 367.88011 288.229782 
L 368.973223 279.711945 
L 370.066336 125.281772 
L 371.159449 259.543267 
L 372.252562 290.209313 
L 373.345675 274.644603 
L 374.438788 106.250836 
L 375.531901 273.905015 
L 376.625014 289.283416 
L 377.718127 266.708195 
L 378.81124 125.640729 
L 379.904353 282.10008 
L 380.997466 289.253393 
L 382.090579 254.287381 
L 383.183691 149.838179 
L 384.276804 285.07655 
L 385.369917 290.273292 
L 386.46303 242.714846 
L 387.556143 165.849486 
L 388.649256 287.988035 
L 389.742369 292.177928 
L 390.835482 231.389351 
L 391.928595 164.434548 
L 393.021708 288.928429 
L 394.114821 293.267873 
L 395.207934 250.250452 
L 396.301047 121.611263 
L 397.39416 288.158272 
L 398.487273 293.417973 
L 398.487273 291.014807 
L 398.487273 291.014807 
L 397.39416 283.786109 
L 396.301047 105.786452 
L 395.207934 249.209844 
L 394.114821 288.729355 
L 393.021708 285.042326 
L 391.928595 154.486334 
L 390.835482 225.078536 
L 389.742369 287.563422 
L 388.649256 284.284889 
L 387.556143 161.195129 
L 386.46303 231.522396 
L 385.369917 289.348357 
L 384.276804 281.88685 
L 383.183691 146.840755 
L 382.090579 243.162807 
L 380.997466 288.061519 
L 379.904353 277.991451 
L 378.81124 119.386438 
L 377.718127 258.010603 
L 376.625014 287.90882 
L 375.531901 273.248296 
L 374.438788 102.861292 
L 373.345675 268.640626 
L 372.252562 288.392813 
L 371.159449 259.02178 
L 370.066336 117.567318 
L 368.973223 277.737887 
L 367.88011 286.586827 
L 366.786997 226.296783 
L 365.693884 168.217894 
L 364.600771 283.334877 
L 363.507658 282.135694 
L 362.414545 177.419839 
L 361.321433 223.380032 
L 360.22832 286.537196 
L 359.135207 275.093416 
L 358.042094 122.168856 
L 356.948981 260.820088 
L 355.855868 286.88977 
L 354.762755 270.044264 
L 353.669642 73.133982 
L 352.576529 275.51143 
L 351.483416 292.534786 
L 350.390303 281.482497 
L 349.29719 53.568 
L 348.204077 270.842379 
L 347.110964 280.072113 
L 346.017851 286.690355 
L 344.924738 274.325985 
L 343.831625 57.94804 
L 342.738512 272.140143 
L 341.645399 291.375461 
L 340.552287 280.674066 
L 339.459174 72.219324 
L 338.366061 268.72009 
L 337.272948 290.069519 
L 336.179835 279.386 
L 335.086722 94.736139 
L 333.993609 256.440468 
L 332.900496 288.809225 
L 331.807383 278.017398 
L 330.71427 102.917789 
L 329.621157 263.010331 
L 328.528044 289.306959 
L 327.434931 276.058997 
L 326.341818 98.160029 
L 325.248705 266.917447 
L 324.155592 286.393529 
L 323.062479 266.909169 
L 321.969366 106.03646 
L 320.876253 276.03952 
L 319.78314 286.945151 
L 318.690028 248.569292 
L 317.596915 133.37999 
L 316.503802 280.221414 
L 315.410689 286.023262 
L 314.317576 214.160612 
L 313.224463 188.275695 
L 312.13135 283.520954 
L 311.038237 281.054723 
L 309.945124 167.220671 
L 308.852011 233.037164 
L 307.758898 285.826839 
L 306.665785 274.133244 
L 305.572672 125.648928 
L 304.479559 261.042426 
L 303.386446 284.78796 
L 302.293333 258.585329 
L 301.20022 131.441804 
L 300.107107 275.222856 
L 299.013994 285.116335 
L 297.920882 222.721401 
L 296.827769 184.275187 
L 295.734656 281.623232 
L 294.641543 278.791629 
L 293.54843 166.361959 
L 292.455317 234.851081 
L 291.362204 282.872387 
L 290.269091 266.468566 
L 289.175978 127.725073 
L 288.082865 266.859951 
L 286.989752 284.324043 
L 285.896639 239.162615 
L 284.803526 159.334701 
L 283.710413 277.417044 
L 282.6173 280.259428 
L 281.524187 184.934213 
L 280.431074 222.863249 
L 279.337961 282.241524 
L 278.244848 267.539683 
L 277.151736 139.686416 
L 276.058623 260.649176 
L 274.96551 283.305243 
L 273.872397 240.266711 
L 272.779284 164.010342 
L 271.686171 275.569546 
L 270.593058 278.493434 
L 269.499945 184.936026 
L 268.406832 226.264645 
L 267.313719 280.994247 
L 266.220606 263.015166 
L 265.127493 145.624689 
L 264.03438 262.795009 
L 262.941267 281.23236 
L 261.848154 229.943011 
L 260.755041 177.096568 
L 259.661928 275.298649 
L 258.568815 273.199251 
L 257.475702 171.620762 
L 256.38259 239.15418 
L 255.289477 280.146475 
L 254.196364 252.03478 
L 253.103251 150.257392 
L 252.010138 267.983361 
L 250.917025 278.062449 
L 249.823912 206.550376 
L 248.730799 211.384579 
L 247.637686 276.844323 
L 246.544573 263.412489 
L 245.45146 159.809623 
L 244.358347 254.65049 
L 243.265234 279.13873 
L 242.172121 230.023737 
L 241.079008 184.208152 
L 239.985895 273.000085 
L 238.892782 269.779855 
L 237.799669 176.510017 
L 236.706556 240.624669 
L 235.613444 278.118952 
L 234.520331 244.621813 
L 233.427218 169.545878 
L 232.334105 266.627023 
L 231.240992 271.957196 
L 230.147879 195.302165 
L 229.054766 223.689849 
L 227.961653 276.074953 
L 226.86854 250.314912 
L 225.775427 165.252003 
L 224.682314 262.315095 
L 223.589201 273.024371 
L 222.496088 207.526971 
L 221.402975 215.658877 
L 220.309862 273.829946 
L 219.216749 254.210386 
L 218.123636 174.334095 
L 217.030523 255.331142 
L 215.93741 273.014104 
L 214.844298 215.70447 
L 213.751185 205.565031 
L 212.658072 270.881848 
L 211.564959 255.431209 
L 210.471846 179.363858 
L 209.378733 250.101824 
L 208.28562 270.980128 
L 207.192507 221.707806 
L 206.099394 205.82902 
L 205.006281 268.784865 
L 203.913168 255.633418 
L 202.820055 185.516323 
L 201.726942 249.253728 
L 200.633829 268.019125 
L 199.540716 222.546126 
L 198.447603 203.625926 
L 197.35449 266.888594 
L 196.261377 255.058692 
L 195.168264 189.553462 
L 194.075152 247.708898 
L 192.982039 266.951792 
L 191.888926 223.666041 
L 190.795813 209.475326 
L 189.7027 265.600605 
L 188.609587 250.886537 
L 187.516474 191.826008 
L 186.423361 247.806573 
L 185.330248 264.839726 
L 184.237135 222.16888 
L 183.144022 214.72664 
L 182.050909 263.707696 
L 180.957796 249.165277 
L 179.864683 194.663688 
L 178.77157 250.448772 
L 177.678457 264.250889 
L 176.585344 210.481826 
L 175.492231 219.769122 
L 174.399118 271.151542 
L 173.306006 219.606619 
L 172.212893 190.018924 
L 171.11978 277.771008 
L 170.026667 284.962222 
L 168.933554 285.581768 
L 167.840441 242.784667 
L 166.747328 119.925846 
L 165.654215 279.36054 
L 164.561102 290.043063 
L 163.467989 277.420013 
L 162.374876 60.596966 
L 161.281763 272.472825 
L 160.18865 289.639449 
L 159.095537 279.10706 
L 158.002424 79.947784 
L 156.909311 269.115259 
L 155.816198 287.605646 
L 154.723085 277.547498 
L 153.629972 88.867793 
L 152.53686 266.318414 
L 151.443747 286.917205 
L 150.350634 272.101404 
L 149.257521 93.066725 
L 148.164408 270.050834 
L 147.071295 285.389844 
L 145.978182 260.902679 
L 144.885069 111.981407 
L 143.791956 274.724722 
L 142.698843 287.862069 
L 141.60573 240.264582 
L 140.512617 150.814696 
L 139.419504 280.920372 
L 138.326391 285.179978 
L 137.233278 204.271445 
L 136.140165 199.578039 
L 135.047052 285.12189 
L 133.953939 280.527208 
L 132.860826 156.512708 
L 131.767713 239.018165 
L 130.674601 284.782284 
L 129.581488 272.602058 
L 128.488375 119.96161 
L 127.395262 263.191781 
L 126.302149 285.273751 
L 125.209036 253.574643 
L 124.115923 133.507333 
L 123.02281 276.019683 
L 121.929697 284.258482 
L 120.836584 215.595731 
L 119.743471 189.38883 
L 118.650358 280.419926 
L 117.557245 277.48807 
L 116.464132 159.333545 
L 115.371019 240.529727 
L 114.277906 284.525293 
L 113.184793 265.641519 
L 112.09168 129.920178 
L 110.998567 266.080204 
L 109.905455 283.405538 
L 108.812342 235.212876 
L 107.719229 168.685958 
L 106.626116 278.120447 
L 105.533003 279.105832 
L 104.43989 179.169953 
L 103.346777 226.629147 
L 102.253664 282.239545 
L 101.160551 265.801631 
L 100.067438 137.878439 
L 98.974325 261.637333 
L 97.881212 282.370822 
L 96.788099 236.226339 
L 95.694986 161.123233 
L 94.601873 276.442837 
L 93.50876 276.146627 
L 92.415647 180.243461 
L 91.322534 226.802687 
L 90.229421 280.533802 
L 89.136309 261.951118 
L 88.043196 144.240654 
L 86.950083 262.197185 
L 85.85697 279.443234 
L 84.763857 225.173478 
L 83.670744 185.120051 
L 82.577631 275.148095 
L 81.484518 271.886666 
L 80.391405 167.950805 
L 79.298292 239.335655 
L 78.205179 280.353443 
L 77.112066 250.474472 
L 76.018953 157.966012 
L 74.92584 265.963635 
L 73.832727 277.132395 
z
" style="fill:#008000;fill-opacity:0.4;"/>
   </g>
   <g id="matplotlib.axis_1">
    <g id="xtick_1">
     <g id="line2d_1">
      <defs>
       <path d="M 0 0 
L 0 3.5 
" id="mcfd5642776" style="stroke:#000000;stroke-width:0.8;"/>
      </defs>
      <g>
       <use style="stroke:#000000;stroke-width:0.8;" x="73.832727" xlink:href="#mcfd5642776" y="307.584"/>
      </g>
     </g>
     <g id="text_1">
      <!-- 0 -->
      <defs>
       <path d="M 31.78125 66.40625 
Q 24.171875 66.40625 20.328125 58.90625 
Q 16.5 51.421875 16.5 36.375 
Q 16.5 21.390625 20.328125 13.890625 
Q 24.171875 6.390625 31.78125 6.390625 
Q 39.453125 6.390625 43.28125 13.890625 
Q 47.125 21.390625 47.125 36.375 
Q 47.125 51.421875 43.28125 58.90625 
Q 39.453125 66.40625 31.78125 66.40625 
z
M 31.78125 74.21875 
Q 44.046875 74.21875 50.515625 64.515625 
Q 56.984375 54.828125 56.984375 36.375 
Q 56.984375 17.96875 50.515625 8.265625 
Q 44.046875 -1.421875 31.78125 -1.421875 
Q 19.53125 -1.421875 13.0625 8.265625 
Q 6.59375 17.96875 6.59375 36.375 
Q 6.59375 54.828125 13.0625 64.515625 
Q 19.53125 74.21875 31.78125 74.21875 
z
" id="DejaVuSans-30"/>
      </defs>
      <g transform="translate(70.651477 322.182437)scale(0.1 -0.1)">
       <use xlink:href="#DejaVuSans-30"/>
      </g>
     </g>
    </g>
    <g id="xtick_2">
     <g id="line2d_2">
      <g>
       <use style="stroke:#000000;stroke-width:0.8;" x="128.488375" xlink:href="#mcfd5642776" y="307.584"/>
      </g>
     </g>
     <g id="text_2">
      <!-- 50 -->
      <defs>
       <path d="M 10.796875 72.90625 
L 49.515625 72.90625 
L 49.515625 64.59375 
L 19.828125 64.59375 
L 19.828125 46.734375 
Q 21.96875 47.46875 24.109375 47.828125 
Q 26.265625 48.1875 28.421875 48.1875 
Q 40.625 48.1875 47.75 41.5 
Q 54.890625 34.8125 54.890625 23.390625 
Q 54.890625 11.625 47.5625 5.09375 
Q 40.234375 -1.421875 26.90625 -1.421875 
Q 22.3125 -1.421875 17.546875 -0.640625 
Q 12.796875 0.140625 7.71875 1.703125 
L 7.71875 11.625 
Q 12.109375 9.234375 16.796875 8.0625 
Q 21.484375 6.890625 26.703125 6.890625 
Q 35.15625 6.890625 40.078125 11.328125 
Q 45.015625 15.765625 45.015625 23.390625 
Q 45.015625 31 40.078125 35.4375 
Q 35.15625 39.890625 26.703125 39.890625 
Q 22.75 39.890625 18.8125 39.015625 
Q 14.890625 38.140625 10.796875 36.28125 
z
" id="DejaVuSans-35"/>
      </defs>
      <g transform="translate(122.125875 322.182437)scale(0.1 -0.1)">
       <use xlink:href="#DejaVuSans-35"/>
       <use x="63.623047" xlink:href="#DejaVuSans-30"/>
      </g>
     </g>
    </g>
    <g id="xtick_3">
     <g id="line2d_3">
      <g>
       <use style="stroke:#000000;stroke-width:0.8;" x="183.144022" xlink:href="#mcfd5642776" y="307.584"/>
      </g>
     </g>
     <g id="text_3">
      <!-- 100 -->
      <defs>
       <path d="M 12.40625 8.296875 
L 28.515625 8.296875 
L 28.515625 63.921875 
L 10.984375 60.40625 
L 10.984375 69.390625 
L 28.421875 72.90625 
L 38.28125 72.90625 
L 38.28125 8.296875 
L 54.390625 8.296875 
L 54.390625 0 
L 12.40625 0 
z
" id="DejaVuSans-31"/>
      </defs>
      <g transform="translate(173.600272 322.182437)scale(0.1 -0.1)">
       <use xlink:href="#DejaVuSans-31"/>
       <use x="63.623047" xlink:href="#DejaVuSans-30"/>
       <use x="127.246094" xlink:href="#DejaVuSans-30"/>
      </g>
     </g>
    </g>
    <g id="xtick_4">
     <g id="line2d_4">
      <g>
       <use style="stroke:#000000;stroke-width:0.8;" x="237.799669" xlink:href="#mcfd5642776" y="307.584"/>
      </g>
     </g>
     <g id="text_4">
      <!-- 150 -->
      <g transform="translate(228.255919 322.182437)scale(0.1 -0.1)">
       <use xlink:href="#DejaVuSans-31"/>
       <use x="63.623047" xlink:href="#DejaVuSans-35"/>
       <use x="127.246094" xlink:href="#DejaVuSans-30"/>
      </g>
     </g>
    </g>
    <g id="xtick_5">
     <g id="line2d_5">
      <g>
       <use style="stroke:#000000;stroke-width:0.8;" x="292.455317" xlink:href="#mcfd5642776" y="307.584"/>
      </g>
     </g>
     <g id="text_5">
      <!-- 200 -->
      <defs>
       <path d="M 19.1875 8.296875 
L 53.609375 8.296875 
L 53.609375 0 
L 7.328125 0 
L 7.328125 8.296875 
Q 12.9375 14.109375 22.625 23.890625 
Q 32.328125 33.6875 34.8125 36.53125 
Q 39.546875 41.84375 41.421875 45.53125 
Q 43.3125 49.21875 43.3125 52.78125 
Q 43.3125 58.59375 39.234375 62.25 
Q 35.15625 65.921875 28.609375 65.921875 
Q 23.96875 65.921875 18.8125 64.3125 
Q 13.671875 62.703125 7.8125 59.421875 
L 7.8125 69.390625 
Q 13.765625 71.78125 18.9375 73 
Q 24.125 74.21875 28.421875 74.21875 
Q 39.75 74.21875 46.484375 68.546875 
Q 53.21875 62.890625 53.21875 53.421875 
Q 53.21875 48.921875 51.53125 44.890625 
Q 49.859375 40.875 45.40625 35.40625 
Q 44.1875 33.984375 37.640625 27.21875 
Q 31.109375 20.453125 19.1875 8.296875 
z
" id="DejaVuSans-32"/>
      </defs>
      <g transform="translate(282.911567 322.182437)scale(0.1 -0.1)">
       <use xlink:href="#DejaVuSans-32"/>
       <use x="63.623047" xlink:href="#DejaVuSans-30"/>
       <use x="127.246094" xlink:href="#DejaVuSans-30"/>
      </g>
     </g>
    </g>
    <g id="xtick_6">
     <g id="line2d_6">
      <g>
       <use style="stroke:#000000;stroke-width:0.8;" x="347.110964" xlink:href="#mcfd5642776" y="307.584"/>
      </g>
     </g>
     <g id="text_6">
      <!-- 250 -->
      <g transform="translate(337.567214 322.182437)scale(0.1 -0.1)">
       <use xlink:href="#DejaVuSans-32"/>
       <use x="63.623047" xlink:href="#DejaVuSans-35"/>
       <use x="127.246094" xlink:href="#DejaVuSans-30"/>
      </g>
     </g>
    </g>
    <g id="xtick_7">
     <g id="line2d_7">
      <g>
       <use style="stroke:#000000;stroke-width:0.8;" x="401.766612" xlink:href="#mcfd5642776" y="307.584"/>
      </g>
     </g>
     <g id="text_7">
      <!-- 300 -->
      <defs>
       <path d="M 40.578125 39.3125 
Q 47.65625 37.796875 51.625 33 
Q 55.609375 28.21875 55.609375 21.1875 
Q 55.609375 10.40625 48.1875 4.484375 
Q 40.765625 -1.421875 27.09375 -1.421875 
Q 22.515625 -1.421875 17.65625 -0.515625 
Q 12.796875 0.390625 7.625 2.203125 
L 7.625 11.71875 
Q 11.71875 9.328125 16.59375 8.109375 
Q 21.484375 6.890625 26.8125 6.890625 
Q 36.078125 6.890625 40.9375 10.546875 
Q 45.796875 14.203125 45.796875 21.1875 
Q 45.796875 27.640625 41.28125 31.265625 
Q 36.765625 34.90625 28.71875 34.90625 
L 20.21875 34.90625 
L 20.21875 43.015625 
L 29.109375 43.015625 
Q 36.375 43.015625 40.234375 45.921875 
Q 44.09375 48.828125 44.09375 54.296875 
Q 44.09375 59.90625 40.109375 62.90625 
Q 36.140625 65.921875 28.71875 65.921875 
Q 24.65625 65.921875 20.015625 65.03125 
Q 15.375 64.15625 9.8125 62.3125 
L 9.8125 71.09375 
Q 15.4375 72.65625 20.34375 73.4375 
Q 25.25 74.21875 29.59375 74.21875 
Q 40.828125 74.21875 47.359375 69.109375 
Q 53.90625 64.015625 53.90625 55.328125 
Q 53.90625 49.265625 50.4375 45.09375 
Q 46.96875 40.921875 40.578125 39.3125 
z
" id="DejaVuSans-33"/>
      </defs>
      <g transform="translate(392.222862 322.182437)scale(0.1 -0.1)">
       <use xlink:href="#DejaVuSans-33"/>
       <use x="63.623047" xlink:href="#DejaVuSans-30"/>
       <use x="127.246094" xlink:href="#DejaVuSans-30"/>
      </g>
     </g>
    </g>
   </g>
   <g id="matplotlib.axis_2">
    <g id="ytick_1">
     <g id="line2d_8">
      <defs>
       <path d="M 0 0 
L -3.5 0 
" id="m7112addc78" style="stroke:#000000;stroke-width:0.8;"/>
      </defs>
      <g>
       <use style="stroke:#000000;stroke-width:0.8;" x="57.6" xlink:href="#m7112addc78" y="299.593935"/>
      </g>
     </g>
     <g id="text_8">
      <!-- 0.0 -->
      <defs>
       <path d="M 10.6875 12.40625 
L 21 12.40625 
L 21 0 
L 10.6875 0 
z
" id="DejaVuSans-2e"/>
      </defs>
      <g transform="translate(34.696875 303.393154)scale(0.1 -0.1)">
       <use xlink:href="#DejaVuSans-30"/>
       <use x="63.623047" xlink:href="#DejaVuSans-2e"/>
       <use x="95.410156" xlink:href="#DejaVuSans-30"/>
      </g>
     </g>
    </g>
    <g id="ytick_2">
     <g id="line2d_9">
      <g>
       <use style="stroke:#000000;stroke-width:0.8;" x="57.6" xlink:href="#m7112addc78" y="247.037969"/>
      </g>
     </g>
     <g id="text_9">
      <!-- 0.2 -->
      <g transform="translate(34.696875 250.837187)scale(0.1 -0.1)">
       <use xlink:href="#DejaVuSans-30"/>
       <use x="63.623047" xlink:href="#DejaVuSans-2e"/>
       <use x="95.410156" xlink:href="#DejaVuSans-32"/>
      </g>
     </g>
    </g>
    <g id="ytick_3">
     <g id="line2d_10">
      <g>
       <use style="stroke:#000000;stroke-width:0.8;" x="57.6" xlink:href="#m7112addc78" y="194.482003"/>
      </g>
     </g>
     <g id="text_10">
      <!-- 0.4 -->
      <defs>
       <path d="M 37.796875 64.3125 
L 12.890625 25.390625 
L 37.796875 25.390625 
z
M 35.203125 72.90625 
L 47.609375 72.90625 
L 47.609375 25.390625 
L 58.015625 25.390625 
L 58.015625 17.1875 
L 47.609375 17.1875 
L 47.609375 0 
L 37.796875 0 
L 37.796875 17.1875 
L 4.890625 17.1875 
L 4.890625 26.703125 
z
" id="DejaVuSans-34"/>
      </defs>
      <g transform="translate(34.696875 198.281221)scale(0.1 -0.1)">
       <use xlink:href="#DejaVuSans-30"/>
       <use x="63.623047" xlink:href="#DejaVuSans-2e"/>
       <use x="95.410156" xlink:href="#DejaVuSans-34"/>
      </g>
     </g>
    </g>
    <g id="ytick_4">
     <g id="line2d_11">
      <g>
       <use style="stroke:#000000;stroke-width:0.8;" x="57.6" xlink:href="#m7112addc78" y="141.926036"/>
      </g>
     </g>
     <g id="text_11">
      <!-- 0.6 -->
      <defs>
       <path d="M 33.015625 40.375 
Q 26.375 40.375 22.484375 35.828125 
Q 18.609375 31.296875 18.609375 23.390625 
Q 18.609375 15.53125 22.484375 10.953125 
Q 26.375 6.390625 33.015625 6.390625 
Q 39.65625 6.390625 43.53125 10.953125 
Q 47.40625 15.53125 47.40625 23.390625 
Q 47.40625 31.296875 43.53125 35.828125 
Q 39.65625 40.375 33.015625 40.375 
z
M 52.59375 71.296875 
L 52.59375 62.3125 
Q 48.875 64.0625 45.09375 64.984375 
Q 41.3125 65.921875 37.59375 65.921875 
Q 27.828125 65.921875 22.671875 59.328125 
Q 17.53125 52.734375 16.796875 39.40625 
Q 19.671875 43.65625 24.015625 45.921875 
Q 28.375 48.1875 33.59375 48.1875 
Q 44.578125 48.1875 50.953125 41.515625 
Q 57.328125 34.859375 57.328125 23.390625 
Q 57.328125 12.15625 50.6875 5.359375 
Q 44.046875 -1.421875 33.015625 -1.421875 
Q 20.359375 -1.421875 13.671875 8.265625 
Q 6.984375 17.96875 6.984375 36.375 
Q 6.984375 53.65625 15.1875 63.9375 
Q 23.390625 74.21875 37.203125 74.21875 
Q 40.921875 74.21875 44.703125 73.484375 
Q 48.484375 72.75 52.59375 71.296875 
z
" id="DejaVuSans-36"/>
      </defs>
      <g transform="translate(34.696875 145.725255)scale(0.1 -0.1)">
       <use xlink:href="#DejaVuSans-30"/>
       <use x="63.623047" xlink:href="#DejaVuSans-2e"/>
       <use x="95.410156" xlink:href="#DejaVuSans-36"/>
      </g>
     </g>
    </g>
    <g id="ytick_5">
     <g id="line2d_12">
      <g>
       <use style="stroke:#000000;stroke-width:0.8;" x="57.6" xlink:href="#m7112addc78" y="89.37007"/>
      </g>
     </g>
     <g id="text_12">
      <!-- 0.8 -->
      <defs>
       <path d="M 31.78125 34.625 
Q 24.75 34.625 20.71875 30.859375 
Q 16.703125 27.09375 16.703125 20.515625 
Q 16.703125 13.921875 20.71875 10.15625 
Q 24.75 6.390625 31.78125 6.390625 
Q 38.8125 6.390625 42.859375 10.171875 
Q 46.921875 13.96875 46.921875 20.515625 
Q 46.921875 27.09375 42.890625 30.859375 
Q 38.875 34.625 31.78125 34.625 
z
M 21.921875 38.8125 
Q 15.578125 40.375 12.03125 44.71875 
Q 8.5 49.078125 8.5 55.328125 
Q 8.5 64.0625 14.71875 69.140625 
Q 20.953125 74.21875 31.78125 74.21875 
Q 42.671875 74.21875 48.875 69.140625 
Q 55.078125 64.0625 55.078125 55.328125 
Q 55.078125 49.078125 51.53125 44.71875 
Q 48 40.375 41.703125 38.8125 
Q 48.828125 37.15625 52.796875 32.3125 
Q 56.78125 27.484375 56.78125 20.515625 
Q 56.78125 9.90625 50.3125 4.234375 
Q 43.84375 -1.421875 31.78125 -1.421875 
Q 19.734375 -1.421875 13.25 4.234375 
Q 6.78125 9.90625 6.78125 20.515625 
Q 6.78125 27.484375 10.78125 32.3125 
Q 14.796875 37.15625 21.921875 38.8125 
z
M 18.3125 54.390625 
Q 18.3125 48.734375 21.84375 45.5625 
Q 25.390625 42.390625 31.78125 42.390625 
Q 38.140625 42.390625 41.71875 45.5625 
Q 45.3125 48.734375 45.3125 54.390625 
Q 45.3125 60.0625 41.71875 63.234375 
Q 38.140625 66.40625 31.78125 66.40625 
Q 25.390625 66.40625 21.84375 63.234375 
Q 18.3125 60.0625 18.3125 54.390625 
z
" id="DejaVuSans-38"/>
      </defs>
      <g transform="translate(34.696875 93.169289)scale(0.1 -0.1)">
       <use xlink:href="#DejaVuSans-30"/>
       <use x="63.623047" xlink:href="#DejaVuSans-2e"/>
       <use x="95.410156" xlink:href="#DejaVuSans-38"/>
      </g>
     </g>
    </g>
   </g>
   <g id="line2d_13">
    <path clip-path="url(#p65946eb4e2)" d="M 73.832727 278.120408 
L 74.92584 266.79726 
L 76.018953 158.389105 
L 77.112066 253.27426 
L 78.205179 282.161384 
L 79.298292 241.244111 
L 80.391405 172.500732 
L 81.484518 272.986119 
L 82.577631 276.609897 
L 83.670744 188.209974 
L 84.763857 229.201525 
L 85.85697 281.923988 
L 86.950083 266.652906 
L 88.043196 148.745961 
L 89.136309 263.879178 
L 90.229421 281.600594 
L 91.322534 228.036009 
L 92.415647 184.673045 
L 93.50876 277.453376 
L 94.601873 276.818106 
L 95.694986 164.665163 
L 96.788099 238.711352 
L 97.881212 283.779801 
L 98.974325 262.873957 
L 100.067438 141.102747 
L 101.160551 267.323608 
L 102.253664 283.069165 
L 104.43989 183.385336 
L 105.533003 279.520254 
L 106.626116 279.121214 
L 107.719229 172.023612 
L 108.812342 237.278851 
L 109.905455 284.927562 
L 110.998567 268.274346 
L 112.09168 134.565398 
L 113.184793 266.77142 
L 114.277906 285.22078 
L 115.371019 243.671233 
L 116.464132 161.862879 
L 117.557245 278.229479 
L 118.650358 281.534811 
L 119.743471 190.407338 
L 120.836584 216.673409 
L 121.929697 284.682721 
L 123.02281 276.332296 
L 124.115923 134.887303 
L 125.209036 255.241167 
L 126.302149 286.370626 
L 127.395262 266.614891 
L 128.488375 126.823379 
L 129.581488 273.038246 
L 130.674601 285.94381 
L 131.767713 244.911116 
L 132.860826 160.076414 
L 133.953939 280.728997 
L 135.047052 285.168619 
L 136.140165 203.574623 
L 137.233278 205.383862 
L 138.326391 285.36728 
L 139.419504 281.864863 
L 140.512617 151.6227 
L 141.60573 241.610514 
L 142.698843 288.384737 
L 143.791956 276.584364 
L 144.885069 113.593903 
L 145.978182 262.744845 
L 147.071295 288.026542 
L 148.164408 271.505311 
L 149.257521 99.141451 
L 150.350634 273.802594 
L 151.443747 289.000746 
L 152.53686 267.853197 
L 153.629972 94.58371 
L 154.723085 278.057919 
L 155.816198 289.528092 
L 156.909311 270.917648 
L 158.002424 86.179222 
L 159.095537 280.160017 
L 160.18865 290.955477 
L 161.281763 274.64701 
L 162.374876 67.802153 
L 163.467989 281.113663 
L 164.561102 291.663406 
L 165.654215 284.037842 
L 166.747328 127.283243 
L 167.840441 247.970487 
L 168.933554 290.321547 
L 170.026667 290.148472 
L 171.11978 284.02359 
L 172.212893 191.069631 
L 174.399118 273.38671 
L 175.492231 224.907264 
L 176.585344 213.539672 
L 177.678457 265.101717 
L 178.77157 251.9742 
L 179.864683 197.862052 
L 180.957796 250.723193 
L 182.050909 265.660212 
L 183.144022 217.172428 
L 184.237135 223.555613 
L 185.330248 266.352286 
L 186.423361 249.567925 
L 187.516474 195.24021 
L 188.609587 253.147249 
L 189.7027 267.380369 
L 190.795813 212.263701 
L 191.888926 224.947733 
L 192.982039 268.924813 
L 194.075152 249.007941 
L 195.168264 192.133627 
L 196.261377 256.583972 
L 197.35449 268.78773 
L 198.447603 207.681433 
L 199.540716 224.004178 
L 200.633829 269.913128 
L 201.726942 251.165189 
L 202.820055 187.627916 
L 203.913168 257.949288 
L 205.006281 269.455979 
L 206.099394 207.582015 
L 207.192507 223.377798 
L 208.28562 272.713231 
L 209.378733 251.137947 
L 210.471846 181.22914 
L 211.564959 258.062721 
L 212.658072 271.482887 
L 213.751185 207.833933 
L 214.844298 218.332513 
L 215.93741 274.235261 
L 217.030523 256.882665 
L 218.123636 175.695172 
L 219.216749 256.926812 
L 220.309862 274.773294 
L 221.402975 216.290889 
L 222.496088 209.493826 
L 223.589201 274.591073 
L 224.682314 263.589857 
L 225.775427 168.941292 
L 226.86854 252.923887 
L 227.961653 277.309855 
L 229.054766 224.52273 
L 230.147879 197.688004 
L 231.240992 272.825683 
L 232.334105 268.615521 
L 233.427218 172.493988 
L 234.520331 246.500321 
L 235.613444 279.418409 
L 236.706556 241.70275 
L 237.799669 177.34429 
L 238.892782 270.665467 
L 239.985895 274.433949 
L 241.079008 185.959089 
L 243.265234 280.413766 
L 244.358347 256.104836 
L 245.45146 160.445533 
L 246.544573 264.988809 
L 247.637686 277.182275 
L 248.730799 213.203489 
L 249.823912 208.693924 
L 250.917025 278.830667 
L 252.010138 269.526491 
L 253.103251 154.039398 
L 254.196364 254.353146 
L 255.289477 280.742986 
L 256.38259 241.483854 
L 257.475702 173.925349 
L 258.568815 274.177957 
L 259.661928 276.318562 
L 260.755041 179.231225 
L 262.941267 282.602547 
L 264.03438 264.707372 
L 265.127493 145.987737 
L 266.220606 264.794527 
L 267.313719 281.45751 
L 268.406832 230.424677 
L 269.499945 187.161482 
L 270.593058 278.763693 
L 271.686171 276.479856 
L 272.779284 164.79559 
L 273.872397 242.198353 
L 274.96551 284.335361 
L 276.058623 261.615329 
L 277.151736 141.240444 
L 278.244848 268.787379 
L 279.337961 282.830903 
L 280.431074 224.506525 
L 281.524187 187.143613 
L 282.6173 280.644916 
L 283.710413 277.883591 
L 284.803526 161.250515 
L 285.896639 240.529701 
L 286.989752 285.596801 
L 288.082865 267.934308 
L 289.175978 130.108477 
L 290.269091 267.957083 
L 291.362204 284.28637 
L 292.455317 235.258775 
L 293.54843 167.88772 
L 294.641543 279.241348 
L 295.734656 282.381103 
L 296.827769 189.070315 
L 297.920882 223.58592 
L 299.013994 285.730661 
L 300.107107 276.838261 
L 301.20022 132.913827 
L 302.293333 259.502142 
L 303.386446 286.206827 
L 304.479559 263.629624 
L 305.572672 129.451002 
L 306.665785 274.543922 
L 307.758898 286.39877 
L 308.852011 234.670586 
L 309.945124 167.884567 
L 311.038237 282.05219 
L 312.13135 284.2976 
L 313.224463 188.884091 
L 314.317576 215.041984 
L 315.410689 286.688073 
L 316.503802 281.548642 
L 317.596915 135.633335 
L 318.690028 249.237436 
L 319.78314 288.094698 
L 320.876253 276.978489 
L 321.969366 108.745177 
L 323.062479 268.341267 
L 324.155592 288.870442 
L 325.248705 268.269528 
L 326.341818 102.613473 
L 327.434931 276.720834 
L 328.528044 289.881829 
L 329.621157 266.676206 
L 330.71427 105.757896 
L 331.807383 280.163863 
L 332.900496 290.02761 
L 333.993609 258.278464 
L 335.086722 97.527895 
L 336.179835 282.025754 
L 337.272948 290.847843 
L 338.366061 269.486199 
L 339.459174 72.983733 
L 340.552287 283.335055 
L 341.645399 292.478768 
L 342.738512 276.835756 
L 343.831625 68.709269 
L 344.924738 278.287825 
L 346.017851 291.403438 
L 347.110964 286.182081 
L 348.204077 271.994064 
L 349.29719 57.208622 
L 350.390303 286.368971 
L 351.483416 293.883396 
L 352.576529 278.126198 
L 353.669642 81.013058 
L 354.762755 272.029934 
L 355.855868 289.07972 
L 356.948981 263.685159 
L 358.042094 123.745789 
L 359.135207 277.104729 
L 360.22832 287.300928 
L 361.321433 225.089458 
L 362.414545 180.119596 
L 363.507658 283.676143 
L 364.600771 284.182441 
L 365.693884 170.657157 
L 367.88011 287.451369 
L 368.973223 278.812894 
L 370.066336 120.472779 
L 371.159449 259.308736 
L 372.252562 289.195211 
L 373.345675 271.437742 
L 374.438788 104.145742 
L 375.531901 273.599158 
L 376.625014 288.667716 
L 377.718127 262.404282 
L 378.81124 122.761328 
L 379.904353 280.476527 
L 380.997466 288.635315 
L 382.090579 249.737593 
L 383.183691 148.400844 
L 384.276804 283.553083 
L 385.369917 289.738684 
L 386.46303 237.307932 
L 387.556143 163.421689 
L 388.649256 285.882512 
L 389.742369 289.930767 
L 390.835482 227.986168 
L 391.928595 159.14013 
L 393.021708 286.554239 
L 394.114821 291.196902 
L 395.207934 249.696425 
L 396.301047 112.419453 
L 397.39416 286.202184 
L 398.487273 292.488105 
L 398.487273 292.488105 
" style="fill:none;opacity:0.4;stroke:#1f77b4;stroke-linecap:square;stroke-width:1.5;"/>
   </g>
   <g id="line2d_14">
    <path clip-path="url(#p65946eb4e2)" d="M 73.832727 279.037087 
L 74.92584 267.666448 
L 76.018953 158.940163 
L 77.112066 257.07784 
L 78.205179 283.579801 
L 79.298292 242.571237 
L 80.391405 175.364428 
L 81.484518 274.80569 
L 82.577631 277.899415 
L 83.670744 190.361405 
L 84.763857 232.818637 
L 85.85697 283.75374 
L 86.950083 270.554215 
L 88.043196 152.169851 
L 89.136309 266.674297 
L 90.229421 283.005743 
L 91.322534 229.570941 
L 92.415647 187.490587 
L 93.50876 278.65532 
L 94.601873 277.058144 
L 95.694986 167.894754 
L 96.788099 241.206359 
L 97.881212 284.744354 
L 98.974325 264.829871 
L 100.067438 143.628981 
L 101.160551 269.249592 
L 102.253664 283.875854 
L 104.43989 186.13375 
L 105.533003 279.962868 
L 106.626116 280.301775 
L 107.719229 174.661413 
L 108.812342 238.979878 
L 109.905455 286.032341 
L 110.998567 269.73534 
L 112.09168 137.909447 
L 113.184793 268.637288 
L 114.277906 285.9146 
L 115.371019 246.039983 
L 116.464132 163.845527 
L 117.557245 278.979546 
L 118.650358 282.962037 
L 119.743471 191.160229 
L 120.836584 217.413484 
L 121.929697 285.014484 
L 123.02281 276.643953 
L 124.115923 135.938808 
L 125.209036 256.988074 
L 126.302149 287.916611 
L 127.395262 268.961243 
L 128.488375 132.006886 
L 129.581488 273.567364 
L 130.674601 286.891242 
L 131.767713 248.545642 
L 132.860826 162.187807 
L 133.953939 281.059953 
L 135.047052 285.217413 
L 136.140165 206.71874 
L 137.233278 206.390265 
L 138.326391 285.655465 
L 139.419504 282.614151 
L 140.512617 152.613056 
L 141.60573 242.5972 
L 142.698843 288.964901 
L 143.791956 277.961392 
L 144.885069 114.860581 
L 145.978182 263.890407 
L 147.071295 290.469998 
L 148.164408 272.789761 
L 149.257521 104.287556 
L 150.350634 275.292264 
L 151.443747 290.85444 
L 152.53686 268.790095 
L 153.629972 99.704071 
L 154.723085 278.58243 
L 155.816198 290.871287 
L 156.909311 271.991121 
L 158.002424 90.170813 
L 159.095537 281.680412 
L 160.18865 291.972894 
L 161.281763 277.589022 
L 162.374876 72.490408 
L 163.467989 284.817933 
L 164.561102 293.480688 
L 165.654215 289.597735 
L 166.747328 133.534635 
L 167.840441 252.087704 
L 168.933554 293.600434 
L 170.026667 295.001631 
L 171.11978 293.833386 
L 172.212893 191.786538 
L 173.306006 242.003817 
L 174.399118 275.301842 
L 175.492231 228.781025 
L 176.585344 217.829465 
L 177.678457 266.238214 
L 178.77157 253.937174 
L 179.864683 201.581841 
L 180.957796 252.561443 
L 182.050909 268.722718 
L 183.144022 219.333223 
L 184.237135 225.605961 
L 185.330248 268.003174 
L 186.423361 251.519416 
L 187.516474 197.818255 
L 188.609587 255.94815 
L 189.7027 270.322364 
L 190.795813 214.291213 
L 191.888926 226.926456 
L 192.982039 270.985331 
L 194.075152 250.823627 
L 195.168264 193.820428 
L 196.261377 258.899482 
L 197.35449 271.397265 
L 198.447603 211.859265 
L 199.540716 225.721164 
L 200.633829 271.581552 
L 201.726942 254.384872 
L 202.820055 189.683958 
L 203.913168 260.573942 
L 205.006281 270.586773 
L 206.099394 209.933509 
L 207.192507 225.418993 
L 208.28562 274.854762 
L 209.378733 252.026239 
L 210.471846 182.522104 
L 211.564959 261.082421 
L 212.658072 272.31907 
L 213.751185 210.859834 
L 214.844298 221.02316 
L 215.93741 275.626953 
L 217.030523 259.433504 
L 218.123636 177.241175 
L 219.216749 259.95478 
L 220.309862 276.305648 
L 221.402975 217.302565 
L 222.496088 210.84391 
L 223.589201 276.505513 
L 224.682314 265.529155 
L 225.775427 172.863579 
L 226.86854 255.916695 
L 227.961653 278.841197 
L 229.054766 225.543787 
L 230.147879 199.162821 
L 231.240992 273.808272 
L 232.334105 271.193873 
L 233.427218 175.142695 
L 234.520331 249.295799 
L 235.613444 281.116164 
L 236.706556 243.213655 
L 237.799669 178.16955 
L 238.892782 271.420232 
L 239.985895 276.219277 
L 241.079008 187.554653 
L 243.265234 282.112173 
L 244.358347 258.014019 
L 245.45146 160.976286 
L 246.544573 266.771762 
L 247.637686 277.639915 
L 248.730799 215.86487 
L 249.823912 210.028846 
L 250.917025 279.981283 
L 252.010138 271.578662 
L 253.103251 158.391637 
L 254.196364 256.618659 
L 255.289477 281.405871 
L 256.38259 244.670349 
L 257.475702 175.718629 
L 258.568815 274.914836 
L 259.661928 276.991577 
L 260.755041 182.131219 
L 262.941267 284.206536 
L 264.03438 266.985113 
L 265.127493 146.583231 
L 266.220606 266.644524 
L 267.313719 282.158971 
L 269.499945 189.002675 
L 270.593058 279.034172 
L 271.686171 277.736707 
L 272.779284 165.350598 
L 273.872397 244.167336 
L 274.96551 285.235761 
L 276.058623 262.868745 
L 277.151736 142.471462 
L 278.244848 270.026737 
L 279.337961 283.182777 
L 280.431074 225.689446 
L 281.524187 188.968934 
L 282.6173 281.065048 
L 283.710413 278.242199 
L 284.803526 163.732453 
L 285.896639 242.026652 
L 286.989752 286.958012 
L 288.082865 269.045701 
L 289.175978 131.692391 
L 290.269091 268.856052 
L 291.362204 285.200842 
L 292.455317 235.855504 
L 293.54843 169.153627 
L 294.641543 279.966452 
L 295.734656 283.305138 
L 296.827769 192.9768 
L 297.920882 224.3386 
L 299.013994 286.700235 
L 300.107107 277.917912 
L 301.20022 134.211714 
L 302.293333 260.741043 
L 303.386446 287.59571 
L 304.479559 265.161342 
L 305.572672 132.40484 
L 306.665785 274.9216 
L 307.758898 287.161183 
L 308.852011 236.41039 
L 309.945124 168.741851 
L 311.038237 283.057303 
L 312.13135 285.123561 
L 313.224463 189.650007 
L 314.317576 216.260039 
L 315.410689 287.234269 
L 316.503802 282.459313 
L 317.596915 138.930451 
L 318.690028 249.864376 
L 319.78314 289.098713 
L 320.876253 278.229977 
L 321.969366 110.52834 
L 323.062479 269.750739 
L 324.155592 290.349614 
L 325.248705 269.250774 
L 326.341818 105.249409 
L 327.434931 277.378489 
L 328.528044 290.326778 
L 329.621157 270.57839 
L 330.71427 108.011093 
L 331.807383 281.642972 
L 332.900496 291.246542 
L 333.993609 261.135029 
L 335.086722 99.374414 
L 336.179835 283.864399 
L 337.272948 291.365833 
L 338.366061 270.014465 
L 339.459174 73.696515 
L 340.552287 285.392916 
L 341.645399 293.36974 
L 342.738512 284.027791 
L 343.831625 76.730071 
L 344.924738 282.539931 
L 346.017851 294.694405 
L 347.110964 294.274238 
L 348.204077 273.664035 
L 349.29719 60.195255 
L 350.390303 290.620432 
L 351.483416 295.38066 
L 352.576529 280.80848 
L 353.669642 91.650894 
L 354.762755 274.030337 
L 355.855868 291.095104 
L 356.948981 267.089988 
L 358.042094 125.811221 
L 359.135207 278.899274 
L 360.22832 288.185212 
L 361.321433 227.817516 
L 362.414545 182.390635 
L 363.507658 285.086977 
L 364.600771 285.107955 
L 365.693884 173.880458 
L 367.88011 288.229782 
L 368.973223 279.711945 
L 370.066336 125.281772 
L 371.159449 259.543267 
L 372.252562 290.209313 
L 373.345675 274.644603 
L 374.438788 106.250836 
L 375.531901 273.905015 
L 376.625014 289.283416 
L 377.718127 266.708195 
L 378.81124 125.640729 
L 379.904353 282.10008 
L 380.997466 289.253393 
L 382.090579 254.287381 
L 383.183691 149.838179 
L 384.276804 285.07655 
L 385.369917 290.273292 
L 386.46303 242.714846 
L 387.556143 165.849486 
L 388.649256 287.988035 
L 389.742369 292.177928 
L 391.928595 164.434548 
L 393.021708 288.928429 
L 394.114821 293.267873 
L 395.207934 250.250452 
L 396.301047 121.611263 
L 397.39416 288.158272 
L 398.487273 293.417973 
L 398.487273 293.417973 
" style="fill:none;opacity:0.4;stroke:#ff7f0e;stroke-linecap:square;stroke-width:1.5;"/>
   </g>
   <g id="line2d_15">
    <path clip-path="url(#p65946eb4e2)" d="M 73.832727 277.132395 
L 74.92584 265.963635 
L 76.018953 157.966012 
L 77.112066 250.474472 
L 78.205179 280.353443 
L 79.298292 239.335655 
L 80.391405 167.950805 
L 81.484518 271.886666 
L 82.577631 275.148095 
L 83.670744 185.120051 
L 84.763857 225.173478 
L 85.85697 279.443234 
L 86.950083 262.197185 
L 88.043196 144.240654 
L 89.136309 261.951118 
L 90.229421 280.533802 
L 91.322534 226.802687 
L 92.415647 180.243461 
L 93.50876 276.146627 
L 94.601873 276.442837 
L 95.694986 161.123233 
L 96.788099 236.226339 
L 97.881212 282.370822 
L 98.974325 261.637333 
L 100.067438 137.878439 
L 101.160551 265.801631 
L 102.253664 282.239545 
L 103.346777 226.629147 
L 104.43989 179.169953 
L 105.533003 279.105832 
L 106.626116 278.120447 
L 107.719229 168.685958 
L 108.812342 235.212876 
L 109.905455 283.405538 
L 110.998567 266.080204 
L 112.09168 129.920178 
L 113.184793 265.641519 
L 114.277906 284.525293 
L 115.371019 240.529727 
L 116.464132 159.333545 
L 117.557245 277.48807 
L 118.650358 280.419926 
L 119.743471 189.38883 
L 120.836584 215.595731 
L 121.929697 284.258482 
L 123.02281 276.019683 
L 124.115923 133.507333 
L 125.209036 253.574643 
L 126.302149 285.273751 
L 127.395262 263.191781 
L 128.488375 119.96161 
L 129.581488 272.602058 
L 130.674601 284.782284 
L 131.767713 239.018165 
L 132.860826 156.512708 
L 133.953939 280.527208 
L 135.047052 285.12189 
L 136.140165 199.578039 
L 137.233278 204.271445 
L 138.326391 285.179978 
L 139.419504 280.920372 
L 140.512617 150.814696 
L 141.60573 240.264582 
L 142.698843 287.862069 
L 143.791956 274.724722 
L 144.885069 111.981407 
L 145.978182 260.902679 
L 147.071295 285.389844 
L 148.164408 270.050834 
L 149.257521 93.066725 
L 150.350634 272.101404 
L 151.443747 286.917205 
L 152.53686 266.318414 
L 153.629972 88.867793 
L 154.723085 277.547498 
L 155.816198 287.605646 
L 156.909311 269.115259 
L 158.002424 79.947784 
L 159.095537 279.10706 
L 160.18865 289.639449 
L 161.281763 272.472825 
L 162.374876 60.596966 
L 163.467989 277.420013 
L 164.561102 290.043063 
L 165.654215 279.36054 
L 166.747328 119.925846 
L 167.840441 242.784667 
L 168.933554 285.581768 
L 170.026667 284.962222 
L 171.11978 277.771008 
L 172.212893 190.018924 
L 173.306006 219.606619 
L 174.399118 271.151542 
L 175.492231 219.769122 
L 176.585344 210.481826 
L 177.678457 264.250889 
L 178.77157 250.448772 
L 179.864683 194.663688 
L 180.957796 249.165277 
L 182.050909 263.707696 
L 183.144022 214.72664 
L 184.237135 222.16888 
L 185.330248 264.839726 
L 186.423361 247.806573 
L 187.516474 191.826008 
L 188.609587 250.886537 
L 189.7027 265.600605 
L 190.795813 209.475326 
L 191.888926 223.666041 
L 192.982039 266.951792 
L 194.075152 247.708898 
L 195.168264 189.553462 
L 196.261377 255.058692 
L 197.35449 266.888594 
L 198.447603 203.625926 
L 199.540716 222.546126 
L 200.633829 268.019125 
L 201.726942 249.253728 
L 202.820055 185.516323 
L 203.913168 255.633418 
L 205.006281 268.784865 
L 206.099394 205.82902 
L 207.192507 221.707806 
L 208.28562 270.980128 
L 209.378733 250.101824 
L 210.471846 179.363858 
L 211.564959 255.431209 
L 212.658072 270.881848 
L 213.751185 205.565031 
L 214.844298 215.70447 
L 215.93741 273.014104 
L 217.030523 255.331142 
L 218.123636 174.334095 
L 219.216749 254.210386 
L 220.309862 273.829946 
L 221.402975 215.658877 
L 222.496088 207.526971 
L 223.589201 273.024371 
L 224.682314 262.315095 
L 225.775427 165.252003 
L 226.86854 250.314912 
L 227.961653 276.074953 
L 229.054766 223.689849 
L 230.147879 195.302165 
L 231.240992 271.957196 
L 232.334105 266.627023 
L 233.427218 169.545878 
L 234.520331 244.621813 
L 235.613444 278.118952 
L 236.706556 240.624669 
L 237.799669 176.510017 
L 238.892782 269.779855 
L 239.985895 273.000085 
L 241.079008 184.208152 
L 243.265234 279.13873 
L 244.358347 254.65049 
L 245.45146 159.809623 
L 246.544573 263.412489 
L 247.637686 276.844323 
L 248.730799 211.384579 
L 249.823912 206.550376 
L 250.917025 278.062449 
L 252.010138 267.983361 
L 253.103251 150.257392 
L 254.196364 252.03478 
L 255.289477 280.146475 
L 256.38259 239.15418 
L 257.475702 171.620762 
L 258.568815 273.199251 
L 259.661928 275.298649 
L 260.755041 177.096568 
L 262.941267 281.23236 
L 264.03438 262.795009 
L 265.127493 145.624689 
L 266.220606 263.015166 
L 267.313719 280.994247 
L 268.406832 226.264645 
L 269.499945 184.936026 
L 270.593058 278.493434 
L 271.686171 275.569546 
L 272.779284 164.010342 
L 273.872397 240.266711 
L 274.96551 283.305243 
L 276.058623 260.649176 
L 277.151736 139.686416 
L 278.244848 267.539683 
L 279.337961 282.241524 
L 280.431074 222.863249 
L 281.524187 184.934213 
L 282.6173 280.259428 
L 283.710413 277.417044 
L 284.803526 159.334701 
L 285.896639 239.162615 
L 286.989752 284.324043 
L 288.082865 266.859951 
L 289.175978 127.725073 
L 290.269091 266.468566 
L 291.362204 282.872387 
L 292.455317 234.851081 
L 293.54843 166.361959 
L 294.641543 278.791629 
L 295.734656 281.623232 
L 296.827769 184.275187 
L 297.920882 222.721401 
L 299.013994 285.116335 
L 300.107107 275.222856 
L 301.20022 131.441804 
L 302.293333 258.585329 
L 303.386446 284.78796 
L 304.479559 261.042426 
L 305.572672 125.648928 
L 306.665785 274.133244 
L 307.758898 285.826839 
L 308.852011 233.037164 
L 309.945124 167.220671 
L 311.038237 281.054723 
L 312.13135 283.520954 
L 313.224463 188.275695 
L 314.317576 214.160612 
L 315.410689 286.023262 
L 316.503802 280.221414 
L 317.596915 133.37999 
L 318.690028 248.569292 
L 319.78314 286.945151 
L 320.876253 276.03952 
L 321.969366 106.03646 
L 323.062479 266.909169 
L 324.155592 286.393529 
L 325.248705 266.917447 
L 326.341818 98.160029 
L 327.434931 276.058997 
L 328.528044 289.306959 
L 329.621157 263.010331 
L 330.71427 102.917789 
L 331.807383 278.017398 
L 332.900496 288.809225 
L 333.993609 256.440468 
L 335.086722 94.736139 
L 336.179835 279.386 
L 337.272948 290.069519 
L 338.366061 268.72009 
L 339.459174 72.219324 
L 340.552287 280.674066 
L 341.645399 291.375461 
L 342.738512 272.140143 
L 343.831625 57.94804 
L 344.924738 274.325985 
L 346.017851 286.690355 
L 347.110964 280.072113 
L 348.204077 270.842379 
L 349.29719 53.568 
L 350.390303 281.482497 
L 351.483416 292.534786 
L 352.576529 275.51143 
L 353.669642 73.133982 
L 354.762755 270.044264 
L 355.855868 286.88977 
L 356.948981 260.820088 
L 358.042094 122.168856 
L 359.135207 275.093416 
L 360.22832 286.537196 
L 361.321433 223.380032 
L 362.414545 177.419839 
L 363.507658 282.135694 
L 364.600771 283.334877 
L 365.693884 168.217894 
L 367.88011 286.586827 
L 368.973223 277.737887 
L 370.066336 117.567318 
L 371.159449 259.02178 
L 372.252562 288.392813 
L 373.345675 268.640626 
L 374.438788 102.861292 
L 375.531901 273.248296 
L 376.625014 287.90882 
L 377.718127 258.010603 
L 378.81124 119.386438 
L 379.904353 277.991451 
L 380.997466 288.061519 
L 382.090579 243.162807 
L 383.183691 146.840755 
L 384.276804 281.88685 
L 385.369917 289.348357 
L 386.46303 231.522396 
L 387.556143 161.195129 
L 388.649256 284.284889 
L 389.742369 287.563422 
L 390.835482 225.078536 
L 391.928595 154.486334 
L 393.021708 285.042326 
L 394.114821 288.729355 
L 395.207934 249.209844 
L 396.301047 105.786452 
L 397.39416 283.786109 
L 398.487273 291.014807 
L 398.487273 291.014807 
" style="fill:none;opacity:0.4;stroke:#2ca02c;stroke-linecap:square;stroke-width:1.5;"/>
   </g>
   <g id="line2d_16">
    <path clip-path="url(#p65946eb4e2)" d="M 73.832727 277.011293 
L 74.92584 266.746456 
L 76.018953 157.939314 
L 77.112066 250.322717 
L 78.205179 280.090731 
L 79.298292 239.03133 
L 80.391405 167.177601 
L 81.484518 271.878809 
L 82.577631 274.958326 
L 83.670744 184.627759 
L 84.763857 224.660689 
L 85.85697 279.064261 
L 86.950083 261.614103 
L 88.043196 143.56841 
L 89.136309 262.640521 
L 90.229421 281.117228 
L 91.322534 226.713525 
L 92.415647 179.495406 
L 93.50876 275.984796 
L 94.601873 277.011293 
L 95.694986 168.204019 
L 96.788099 235.951813 
L 97.881212 282.143725 
L 98.974325 261.614103 
L 100.067438 137.409377 
L 101.160551 266.746456 
L 102.253664 282.143725 
L 103.346777 225.687107 
L 104.43989 178.468725 
L 105.533003 279.064261 
L 106.626116 278.03779 
L 107.719229 168.204019 
L 108.812342 234.925395 
L 109.905455 283.170195 
L 110.998567 265.720038 
L 112.09168 129.197507 
L 113.184793 265.720038 
L 114.277906 285.223163 
L 115.371019 240.058011 
L 116.464132 158.965732 
L 117.557245 279.064261 
L 118.650358 283.170195 
L 119.743471 190.786793 
L 120.836584 215.422402 
L 121.929697 284.196666 
L 123.02281 275.984796 
L 124.115923 135.356541 
L 125.209036 253.402233 
L 126.302149 285.223163 
L 127.395262 262.640521 
L 128.488375 118.932801 
L 129.581488 272.90549 
L 130.674601 286.24966 
L 131.767713 238.004912 
L 132.860826 155.886215 
L 133.953939 281.117228 
L 135.047052 285.223163 
L 136.140165 198.998662 
L 137.233278 204.131015 
L 138.326391 285.223163 
L 139.419504 282.143725 
L 140.512617 150.753862 
L 141.60573 240.058011 
L 142.698843 288.302601 
L 143.791956 278.03779 
L 144.885069 111.747349 
L 145.978182 260.587422 
L 147.071295 288.302601 
L 148.164408 272.90549 
L 149.257521 92.244356 
L 150.350634 271.878809 
L 151.443747 289.329098 
L 152.53686 268.799292 
L 153.629972 88.138158 
L 154.723085 278.03779 
L 155.816198 290.355595 
L 156.909311 268.799292 
L 158.002424 78.899871 
L 159.095537 279.064261 
L 160.18865 291.382065 
L 161.281763 278.03779 
L 162.374876 59.396877 
L 163.467989 277.011293 
L 164.561102 291.382065 
L 165.654215 290.355595 
L 166.747328 118.932801 
L 167.840441 252.375553 
L 168.933554 292.408536 
L 170.026667 295.488 
L 171.11978 295.488 
L 172.212893 191.813211 
L 173.306006 243.137265 
L 174.399118 270.852391 
L 175.492231 226.713525 
L 176.585344 218.501656 
L 177.678457 264.69362 
L 178.77157 251.349135 
L 179.864683 202.077916 
L 180.957796 250.322717 
L 182.050909 263.666939 
L 183.144022 219.528074 
L 184.237135 222.607591 
L 185.330248 264.69362 
L 186.423361 249.296299 
L 187.516474 197.971981 
L 188.609587 252.375553 
L 189.7027 265.720038 
L 190.795813 214.395721 
L 191.888926 223.634271 
L 192.982039 266.746456 
L 194.075152 248.269881 
L 195.168264 193.866047 
L 196.261377 255.455069 
L 197.35449 267.772874 
L 198.447603 212.342885 
L 199.540716 223.634271 
L 200.633829 267.772874 
L 201.726942 249.296299 
L 202.820055 187.707276 
L 203.913168 257.508168 
L 205.006281 268.799292 
L 206.099394 210.289786 
L 207.192507 221.581173 
L 208.28562 270.852391 
L 209.378733 251.349135 
L 210.471846 182.574923 
L 211.564959 257.508168 
L 212.658072 270.852391 
L 213.751185 211.316204 
L 214.844298 215.422402 
L 215.93741 272.90549 
L 217.030523 255.455069 
L 218.123636 177.442307 
L 219.216749 256.48175 
L 220.309862 273.931855 
L 221.402975 217.475238 
L 222.496088 207.210532 
L 223.589201 272.90549 
L 224.682314 262.640521 
L 225.775427 173.336372 
L 226.86854 252.375553 
L 227.961653 275.984796 
L 229.054766 225.687107 
L 230.147879 194.892465 
L 231.240992 271.878809 
L 232.334105 267.772874 
L 233.427218 175.389471 
L 234.520331 245.190364 
L 235.613444 278.03779 
L 236.706556 241.084429 
L 237.799669 176.415889 
L 238.892782 270.852391 
L 239.985895 273.931855 
L 241.079008 187.707276 
L 242.172121 229.793042 
L 243.265234 279.064261 
L 244.358347 255.455069 
L 245.45146 161.018568 
L 246.544573 264.69362 
L 247.637686 277.011293 
L 248.730799 211.316204 
L 249.823912 206.183851 
L 250.917025 278.03779 
L 252.010138 268.799292 
L 253.103251 158.965732 
L 254.196364 254.428651 
L 255.289477 280.090731 
L 256.38259 239.03133 
L 257.475702 171.283536 
L 258.568815 274.958326 
L 259.661928 277.011293 
L 260.755041 182.574923 
L 262.941267 281.117228 
L 264.03438 262.640521 
L 265.127493 145.621246 
L 266.220606 264.69362 
L 267.313719 281.117228 
L 268.406832 225.687107 
L 269.499945 184.627759 
L 270.593058 279.064261 
L 271.686171 275.984796 
L 272.779284 165.124503 
L 273.872397 240.058011 
L 274.96551 283.170195 
L 276.058623 260.587422 
L 277.151736 139.462475 
L 278.244848 268.799292 
L 279.337961 283.170195 
L 280.431074 222.607591 
L 281.524187 184.627759 
L 282.6173 281.117228 
L 283.710413 278.03779 
L 284.803526 164.098085 
L 285.896639 239.03133 
L 286.989752 284.196666 
L 288.082865 266.746456 
L 289.175978 131.250606 
L 290.269091 268.799292 
L 291.362204 285.223163 
L 292.455317 235.951813 
L 293.54843 166.151183 
L 294.641543 280.090731 
L 295.734656 282.143725 
L 296.827769 183.601341 
L 297.920882 222.607591 
L 299.013994 285.223163 
L 300.107107 274.958326 
L 301.20022 131.250606 
L 302.293333 258.534586 
L 303.386446 286.24966 
L 304.479559 260.587422 
L 305.572672 125.091835 
L 306.665785 274.958326 
L 307.758898 287.27613 
L 308.852011 232.872559 
L 309.945124 167.177601 
L 311.038237 283.170195 
L 312.13135 285.223163 
L 313.224463 189.760112 
L 314.317576 216.44882 
L 315.410689 287.27613 
L 316.503802 282.143725 
L 317.596915 139.462475 
L 318.690028 249.296299 
L 319.78314 288.302601 
L 320.876253 275.984796 
L 321.969366 105.588579 
L 323.062479 266.746456 
L 324.155592 290.355595 
L 325.248705 268.799292 
L 326.341818 97.376709 
L 327.434931 275.984796 
L 328.528044 290.355595 
L 329.621157 262.640521 
L 330.71427 102.509062 
L 331.807383 281.117228 
L 332.900496 291.382065 
L 333.993609 261.614103 
L 335.086722 99.429545 
L 336.179835 283.170195 
L 337.272948 291.382065 
L 338.366061 269.825973 
L 339.459174 73.767518 
L 340.552287 284.196666 
L 341.645399 293.435033 
L 342.738512 285.223163 
L 343.831625 56.31736 
L 344.924738 273.931855 
L 346.017851 293.435033 
L 347.110964 295.488 
L 348.204077 273.931855 
L 349.29719 60.423295 
L 350.390303 287.27613 
L 351.483416 292.408536 
L 352.576529 281.117228 
L 353.669642 93.270774 
L 354.762755 269.825973 
L 355.855868 289.329098 
L 356.948981 260.587422 
L 358.042094 126.118253 
L 359.135207 279.064261 
L 360.22832 288.302601 
L 361.321433 223.634271 
L 362.414545 182.574923 
L 363.507658 285.223163 
L 364.600771 285.223163 
L 365.693884 174.363053 
L 367.88011 288.302601 
L 368.973223 279.064261 
L 370.066336 126.118253 
L 371.159449 259.561004 
L 372.252562 290.355595 
L 373.345675 270.852391 
L 374.438788 106.614997 
L 375.531901 273.931855 
L 376.625014 289.329098 
L 377.718127 257.508168 
L 378.81124 118.932801 
L 379.904353 282.143725 
L 380.997466 289.329098 
L 382.090579 242.110847 
L 383.183691 146.647927 
L 384.276804 285.223163 
L 385.369917 290.355595 
L 387.556143 166.151183 
L 388.649256 288.302601 
L 389.742369 292.408536 
L 390.835482 231.846141 
L 391.928595 165.124503 
L 393.021708 289.329098 
L 394.114821 293.435033 
L 395.207934 250.322717 
L 396.301047 123.038736 
L 397.39416 288.302601 
L 398.487273 293.435033 
L 398.487273 293.435033 
" style="fill:none;stroke:#000000;stroke-linecap:square;stroke-width:1.5;"/>
   </g>
   <g id="patch_3">
    <path d="M 57.6 307.584 
L 57.6 41.472 
" style="fill:none;stroke:#000000;stroke-linecap:square;stroke-linejoin:miter;stroke-width:0.8;"/>
   </g>
   <g id="patch_4">
    <path d="M 414.72 307.584 
L 414.72 41.472 
" style="fill:none;stroke:#000000;stroke-linecap:square;stroke-linejoin:miter;stroke-width:0.8;"/>
   </g>
   <g id="patch_5">
    <path d="M 57.6 307.584 
L 414.72 307.584 
" style="fill:none;stroke:#000000;stroke-linecap:square;stroke-linejoin:miter;stroke-width:0.8;"/>
   </g>
   <g id="patch_6">
    <path d="M 57.6 41.472 
L 414.72 41.472 
" style="fill:none;stroke:#000000;stroke-linecap:square;stroke-linejoin:miter;stroke-width:0.8;"/>
   </g>
   <g id="text_13">
    <!-- Plot of Train Data for Lazer -->
    <defs>
     <path d="M 19.671875 64.796875 
L 19.671875 37.40625 
L 32.078125 37.40625 
Q 38.96875 37.40625 42.71875 40.96875 
Q 46.484375 44.53125 46.484375 51.125 
Q 46.484375 57.671875 42.71875 61.234375 
Q 38.96875 64.796875 32.078125 64.796875 
z
M 9.8125 72.90625 
L 32.078125 72.90625 
Q 44.34375 72.90625 50.609375 67.359375 
Q 56.890625 61.8125 56.890625 51.125 
Q 56.890625 40.328125 50.609375 34.8125 
Q 44.34375 29.296875 32.078125 29.296875 
L 19.671875 29.296875 
L 19.671875 0 
L 9.8125 0 
z
" id="DejaVuSans-50"/>
     <path d="M 9.421875 75.984375 
L 18.40625 75.984375 
L 18.40625 0 
L 9.421875 0 
z
" id="DejaVuSans-6c"/>
     <path d="M 30.609375 48.390625 
Q 23.390625 48.390625 19.1875 42.75 
Q 14.984375 37.109375 14.984375 27.296875 
Q 14.984375 17.484375 19.15625 11.84375 
Q 23.34375 6.203125 30.609375 6.203125 
Q 37.796875 6.203125 41.984375 11.859375 
Q 46.1875 17.53125 46.1875 27.296875 
Q 46.1875 37.015625 41.984375 42.703125 
Q 37.796875 48.390625 30.609375 48.390625 
z
M 30.609375 56 
Q 42.328125 56 49.015625 48.375 
Q 55.71875 40.765625 55.71875 27.296875 
Q 55.71875 13.875 49.015625 6.21875 
Q 42.328125 -1.421875 30.609375 -1.421875 
Q 18.84375 -1.421875 12.171875 6.21875 
Q 5.515625 13.875 5.515625 27.296875 
Q 5.515625 40.765625 12.171875 48.375 
Q 18.84375 56 30.609375 56 
z
" id="DejaVuSans-6f"/>
     <path d="M 18.3125 70.21875 
L 18.3125 54.6875 
L 36.8125 54.6875 
L 36.8125 47.703125 
L 18.3125 47.703125 
L 18.3125 18.015625 
Q 18.3125 11.328125 20.140625 9.421875 
Q 21.96875 7.515625 27.59375 7.515625 
L 36.8125 7.515625 
L 36.8125 0 
L 27.59375 0 
Q 17.1875 0 13.234375 3.875 
Q 9.28125 7.765625 9.28125 18.015625 
L 9.28125 47.703125 
L 2.6875 47.703125 
L 2.6875 54.6875 
L 9.28125 54.6875 
L 9.28125 70.21875 
z
" id="DejaVuSans-74"/>
     <path id="DejaVuSans-20"/>
     <path d="M 37.109375 75.984375 
L 37.109375 68.5 
L 28.515625 68.5 
Q 23.6875 68.5 21.796875 66.546875 
Q 19.921875 64.59375 19.921875 59.515625 
L 19.921875 54.6875 
L 34.71875 54.6875 
L 34.71875 47.703125 
L 19.921875 47.703125 
L 19.921875 0 
L 10.890625 0 
L 10.890625 47.703125 
L 2.296875 47.703125 
L 2.296875 54.6875 
L 10.890625 54.6875 
L 10.890625 58.5 
Q 10.890625 67.625 15.140625 71.796875 
Q 19.390625 75.984375 28.609375 75.984375 
z
" id="DejaVuSans-66"/>
     <path d="M -0.296875 72.90625 
L 61.375 72.90625 
L 61.375 64.59375 
L 35.5 64.59375 
L 35.5 0 
L 25.59375 0 
L 25.59375 64.59375 
L -0.296875 64.59375 
z
" id="DejaVuSans-54"/>
     <path d="M 41.109375 46.296875 
Q 39.59375 47.171875 37.8125 47.578125 
Q 36.03125 48 33.890625 48 
Q 26.265625 48 22.1875 43.046875 
Q 18.109375 38.09375 18.109375 28.8125 
L 18.109375 0 
L 9.078125 0 
L 9.078125 54.6875 
L 18.109375 54.6875 
L 18.109375 46.1875 
Q 20.953125 51.171875 25.484375 53.578125 
Q 30.03125 56 36.53125 56 
Q 37.453125 56 38.578125 55.875 
Q 39.703125 55.765625 41.0625 55.515625 
z
" id="DejaVuSans-72"/>
     <path d="M 34.28125 27.484375 
Q 23.390625 27.484375 19.1875 25 
Q 14.984375 22.515625 14.984375 16.5 
Q 14.984375 11.71875 18.140625 8.90625 
Q 21.296875 6.109375 26.703125 6.109375 
Q 34.1875 6.109375 38.703125 11.40625 
Q 43.21875 16.703125 43.21875 25.484375 
L 43.21875 27.484375 
z
M 52.203125 31.203125 
L 52.203125 0 
L 43.21875 0 
L 43.21875 8.296875 
Q 40.140625 3.328125 35.546875 0.953125 
Q 30.953125 -1.421875 24.3125 -1.421875 
Q 15.921875 -1.421875 10.953125 3.296875 
Q 6 8.015625 6 15.921875 
Q 6 25.140625 12.171875 29.828125 
Q 18.359375 34.515625 30.609375 34.515625 
L 43.21875 34.515625 
L 43.21875 35.40625 
Q 43.21875 41.609375 39.140625 45 
Q 35.0625 48.390625 27.6875 48.390625 
Q 23 48.390625 18.546875 47.265625 
Q 14.109375 46.140625 10.015625 43.890625 
L 10.015625 52.203125 
Q 14.9375 54.109375 19.578125 55.046875 
Q 24.21875 56 28.609375 56 
Q 40.484375 56 46.34375 49.84375 
Q 52.203125 43.703125 52.203125 31.203125 
z
" id="DejaVuSans-61"/>
     <path d="M 9.421875 54.6875 
L 18.40625 54.6875 
L 18.40625 0 
L 9.421875 0 
z
M 9.421875 75.984375 
L 18.40625 75.984375 
L 18.40625 64.59375 
L 9.421875 64.59375 
z
" id="DejaVuSans-69"/>
     <path d="M 54.890625 33.015625 
L 54.890625 0 
L 45.90625 0 
L 45.90625 32.71875 
Q 45.90625 40.484375 42.875 44.328125 
Q 39.84375 48.1875 33.796875 48.1875 
Q 26.515625 48.1875 22.3125 43.546875 
Q 18.109375 38.921875 18.109375 30.90625 
L 18.109375 0 
L 9.078125 0 
L 9.078125 54.6875 
L 18.109375 54.6875 
L 18.109375 46.1875 
Q 21.34375 51.125 25.703125 53.5625 
Q 30.078125 56 35.796875 56 
Q 45.21875 56 50.046875 50.171875 
Q 54.890625 44.34375 54.890625 33.015625 
z
" id="DejaVuSans-6e"/>
     <path d="M 19.671875 64.796875 
L 19.671875 8.109375 
L 31.59375 8.109375 
Q 46.6875 8.109375 53.6875 14.9375 
Q 60.6875 21.78125 60.6875 36.53125 
Q 60.6875 51.171875 53.6875 57.984375 
Q 46.6875 64.796875 31.59375 64.796875 
z
M 9.8125 72.90625 
L 30.078125 72.90625 
Q 51.265625 72.90625 61.171875 64.09375 
Q 71.09375 55.28125 71.09375 36.53125 
Q 71.09375 17.671875 61.125 8.828125 
Q 51.171875 0 30.078125 0 
L 9.8125 0 
z
" id="DejaVuSans-44"/>
     <path d="M 9.8125 72.90625 
L 19.671875 72.90625 
L 19.671875 8.296875 
L 55.171875 8.296875 
L 55.171875 0 
L 9.8125 0 
z
" id="DejaVuSans-4c"/>
     <path d="M 5.515625 54.6875 
L 48.1875 54.6875 
L 48.1875 46.484375 
L 14.40625 7.171875 
L 48.1875 7.171875 
L 48.1875 0 
L 4.296875 0 
L 4.296875 8.203125 
L 38.09375 47.515625 
L 5.515625 47.515625 
z
" id="DejaVuSans-7a"/>
     <path d="M 56.203125 29.59375 
L 56.203125 25.203125 
L 14.890625 25.203125 
Q 15.484375 15.921875 20.484375 11.0625 
Q 25.484375 6.203125 34.421875 6.203125 
Q 39.59375 6.203125 44.453125 7.46875 
Q 49.3125 8.734375 54.109375 11.28125 
L 54.109375 2.78125 
Q 49.265625 0.734375 44.1875 -0.34375 
Q 39.109375 -1.421875 33.890625 -1.421875 
Q 20.796875 -1.421875 13.15625 6.1875 
Q 5.515625 13.8125 5.515625 26.8125 
Q 5.515625 40.234375 12.765625 48.109375 
Q 20.015625 56 32.328125 56 
Q 43.359375 56 49.78125 48.890625 
Q 56.203125 41.796875 56.203125 29.59375 
z
M 47.21875 32.234375 
Q 47.125 39.59375 43.09375 43.984375 
Q 39.0625 48.390625 32.421875 48.390625 
Q 24.90625 48.390625 20.390625 44.140625 
Q 15.875 39.890625 15.1875 32.171875 
z
" id="DejaVuSans-65"/>
    </defs>
    <g transform="translate(155.36625 35.472)scale(0.12 -0.12)">
     <use xlink:href="#DejaVuSans-50"/>
     <use x="60.302734" xlink:href="#DejaVuSans-6c"/>
     <use x="88.085938" xlink:href="#DejaVuSans-6f"/>
     <use x="149.267578" xlink:href="#DejaVuSans-74"/>
     <use x="188.476562" xlink:href="#DejaVuSans-20"/>
     <use x="220.263672" xlink:href="#DejaVuSans-6f"/>
     <use x="281.445312" xlink:href="#DejaVuSans-66"/>
     <use x="316.650391" xlink:href="#DejaVuSans-20"/>
     <use x="348.4375" xlink:href="#DejaVuSans-54"/>
     <use x="409.302734" xlink:href="#DejaVuSans-72"/>
     <use x="450.416016" xlink:href="#DejaVuSans-61"/>
     <use x="511.695312" xlink:href="#DejaVuSans-69"/>
     <use x="539.478516" xlink:href="#DejaVuSans-6e"/>
     <use x="602.857422" xlink:href="#DejaVuSans-20"/>
     <use x="634.644531" xlink:href="#DejaVuSans-44"/>
     <use x="711.646484" xlink:href="#DejaVuSans-61"/>
     <use x="772.925781" xlink:href="#DejaVuSans-74"/>
     <use x="812.134766" xlink:href="#DejaVuSans-61"/>
     <use x="873.414062" xlink:href="#DejaVuSans-20"/>
     <use x="905.201172" xlink:href="#DejaVuSans-66"/>
     <use x="940.40625" xlink:href="#DejaVuSans-6f"/>
     <use x="1001.587891" xlink:href="#DejaVuSans-72"/>
     <use x="1042.701172" xlink:href="#DejaVuSans-20"/>
     <use x="1074.488281" xlink:href="#DejaVuSans-4c"/>
     <use x="1130.201172" xlink:href="#DejaVuSans-61"/>
     <use x="1191.480469" xlink:href="#DejaVuSans-7a"/>
     <use x="1243.970703" xlink:href="#DejaVuSans-65"/>
     <use x="1305.494141" xlink:href="#DejaVuSans-72"/>
    </g>
   </g>
   <g id="legend_1">
    <g id="patch_7">
     <path d="M 277.843437 108.1845 
L 407.72 108.1845 
Q 409.72 108.1845 409.72 106.1845 
L 409.72 48.472 
Q 409.72 46.472 407.72 46.472 
L 277.843437 46.472 
Q 275.843437 46.472 275.843437 48.472 
L 275.843437 106.1845 
Q 275.843437 108.1845 277.843437 108.1845 
z
" style="fill:#ffffff;opacity:0.8;stroke:#cccccc;stroke-linejoin:miter;"/>
    </g>
    <g id="line2d_17">
     <path d="M 279.843437 54.570438 
L 299.843437 54.570438 
" style="fill:none;opacity:0.4;stroke:#1f77b4;stroke-linecap:square;stroke-width:1.5;"/>
    </g>
    <g id="line2d_18"/>
    <g id="text_14">
     <!-- pred. (mean) -->
     <defs>
      <path d="M 18.109375 8.203125 
L 18.109375 -20.796875 
L 9.078125 -20.796875 
L 9.078125 54.6875 
L 18.109375 54.6875 
L 18.109375 46.390625 
Q 20.953125 51.265625 25.265625 53.625 
Q 29.59375 56 35.59375 56 
Q 45.5625 56 51.78125 48.09375 
Q 58.015625 40.1875 58.015625 27.296875 
Q 58.015625 14.40625 51.78125 6.484375 
Q 45.5625 -1.421875 35.59375 -1.421875 
Q 29.59375 -1.421875 25.265625 0.953125 
Q 20.953125 3.328125 18.109375 8.203125 
z
M 48.6875 27.296875 
Q 48.6875 37.203125 44.609375 42.84375 
Q 40.53125 48.484375 33.40625 48.484375 
Q 26.265625 48.484375 22.1875 42.84375 
Q 18.109375 37.203125 18.109375 27.296875 
Q 18.109375 17.390625 22.1875 11.75 
Q 26.265625 6.109375 33.40625 6.109375 
Q 40.53125 6.109375 44.609375 11.75 
Q 48.6875 17.390625 48.6875 27.296875 
z
" id="DejaVuSans-70"/>
      <path d="M 45.40625 46.390625 
L 45.40625 75.984375 
L 54.390625 75.984375 
L 54.390625 0 
L 45.40625 0 
L 45.40625 8.203125 
Q 42.578125 3.328125 38.25 0.953125 
Q 33.9375 -1.421875 27.875 -1.421875 
Q 17.96875 -1.421875 11.734375 6.484375 
Q 5.515625 14.40625 5.515625 27.296875 
Q 5.515625 40.1875 11.734375 48.09375 
Q 17.96875 56 27.875 56 
Q 33.9375 56 38.25 53.625 
Q 42.578125 51.265625 45.40625 46.390625 
z
M 14.796875 27.296875 
Q 14.796875 17.390625 18.875 11.75 
Q 22.953125 6.109375 30.078125 6.109375 
Q 37.203125 6.109375 41.296875 11.75 
Q 45.40625 17.390625 45.40625 27.296875 
Q 45.40625 37.203125 41.296875 42.84375 
Q 37.203125 48.484375 30.078125 48.484375 
Q 22.953125 48.484375 18.875 42.84375 
Q 14.796875 37.203125 14.796875 27.296875 
z
" id="DejaVuSans-64"/>
      <path d="M 31 75.875 
Q 24.46875 64.65625 21.28125 53.65625 
Q 18.109375 42.671875 18.109375 31.390625 
Q 18.109375 20.125 21.3125 9.0625 
Q 24.515625 -2 31 -13.1875 
L 23.1875 -13.1875 
Q 15.875 -1.703125 12.234375 9.375 
Q 8.59375 20.453125 8.59375 31.390625 
Q 8.59375 42.28125 12.203125 53.3125 
Q 15.828125 64.359375 23.1875 75.875 
z
" id="DejaVuSans-28"/>
      <path d="M 52 44.1875 
Q 55.375 50.25 60.0625 53.125 
Q 64.75 56 71.09375 56 
Q 79.640625 56 84.28125 50.015625 
Q 88.921875 44.046875 88.921875 33.015625 
L 88.921875 0 
L 79.890625 0 
L 79.890625 32.71875 
Q 79.890625 40.578125 77.09375 44.375 
Q 74.3125 48.1875 68.609375 48.1875 
Q 61.625 48.1875 57.5625 43.546875 
Q 53.515625 38.921875 53.515625 30.90625 
L 53.515625 0 
L 44.484375 0 
L 44.484375 32.71875 
Q 44.484375 40.625 41.703125 44.40625 
Q 38.921875 48.1875 33.109375 48.1875 
Q 26.21875 48.1875 22.15625 43.53125 
Q 18.109375 38.875 18.109375 30.90625 
L 18.109375 0 
L 9.078125 0 
L 9.078125 54.6875 
L 18.109375 54.6875 
L 18.109375 46.1875 
Q 21.1875 51.21875 25.484375 53.609375 
Q 29.78125 56 35.6875 56 
Q 41.65625 56 45.828125 52.96875 
Q 50 49.953125 52 44.1875 
z
" id="DejaVuSans-6d"/>
      <path d="M 8.015625 75.875 
L 15.828125 75.875 
Q 23.140625 64.359375 26.78125 53.3125 
Q 30.421875 42.28125 30.421875 31.390625 
Q 30.421875 20.453125 26.78125 9.375 
Q 23.140625 -1.703125 15.828125 -13.1875 
L 8.015625 -13.1875 
Q 14.5 -2 17.703125 9.0625 
Q 20.90625 20.125 20.90625 31.390625 
Q 20.90625 42.671875 17.703125 53.65625 
Q 14.5 64.65625 8.015625 75.875 
z
" id="DejaVuSans-29"/>
     </defs>
     <g transform="translate(307.843437 58.070438)scale(0.1 -0.1)">
      <use xlink:href="#DejaVuSans-70"/>
      <use x="63.476562" xlink:href="#DejaVuSans-72"/>
      <use x="104.558594" xlink:href="#DejaVuSans-65"/>
      <use x="166.082031" xlink:href="#DejaVuSans-64"/>
      <use x="229.558594" xlink:href="#DejaVuSans-2e"/>
      <use x="261.345703" xlink:href="#DejaVuSans-20"/>
      <use x="293.132812" xlink:href="#DejaVuSans-28"/>
      <use x="332.146484" xlink:href="#DejaVuSans-6d"/>
      <use x="429.558594" xlink:href="#DejaVuSans-65"/>
      <use x="491.082031" xlink:href="#DejaVuSans-61"/>
      <use x="552.361328" xlink:href="#DejaVuSans-6e"/>
      <use x="615.740234" xlink:href="#DejaVuSans-29"/>
     </g>
    </g>
    <g id="line2d_19">
     <path d="M 279.843437 69.248563 
L 299.843437 69.248563 
" style="fill:none;opacity:0.4;stroke:#ff7f0e;stroke-linecap:square;stroke-width:1.5;"/>
    </g>
    <g id="line2d_20"/>
    <g id="text_15">
     <!-- pred.(5th percen.) -->
     <defs>
      <path d="M 54.890625 33.015625 
L 54.890625 0 
L 45.90625 0 
L 45.90625 32.71875 
Q 45.90625 40.484375 42.875 44.328125 
Q 39.84375 48.1875 33.796875 48.1875 
Q 26.515625 48.1875 22.3125 43.546875 
Q 18.109375 38.921875 18.109375 30.90625 
L 18.109375 0 
L 9.078125 0 
L 9.078125 75.984375 
L 18.109375 75.984375 
L 18.109375 46.1875 
Q 21.34375 51.125 25.703125 53.5625 
Q 30.078125 56 35.796875 56 
Q 45.21875 56 50.046875 50.171875 
Q 54.890625 44.34375 54.890625 33.015625 
z
" id="DejaVuSans-68"/>
      <path d="M 48.78125 52.59375 
L 48.78125 44.1875 
Q 44.96875 46.296875 41.140625 47.34375 
Q 37.3125 48.390625 33.40625 48.390625 
Q 24.65625 48.390625 19.8125 42.84375 
Q 14.984375 37.3125 14.984375 27.296875 
Q 14.984375 17.28125 19.8125 11.734375 
Q 24.65625 6.203125 33.40625 6.203125 
Q 37.3125 6.203125 41.140625 7.25 
Q 44.96875 8.296875 48.78125 10.40625 
L 48.78125 2.09375 
Q 45.015625 0.34375 40.984375 -0.53125 
Q 36.96875 -1.421875 32.421875 -1.421875 
Q 20.0625 -1.421875 12.78125 6.34375 
Q 5.515625 14.109375 5.515625 27.296875 
Q 5.515625 40.671875 12.859375 48.328125 
Q 20.21875 56 33.015625 56 
Q 37.15625 56 41.109375 55.140625 
Q 45.0625 54.296875 48.78125 52.59375 
z
" id="DejaVuSans-63"/>
     </defs>
     <g transform="translate(307.843437 72.748563)scale(0.1 -0.1)">
      <use xlink:href="#DejaVuSans-70"/>
      <use x="63.476562" xlink:href="#DejaVuSans-72"/>
      <use x="104.558594" xlink:href="#DejaVuSans-65"/>
      <use x="166.082031" xlink:href="#DejaVuSans-64"/>
      <use x="229.558594" xlink:href="#DejaVuSans-2e"/>
      <use x="261.345703" xlink:href="#DejaVuSans-28"/>
      <use x="300.359375" xlink:href="#DejaVuSans-35"/>
      <use x="363.982422" xlink:href="#DejaVuSans-74"/>
      <use x="403.191406" xlink:href="#DejaVuSans-68"/>
      <use x="466.570312" xlink:href="#DejaVuSans-20"/>
      <use x="498.357422" xlink:href="#DejaVuSans-70"/>
      <use x="561.833984" xlink:href="#DejaVuSans-65"/>
      <use x="623.357422" xlink:href="#DejaVuSans-72"/>
      <use x="664.439453" xlink:href="#DejaVuSans-63"/>
      <use x="719.419922" xlink:href="#DejaVuSans-65"/>
      <use x="780.943359" xlink:href="#DejaVuSans-6e"/>
      <use x="844.322266" xlink:href="#DejaVuSans-2e"/>
      <use x="876.109375" xlink:href="#DejaVuSans-29"/>
     </g>
    </g>
    <g id="line2d_21">
     <path d="M 279.843437 83.926688 
L 299.843437 83.926688 
" style="fill:none;opacity:0.4;stroke:#2ca02c;stroke-linecap:square;stroke-width:1.5;"/>
    </g>
    <g id="line2d_22"/>
    <g id="text_16">
     <!-- pred.(95th percen.) -->
     <defs>
      <path d="M 10.984375 1.515625 
L 10.984375 10.5 
Q 14.703125 8.734375 18.5 7.8125 
Q 22.3125 6.890625 25.984375 6.890625 
Q 35.75 6.890625 40.890625 13.453125 
Q 46.046875 20.015625 46.78125 33.40625 
Q 43.953125 29.203125 39.59375 26.953125 
Q 35.25 24.703125 29.984375 24.703125 
Q 19.046875 24.703125 12.671875 31.3125 
Q 6.296875 37.9375 6.296875 49.421875 
Q 6.296875 60.640625 12.9375 67.421875 
Q 19.578125 74.21875 30.609375 74.21875 
Q 43.265625 74.21875 49.921875 64.515625 
Q 56.59375 54.828125 56.59375 36.375 
Q 56.59375 19.140625 48.40625 8.859375 
Q 40.234375 -1.421875 26.421875 -1.421875 
Q 22.703125 -1.421875 18.890625 -0.6875 
Q 15.09375 0.046875 10.984375 1.515625 
z
M 30.609375 32.421875 
Q 37.25 32.421875 41.125 36.953125 
Q 45.015625 41.5 45.015625 49.421875 
Q 45.015625 57.28125 41.125 61.84375 
Q 37.25 66.40625 30.609375 66.40625 
Q 23.96875 66.40625 20.09375 61.84375 
Q 16.21875 57.28125 16.21875 49.421875 
Q 16.21875 41.5 20.09375 36.953125 
Q 23.96875 32.421875 30.609375 32.421875 
z
" id="DejaVuSans-39"/>
     </defs>
     <g transform="translate(307.843437 87.426688)scale(0.1 -0.1)">
      <use xlink:href="#DejaVuSans-70"/>
      <use x="63.476562" xlink:href="#DejaVuSans-72"/>
      <use x="104.558594" xlink:href="#DejaVuSans-65"/>
      <use x="166.082031" xlink:href="#DejaVuSans-64"/>
      <use x="229.558594" xlink:href="#DejaVuSans-2e"/>
      <use x="261.345703" xlink:href="#DejaVuSans-28"/>
      <use x="300.359375" xlink:href="#DejaVuSans-39"/>
      <use x="363.982422" xlink:href="#DejaVuSans-35"/>
      <use x="427.605469" xlink:href="#DejaVuSans-74"/>
      <use x="466.814453" xlink:href="#DejaVuSans-68"/>
      <use x="530.193359" xlink:href="#DejaVuSans-20"/>
      <use x="561.980469" xlink:href="#DejaVuSans-70"/>
      <use x="625.457031" xlink:href="#DejaVuSans-65"/>
      <use x="686.980469" xlink:href="#DejaVuSans-72"/>
      <use x="728.0625" xlink:href="#DejaVuSans-63"/>
      <use x="783.042969" xlink:href="#DejaVuSans-65"/>
      <use x="844.566406" xlink:href="#DejaVuSans-6e"/>
      <use x="907.945312" xlink:href="#DejaVuSans-2e"/>
      <use x="939.732422" xlink:href="#DejaVuSans-29"/>
     </g>
    </g>
    <g id="line2d_23">
     <path d="M 279.843437 98.604813 
L 299.843437 98.604813 
" style="fill:none;stroke:#000000;stroke-linecap:square;stroke-width:1.5;"/>
    </g>
    <g id="line2d_24"/>
    <g id="text_17">
     <!-- actual -->
     <defs>
      <path d="M 8.5 21.578125 
L 8.5 54.6875 
L 17.484375 54.6875 
L 17.484375 21.921875 
Q 17.484375 14.15625 20.5 10.265625 
Q 23.53125 6.390625 29.59375 6.390625 
Q 36.859375 6.390625 41.078125 11.03125 
Q 45.3125 15.671875 45.3125 23.6875 
L 45.3125 54.6875 
L 54.296875 54.6875 
L 54.296875 0 
L 45.3125 0 
L 45.3125 8.40625 
Q 42.046875 3.421875 37.71875 1 
Q 33.40625 -1.421875 27.6875 -1.421875 
Q 18.265625 -1.421875 13.375 4.4375 
Q 8.5 10.296875 8.5 21.578125 
z
M 31.109375 56 
z
" id="DejaVuSans-75"/>
     </defs>
     <g transform="translate(307.843437 102.104813)scale(0.1 -0.1)">
      <use xlink:href="#DejaVuSans-61"/>
      <use x="61.279297" xlink:href="#DejaVuSans-63"/>
      <use x="116.259766" xlink:href="#DejaVuSans-74"/>
      <use x="155.46875" xlink:href="#DejaVuSans-75"/>
      <use x="218.847656" xlink:href="#DejaVuSans-61"/>
      <use x="280.126953" xlink:href="#DejaVuSans-6c"/>
     </g>
    </g>
   </g>
  </g>
 </g>
 <defs>
  <clipPath id="p65946eb4e2">
   <rect height="266.112" width="357.12" x="57.6" y="41.472"/>
  </clipPath>
 </defs>
</svg>
