<?xml version="1.0" encoding="utf-8" standalone="no"?>
<!DOCTYPE svg PUBLIC "-//W3C//DTD SVG 1.1//EN"
  "http://www.w3.org/Graphics/SVG/1.1/DTD/svg11.dtd">
<!-- Created with matplotlib (http://matplotlib.org/) -->
<svg height="345pt" version="1.1" viewBox="0 0 460 345" width="460pt" xmlns="http://www.w3.org/2000/svg" xmlns:xlink="http://www.w3.org/1999/xlink">
 <defs>
  <style type="text/css">
*{stroke-linecap:butt;stroke-linejoin:round;}
  </style>
 </defs>
 <g id="figure_1">
  <g id="patch_1">
   <path d="M 0 345.6 
L 460.8 345.6 
L 460.8 0 
L 0 0 
z
" style="fill:#ffffff;"/>
  </g>
  <g id="axes_1">
   <g id="patch_2">
    <path d="M 57.6 307.584 
L 414.72 307.584 
L 414.72 41.472 
L 57.6 41.472 
z
" style="fill:#ffffff;"/>
   </g>
   <g id="PolyCollection_1">
    <path clip-path="url(#pf83bb0691b)" d="M 73.832727 199.873443 
L 73.832727 202.307704 
L 74.92584 211.107516 
L 76.018953 218.884892 
L 77.112066 225.375696 
L 78.205179 230.365226 
L 79.298292 233.693739 
L 80.391405 235.246734 
L 81.484518 234.939565 
L 82.577631 232.710177 
L 83.670744 228.517964 
L 84.763857 222.364239 
L 85.85697 214.318736 
L 86.950083 204.55949 
L 88.043196 193.436063 
L 89.136309 182.458248 
L 90.229421 171.37822 
L 91.322534 160.437604 
L 92.415647 150.08407 
L 93.50876 140.769143 
L 94.601873 132.921615 
L 95.694986 126.917803 
L 96.788099 123.060044 
L 97.881212 121.613507 
L 98.974325 122.672026 
L 100.067438 126.225742 
L 101.160551 132.207576 
L 102.253664 140.454405 
L 103.346777 150.710585 
L 104.43989 162.629654 
L 105.533003 175.797982 
L 106.626116 190.704547 
L 107.719229 205.485495 
L 108.812342 219.392075 
L 109.905455 231.771269 
L 110.998567 242.174792 
L 112.09168 250.344431 
L 113.184793 256.827946 
L 114.277906 260.972209 
L 115.371019 262.163995 
L 116.464132 260.343934 
L 117.557245 255.085215 
L 118.650358 247.803684 
L 119.743471 237.829819 
L 120.836584 224.812184 
L 121.929697 208.93239 
L 123.02281 190.769924 
L 124.115923 172.783677 
L 125.209036 155.240688 
L 126.302149 138.253587 
L 127.395262 122.591847 
L 128.488375 109.017068 
L 129.581488 98.369965 
L 130.674601 92.500454 
L 131.767713 89.935327 
L 132.860826 90.519198 
L 133.953939 94.608471 
L 135.047052 102.736973 
L 136.140165 115.600646 
L 137.233278 131.79029 
L 138.326391 149.515001 
L 139.419504 168.352157 
L 140.512617 188.944277 
L 141.60573 209.646681 
L 142.698843 228.836109 
L 143.791956 245.728006 
L 144.885069 262.099791 
L 145.978182 275.854672 
L 147.071295 286.215997 
L 148.164408 292.732075 
L 149.257521 295.131874 
L 150.350634 293.251853 
L 151.443747 287.031523 
L 152.53686 278.327472 
L 153.629972 263.850454 
L 154.723085 245.455438 
L 155.816198 225.432667 
L 156.909311 201.140549 
L 158.002424 174.000402 
L 159.095537 148.213935 
L 160.18865 123.394247 
L 161.281763 101.685688 
L 162.374876 86.963805 
L 163.467989 77.254297 
L 164.561102 71.752585 
L 165.654215 70.692642 
L 166.747328 80.998309 
L 167.840441 128.608981 
L 168.933554 172.909739 
L 170.026667 179.058409 
L 171.11978 185.206074 
L 172.212893 191.78362 
L 173.306006 198.075779 
L 174.399118 203.785994 
L 175.492231 208.787142 
L 176.585344 212.898087 
L 177.678457 215.956546 
L 178.77157 217.834667 
L 179.864683 218.440014 
L 180.957796 217.711705 
L 182.050909 215.625331 
L 183.144022 212.190835 
L 184.237135 207.469041 
L 185.330248 201.575959 
L 186.423361 194.690378 
L 187.516474 187.689319 
L 188.609587 180.440686 
L 189.7027 173.176973 
L 190.795813 166.114977 
L 191.888926 159.546871 
L 192.982039 153.758236 
L 194.075152 149.013235 
L 195.168264 145.541931 
L 196.261377 143.526967 
L 197.35449 143.097393 
L 198.447603 144.318838 
L 199.540716 147.192643 
L 200.633829 151.651336 
L 201.726942 157.558437 
L 202.820055 164.710358 
L 203.913168 172.843859 
L 205.006281 181.865999 
L 206.099394 191.85165 
L 207.192507 201.683925 
L 208.28562 210.919484 
L 209.378733 219.16972 
L 210.471846 226.120706 
L 211.564959 231.537939 
L 212.658072 235.25299 
L 213.751185 237.149237 
L 214.844298 237.138177 
L 215.93741 235.150274 
L 217.030523 231.13699 
L 218.123636 225.081764 
L 219.216749 217.03358 
L 220.309862 207.147824 
L 221.402975 195.729069 
L 222.496088 184.167272 
L 223.589201 172.598939 
L 224.682314 161.130223 
L 225.775427 150.200833 
L 226.86854 140.28486 
L 227.961653 131.83732 
L 229.054766 125.261338 
L 230.147879 120.884862 
L 231.240992 119.018861 
L 232.334105 119.733877 
L 233.427218 123.053062 
L 234.520331 128.919334 
L 235.613444 137.176357 
L 236.706556 147.570999 
L 237.799669 159.757469 
L 238.892782 173.29854 
L 239.985895 188.616413 
L 241.079008 204.051385 
L 242.172121 218.666 
L 243.265234 231.745437 
L 244.358347 242.800554 
L 245.45146 251.558671 
L 246.544573 259.019438 
L 247.637686 263.787785 
L 248.730799 265.632507 
L 249.823912 264.314908 
L 250.917025 259.477916 
L 252.010138 251.439451 
L 253.103251 241.687633 
L 254.196364 228.759253 
L 255.289477 212.752559 
L 256.38259 194.186491 
L 257.475702 175.076487 
L 258.568815 156.769247 
L 259.661928 138.924338 
L 260.755041 122.345559 
L 261.848154 107.843099 
L 262.941267 96.588555 
L 264.03438 90.417934 
L 265.127493 87.420608 
L 266.220606 87.671477 
L 267.313719 91.676606 
L 268.406832 100.294111 
L 269.499945 114.100684 
L 270.593058 131.693439 
L 271.686171 150.100994 
L 272.779284 169.007102 
L 273.872397 189.424929 
L 274.96551 209.871242 
L 276.058623 228.804384 
L 277.151736 245.367412 
L 278.244848 261.440545 
L 279.337961 274.936458 
L 280.431074 285.076099 
L 281.524187 291.411154 
L 282.6173 293.672714 
L 283.710413 291.699389 
L 284.803526 285.715265 
L 285.896639 276.795534 
L 286.989752 262.169218 
L 288.082865 244.175514 
L 289.175978 224.228509 
L 290.269091 200.108644 
L 291.362204 173.277455 
L 292.455317 147.99024 
L 293.54843 123.581219 
L 294.641543 102.034245 
L 295.734656 87.477747 
L 296.827769 77.856125 
L 297.920882 72.38597 
L 299.013994 71.243419 
L 300.107107 80.336466 
L 301.20022 123.922068 
L 302.293333 168.592218 
L 303.386446 177.748575 
L 304.479559 184.47014 
L 305.572672 191.911302 
L 306.665785 199.069842 
L 307.758898 205.596449 
L 308.852011 211.341741 
L 309.945124 216.102548 
L 311.038237 219.698993 
L 312.13135 221.990128 
L 313.224463 222.87159 
L 314.317576 222.274146 
L 315.410689 220.160823 
L 316.503802 216.530949 
L 317.596915 211.43228 
L 318.690028 204.972838 
L 319.78314 197.339845 
L 320.876253 189.281412 
L 321.969366 181.081389 
L 323.062479 172.839307 
L 324.155592 164.778165 
L 325.248705 157.230546 
L 326.341818 150.523558 
L 327.434931 144.962473 
L 328.528044 140.815195 
L 329.621157 138.297264 
L 330.71427 137.561722 
L 331.807383 138.693465 
L 332.900496 141.703443 
L 333.993609 146.52622 
L 335.086722 153.019063 
L 336.179835 160.960929 
L 337.272948 170.059198 
L 338.366061 180.130864 
L 339.459174 191.3944 
L 340.552287 202.529193 
L 341.645399 213.0158 
L 342.738512 222.401968 
L 343.831625 230.334842 
L 344.924738 236.563634 
L 346.017851 240.9195 
L 347.110964 243.289445 
L 348.204077 243.587957 
L 349.29719 241.739968 
L 350.390303 237.671556 
L 351.483416 231.329575 
L 352.576529 222.716455 
L 353.669642 211.95055 
L 354.762755 199.321716 
L 355.855868 185.975827 
L 356.948981 172.854667 
L 358.042094 159.813937 
L 359.135207 147.308317 
L 360.22832 135.883362 
L 361.321433 126.067731 
L 362.414545 118.331157 
L 363.507658 113.123377 
L 364.600771 110.693724 
L 365.693884 111.152845 
L 366.786997 114.56472 
L 367.88011 120.873552 
L 368.973223 129.900495 
L 370.066336 141.359633 
L 371.159449 154.873251 
L 372.252562 169.970166 
L 373.345675 186.952995 
L 374.438788 204.278767 
L 375.531901 220.66647 
L 376.625014 235.315351 
L 377.718127 247.650113 
L 378.81124 258.798088 
L 379.904353 267.690953 
L 380.997466 273.449901 
L 382.090579 275.924936 
L 383.183691 275.078244 
L 384.276804 270.582213 
L 385.369917 261.991378 
L 386.46303 249.794017 
L 387.556143 236.243842 
L 388.649256 219.098785 
L 389.742369 198.750608 
L 390.835482 176.559693 
L 391.928595 155.87667 
L 393.021708 135.647295 
L 394.114821 116.758725 
L 395.207934 100.266072 
L 396.301047 89.823144 
L 397.39416 83.393221 
L 398.487273 80.346687 
L 398.487273 71.99555 
L 398.487273 71.99555 
L 397.39416 77.04504 
L 396.301047 86.69417 
L 395.207934 99.156642 
L 394.114821 114.167877 
L 393.021708 132.322524 
L 391.928595 153.548979 
L 390.835482 175.907456 
L 389.742369 195.276288 
L 388.649256 214.200605 
L 387.556143 232.596346 
L 386.46303 248.74315 
L 385.369917 259.67173 
L 384.276804 266.279213 
L 383.183691 269.879959 
L 382.090579 270.709057 
L 380.997466 268.883494 
L 379.904353 264.429018 
L 378.81124 257.310889 
L 377.718127 246.204135 
L 376.625014 232.543284 
L 375.531901 217.935372 
L 374.438788 202.365792 
L 373.345675 186.007441 
L 372.252562 169.345327 
L 371.159449 152.658916 
L 370.066336 137.563342 
L 368.973223 125.090536 
L 367.88011 115.771029 
L 366.786997 109.69469 
L 365.693884 106.727944 
L 364.600771 106.700631 
L 363.507658 109.503781 
L 362.414545 114.577343 
L 361.321433 121.644087 
L 360.22832 131.162127 
L 359.135207 142.863309 
L 358.042094 156.257679 
L 356.948981 170.642845 
L 355.855868 184.637926 
L 354.762755 196.749468 
L 353.669642 208.043417 
L 352.576529 218.319453 
L 351.483416 227.137418 
L 350.390303 234.00722 
L 349.29719 238.560474 
L 348.204077 240.624618 
L 347.110964 240.212498 
L 346.017851 237.478608 
L 344.924738 232.699732 
L 343.831625 226.235682 
L 342.738512 218.463668 
L 341.645399 209.696558 
L 340.552287 200.162041 
L 339.459174 190.060521 
L 338.366061 179.6606 
L 337.272948 169.190303 
L 336.179835 159.173374 
L 335.086722 150.469687 
L 333.993609 143.394732 
L 332.900496 138.140901 
L 331.807383 134.803423 
L 330.71427 133.404502 
L 329.621157 133.922381 
L 328.528044 136.296794 
L 327.434931 140.429243 
L 326.341818 146.167274 
L 325.248705 153.288978 
L 324.155592 161.491347 
L 323.062479 170.40203 
L 321.969366 179.596955 
L 320.876253 187.848252 
L 319.78314 195.256208 
L 318.690028 201.928818 
L 317.596915 207.719435 
L 316.503802 212.421233 
L 315.410689 215.854556 
L 314.317576 217.892476 
L 313.224463 218.482882 
L 312.13135 217.652443 
L 311.038237 215.49628 
L 309.945124 212.162237 
L 308.852011 207.824189 
L 307.758898 202.666287 
L 306.665785 196.865058 
L 305.572672 190.55631 
L 304.479559 183.739234 
L 303.386446 176.391823 
L 302.293333 159.841697 
L 301.20022 114.813131 
L 300.107107 73.704518 
L 299.013994 55.788312 
L 297.920882 56.88537 
L 296.827769 66.819887 
L 295.734656 82.042445 
L 294.641543 101.153538 
L 293.54843 121.885656 
L 292.455317 146.293672 
L 291.362204 172.298472 
L 290.269091 195.542991 
L 289.175978 218.796224 
L 288.082865 241.505241 
L 286.989752 259.400921 
L 285.896639 270.379239 
L 284.803526 277.601899 
L 283.710413 281.384757 
L 282.6173 282.335869 
L 281.524187 280.685325 
L 280.431074 276.365038 
L 279.337961 269.138217 
L 278.244848 258.766251 
L 277.151736 244.475395 
L 276.058623 226.856723 
L 274.96551 208.110079 
L 273.872397 188.492948 
L 272.779284 168.474757 
L 271.686171 147.248246 
L 270.593058 126.405425 
L 269.499945 107.803024 
L 268.406832 94.039932 
L 267.313719 86.008309 
L 266.220606 82.770028 
L 265.127493 83.301843 
L 264.03438 87.301778 
L 262.941267 94.8196 
L 261.848154 105.842657 
L 260.755041 118.77422 
L 259.661928 135.026756 
L 258.568815 153.856176 
L 257.475702 174.010037 
L 256.38259 191.698945 
L 255.289477 208.357819 
L 254.196364 224.378338 
L 253.103251 238.980916 
L 252.010138 250.910624 
L 250.917025 258.119153 
L 249.823912 261.952532 
L 248.730799 263.118318 
L 247.637686 261.720234 
L 246.544573 257.810224 
L 245.45146 250.481413 
L 244.358347 240.21046 
L 243.265234 228.403323 
L 242.172121 215.617204 
L 241.079008 202.035611 
L 239.985895 187.573087 
L 238.892782 172.861705 
L 237.799669 158.138566 
L 236.706556 144.620478 
L 235.613444 133.189044 
L 234.520331 124.397917 
L 233.427218 118.454483 
L 232.334105 115.343661 
L 231.240992 114.96997 
L 230.147879 117.056651 
L 229.054766 120.949039 
L 227.961653 127.149513 
L 226.86854 135.522656 
L 225.775427 145.805088 
L 224.682314 157.567932 
L 223.589201 170.227765 
L 222.496088 182.907036 
L 221.402975 193.733402 
L 220.309862 203.755442 
L 219.216749 212.848712 
L 218.123636 220.679233 
L 217.030523 226.873954 
L 215.93741 231.123501 
L 214.844298 233.252659 
L 213.751185 233.235065 
L 212.658072 231.181729 
L 211.564959 227.30808 
L 210.471846 221.897885 
L 209.378733 215.255549 
L 208.28562 207.650762 
L 207.192507 199.308479 
L 206.099394 190.440105 
L 205.006281 181.305755 
L 203.913168 172.110942 
L 202.820055 163.113574 
L 201.726942 155.212146 
L 200.633829 148.699559 
L 199.540716 143.773116 
L 198.447603 140.542906 
L 197.35449 139.052021 
L 196.261377 139.28982 
L 195.168264 141.206509 
L 194.075152 144.706969 
L 192.982039 149.649777 
L 191.888926 155.830758 
L 190.795813 162.987008 
L 189.7027 170.794992 
L 188.609587 178.895427 
L 187.516474 186.347899 
L 186.423361 192.985516 
L 185.330248 198.96048 
L 184.237135 204.164126 
L 183.144022 208.424202 
L 182.050909 211.587247 
L 180.957796 213.54242 
L 179.864683 214.240819 
L 178.77157 213.692779 
L 177.678457 211.968479 
L 176.585344 209.182226 
L 175.492231 205.479462 
L 174.399118 201.017949 
L 173.306006 195.958713 
L 172.212893 190.425863 
L 171.11978 184.376892 
L 170.026667 177.862266 
L 168.933554 163.040488 
L 167.840441 120.773852 
L 166.747328 74.224101 
L 165.654215 54.807486 
L 164.561102 55.544202 
L 163.467989 65.647006 
L 162.374876 81.156767 
L 161.281763 100.707208 
L 160.18865 121.843207 
L 159.095537 146.62645 
L 158.002424 172.823864 
L 156.909311 196.374826 
L 155.816198 220.013703 
L 154.723085 242.86635 
L 153.629972 260.620691 
L 152.53686 271.525616 
L 151.443747 278.663546 
L 150.350634 282.311126 
L 149.257521 283.180243 
L 148.164408 281.458066 
L 147.071295 277.063578 
L 145.978182 269.738732 
L 144.885069 259.227438 
L 143.791956 244.863134 
L 142.698843 226.977927 
L 141.60573 207.910903 
L 140.512617 188.027376 
L 139.419504 167.717263 
L 138.326391 146.504912 
L 137.233278 126.530929 
L 136.140165 109.473899 
L 135.047052 96.889971 
L 133.953939 89.17317 
L 132.860826 85.773331 
L 131.767713 85.994011 
L 130.674601 89.552447 
L 129.581488 96.500222 
L 128.488375 106.724816 
L 127.395262 118.860403 
L 126.302149 134.177299 
L 125.209036 152.026005 
L 124.115923 171.28944 
L 123.02281 188.865495 
L 121.929697 204.895564 
L 120.836584 220.280462 
L 119.743471 234.441709 
L 118.650358 246.336593 
L 117.557245 254.798935 
L 116.464132 258.984417 
L 115.371019 260.53152 
L 114.277906 259.533519 
L 113.184793 256.07844 
L 112.09168 248.912779 
L 110.998567 239.388399 
L 109.905455 228.301976 
L 108.812342 216.186692 
L 107.719229 203.266384 
L 106.626116 189.525746 
L 105.533003 175.462942 
L 104.43989 161.303566 
L 103.346777 148.142358 
L 102.253664 136.833803 
L 101.160551 127.961883 
L 100.067438 121.790788 
L 98.974325 118.357967 
L 97.881212 117.59352 
L 96.788099 119.093342 
L 95.694986 122.533871 
L 94.601873 128.216466 
L 93.50876 136.007693 
L 92.415647 145.661934 
L 91.322534 156.785333 
L 90.229421 168.841411 
L 89.136309 181.200274 
L 88.043196 191.754324 
L 86.950083 201.471233 
L 85.85697 210.314081 
L 84.763857 217.986842 
L 83.670744 224.147353 
L 82.577631 228.496907 
L 81.484518 230.849202 
L 80.391405 231.15788 
L 79.298292 229.503844 
L 78.205179 226.074543 
L 77.112066 221.128495 
L 76.018953 214.947346 
L 74.92584 207.790537 
L 73.832727 199.873443 
z
" style="fill:#008000;fill-opacity:0.4;"/>
   </g>
   <g id="matplotlib.axis_1">
    <g id="xtick_1">
     <g id="line2d_1">
      <defs>
       <path d="M 0 0 
L 0 3.5 
" id="m98f8ee2c19" style="stroke:#000000;stroke-width:0.8;"/>
      </defs>
      <g>
       <use style="stroke:#000000;stroke-width:0.8;" x="73.832727" xlink:href="#m98f8ee2c19" y="307.584"/>
      </g>
     </g>
     <g id="text_1">
      <!-- 0 -->
      <defs>
       <path d="M 31.78125 66.40625 
Q 24.171875 66.40625 20.328125 58.90625 
Q 16.5 51.421875 16.5 36.375 
Q 16.5 21.390625 20.328125 13.890625 
Q 24.171875 6.390625 31.78125 6.390625 
Q 39.453125 6.390625 43.28125 13.890625 
Q 47.125 21.390625 47.125 36.375 
Q 47.125 51.421875 43.28125 58.90625 
Q 39.453125 66.40625 31.78125 66.40625 
z
M 31.78125 74.21875 
Q 44.046875 74.21875 50.515625 64.515625 
Q 56.984375 54.828125 56.984375 36.375 
Q 56.984375 17.96875 50.515625 8.265625 
Q 44.046875 -1.421875 31.78125 -1.421875 
Q 19.53125 -1.421875 13.0625 8.265625 
Q 6.59375 17.96875 6.59375 36.375 
Q 6.59375 54.828125 13.0625 64.515625 
Q 19.53125 74.21875 31.78125 74.21875 
z
" id="DejaVuSans-30"/>
      </defs>
      <g transform="translate(70.651477 322.182437)scale(0.1 -0.1)">
       <use xlink:href="#DejaVuSans-30"/>
      </g>
     </g>
    </g>
    <g id="xtick_2">
     <g id="line2d_2">
      <g>
       <use style="stroke:#000000;stroke-width:0.8;" x="128.488375" xlink:href="#m98f8ee2c19" y="307.584"/>
      </g>
     </g>
     <g id="text_2">
      <!-- 50 -->
      <defs>
       <path d="M 10.796875 72.90625 
L 49.515625 72.90625 
L 49.515625 64.59375 
L 19.828125 64.59375 
L 19.828125 46.734375 
Q 21.96875 47.46875 24.109375 47.828125 
Q 26.265625 48.1875 28.421875 48.1875 
Q 40.625 48.1875 47.75 41.5 
Q 54.890625 34.8125 54.890625 23.390625 
Q 54.890625 11.625 47.5625 5.09375 
Q 40.234375 -1.421875 26.90625 -1.421875 
Q 22.3125 -1.421875 17.546875 -0.640625 
Q 12.796875 0.140625 7.71875 1.703125 
L 7.71875 11.625 
Q 12.109375 9.234375 16.796875 8.0625 
Q 21.484375 6.890625 26.703125 6.890625 
Q 35.15625 6.890625 40.078125 11.328125 
Q 45.015625 15.765625 45.015625 23.390625 
Q 45.015625 31 40.078125 35.4375 
Q 35.15625 39.890625 26.703125 39.890625 
Q 22.75 39.890625 18.8125 39.015625 
Q 14.890625 38.140625 10.796875 36.28125 
z
" id="DejaVuSans-35"/>
      </defs>
      <g transform="translate(122.125875 322.182437)scale(0.1 -0.1)">
       <use xlink:href="#DejaVuSans-35"/>
       <use x="63.623047" xlink:href="#DejaVuSans-30"/>
      </g>
     </g>
    </g>
    <g id="xtick_3">
     <g id="line2d_3">
      <g>
       <use style="stroke:#000000;stroke-width:0.8;" x="183.144022" xlink:href="#m98f8ee2c19" y="307.584"/>
      </g>
     </g>
     <g id="text_3">
      <!-- 100 -->
      <defs>
       <path d="M 12.40625 8.296875 
L 28.515625 8.296875 
L 28.515625 63.921875 
L 10.984375 60.40625 
L 10.984375 69.390625 
L 28.421875 72.90625 
L 38.28125 72.90625 
L 38.28125 8.296875 
L 54.390625 8.296875 
L 54.390625 0 
L 12.40625 0 
z
" id="DejaVuSans-31"/>
      </defs>
      <g transform="translate(173.600272 322.182437)scale(0.1 -0.1)">
       <use xlink:href="#DejaVuSans-31"/>
       <use x="63.623047" xlink:href="#DejaVuSans-30"/>
       <use x="127.246094" xlink:href="#DejaVuSans-30"/>
      </g>
     </g>
    </g>
    <g id="xtick_4">
     <g id="line2d_4">
      <g>
       <use style="stroke:#000000;stroke-width:0.8;" x="237.799669" xlink:href="#m98f8ee2c19" y="307.584"/>
      </g>
     </g>
     <g id="text_4">
      <!-- 150 -->
      <g transform="translate(228.255919 322.182437)scale(0.1 -0.1)">
       <use xlink:href="#DejaVuSans-31"/>
       <use x="63.623047" xlink:href="#DejaVuSans-35"/>
       <use x="127.246094" xlink:href="#DejaVuSans-30"/>
      </g>
     </g>
    </g>
    <g id="xtick_5">
     <g id="line2d_5">
      <g>
       <use style="stroke:#000000;stroke-width:0.8;" x="292.455317" xlink:href="#m98f8ee2c19" y="307.584"/>
      </g>
     </g>
     <g id="text_5">
      <!-- 200 -->
      <defs>
       <path d="M 19.1875 8.296875 
L 53.609375 8.296875 
L 53.609375 0 
L 7.328125 0 
L 7.328125 8.296875 
Q 12.9375 14.109375 22.625 23.890625 
Q 32.328125 33.6875 34.8125 36.53125 
Q 39.546875 41.84375 41.421875 45.53125 
Q 43.3125 49.21875 43.3125 52.78125 
Q 43.3125 58.59375 39.234375 62.25 
Q 35.15625 65.921875 28.609375 65.921875 
Q 23.96875 65.921875 18.8125 64.3125 
Q 13.671875 62.703125 7.8125 59.421875 
L 7.8125 69.390625 
Q 13.765625 71.78125 18.9375 73 
Q 24.125 74.21875 28.421875 74.21875 
Q 39.75 74.21875 46.484375 68.546875 
Q 53.21875 62.890625 53.21875 53.421875 
Q 53.21875 48.921875 51.53125 44.890625 
Q 49.859375 40.875 45.40625 35.40625 
Q 44.1875 33.984375 37.640625 27.21875 
Q 31.109375 20.453125 19.1875 8.296875 
z
" id="DejaVuSans-32"/>
      </defs>
      <g transform="translate(282.911567 322.182437)scale(0.1 -0.1)">
       <use xlink:href="#DejaVuSans-32"/>
       <use x="63.623047" xlink:href="#DejaVuSans-30"/>
       <use x="127.246094" xlink:href="#DejaVuSans-30"/>
      </g>
     </g>
    </g>
    <g id="xtick_6">
     <g id="line2d_6">
      <g>
       <use style="stroke:#000000;stroke-width:0.8;" x="347.110964" xlink:href="#m98f8ee2c19" y="307.584"/>
      </g>
     </g>
     <g id="text_6">
      <!-- 250 -->
      <g transform="translate(337.567214 322.182437)scale(0.1 -0.1)">
       <use xlink:href="#DejaVuSans-32"/>
       <use x="63.623047" xlink:href="#DejaVuSans-35"/>
       <use x="127.246094" xlink:href="#DejaVuSans-30"/>
      </g>
     </g>
    </g>
    <g id="xtick_7">
     <g id="line2d_7">
      <g>
       <use style="stroke:#000000;stroke-width:0.8;" x="401.766612" xlink:href="#m98f8ee2c19" y="307.584"/>
      </g>
     </g>
     <g id="text_7">
      <!-- 300 -->
      <defs>
       <path d="M 40.578125 39.3125 
Q 47.65625 37.796875 51.625 33 
Q 55.609375 28.21875 55.609375 21.1875 
Q 55.609375 10.40625 48.1875 4.484375 
Q 40.765625 -1.421875 27.09375 -1.421875 
Q 22.515625 -1.421875 17.65625 -0.515625 
Q 12.796875 0.390625 7.625 2.203125 
L 7.625 11.71875 
Q 11.71875 9.328125 16.59375 8.109375 
Q 21.484375 6.890625 26.8125 6.890625 
Q 36.078125 6.890625 40.9375 10.546875 
Q 45.796875 14.203125 45.796875 21.1875 
Q 45.796875 27.640625 41.28125 31.265625 
Q 36.765625 34.90625 28.71875 34.90625 
L 20.21875 34.90625 
L 20.21875 43.015625 
L 29.109375 43.015625 
Q 36.375 43.015625 40.234375 45.921875 
Q 44.09375 48.828125 44.09375 54.296875 
Q 44.09375 59.90625 40.109375 62.90625 
Q 36.140625 65.921875 28.71875 65.921875 
Q 24.65625 65.921875 20.015625 65.03125 
Q 15.375 64.15625 9.8125 62.3125 
L 9.8125 71.09375 
Q 15.4375 72.65625 20.34375 73.4375 
Q 25.25 74.21875 29.59375 74.21875 
Q 40.828125 74.21875 47.359375 69.109375 
Q 53.90625 64.015625 53.90625 55.328125 
Q 53.90625 49.265625 50.4375 45.09375 
Q 46.96875 40.921875 40.578125 39.3125 
z
" id="DejaVuSans-33"/>
      </defs>
      <g transform="translate(392.222862 322.182437)scale(0.1 -0.1)">
       <use xlink:href="#DejaVuSans-33"/>
       <use x="63.623047" xlink:href="#DejaVuSans-30"/>
       <use x="127.246094" xlink:href="#DejaVuSans-30"/>
      </g>
     </g>
    </g>
   </g>
   <g id="matplotlib.axis_2">
    <g id="ytick_1">
     <g id="line2d_8">
      <defs>
       <path d="M 0 0 
L -3.5 0 
" id="madd7c0e0fd" style="stroke:#000000;stroke-width:0.8;"/>
      </defs>
      <g>
       <use style="stroke:#000000;stroke-width:0.8;" x="57.6" xlink:href="#madd7c0e0fd" y="267.890771"/>
      </g>
     </g>
     <g id="text_8">
      <!-- 0.2 -->
      <defs>
       <path d="M 10.6875 12.40625 
L 21 12.40625 
L 21 0 
L 10.6875 0 
z
" id="DejaVuSans-2e"/>
      </defs>
      <g transform="translate(34.696875 271.68999)scale(0.1 -0.1)">
       <use xlink:href="#DejaVuSans-30"/>
       <use x="63.623047" xlink:href="#DejaVuSans-2e"/>
       <use x="95.410156" xlink:href="#DejaVuSans-32"/>
      </g>
     </g>
    </g>
    <g id="ytick_2">
     <g id="line2d_9">
      <g>
       <use style="stroke:#000000;stroke-width:0.8;" x="57.6" xlink:href="#madd7c0e0fd" y="212.036677"/>
      </g>
     </g>
     <g id="text_9">
      <!-- 0.4 -->
      <defs>
       <path d="M 37.796875 64.3125 
L 12.890625 25.390625 
L 37.796875 25.390625 
z
M 35.203125 72.90625 
L 47.609375 72.90625 
L 47.609375 25.390625 
L 58.015625 25.390625 
L 58.015625 17.1875 
L 47.609375 17.1875 
L 47.609375 0 
L 37.796875 0 
L 37.796875 17.1875 
L 4.890625 17.1875 
L 4.890625 26.703125 
z
" id="DejaVuSans-34"/>
      </defs>
      <g transform="translate(34.696875 215.835896)scale(0.1 -0.1)">
       <use xlink:href="#DejaVuSans-30"/>
       <use x="63.623047" xlink:href="#DejaVuSans-2e"/>
       <use x="95.410156" xlink:href="#DejaVuSans-34"/>
      </g>
     </g>
    </g>
    <g id="ytick_3">
     <g id="line2d_10">
      <g>
       <use style="stroke:#000000;stroke-width:0.8;" x="57.6" xlink:href="#madd7c0e0fd" y="156.182583"/>
      </g>
     </g>
     <g id="text_10">
      <!-- 0.6 -->
      <defs>
       <path d="M 33.015625 40.375 
Q 26.375 40.375 22.484375 35.828125 
Q 18.609375 31.296875 18.609375 23.390625 
Q 18.609375 15.53125 22.484375 10.953125 
Q 26.375 6.390625 33.015625 6.390625 
Q 39.65625 6.390625 43.53125 10.953125 
Q 47.40625 15.53125 47.40625 23.390625 
Q 47.40625 31.296875 43.53125 35.828125 
Q 39.65625 40.375 33.015625 40.375 
z
M 52.59375 71.296875 
L 52.59375 62.3125 
Q 48.875 64.0625 45.09375 64.984375 
Q 41.3125 65.921875 37.59375 65.921875 
Q 27.828125 65.921875 22.671875 59.328125 
Q 17.53125 52.734375 16.796875 39.40625 
Q 19.671875 43.65625 24.015625 45.921875 
Q 28.375 48.1875 33.59375 48.1875 
Q 44.578125 48.1875 50.953125 41.515625 
Q 57.328125 34.859375 57.328125 23.390625 
Q 57.328125 12.15625 50.6875 5.359375 
Q 44.046875 -1.421875 33.015625 -1.421875 
Q 20.359375 -1.421875 13.671875 8.265625 
Q 6.984375 17.96875 6.984375 36.375 
Q 6.984375 53.65625 15.1875 63.9375 
Q 23.390625 74.21875 37.203125 74.21875 
Q 40.921875 74.21875 44.703125 73.484375 
Q 48.484375 72.75 52.59375 71.296875 
z
" id="DejaVuSans-36"/>
      </defs>
      <g transform="translate(34.696875 159.981802)scale(0.1 -0.1)">
       <use xlink:href="#DejaVuSans-30"/>
       <use x="63.623047" xlink:href="#DejaVuSans-2e"/>
       <use x="95.410156" xlink:href="#DejaVuSans-36"/>
      </g>
     </g>
    </g>
    <g id="ytick_4">
     <g id="line2d_11">
      <g>
       <use style="stroke:#000000;stroke-width:0.8;" x="57.6" xlink:href="#madd7c0e0fd" y="100.328489"/>
      </g>
     </g>
     <g id="text_11">
      <!-- 0.8 -->
      <defs>
       <path d="M 31.78125 34.625 
Q 24.75 34.625 20.71875 30.859375 
Q 16.703125 27.09375 16.703125 20.515625 
Q 16.703125 13.921875 20.71875 10.15625 
Q 24.75 6.390625 31.78125 6.390625 
Q 38.8125 6.390625 42.859375 10.171875 
Q 46.921875 13.96875 46.921875 20.515625 
Q 46.921875 27.09375 42.890625 30.859375 
Q 38.875 34.625 31.78125 34.625 
z
M 21.921875 38.8125 
Q 15.578125 40.375 12.03125 44.71875 
Q 8.5 49.078125 8.5 55.328125 
Q 8.5 64.0625 14.71875 69.140625 
Q 20.953125 74.21875 31.78125 74.21875 
Q 42.671875 74.21875 48.875 69.140625 
Q 55.078125 64.0625 55.078125 55.328125 
Q 55.078125 49.078125 51.53125 44.71875 
Q 48 40.375 41.703125 38.8125 
Q 48.828125 37.15625 52.796875 32.3125 
Q 56.78125 27.484375 56.78125 20.515625 
Q 56.78125 9.90625 50.3125 4.234375 
Q 43.84375 -1.421875 31.78125 -1.421875 
Q 19.734375 -1.421875 13.25 4.234375 
Q 6.78125 9.90625 6.78125 20.515625 
Q 6.78125 27.484375 10.78125 32.3125 
Q 14.796875 37.15625 21.921875 38.8125 
z
M 18.3125 54.390625 
Q 18.3125 48.734375 21.84375 45.5625 
Q 25.390625 42.390625 31.78125 42.390625 
Q 38.140625 42.390625 41.71875 45.5625 
Q 45.3125 48.734375 45.3125 54.390625 
Q 45.3125 60.0625 41.71875 63.234375 
Q 38.140625 66.40625 31.78125 66.40625 
Q 25.390625 66.40625 21.84375 63.234375 
Q 18.3125 60.0625 18.3125 54.390625 
z
" id="DejaVuSans-38"/>
      </defs>
      <g transform="translate(34.696875 104.127708)scale(0.1 -0.1)">
       <use xlink:href="#DejaVuSans-30"/>
       <use x="63.623047" xlink:href="#DejaVuSans-2e"/>
       <use x="95.410156" xlink:href="#DejaVuSans-38"/>
      </g>
     </g>
    </g>
    <g id="ytick_5">
     <g id="line2d_12">
      <g>
       <use style="stroke:#000000;stroke-width:0.8;" x="57.6" xlink:href="#madd7c0e0fd" y="44.474395"/>
      </g>
     </g>
     <g id="text_12">
      <!-- 1.0 -->
      <g transform="translate(34.696875 48.273614)scale(0.1 -0.1)">
       <use xlink:href="#DejaVuSans-31"/>
       <use x="63.623047" xlink:href="#DejaVuSans-2e"/>
       <use x="95.410156" xlink:href="#DejaVuSans-30"/>
      </g>
     </g>
    </g>
   </g>
   <g id="line2d_13">
    <path clip-path="url(#pf83bb0691b)" d="M 73.832727 200.964906 
L 74.92584 209.313325 
L 76.018953 216.805407 
L 77.112066 223.178917 
L 78.205179 228.181862 
L 79.298292 231.586541 
L 80.391405 233.205565 
L 81.484518 232.906373 
L 82.577631 230.62371 
L 83.670744 226.367814 
L 84.763857 220.236989 
L 85.85697 212.416857 
L 86.950083 203.168071 
L 89.136309 181.68398 
L 92.415647 148.118276 
L 93.50876 138.520308 
L 94.601873 130.520885 
L 95.694986 124.480823 
L 96.788099 120.650722 
L 97.881212 119.191161 
L 98.974325 120.204168 
L 100.067438 123.751555 
L 101.160551 129.845516 
L 102.253664 138.409159 
L 103.346777 149.216647 
L 105.533003 175.668029 
L 108.812342 217.588388 
L 109.905455 229.938845 
L 110.998567 240.797626 
L 112.09168 249.743031 
L 113.184793 256.367048 
L 114.277906 260.36527 
L 115.371019 261.546212 
L 116.464132 259.77694 
L 117.557245 254.943606 
L 118.650358 246.993148 
L 119.743471 236.052355 
L 120.836584 222.516022 
L 123.02281 189.956344 
L 126.302149 136.476421 
L 127.395262 120.733293 
L 128.488375 107.599016 
L 129.581488 97.611653 
L 130.674601 90.96334 
L 131.767713 87.697272 
L 132.860826 87.932138 
L 133.953939 92.004367 
L 135.047052 100.383226 
L 136.140165 113.167204 
L 137.233278 129.51337 
L 139.419504 168.037056 
L 142.698843 227.770403 
L 143.791956 245.366956 
L 144.885069 260.865816 
L 145.978182 273.393889 
L 147.071295 282.383885 
L 148.164408 287.813461 
L 149.257521 289.874384 
L 150.350634 288.640567 
L 151.443747 283.926016 
L 152.53686 275.246756 
L 153.629972 261.982805 
L 154.723085 244.015939 
L 155.816198 222.373129 
L 158.002424 173.297022 
L 160.18865 122.759121 
L 161.281763 101.081402 
L 162.374876 84.005223 
L 163.467989 71.877437 
L 164.561102 64.59909 
L 165.654215 63.583011 
L 166.747328 77.407179 
L 168.933554 167.241508 
L 170.026667 178.419122 
L 173.306006 196.978507 
L 174.399118 202.343292 
L 175.492231 207.075437 
L 176.585344 210.994347 
L 177.678457 213.934134 
L 178.77157 215.754698 
L 179.864683 216.350941 
L 180.957796 215.657884 
L 182.050909 213.659332 
L 183.144022 210.387213 
L 184.237135 205.928567 
L 185.330248 200.42005 
L 187.516474 187.010692 
L 191.888926 157.876452 
L 192.982039 151.866458 
L 194.075152 146.956511 
L 195.168264 143.384548 
L 196.261377 141.332283 
L 197.35449 140.927992 
L 198.447603 142.240563 
L 199.540716 145.282471 
L 200.633829 149.997487 
L 201.726942 156.251284 
L 202.820055 163.821096 
L 205.006281 181.612952 
L 208.28562 209.13906 
L 209.378733 217.094265 
L 210.471846 223.93211 
L 211.564959 229.3844 
L 212.658072 233.206868 
L 213.751185 235.197136 
L 214.844298 235.206724 
L 215.93741 233.15269 
L 217.030523 229.031961 
L 218.123636 222.930087 
L 219.216749 215.027943 
L 220.309862 205.58916 
L 222.496088 183.432306 
L 225.775427 148.259214 
L 226.86854 138.046107 
L 227.961653 129.446532 
L 229.054766 122.849977 
L 230.147879 118.523705 
L 231.240992 116.635464 
L 232.334105 117.291377 
L 233.427218 120.562845 
L 234.520331 126.479004 
L 235.613444 134.992098 
L 236.706556 145.906733 
L 237.799669 158.81629 
L 243.265234 229.972823 
L 244.358347 241.531083 
L 245.45146 251.157536 
L 246.544573 258.414473 
L 247.637686 262.97589 
L 248.730799 264.65291 
L 249.823912 263.317252 
L 250.917025 258.840826 
L 252.010138 251.122255 
L 253.103251 240.221119 
L 254.196364 226.499071 
L 256.38259 193.039583 
L 260.755041 120.584814 
L 261.848154 106.586102 
L 262.941267 95.856624 
L 264.03438 88.595685 
L 265.127493 84.833632 
L 266.220606 84.715315 
L 267.313719 88.723405 
L 268.406832 97.629061 
L 269.499945 111.692563 
L 271.686171 148.796996 
L 276.058623 227.692766 
L 277.151736 245.023547 
L 278.244848 260.276276 
L 279.337961 272.609046 
L 280.431074 281.461082 
L 281.524187 286.790121 
L 282.6173 288.762888 
L 283.710413 287.437936 
L 284.803526 282.621823 
L 285.896639 273.840349 
L 286.989752 260.519986 
L 288.082865 242.621821 
L 290.269091 197.603514 
L 293.54843 122.875297 
L 294.641543 101.521626 
L 295.734656 84.681151 
L 296.827769 72.703147 
L 297.920882 65.492011 
L 299.013994 64.28277 
L 300.107107 76.558941 
L 302.293333 163.594421 
L 303.386446 176.949322 
L 306.665785 197.905871 
L 307.758898 204.049914 
L 308.852011 209.506301 
L 309.945124 214.072931 
L 311.038237 217.559809 
L 312.13135 219.804865 
L 313.224463 220.680657 
L 314.317576 220.105825 
L 315.410689 218.05086 
L 316.503802 214.544154 
L 317.596915 209.675166 
L 318.690028 203.590049 
L 319.78314 196.488108 
L 321.969366 180.24071 
L 325.248705 155.468023 
L 326.341818 148.51093 
L 327.434931 142.769036 
L 328.528044 138.514258 
L 329.621157 135.95493 
L 330.71427 135.235622 
L 331.807383 136.442536 
L 332.900496 139.601178 
L 333.993609 144.670403 
L 335.086722 151.522397 
L 336.179835 159.924901 
L 338.366061 179.923459 
L 341.645399 211.187602 
L 342.738512 220.306434 
L 343.831625 228.214723 
L 344.924738 234.610016 
L 346.017851 239.209415 
L 347.110964 241.774235 
L 348.204077 242.126488 
L 349.29719 240.159865 
L 350.390303 235.844764 
L 351.483416 229.252492 
L 352.576529 220.571648 
L 353.669642 210.101798 
L 355.855868 185.296157 
L 359.135207 145.354708 
L 360.22832 133.642384 
L 361.321433 123.746435 
L 362.414545 116.109505 
L 363.507658 111.006302 
L 364.600771 108.591451 
L 365.693884 108.96167 
L 366.786997 112.198973 
L 367.88011 118.372433 
L 368.973223 127.483819 
L 370.066336 139.383813 
L 371.159449 153.672966 
L 376.625014 233.865295 
L 377.718127 247.037738 
L 378.81124 258.057193 
L 379.904353 266.395185 
L 380.997466 271.731206 
L 382.090579 273.948427 
L 383.183691 272.978055 
L 384.276804 268.671425 
L 385.369917 260.800373 
L 386.46303 249.232711 
L 387.556143 234.236073 
L 388.649256 216.548106 
L 390.835482 176.249377 
L 393.021708 134.247843 
L 394.114821 115.446424 
L 395.207934 99.803367 
L 396.301047 87.966954 
L 397.39416 80.046937 
L 398.487273 76.06184 
L 398.487273 76.06184 
" style="fill:none;opacity:0.4;stroke:#1f77b4;stroke-linecap:square;stroke-width:1.5;"/>
   </g>
   <g id="line2d_14">
    <path clip-path="url(#pf83bb0691b)" d="M 73.832727 202.307704 
L 74.92584 211.107516 
L 76.018953 218.884892 
L 77.112066 225.375696 
L 78.205179 230.365226 
L 79.298292 233.693739 
L 80.391405 235.246734 
L 81.484518 234.939565 
L 82.577631 232.710177 
L 83.670744 228.517964 
L 84.763857 222.364239 
L 85.85697 214.318736 
L 86.950083 204.55949 
L 91.322534 160.437604 
L 93.50876 140.769143 
L 94.601873 132.921615 
L 95.694986 126.917803 
L 96.788099 123.060044 
L 97.881212 121.613507 
L 98.974325 122.672026 
L 100.067438 126.225742 
L 101.160551 132.207576 
L 102.253664 140.454405 
L 103.346777 150.710585 
L 104.43989 162.629654 
L 105.533003 175.797982 
L 108.812342 219.392075 
L 109.905455 231.771269 
L 110.998567 242.174792 
L 112.09168 250.344431 
L 113.184793 256.827946 
L 114.277906 260.972209 
L 115.371019 262.163995 
L 116.464132 260.343934 
L 117.557245 255.085215 
L 118.650358 247.803684 
L 119.743471 237.829819 
L 120.836584 224.812184 
L 121.929697 208.93239 
L 125.209036 155.240688 
L 127.395262 122.591847 
L 128.488375 109.017068 
L 129.581488 98.369965 
L 130.674601 92.500454 
L 131.767713 89.935327 
L 132.860826 90.519198 
L 133.953939 94.608471 
L 135.047052 102.736973 
L 136.140165 115.600646 
L 138.326391 149.515001 
L 140.512617 188.944277 
L 142.698843 228.836109 
L 144.885069 262.099791 
L 145.978182 275.854672 
L 147.071295 286.215997 
L 148.164408 292.732075 
L 149.257521 295.131874 
L 150.350634 293.251853 
L 151.443747 287.031523 
L 152.53686 278.327472 
L 153.629972 263.850454 
L 155.816198 225.432667 
L 156.909311 201.140549 
L 159.095537 148.213935 
L 160.18865 123.394247 
L 161.281763 101.685688 
L 162.374876 86.963805 
L 163.467989 77.254297 
L 164.561102 71.752585 
L 165.654215 70.692642 
L 166.747328 80.998309 
L 168.933554 172.909739 
L 174.399118 203.785994 
L 175.492231 208.787142 
L 176.585344 212.898087 
L 177.678457 215.956546 
L 178.77157 217.834667 
L 179.864683 218.440014 
L 180.957796 217.711705 
L 182.050909 215.625331 
L 183.144022 212.190835 
L 184.237135 207.469041 
L 185.330248 201.575959 
L 188.609587 180.440686 
L 190.795813 166.114977 
L 191.888926 159.546871 
L 192.982039 153.758236 
L 194.075152 149.013235 
L 195.168264 145.541931 
L 196.261377 143.526967 
L 197.35449 143.097393 
L 198.447603 144.318838 
L 199.540716 147.192643 
L 200.633829 151.651336 
L 201.726942 157.558437 
L 202.820055 164.710358 
L 203.913168 172.843859 
L 205.006281 181.865999 
L 208.28562 210.919484 
L 209.378733 219.16972 
L 210.471846 226.120706 
L 211.564959 231.537939 
L 212.658072 235.25299 
L 213.751185 237.149237 
L 214.844298 237.138177 
L 215.93741 235.150274 
L 217.030523 231.13699 
L 218.123636 225.081764 
L 219.216749 217.03358 
L 220.309862 207.147824 
L 225.775427 150.200833 
L 226.86854 140.28486 
L 227.961653 131.83732 
L 229.054766 125.261338 
L 230.147879 120.884862 
L 231.240992 119.018861 
L 232.334105 119.733877 
L 233.427218 123.053062 
L 234.520331 128.919334 
L 235.613444 137.176357 
L 236.706556 147.570999 
L 237.799669 159.757469 
L 238.892782 173.29854 
L 242.172121 218.666 
L 243.265234 231.745437 
L 244.358347 242.800554 
L 245.45146 251.558671 
L 246.544573 259.019438 
L 247.637686 263.787785 
L 248.730799 265.632507 
L 249.823912 264.314908 
L 250.917025 259.477916 
L 252.010138 251.439451 
L 253.103251 241.687633 
L 254.196364 228.759253 
L 255.289477 212.752559 
L 259.661928 138.924338 
L 260.755041 122.345559 
L 261.848154 107.843099 
L 262.941267 96.588555 
L 264.03438 90.417934 
L 265.127493 87.420608 
L 266.220606 87.671477 
L 267.313719 91.676606 
L 268.406832 100.294111 
L 269.499945 114.100684 
L 271.686171 150.100994 
L 273.872397 189.424929 
L 276.058623 228.804384 
L 278.244848 261.440545 
L 279.337961 274.936458 
L 280.431074 285.076099 
L 281.524187 291.411154 
L 282.6173 293.672714 
L 283.710413 291.699389 
L 284.803526 285.715265 
L 285.896639 276.795534 
L 286.989752 262.169218 
L 288.082865 244.175514 
L 289.175978 224.228509 
L 290.269091 200.108644 
L 292.455317 147.99024 
L 293.54843 123.581219 
L 294.641543 102.034245 
L 295.734656 87.477747 
L 296.827769 77.856125 
L 297.920882 72.38597 
L 299.013994 71.243419 
L 300.107107 80.336466 
L 302.293333 168.592218 
L 303.386446 177.748575 
L 304.479559 184.47014 
L 306.665785 199.069842 
L 307.758898 205.596449 
L 308.852011 211.341741 
L 309.945124 216.102548 
L 311.038237 219.698993 
L 312.13135 221.990128 
L 313.224463 222.87159 
L 314.317576 222.274146 
L 315.410689 220.160823 
L 316.503802 216.530949 
L 317.596915 211.43228 
L 318.690028 204.972838 
L 320.876253 189.281412 
L 325.248705 157.230546 
L 326.341818 150.523558 
L 327.434931 144.962473 
L 328.528044 140.815195 
L 329.621157 138.297264 
L 330.71427 137.561722 
L 331.807383 138.693465 
L 332.900496 141.703443 
L 333.993609 146.52622 
L 335.086722 153.019063 
L 336.179835 160.960929 
L 337.272948 170.059198 
L 338.366061 180.130864 
L 341.645399 213.0158 
L 342.738512 222.401968 
L 343.831625 230.334842 
L 344.924738 236.563634 
L 346.017851 240.9195 
L 347.110964 243.289445 
L 348.204077 243.587957 
L 349.29719 241.739968 
L 350.390303 237.671556 
L 351.483416 231.329575 
L 352.576529 222.716455 
L 353.669642 211.95055 
L 356.948981 172.854667 
L 359.135207 147.308317 
L 360.22832 135.883362 
L 361.321433 126.067731 
L 362.414545 118.331157 
L 363.507658 113.123377 
L 364.600771 110.693724 
L 365.693884 111.152845 
L 366.786997 114.56472 
L 367.88011 120.873552 
L 368.973223 129.900495 
L 370.066336 141.359633 
L 371.159449 154.873251 
L 372.252562 169.970166 
L 375.531901 220.66647 
L 376.625014 235.315351 
L 378.81124 258.798088 
L 379.904353 267.690953 
L 380.997466 273.449901 
L 382.090579 275.924936 
L 383.183691 275.078244 
L 384.276804 270.582213 
L 385.369917 261.991378 
L 386.46303 249.794017 
L 387.556143 236.243842 
L 388.649256 219.098785 
L 390.835482 176.559693 
L 393.021708 135.647295 
L 394.114821 116.758725 
L 395.207934 100.266072 
L 396.301047 89.823144 
L 397.39416 83.393221 
L 398.487273 80.346687 
L 398.487273 80.346687 
" style="fill:none;opacity:0.4;stroke:#ff7f0e;stroke-linecap:square;stroke-width:1.5;"/>
   </g>
   <g id="line2d_15">
    <path clip-path="url(#pf83bb0691b)" d="M 73.832727 199.873443 
L 76.018953 214.947346 
L 77.112066 221.128495 
L 78.205179 226.074543 
L 79.298292 229.503844 
L 80.391405 231.15788 
L 81.484518 230.849202 
L 82.577631 228.496907 
L 83.670744 224.147353 
L 84.763857 217.986842 
L 85.85697 210.314081 
L 88.043196 191.754324 
L 89.136309 181.200274 
L 91.322534 156.785333 
L 92.415647 145.661934 
L 93.50876 136.007693 
L 94.601873 128.216466 
L 95.694986 122.533871 
L 96.788099 119.093342 
L 97.881212 117.59352 
L 98.974325 118.357967 
L 100.067438 121.790788 
L 101.160551 127.961883 
L 102.253664 136.833803 
L 103.346777 148.142358 
L 105.533003 175.462942 
L 107.719229 203.266384 
L 109.905455 228.301976 
L 110.998567 239.388399 
L 112.09168 248.912779 
L 113.184793 256.07844 
L 114.277906 259.533519 
L 115.371019 260.53152 
L 116.464132 258.984417 
L 117.557245 254.798935 
L 118.650358 246.336593 
L 119.743471 234.441709 
L 121.929697 204.895564 
L 124.115923 171.28944 
L 126.302149 134.177299 
L 127.395262 118.860403 
L 128.488375 106.724816 
L 129.581488 96.500222 
L 130.674601 89.552447 
L 131.767713 85.994011 
L 132.860826 85.773331 
L 133.953939 89.17317 
L 135.047052 96.889971 
L 136.140165 109.473899 
L 137.233278 126.530929 
L 143.791956 244.863134 
L 144.885069 259.227438 
L 145.978182 269.738732 
L 147.071295 277.063578 
L 148.164408 281.458066 
L 149.257521 283.180243 
L 150.350634 282.311126 
L 151.443747 278.663546 
L 152.53686 271.525616 
L 153.629972 260.620691 
L 154.723085 242.86635 
L 158.002424 172.823864 
L 160.18865 121.843207 
L 162.374876 81.156767 
L 163.467989 65.647006 
L 164.561102 55.544202 
L 165.654215 54.807486 
L 166.747328 74.224101 
L 168.933554 163.040488 
L 170.026667 177.862266 
L 172.212893 190.425863 
L 174.399118 201.017949 
L 175.492231 205.479462 
L 176.585344 209.182226 
L 177.678457 211.968479 
L 178.77157 213.692779 
L 179.864683 214.240819 
L 180.957796 213.54242 
L 182.050909 211.587247 
L 183.144022 208.424202 
L 184.237135 204.164126 
L 185.330248 198.96048 
L 186.423361 192.985516 
L 187.516474 186.347899 
L 189.7027 170.794992 
L 191.888926 155.830758 
L 192.982039 149.649777 
L 194.075152 144.706969 
L 195.168264 141.206509 
L 196.261377 139.28982 
L 197.35449 139.052021 
L 198.447603 140.542906 
L 199.540716 143.773116 
L 200.633829 148.699559 
L 201.726942 155.212146 
L 202.820055 163.113574 
L 208.28562 207.650762 
L 209.378733 215.255549 
L 210.471846 221.897885 
L 211.564959 227.30808 
L 212.658072 231.181729 
L 213.751185 233.235065 
L 214.844298 233.252659 
L 215.93741 231.123501 
L 217.030523 226.873954 
L 218.123636 220.679233 
L 219.216749 212.848712 
L 221.402975 193.733402 
L 222.496088 182.907036 
L 225.775427 145.805088 
L 226.86854 135.522656 
L 227.961653 127.149513 
L 229.054766 120.949039 
L 230.147879 117.056651 
L 231.240992 114.96997 
L 232.334105 115.343661 
L 233.427218 118.454483 
L 234.520331 124.397917 
L 235.613444 133.189044 
L 236.706556 144.620478 
L 238.892782 172.861705 
L 242.172121 215.617204 
L 244.358347 240.21046 
L 245.45146 250.481413 
L 246.544573 257.810224 
L 247.637686 261.720234 
L 248.730799 263.118318 
L 249.823912 261.952532 
L 250.917025 258.119153 
L 252.010138 250.910624 
L 253.103251 238.980916 
L 255.289477 208.357819 
L 257.475702 174.010037 
L 259.661928 135.026756 
L 260.755041 118.77422 
L 261.848154 105.842657 
L 262.941267 94.8196 
L 264.03438 87.301778 
L 265.127493 83.301843 
L 266.220606 82.770028 
L 267.313719 86.008309 
L 268.406832 94.039932 
L 269.499945 107.803024 
L 270.593058 126.405425 
L 274.96551 208.110079 
L 277.151736 244.475395 
L 278.244848 258.766251 
L 279.337961 269.138217 
L 280.431074 276.365038 
L 281.524187 280.685325 
L 282.6173 282.335869 
L 283.710413 281.384757 
L 284.803526 277.601899 
L 285.896639 270.379239 
L 286.989752 259.400921 
L 288.082865 241.505241 
L 291.362204 172.298472 
L 293.54843 121.885656 
L 295.734656 82.042445 
L 296.827769 66.819887 
L 297.920882 56.88537 
L 299.013994 55.788312 
L 300.107107 73.704518 
L 302.293333 159.841697 
L 303.386446 176.391823 
L 305.572672 190.55631 
L 307.758898 202.666287 
L 308.852011 207.824189 
L 309.945124 212.162237 
L 311.038237 215.49628 
L 312.13135 217.652443 
L 313.224463 218.482882 
L 314.317576 217.892476 
L 315.410689 215.854556 
L 316.503802 212.421233 
L 317.596915 207.719435 
L 318.690028 201.928818 
L 319.78314 195.256208 
L 320.876253 187.848252 
L 321.969366 179.596955 
L 324.155592 161.491347 
L 325.248705 153.288978 
L 326.341818 146.167274 
L 327.434931 140.429243 
L 328.528044 136.296794 
L 329.621157 133.922381 
L 330.71427 133.404502 
L 331.807383 134.803423 
L 332.900496 138.140901 
L 333.993609 143.394732 
L 335.086722 150.469687 
L 336.179835 159.173374 
L 342.738512 218.463668 
L 343.831625 226.235682 
L 344.924738 232.699732 
L 346.017851 237.478608 
L 347.110964 240.212498 
L 348.204077 240.624618 
L 349.29719 238.560474 
L 350.390303 234.00722 
L 351.483416 227.137418 
L 352.576529 218.319453 
L 354.762755 196.749468 
L 355.855868 184.637926 
L 359.135207 142.863309 
L 360.22832 131.162127 
L 361.321433 121.644087 
L 362.414545 114.577343 
L 363.507658 109.503781 
L 364.600771 106.700631 
L 365.693884 106.727944 
L 366.786997 109.69469 
L 367.88011 115.771029 
L 368.973223 125.090536 
L 370.066336 137.563342 
L 371.159449 152.658916 
L 375.531901 217.935372 
L 377.718127 246.204135 
L 378.81124 257.310889 
L 379.904353 264.429018 
L 380.997466 268.883494 
L 382.090579 270.709057 
L 383.183691 269.879959 
L 384.276804 266.279213 
L 385.369917 259.67173 
L 386.46303 248.74315 
L 387.556143 232.596346 
L 390.835482 175.907456 
L 393.021708 132.322524 
L 394.114821 114.167877 
L 395.207934 99.156642 
L 396.301047 86.69417 
L 397.39416 77.04504 
L 398.487273 71.99555 
L 398.487273 71.99555 
" style="fill:none;opacity:0.4;stroke:#2ca02c;stroke-linecap:square;stroke-width:1.5;"/>
   </g>
   <g id="line2d_16">
    <path clip-path="url(#pf83bb0691b)" d="M 73.832727 200.605858 
L 76.018953 216.489086 
L 77.112066 222.969837 
L 78.205179 228.073225 
L 79.298292 231.551539 
L 80.391405 233.214874 
L 81.484518 232.940631 
L 82.577631 230.681332 
L 83.670744 226.468258 
L 84.763857 220.412557 
L 85.85697 212.703854 
L 86.950083 203.604385 
L 89.136309 182.590399 
L 92.415647 150.224627 
L 93.50876 140.977144 
L 94.601873 133.20365 
L 95.694986 127.26636 
L 96.788099 123.462976 
L 97.881212 122.013562 
L 98.974325 123.044908 
L 100.067438 126.582147 
L 101.160551 132.545968 
L 102.253664 140.756241 
L 103.346777 150.94319 
L 105.533003 175.775362 
L 109.905455 229.659482 
L 110.998567 240.843426 
L 112.09168 250.069964 
L 113.184793 256.906505 
L 114.277906 261.003962 
L 115.371019 262.113224 
L 116.464132 260.099125 
L 117.557245 254.947981 
L 118.650358 246.773176 
L 119.743471 235.814044 
L 120.836584 222.429449 
L 123.02281 190.352442 
L 126.302149 138.368199 
L 127.395262 122.796078 
L 128.488375 109.260955 
L 129.581488 98.398172 
L 130.674601 90.783024 
L 131.767713 86.933281 
L 132.860826 87.32035 
L 133.953939 92.328786 
L 135.047052 102.011094 
L 136.140165 115.67105 
L 138.326391 149.642627 
L 140.512617 187.949878 
L 143.791956 245.745461 
L 144.885069 262.172708 
L 145.978182 275.938509 
L 147.071295 286.405566 
L 148.164408 293.050527 
L 149.257521 295.488 
L 150.350634 293.491495 
L 151.443747 287.007394 
L 152.53686 276.161646 
L 153.629972 261.260611 
L 154.723085 242.784635 
L 156.909311 197.804216 
L 161.281763 100.752701 
L 162.374876 80.857752 
L 163.467989 64.819249 
L 164.561102 54.236294 
L 165.654215 53.568 
L 166.747328 76.824248 
L 167.840441 129.229073 
L 168.933554 165.14549 
L 170.026667 178.301363 
L 171.11978 185.251567 
L 173.306006 196.867822 
L 174.399118 202.175637 
L 175.492231 206.910109 
L 176.585344 210.863462 
L 177.678457 213.853052 
L 178.77157 215.728912 
L 179.864683 216.381009 
L 180.957796 215.745948 
L 182.050909 213.810883 
L 183.144022 210.614911 
L 184.237135 206.248517 
L 185.330248 200.85385 
L 187.516474 187.767236 
L 191.888926 159.672905 
L 192.982039 153.916862 
L 194.075152 149.211154 
L 195.168264 145.778362 
L 196.261377 143.794983 
L 197.35449 143.385014 
L 198.447603 144.610173 
L 199.540716 147.468507 
L 200.633829 151.891592 
L 201.726942 157.746219 
L 202.820055 164.838013 
L 205.006281 181.69031 
L 208.28562 208.721737 
L 209.378733 216.756069 
L 210.471846 223.711579 
L 211.564959 229.274089 
L 212.658072 233.176893 
L 213.751185 235.211379 
L 214.844298 235.239026 
L 215.93741 233.197839 
L 217.030523 229.107643 
L 218.123636 223.071771 
L 219.216749 215.275935 
L 220.309862 205.982093 
L 222.496088 184.282219 
L 225.775427 150.335218 
L 226.86854 140.488421 
L 227.961653 132.117847 
L 229.054766 125.610286 
L 230.147879 121.289134 
L 231.240992 119.397635 
L 232.334105 120.083803 
L 233.427218 123.390365 
L 234.520331 129.247505 
L 235.613444 137.47956 
L 236.706556 147.815919 
L 237.799669 159.903862 
L 239.985895 187.557783 
L 243.265234 229.682661 
L 244.358347 241.604159 
L 245.45146 251.559593 
L 246.544573 259.08677 
L 247.637686 263.807558 
L 248.730799 265.445758 
L 249.823912 263.841629 
L 250.917025 258.961657 
L 252.010138 250.903866 
L 253.103251 239.897816 
L 254.196364 226.299858 
L 256.38259 193.31634 
L 259.661928 139.02253 
L 260.755041 122.533284 
L 261.848154 108.064281 
L 262.941267 96.292472 
L 264.03438 87.84091 
L 265.127493 83.299134 
L 266.220606 83.271207 
L 267.313719 88.383253 
L 268.406832 98.949172 
L 269.499945 114.133108 
L 271.686171 150.207033 
L 278.244848 261.515027 
L 279.337961 275.013565 
L 280.431074 285.242684 
L 281.524187 291.689084 
L 282.6173 293.977426 
L 283.710413 291.888483 
L 284.803526 285.373941 
L 285.896639 274.563101 
L 286.989752 259.762604 
L 288.082865 241.45056 
L 290.269091 196.96836 
L 294.641543 101.315152 
L 295.734656 81.774318 
L 296.827769 66.050273 
L 297.920882 55.657222 
L 299.013994 54.601021 
L 300.107107 75.240226 
L 301.20022 124.446008 
L 302.293333 161.815748 
L 303.386446 176.603957 
L 304.479559 184.512617 
L 306.665785 197.72993 
L 308.852011 209.287259 
L 309.945124 213.903042 
L 311.038237 217.451732 
L 312.13135 219.757947 
L 313.224463 220.690431 
L 314.317576 220.17015 
L 315.410689 218.174204 
L 316.503802 214.738619 
L 317.596915 209.958905 
L 318.690028 203.987823 
L 319.78314 197.031196 
L 321.969366 181.206055 
L 324.155592 164.883813 
L 325.248705 157.360267 
L 326.341818 150.694639 
L 327.434931 145.182957 
L 328.528044 141.084104 
L 329.621157 138.606696 
L 330.71427 137.898745 
L 331.807383 139.040682 
L 332.900496 142.03893 
L 333.993609 146.824509 
L 335.086722 153.255829 
L 336.179835 161.121202 
L 338.366061 180.002679 
L 341.645399 210.705953 
L 342.738512 219.945338 
L 343.831625 228.013182 
L 344.924738 234.548111 
L 346.017851 239.239017 
L 347.110964 241.840701 
L 348.204077 242.184204 
L 349.29719 240.18742 
L 350.390303 235.860124 
L 351.483416 229.306763 
L 352.576529 220.725061 
L 353.669642 210.401269 
L 355.855868 186.054749 
L 359.135207 147.440021 
L 360.22832 136.094379 
L 361.321433 126.360407 
L 362.414545 118.687451 
L 363.507658 113.456156 
L 364.600771 110.960874 
L 365.693884 111.389555 
L 366.786997 114.805591 
L 367.88011 121.135535 
L 368.973223 130.172728 
L 370.066336 141.603827 
L 371.159449 155.036178 
L 373.345675 185.975995 
L 376.625014 233.682373 
L 377.718127 247.35378 
L 378.81124 258.879551 
L 379.904353 267.728515 
L 380.997466 273.461659 
L 382.090579 275.752514 
L 383.183691 274.403638 
L 384.276804 269.359176 
L 385.369917 260.711286 
L 386.46303 248.700142 
L 387.556143 233.7103 
L 388.649256 216.25785 
L 390.835482 176.589156 
L 393.021708 135.719319 
L 394.114821 116.909894 
L 395.207934 100.288274 
L 396.301047 86.645353 
L 397.39416 76.76616 
L 398.487273 71.578432 
L 398.487273 71.578432 
" style="fill:none;stroke:#000000;stroke-linecap:square;stroke-width:1.5;"/>
   </g>
   <g id="patch_3">
    <path d="M 57.6 307.584 
L 57.6 41.472 
" style="fill:none;stroke:#000000;stroke-linecap:square;stroke-linejoin:miter;stroke-width:0.8;"/>
   </g>
   <g id="patch_4">
    <path d="M 414.72 307.584 
L 414.72 41.472 
" style="fill:none;stroke:#000000;stroke-linecap:square;stroke-linejoin:miter;stroke-width:0.8;"/>
   </g>
   <g id="patch_5">
    <path d="M 57.6 307.584 
L 414.72 307.584 
" style="fill:none;stroke:#000000;stroke-linecap:square;stroke-linejoin:miter;stroke-width:0.8;"/>
   </g>
   <g id="patch_6">
    <path d="M 57.6 41.472 
L 414.72 41.472 
" style="fill:none;stroke:#000000;stroke-linecap:square;stroke-linejoin:miter;stroke-width:0.8;"/>
   </g>
   <g id="text_13">
    <!-- Plot of Train Data for Rossler -->
    <defs>
     <path d="M 19.671875 64.796875 
L 19.671875 37.40625 
L 32.078125 37.40625 
Q 38.96875 37.40625 42.71875 40.96875 
Q 46.484375 44.53125 46.484375 51.125 
Q 46.484375 57.671875 42.71875 61.234375 
Q 38.96875 64.796875 32.078125 64.796875 
z
M 9.8125 72.90625 
L 32.078125 72.90625 
Q 44.34375 72.90625 50.609375 67.359375 
Q 56.890625 61.8125 56.890625 51.125 
Q 56.890625 40.328125 50.609375 34.8125 
Q 44.34375 29.296875 32.078125 29.296875 
L 19.671875 29.296875 
L 19.671875 0 
L 9.8125 0 
z
" id="DejaVuSans-50"/>
     <path d="M 9.421875 75.984375 
L 18.40625 75.984375 
L 18.40625 0 
L 9.421875 0 
z
" id="DejaVuSans-6c"/>
     <path d="M 30.609375 48.390625 
Q 23.390625 48.390625 19.1875 42.75 
Q 14.984375 37.109375 14.984375 27.296875 
Q 14.984375 17.484375 19.15625 11.84375 
Q 23.34375 6.203125 30.609375 6.203125 
Q 37.796875 6.203125 41.984375 11.859375 
Q 46.1875 17.53125 46.1875 27.296875 
Q 46.1875 37.015625 41.984375 42.703125 
Q 37.796875 48.390625 30.609375 48.390625 
z
M 30.609375 56 
Q 42.328125 56 49.015625 48.375 
Q 55.71875 40.765625 55.71875 27.296875 
Q 55.71875 13.875 49.015625 6.21875 
Q 42.328125 -1.421875 30.609375 -1.421875 
Q 18.84375 -1.421875 12.171875 6.21875 
Q 5.515625 13.875 5.515625 27.296875 
Q 5.515625 40.765625 12.171875 48.375 
Q 18.84375 56 30.609375 56 
z
" id="DejaVuSans-6f"/>
     <path d="M 18.3125 70.21875 
L 18.3125 54.6875 
L 36.8125 54.6875 
L 36.8125 47.703125 
L 18.3125 47.703125 
L 18.3125 18.015625 
Q 18.3125 11.328125 20.140625 9.421875 
Q 21.96875 7.515625 27.59375 7.515625 
L 36.8125 7.515625 
L 36.8125 0 
L 27.59375 0 
Q 17.1875 0 13.234375 3.875 
Q 9.28125 7.765625 9.28125 18.015625 
L 9.28125 47.703125 
L 2.6875 47.703125 
L 2.6875 54.6875 
L 9.28125 54.6875 
L 9.28125 70.21875 
z
" id="DejaVuSans-74"/>
     <path id="DejaVuSans-20"/>
     <path d="M 37.109375 75.984375 
L 37.109375 68.5 
L 28.515625 68.5 
Q 23.6875 68.5 21.796875 66.546875 
Q 19.921875 64.59375 19.921875 59.515625 
L 19.921875 54.6875 
L 34.71875 54.6875 
L 34.71875 47.703125 
L 19.921875 47.703125 
L 19.921875 0 
L 10.890625 0 
L 10.890625 47.703125 
L 2.296875 47.703125 
L 2.296875 54.6875 
L 10.890625 54.6875 
L 10.890625 58.5 
Q 10.890625 67.625 15.140625 71.796875 
Q 19.390625 75.984375 28.609375 75.984375 
z
" id="DejaVuSans-66"/>
     <path d="M -0.296875 72.90625 
L 61.375 72.90625 
L 61.375 64.59375 
L 35.5 64.59375 
L 35.5 0 
L 25.59375 0 
L 25.59375 64.59375 
L -0.296875 64.59375 
z
" id="DejaVuSans-54"/>
     <path d="M 41.109375 46.296875 
Q 39.59375 47.171875 37.8125 47.578125 
Q 36.03125 48 33.890625 48 
Q 26.265625 48 22.1875 43.046875 
Q 18.109375 38.09375 18.109375 28.8125 
L 18.109375 0 
L 9.078125 0 
L 9.078125 54.6875 
L 18.109375 54.6875 
L 18.109375 46.1875 
Q 20.953125 51.171875 25.484375 53.578125 
Q 30.03125 56 36.53125 56 
Q 37.453125 56 38.578125 55.875 
Q 39.703125 55.765625 41.0625 55.515625 
z
" id="DejaVuSans-72"/>
     <path d="M 34.28125 27.484375 
Q 23.390625 27.484375 19.1875 25 
Q 14.984375 22.515625 14.984375 16.5 
Q 14.984375 11.71875 18.140625 8.90625 
Q 21.296875 6.109375 26.703125 6.109375 
Q 34.1875 6.109375 38.703125 11.40625 
Q 43.21875 16.703125 43.21875 25.484375 
L 43.21875 27.484375 
z
M 52.203125 31.203125 
L 52.203125 0 
L 43.21875 0 
L 43.21875 8.296875 
Q 40.140625 3.328125 35.546875 0.953125 
Q 30.953125 -1.421875 24.3125 -1.421875 
Q 15.921875 -1.421875 10.953125 3.296875 
Q 6 8.015625 6 15.921875 
Q 6 25.140625 12.171875 29.828125 
Q 18.359375 34.515625 30.609375 34.515625 
L 43.21875 34.515625 
L 43.21875 35.40625 
Q 43.21875 41.609375 39.140625 45 
Q 35.0625 48.390625 27.6875 48.390625 
Q 23 48.390625 18.546875 47.265625 
Q 14.109375 46.140625 10.015625 43.890625 
L 10.015625 52.203125 
Q 14.9375 54.109375 19.578125 55.046875 
Q 24.21875 56 28.609375 56 
Q 40.484375 56 46.34375 49.84375 
Q 52.203125 43.703125 52.203125 31.203125 
z
" id="DejaVuSans-61"/>
     <path d="M 9.421875 54.6875 
L 18.40625 54.6875 
L 18.40625 0 
L 9.421875 0 
z
M 9.421875 75.984375 
L 18.40625 75.984375 
L 18.40625 64.59375 
L 9.421875 64.59375 
z
" id="DejaVuSans-69"/>
     <path d="M 54.890625 33.015625 
L 54.890625 0 
L 45.90625 0 
L 45.90625 32.71875 
Q 45.90625 40.484375 42.875 44.328125 
Q 39.84375 48.1875 33.796875 48.1875 
Q 26.515625 48.1875 22.3125 43.546875 
Q 18.109375 38.921875 18.109375 30.90625 
L 18.109375 0 
L 9.078125 0 
L 9.078125 54.6875 
L 18.109375 54.6875 
L 18.109375 46.1875 
Q 21.34375 51.125 25.703125 53.5625 
Q 30.078125 56 35.796875 56 
Q 45.21875 56 50.046875 50.171875 
Q 54.890625 44.34375 54.890625 33.015625 
z
" id="DejaVuSans-6e"/>
     <path d="M 19.671875 64.796875 
L 19.671875 8.109375 
L 31.59375 8.109375 
Q 46.6875 8.109375 53.6875 14.9375 
Q 60.6875 21.78125 60.6875 36.53125 
Q 60.6875 51.171875 53.6875 57.984375 
Q 46.6875 64.796875 31.59375 64.796875 
z
M 9.8125 72.90625 
L 30.078125 72.90625 
Q 51.265625 72.90625 61.171875 64.09375 
Q 71.09375 55.28125 71.09375 36.53125 
Q 71.09375 17.671875 61.125 8.828125 
Q 51.171875 0 30.078125 0 
L 9.8125 0 
z
" id="DejaVuSans-44"/>
     <path d="M 44.390625 34.1875 
Q 47.5625 33.109375 50.5625 29.59375 
Q 53.5625 26.078125 56.59375 19.921875 
L 66.609375 0 
L 56 0 
L 46.6875 18.703125 
Q 43.0625 26.03125 39.671875 28.421875 
Q 36.28125 30.8125 30.421875 30.8125 
L 19.671875 30.8125 
L 19.671875 0 
L 9.8125 0 
L 9.8125 72.90625 
L 32.078125 72.90625 
Q 44.578125 72.90625 50.734375 67.671875 
Q 56.890625 62.453125 56.890625 51.90625 
Q 56.890625 45.015625 53.6875 40.46875 
Q 50.484375 35.9375 44.390625 34.1875 
z
M 19.671875 64.796875 
L 19.671875 38.921875 
L 32.078125 38.921875 
Q 39.203125 38.921875 42.84375 42.21875 
Q 46.484375 45.515625 46.484375 51.90625 
Q 46.484375 58.296875 42.84375 61.546875 
Q 39.203125 64.796875 32.078125 64.796875 
z
" id="DejaVuSans-52"/>
     <path d="M 44.28125 53.078125 
L 44.28125 44.578125 
Q 40.484375 46.53125 36.375 47.5 
Q 32.28125 48.484375 27.875 48.484375 
Q 21.1875 48.484375 17.84375 46.4375 
Q 14.5 44.390625 14.5 40.28125 
Q 14.5 37.15625 16.890625 35.375 
Q 19.28125 33.59375 26.515625 31.984375 
L 29.59375 31.296875 
Q 39.15625 29.25 43.1875 25.515625 
Q 47.21875 21.78125 47.21875 15.09375 
Q 47.21875 7.46875 41.1875 3.015625 
Q 35.15625 -1.421875 24.609375 -1.421875 
Q 20.21875 -1.421875 15.453125 -0.5625 
Q 10.6875 0.296875 5.421875 2 
L 5.421875 11.28125 
Q 10.40625 8.6875 15.234375 7.390625 
Q 20.0625 6.109375 24.8125 6.109375 
Q 31.15625 6.109375 34.5625 8.28125 
Q 37.984375 10.453125 37.984375 14.40625 
Q 37.984375 18.0625 35.515625 20.015625 
Q 33.0625 21.96875 24.703125 23.78125 
L 21.578125 24.515625 
Q 13.234375 26.265625 9.515625 29.90625 
Q 5.8125 33.546875 5.8125 39.890625 
Q 5.8125 47.609375 11.28125 51.796875 
Q 16.75 56 26.8125 56 
Q 31.78125 56 36.171875 55.265625 
Q 40.578125 54.546875 44.28125 53.078125 
z
" id="DejaVuSans-73"/>
     <path d="M 56.203125 29.59375 
L 56.203125 25.203125 
L 14.890625 25.203125 
Q 15.484375 15.921875 20.484375 11.0625 
Q 25.484375 6.203125 34.421875 6.203125 
Q 39.59375 6.203125 44.453125 7.46875 
Q 49.3125 8.734375 54.109375 11.28125 
L 54.109375 2.78125 
Q 49.265625 0.734375 44.1875 -0.34375 
Q 39.109375 -1.421875 33.890625 -1.421875 
Q 20.796875 -1.421875 13.15625 6.1875 
Q 5.515625 13.8125 5.515625 26.8125 
Q 5.515625 40.234375 12.765625 48.109375 
Q 20.015625 56 32.328125 56 
Q 43.359375 56 49.78125 48.890625 
Q 56.203125 41.796875 56.203125 29.59375 
z
M 47.21875 32.234375 
Q 47.125 39.59375 43.09375 43.984375 
Q 39.0625 48.390625 32.421875 48.390625 
Q 24.90625 48.390625 20.390625 44.140625 
Q 15.875 39.890625 15.1875 32.171875 
z
" id="DejaVuSans-65"/>
    </defs>
    <g transform="translate(149.780625 35.472)scale(0.12 -0.12)">
     <use xlink:href="#DejaVuSans-50"/>
     <use x="60.302734" xlink:href="#DejaVuSans-6c"/>
     <use x="88.085938" xlink:href="#DejaVuSans-6f"/>
     <use x="149.267578" xlink:href="#DejaVuSans-74"/>
     <use x="188.476562" xlink:href="#DejaVuSans-20"/>
     <use x="220.263672" xlink:href="#DejaVuSans-6f"/>
     <use x="281.445312" xlink:href="#DejaVuSans-66"/>
     <use x="316.650391" xlink:href="#DejaVuSans-20"/>
     <use x="348.4375" xlink:href="#DejaVuSans-54"/>
     <use x="409.302734" xlink:href="#DejaVuSans-72"/>
     <use x="450.416016" xlink:href="#DejaVuSans-61"/>
     <use x="511.695312" xlink:href="#DejaVuSans-69"/>
     <use x="539.478516" xlink:href="#DejaVuSans-6e"/>
     <use x="602.857422" xlink:href="#DejaVuSans-20"/>
     <use x="634.644531" xlink:href="#DejaVuSans-44"/>
     <use x="711.646484" xlink:href="#DejaVuSans-61"/>
     <use x="772.925781" xlink:href="#DejaVuSans-74"/>
     <use x="812.134766" xlink:href="#DejaVuSans-61"/>
     <use x="873.414062" xlink:href="#DejaVuSans-20"/>
     <use x="905.201172" xlink:href="#DejaVuSans-66"/>
     <use x="940.40625" xlink:href="#DejaVuSans-6f"/>
     <use x="1001.587891" xlink:href="#DejaVuSans-72"/>
     <use x="1042.701172" xlink:href="#DejaVuSans-20"/>
     <use x="1074.488281" xlink:href="#DejaVuSans-52"/>
     <use x="1143.908203" xlink:href="#DejaVuSans-6f"/>
     <use x="1205.089844" xlink:href="#DejaVuSans-73"/>
     <use x="1257.189453" xlink:href="#DejaVuSans-73"/>
     <use x="1309.289062" xlink:href="#DejaVuSans-6c"/>
     <use x="1337.072266" xlink:href="#DejaVuSans-65"/>
     <use x="1398.595703" xlink:href="#DejaVuSans-72"/>
    </g>
   </g>
   <g id="legend_1">
    <g id="patch_7">
     <path d="M 277.843437 108.1845 
L 407.72 108.1845 
Q 409.72 108.1845 409.72 106.1845 
L 409.72 48.472 
Q 409.72 46.472 407.72 46.472 
L 277.843437 46.472 
Q 275.843437 46.472 275.843437 48.472 
L 275.843437 106.1845 
Q 275.843437 108.1845 277.843437 108.1845 
z
" style="fill:#ffffff;opacity:0.8;stroke:#cccccc;stroke-linejoin:miter;"/>
    </g>
    <g id="line2d_17">
     <path d="M 279.843437 54.570438 
L 299.843437 54.570438 
" style="fill:none;opacity:0.4;stroke:#1f77b4;stroke-linecap:square;stroke-width:1.5;"/>
    </g>
    <g id="line2d_18"/>
    <g id="text_14">
     <!-- pred. (mean) -->
     <defs>
      <path d="M 18.109375 8.203125 
L 18.109375 -20.796875 
L 9.078125 -20.796875 
L 9.078125 54.6875 
L 18.109375 54.6875 
L 18.109375 46.390625 
Q 20.953125 51.265625 25.265625 53.625 
Q 29.59375 56 35.59375 56 
Q 45.5625 56 51.78125 48.09375 
Q 58.015625 40.1875 58.015625 27.296875 
Q 58.015625 14.40625 51.78125 6.484375 
Q 45.5625 -1.421875 35.59375 -1.421875 
Q 29.59375 -1.421875 25.265625 0.953125 
Q 20.953125 3.328125 18.109375 8.203125 
z
M 48.6875 27.296875 
Q 48.6875 37.203125 44.609375 42.84375 
Q 40.53125 48.484375 33.40625 48.484375 
Q 26.265625 48.484375 22.1875 42.84375 
Q 18.109375 37.203125 18.109375 27.296875 
Q 18.109375 17.390625 22.1875 11.75 
Q 26.265625 6.109375 33.40625 6.109375 
Q 40.53125 6.109375 44.609375 11.75 
Q 48.6875 17.390625 48.6875 27.296875 
z
" id="DejaVuSans-70"/>
      <path d="M 45.40625 46.390625 
L 45.40625 75.984375 
L 54.390625 75.984375 
L 54.390625 0 
L 45.40625 0 
L 45.40625 8.203125 
Q 42.578125 3.328125 38.25 0.953125 
Q 33.9375 -1.421875 27.875 -1.421875 
Q 17.96875 -1.421875 11.734375 6.484375 
Q 5.515625 14.40625 5.515625 27.296875 
Q 5.515625 40.1875 11.734375 48.09375 
Q 17.96875 56 27.875 56 
Q 33.9375 56 38.25 53.625 
Q 42.578125 51.265625 45.40625 46.390625 
z
M 14.796875 27.296875 
Q 14.796875 17.390625 18.875 11.75 
Q 22.953125 6.109375 30.078125 6.109375 
Q 37.203125 6.109375 41.296875 11.75 
Q 45.40625 17.390625 45.40625 27.296875 
Q 45.40625 37.203125 41.296875 42.84375 
Q 37.203125 48.484375 30.078125 48.484375 
Q 22.953125 48.484375 18.875 42.84375 
Q 14.796875 37.203125 14.796875 27.296875 
z
" id="DejaVuSans-64"/>
      <path d="M 31 75.875 
Q 24.46875 64.65625 21.28125 53.65625 
Q 18.109375 42.671875 18.109375 31.390625 
Q 18.109375 20.125 21.3125 9.0625 
Q 24.515625 -2 31 -13.1875 
L 23.1875 -13.1875 
Q 15.875 -1.703125 12.234375 9.375 
Q 8.59375 20.453125 8.59375 31.390625 
Q 8.59375 42.28125 12.203125 53.3125 
Q 15.828125 64.359375 23.1875 75.875 
z
" id="DejaVuSans-28"/>
      <path d="M 52 44.1875 
Q 55.375 50.25 60.0625 53.125 
Q 64.75 56 71.09375 56 
Q 79.640625 56 84.28125 50.015625 
Q 88.921875 44.046875 88.921875 33.015625 
L 88.921875 0 
L 79.890625 0 
L 79.890625 32.71875 
Q 79.890625 40.578125 77.09375 44.375 
Q 74.3125 48.1875 68.609375 48.1875 
Q 61.625 48.1875 57.5625 43.546875 
Q 53.515625 38.921875 53.515625 30.90625 
L 53.515625 0 
L 44.484375 0 
L 44.484375 32.71875 
Q 44.484375 40.625 41.703125 44.40625 
Q 38.921875 48.1875 33.109375 48.1875 
Q 26.21875 48.1875 22.15625 43.53125 
Q 18.109375 38.875 18.109375 30.90625 
L 18.109375 0 
L 9.078125 0 
L 9.078125 54.6875 
L 18.109375 54.6875 
L 18.109375 46.1875 
Q 21.1875 51.21875 25.484375 53.609375 
Q 29.78125 56 35.6875 56 
Q 41.65625 56 45.828125 52.96875 
Q 50 49.953125 52 44.1875 
z
" id="DejaVuSans-6d"/>
      <path d="M 8.015625 75.875 
L 15.828125 75.875 
Q 23.140625 64.359375 26.78125 53.3125 
Q 30.421875 42.28125 30.421875 31.390625 
Q 30.421875 20.453125 26.78125 9.375 
Q 23.140625 -1.703125 15.828125 -13.1875 
L 8.015625 -13.1875 
Q 14.5 -2 17.703125 9.0625 
Q 20.90625 20.125 20.90625 31.390625 
Q 20.90625 42.671875 17.703125 53.65625 
Q 14.5 64.65625 8.015625 75.875 
z
" id="DejaVuSans-29"/>
     </defs>
     <g transform="translate(307.843437 58.070438)scale(0.1 -0.1)">
      <use xlink:href="#DejaVuSans-70"/>
      <use x="63.476562" xlink:href="#DejaVuSans-72"/>
      <use x="104.558594" xlink:href="#DejaVuSans-65"/>
      <use x="166.082031" xlink:href="#DejaVuSans-64"/>
      <use x="229.558594" xlink:href="#DejaVuSans-2e"/>
      <use x="261.345703" xlink:href="#DejaVuSans-20"/>
      <use x="293.132812" xlink:href="#DejaVuSans-28"/>
      <use x="332.146484" xlink:href="#DejaVuSans-6d"/>
      <use x="429.558594" xlink:href="#DejaVuSans-65"/>
      <use x="491.082031" xlink:href="#DejaVuSans-61"/>
      <use x="552.361328" xlink:href="#DejaVuSans-6e"/>
      <use x="615.740234" xlink:href="#DejaVuSans-29"/>
     </g>
    </g>
    <g id="line2d_19">
     <path d="M 279.843437 69.248563 
L 299.843437 69.248563 
" style="fill:none;opacity:0.4;stroke:#ff7f0e;stroke-linecap:square;stroke-width:1.5;"/>
    </g>
    <g id="line2d_20"/>
    <g id="text_15">
     <!-- pred.(5th percen.) -->
     <defs>
      <path d="M 54.890625 33.015625 
L 54.890625 0 
L 45.90625 0 
L 45.90625 32.71875 
Q 45.90625 40.484375 42.875 44.328125 
Q 39.84375 48.1875 33.796875 48.1875 
Q 26.515625 48.1875 22.3125 43.546875 
Q 18.109375 38.921875 18.109375 30.90625 
L 18.109375 0 
L 9.078125 0 
L 9.078125 75.984375 
L 18.109375 75.984375 
L 18.109375 46.1875 
Q 21.34375 51.125 25.703125 53.5625 
Q 30.078125 56 35.796875 56 
Q 45.21875 56 50.046875 50.171875 
Q 54.890625 44.34375 54.890625 33.015625 
z
" id="DejaVuSans-68"/>
      <path d="M 48.78125 52.59375 
L 48.78125 44.1875 
Q 44.96875 46.296875 41.140625 47.34375 
Q 37.3125 48.390625 33.40625 48.390625 
Q 24.65625 48.390625 19.8125 42.84375 
Q 14.984375 37.3125 14.984375 27.296875 
Q 14.984375 17.28125 19.8125 11.734375 
Q 24.65625 6.203125 33.40625 6.203125 
Q 37.3125 6.203125 41.140625 7.25 
Q 44.96875 8.296875 48.78125 10.40625 
L 48.78125 2.09375 
Q 45.015625 0.34375 40.984375 -0.53125 
Q 36.96875 -1.421875 32.421875 -1.421875 
Q 20.0625 -1.421875 12.78125 6.34375 
Q 5.515625 14.109375 5.515625 27.296875 
Q 5.515625 40.671875 12.859375 48.328125 
Q 20.21875 56 33.015625 56 
Q 37.15625 56 41.109375 55.140625 
Q 45.0625 54.296875 48.78125 52.59375 
z
" id="DejaVuSans-63"/>
     </defs>
     <g transform="translate(307.843437 72.748563)scale(0.1 -0.1)">
      <use xlink:href="#DejaVuSans-70"/>
      <use x="63.476562" xlink:href="#DejaVuSans-72"/>
      <use x="104.558594" xlink:href="#DejaVuSans-65"/>
      <use x="166.082031" xlink:href="#DejaVuSans-64"/>
      <use x="229.558594" xlink:href="#DejaVuSans-2e"/>
      <use x="261.345703" xlink:href="#DejaVuSans-28"/>
      <use x="300.359375" xlink:href="#DejaVuSans-35"/>
      <use x="363.982422" xlink:href="#DejaVuSans-74"/>
      <use x="403.191406" xlink:href="#DejaVuSans-68"/>
      <use x="466.570312" xlink:href="#DejaVuSans-20"/>
      <use x="498.357422" xlink:href="#DejaVuSans-70"/>
      <use x="561.833984" xlink:href="#DejaVuSans-65"/>
      <use x="623.357422" xlink:href="#DejaVuSans-72"/>
      <use x="664.439453" xlink:href="#DejaVuSans-63"/>
      <use x="719.419922" xlink:href="#DejaVuSans-65"/>
      <use x="780.943359" xlink:href="#DejaVuSans-6e"/>
      <use x="844.322266" xlink:href="#DejaVuSans-2e"/>
      <use x="876.109375" xlink:href="#DejaVuSans-29"/>
     </g>
    </g>
    <g id="line2d_21">
     <path d="M 279.843437 83.926688 
L 299.843437 83.926688 
" style="fill:none;opacity:0.4;stroke:#2ca02c;stroke-linecap:square;stroke-width:1.5;"/>
    </g>
    <g id="line2d_22"/>
    <g id="text_16">
     <!-- pred.(95th percen.) -->
     <defs>
      <path d="M 10.984375 1.515625 
L 10.984375 10.5 
Q 14.703125 8.734375 18.5 7.8125 
Q 22.3125 6.890625 25.984375 6.890625 
Q 35.75 6.890625 40.890625 13.453125 
Q 46.046875 20.015625 46.78125 33.40625 
Q 43.953125 29.203125 39.59375 26.953125 
Q 35.25 24.703125 29.984375 24.703125 
Q 19.046875 24.703125 12.671875 31.3125 
Q 6.296875 37.9375 6.296875 49.421875 
Q 6.296875 60.640625 12.9375 67.421875 
Q 19.578125 74.21875 30.609375 74.21875 
Q 43.265625 74.21875 49.921875 64.515625 
Q 56.59375 54.828125 56.59375 36.375 
Q 56.59375 19.140625 48.40625 8.859375 
Q 40.234375 -1.421875 26.421875 -1.421875 
Q 22.703125 -1.421875 18.890625 -0.6875 
Q 15.09375 0.046875 10.984375 1.515625 
z
M 30.609375 32.421875 
Q 37.25 32.421875 41.125 36.953125 
Q 45.015625 41.5 45.015625 49.421875 
Q 45.015625 57.28125 41.125 61.84375 
Q 37.25 66.40625 30.609375 66.40625 
Q 23.96875 66.40625 20.09375 61.84375 
Q 16.21875 57.28125 16.21875 49.421875 
Q 16.21875 41.5 20.09375 36.953125 
Q 23.96875 32.421875 30.609375 32.421875 
z
" id="DejaVuSans-39"/>
     </defs>
     <g transform="translate(307.843437 87.426688)scale(0.1 -0.1)">
      <use xlink:href="#DejaVuSans-70"/>
      <use x="63.476562" xlink:href="#DejaVuSans-72"/>
      <use x="104.558594" xlink:href="#DejaVuSans-65"/>
      <use x="166.082031" xlink:href="#DejaVuSans-64"/>
      <use x="229.558594" xlink:href="#DejaVuSans-2e"/>
      <use x="261.345703" xlink:href="#DejaVuSans-28"/>
      <use x="300.359375" xlink:href="#DejaVuSans-39"/>
      <use x="363.982422" xlink:href="#DejaVuSans-35"/>
      <use x="427.605469" xlink:href="#DejaVuSans-74"/>
      <use x="466.814453" xlink:href="#DejaVuSans-68"/>
      <use x="530.193359" xlink:href="#DejaVuSans-20"/>
      <use x="561.980469" xlink:href="#DejaVuSans-70"/>
      <use x="625.457031" xlink:href="#DejaVuSans-65"/>
      <use x="686.980469" xlink:href="#DejaVuSans-72"/>
      <use x="728.0625" xlink:href="#DejaVuSans-63"/>
      <use x="783.042969" xlink:href="#DejaVuSans-65"/>
      <use x="844.566406" xlink:href="#DejaVuSans-6e"/>
      <use x="907.945312" xlink:href="#DejaVuSans-2e"/>
      <use x="939.732422" xlink:href="#DejaVuSans-29"/>
     </g>
    </g>
    <g id="line2d_23">
     <path d="M 279.843437 98.604813 
L 299.843437 98.604813 
" style="fill:none;stroke:#000000;stroke-linecap:square;stroke-width:1.5;"/>
    </g>
    <g id="line2d_24"/>
    <g id="text_17">
     <!-- actual -->
     <defs>
      <path d="M 8.5 21.578125 
L 8.5 54.6875 
L 17.484375 54.6875 
L 17.484375 21.921875 
Q 17.484375 14.15625 20.5 10.265625 
Q 23.53125 6.390625 29.59375 6.390625 
Q 36.859375 6.390625 41.078125 11.03125 
Q 45.3125 15.671875 45.3125 23.6875 
L 45.3125 54.6875 
L 54.296875 54.6875 
L 54.296875 0 
L 45.3125 0 
L 45.3125 8.40625 
Q 42.046875 3.421875 37.71875 1 
Q 33.40625 -1.421875 27.6875 -1.421875 
Q 18.265625 -1.421875 13.375 4.4375 
Q 8.5 10.296875 8.5 21.578125 
z
M 31.109375 56 
z
" id="DejaVuSans-75"/>
     </defs>
     <g transform="translate(307.843437 102.104813)scale(0.1 -0.1)">
      <use xlink:href="#DejaVuSans-61"/>
      <use x="61.279297" xlink:href="#DejaVuSans-63"/>
      <use x="116.259766" xlink:href="#DejaVuSans-74"/>
      <use x="155.46875" xlink:href="#DejaVuSans-75"/>
      <use x="218.847656" xlink:href="#DejaVuSans-61"/>
      <use x="280.126953" xlink:href="#DejaVuSans-6c"/>
     </g>
    </g>
   </g>
  </g>
 </g>
 <defs>
  <clipPath id="pf83bb0691b">
   <rect height="266.112" width="357.12" x="57.6" y="41.472"/>
  </clipPath>
 </defs>
</svg>
