<?xml version="1.0" encoding="utf-8" standalone="no"?>
<!DOCTYPE svg PUBLIC "-//W3C//DTD SVG 1.1//EN"
  "http://www.w3.org/Graphics/SVG/1.1/DTD/svg11.dtd">
<!-- Created with matplotlib (http://matplotlib.org/) -->
<svg height="345pt" version="1.1" viewBox="0 0 460 345" width="460pt" xmlns="http://www.w3.org/2000/svg" xmlns:xlink="http://www.w3.org/1999/xlink">
 <defs>
  <style type="text/css">
*{stroke-linecap:butt;stroke-linejoin:round;}
  </style>
 </defs>
 <g id="figure_1">
  <g id="patch_1">
   <path d="M 0 345.6 
L 460.8 345.6 
L 460.8 0 
L 0 0 
z
" style="fill:#ffffff;"/>
  </g>
  <g id="axes_1">
   <g id="patch_2">
    <path d="M 57.6 307.584 
L 414.72 307.584 
L 414.72 41.472 
L 57.6 41.472 
z
" style="fill:#ffffff;"/>
   </g>
   <g id="PolyCollection_1">
    <path clip-path="url(#pea5fc70d37)" d="M 73.832727 134.700841 
L 73.832727 142.222721 
L 75.677355 142.026573 
L 77.521983 142.100992 
L 79.366612 141.550002 
L 81.21124 138.977471 
L 83.055868 138.590395 
L 84.900496 139.18971 
L 86.745124 139.273939 
L 88.589752 139.818019 
L 90.43438 139.983626 
L 92.279008 140.477788 
L 94.123636 141.592044 
L 95.968264 140.216548 
L 97.812893 141.034577 
L 99.657521 141.824289 
L 101.502149 142.233594 
L 103.346777 145.05625 
L 105.191405 147.065032 
L 107.036033 147.776604 
L 108.880661 146.998538 
L 110.725289 146.744499 
L 112.569917 144.880978 
L 114.414545 144.302008 
L 116.259174 144.850293 
L 118.103802 143.256469 
L 119.94843 140.061621 
L 121.793058 140.25482 
L 123.637686 114.370382 
L 125.482314 113.191227 
L 127.326942 103.659453 
L 129.17157 104.784147 
L 131.016198 103.540238 
L 132.860826 107.966479 
L 134.705455 109.076579 
L 136.550083 108.933298 
L 138.394711 105.606091 
L 140.239339 94.674031 
L 142.083967 94.261489 
L 143.928595 89.357467 
L 145.773223 87.919489 
L 147.617851 82.402235 
L 149.462479 86.790542 
L 151.307107 92.519648 
L 153.151736 91.987552 
L 154.996364 87.898709 
L 156.840992 87.312732 
L 158.68562 86.004986 
L 160.530248 113.62421 
L 162.374876 118.163578 
L 164.219504 128.132781 
L 166.064132 116.719994 
L 167.90876 116.516163 
L 169.753388 117.097163 
L 171.598017 117.097163 
L 173.442645 117.097163 
L 175.287273 117.097163 
L 177.131901 117.097163 
L 178.976529 117.097163 
L 180.821157 117.097163 
L 182.665785 117.097163 
L 184.510413 117.097163 
L 186.355041 117.097163 
L 188.199669 117.097163 
L 190.044298 117.097163 
L 191.888926 117.097163 
L 193.733554 117.097163 
L 195.578182 117.097163 
L 197.42281 117.097163 
L 199.267438 117.097163 
L 201.112066 117.097163 
L 202.956694 117.097163 
L 204.801322 117.097163 
L 206.64595 117.097163 
L 208.490579 182.255475 
L 210.335207 185.043772 
L 212.179835 170.384672 
L 214.024463 166.935833 
L 215.869091 167.101971 
L 217.713719 169.514597 
L 219.558347 168.057192 
L 221.402975 168.056323 
L 223.247603 167.970209 
L 225.092231 170.987998 
L 226.93686 171.605482 
L 228.781488 173.511479 
L 230.626116 176.888799 
L 232.470744 179.36299 
L 234.315372 180.326717 
L 236.16 182.873829 
L 238.004628 186.691042 
L 239.849256 187.099139 
L 241.693884 187.833423 
L 243.538512 191.79643 
L 245.38314 197.570284 
L 247.227769 201.74408 
L 249.072397 202.480152 
L 250.917025 207.484204 
L 252.761653 207.571381 
L 254.606281 205.959194 
L 256.450909 206.551018 
L 258.295537 207.205326 
L 260.140165 208.510462 
L 261.984793 208.394001 
L 263.829421 206.603402 
L 265.67405 205.411296 
L 267.518678 205.538436 
L 269.363306 204.865331 
L 271.207934 203.959835 
L 273.052562 203.788139 
L 274.89719 203.177033 
L 276.741818 203.696952 
L 278.586446 204.619845 
L 280.431074 204.877508 
L 282.275702 203.425516 
L 284.120331 200.148855 
L 285.964959 199.744963 
L 287.809587 199.170631 
L 289.654215 197.830074 
L 291.498843 195.684824 
L 293.343471 194.610146 
L 295.188099 194.45691 
L 297.032727 192.838103 
L 298.877355 190.444951 
L 300.721983 189.164799 
L 302.566612 187.648293 
L 304.41124 184.938716 
L 306.255868 182.430553 
L 308.100496 179.574408 
L 309.945124 174.494294 
L 311.789752 166.489995 
L 313.63438 161.641257 
L 315.479008 162.158179 
L 317.323636 165.247922 
L 319.168264 171.902579 
L 321.012893 174.990147 
L 322.857521 176.673419 
L 324.702149 179.993522 
L 326.546777 181.754741 
L 328.391405 184.104256 
L 330.236033 185.039761 
L 332.080661 184.919193 
L 333.925289 191.829918 
L 335.769917 199.726745 
L 337.614545 201.61404 
L 339.459174 201.52237 
L 341.303802 202.694953 
L 343.14843 203.275614 
L 344.993058 203.962492 
L 346.837686 206.883585 
L 348.682314 229.745209 
L 350.526942 237.196198 
L 352.37157 237.267572 
L 354.216198 226.845331 
L 356.060826 226.429696 
L 357.905455 226.239348 
L 359.750083 222.509456 
L 361.594711 217.888952 
L 363.439339 212.659855 
L 365.283967 212.280656 
L 367.128595 214.59156 
L 368.973223 204.869293 
L 370.817851 204.888236 
L 372.662479 206.652257 
L 374.507107 210.251143 
L 376.351736 219.058297 
L 378.196364 221.772949 
L 380.040992 223.948691 
L 381.88562 217.215411 
L 383.730248 216.396415 
L 385.574876 210.887425 
L 387.419504 210.974167 
L 389.264132 213.585889 
L 391.10876 244.116491 
L 392.953388 259.314308 
L 394.798017 278.532154 
L 396.642645 295.488 
L 398.487273 289.195726 
L 398.487273 276.589672 
L 398.487273 276.589672 
L 396.642645 277.768634 
L 394.798017 264.473045 
L 392.953388 251.644557 
L 391.10876 216.145275 
L 389.264132 212.443363 
L 387.419504 202.713364 
L 385.574876 203.520811 
L 383.730248 209.392956 
L 381.88562 215.587954 
L 380.040992 217.060919 
L 378.196364 220.36469 
L 376.351736 209.796317 
L 374.507107 207.611635 
L 372.662479 203.823561 
L 370.817851 197.379839 
L 368.973223 200.386609 
L 367.128595 204.037008 
L 365.283967 209.662894 
L 363.439339 209.134422 
L 361.594711 210.786331 
L 359.750083 215.820441 
L 357.905455 219.002773 
L 356.060826 221.785658 
L 354.216198 225.896778 
L 352.37157 227.015287 
L 350.526942 231.993292 
L 348.682314 205.389453 
L 346.837686 200.08671 
L 344.993058 200.719321 
L 343.14843 198.587215 
L 341.303802 195.788045 
L 339.459174 198.041733 
L 337.614545 197.00784 
L 335.769917 186.987607 
L 333.925289 177.885627 
L 332.080661 178.32238 
L 330.236033 177.572681 
L 328.391405 174.94709 
L 326.546777 172.127865 
L 324.702149 168.672647 
L 322.857521 167.509729 
L 321.012893 164.98359 
L 319.168264 158.860304 
L 317.323636 156.645275 
L 315.479008 154.158326 
L 313.63438 154.227671 
L 311.789752 158.875913 
L 309.945124 165.941662 
L 308.100496 172.857993 
L 306.255868 175.975088 
L 304.41124 178.919472 
L 302.566612 181.976983 
L 300.721983 183.510885 
L 298.877355 185.06286 
L 297.032727 187.994439 
L 295.188099 189.808089 
L 293.343471 189.868252 
L 291.498843 191.083843 
L 289.654215 193.976714 
L 287.809587 195.361633 
L 285.964959 195.742427 
L 284.120331 196.06499 
L 282.275702 199.444291 
L 280.431074 202.00793 
L 278.586446 201.611527 
L 276.741818 200.334178 
L 274.89719 199.951258 
L 273.052562 200.602376 
L 271.207934 200.894544 
L 269.363306 202.126227 
L 267.518678 202.657115 
L 265.67405 202.246844 
L 263.829421 203.917793 
L 261.984793 205.713176 
L 260.140165 206.604658 
L 258.295537 203.401982 
L 256.450909 203.60185 
L 254.606281 201.37126 
L 252.761653 204.146414 
L 250.917025 198.29355 
L 249.072397 198.554162 
L 247.227769 194.240467 
L 245.38314 186.512533 
L 243.538512 181.434546 
L 241.693884 181.107875 
L 239.849256 180.788501 
L 238.004628 175.95687 
L 236.16 173.094733 
L 234.315372 172.729596 
L 232.470744 169.571281 
L 230.626116 166.126792 
L 228.781488 164.167735 
L 226.93686 163.906157 
L 225.092231 160.022884 
L 223.247603 159.955569 
L 221.402975 160.157805 
L 219.558347 160.062123 
L 217.713719 163.664101 
L 215.869091 150.143274 
L 214.024463 154.92518 
L 212.179835 163.601715 
L 210.335207 169.826481 
L 208.490579 116.009002 
L 206.64595 115.974644 
L 204.801322 115.974644 
L 202.956694 115.974644 
L 201.112066 115.974644 
L 199.267438 115.974644 
L 197.42281 115.974644 
L 195.578182 115.974644 
L 193.733554 115.974644 
L 191.888926 115.974644 
L 190.044298 115.974644 
L 188.199669 115.974644 
L 186.355041 115.974644 
L 184.510413 115.974644 
L 182.665785 115.974644 
L 180.821157 115.974644 
L 178.976529 115.974644 
L 177.131901 115.974644 
L 175.287273 115.974644 
L 173.442645 115.974644 
L 171.598017 115.974644 
L 169.753388 115.974644 
L 167.90876 110.215093 
L 166.064132 114.810711 
L 164.219504 117.020666 
L 162.374876 115.686294 
L 160.530248 68.843039 
L 158.68562 58.072478 
L 156.840992 64.332617 
L 154.996364 69.765303 
L 153.151736 71.579533 
L 151.307107 75.212583 
L 149.462479 69.558283 
L 147.617851 63.014965 
L 145.773223 55.185503 
L 143.928595 66.904471 
L 142.083967 70.143632 
L 140.239339 80.293954 
L 138.394711 84.622677 
L 136.550083 103.060621 
L 134.705455 106.680189 
L 132.860826 102.455218 
L 131.016198 95.978345 
L 129.17157 89.421593 
L 127.326942 94.181319 
L 125.482314 96.252536 
L 123.637686 111.416429 
L 121.793058 114.196802 
L 119.94843 133.136446 
L 118.103802 136.000758 
L 116.259174 137.3158 
L 114.414545 137.059779 
L 112.569917 137.231233 
L 110.725289 138.72377 
L 108.880661 138.734691 
L 107.036033 139.766748 
L 105.191405 138.90339 
L 103.346777 136.007378 
L 101.502149 133.287797 
L 99.657521 134.32111 
L 97.812893 134.062432 
L 95.968264 133.122626 
L 94.123636 134.248479 
L 92.279008 133.321238 
L 90.43438 132.95929 
L 88.589752 132.885016 
L 86.745124 132.680171 
L 84.900496 132.465032 
L 83.055868 132.224088 
L 81.21124 132.314986 
L 79.366612 134.376925 
L 77.521983 134.756558 
L 75.677355 134.742593 
L 73.832727 134.700841 
z
" style="fill:#008000;fill-opacity:0.4;"/>
   </g>
   <g id="matplotlib.axis_1">
    <g id="xtick_1">
     <g id="line2d_1">
      <defs>
       <path d="M 0 0 
L 0 3.5 
" id="mfb6f0013d7" style="stroke:#000000;stroke-width:0.8;"/>
      </defs>
      <g>
       <use style="stroke:#000000;stroke-width:0.8;" x="73.832727" xlink:href="#mfb6f0013d7" y="307.584"/>
      </g>
     </g>
     <g id="text_1">
      <!-- 0 -->
      <defs>
       <path d="M 31.78125 66.40625 
Q 24.171875 66.40625 20.328125 58.90625 
Q 16.5 51.421875 16.5 36.375 
Q 16.5 21.390625 20.328125 13.890625 
Q 24.171875 6.390625 31.78125 6.390625 
Q 39.453125 6.390625 43.28125 13.890625 
Q 47.125 21.390625 47.125 36.375 
Q 47.125 51.421875 43.28125 58.90625 
Q 39.453125 66.40625 31.78125 66.40625 
z
M 31.78125 74.21875 
Q 44.046875 74.21875 50.515625 64.515625 
Q 56.984375 54.828125 56.984375 36.375 
Q 56.984375 17.96875 50.515625 8.265625 
Q 44.046875 -1.421875 31.78125 -1.421875 
Q 19.53125 -1.421875 13.0625 8.265625 
Q 6.59375 17.96875 6.59375 36.375 
Q 6.59375 54.828125 13.0625 64.515625 
Q 19.53125 74.21875 31.78125 74.21875 
z
" id="DejaVuSans-30"/>
      </defs>
      <g transform="translate(70.651477 322.182437)scale(0.1 -0.1)">
       <use xlink:href="#DejaVuSans-30"/>
      </g>
     </g>
    </g>
    <g id="xtick_2">
     <g id="line2d_2">
      <g>
       <use style="stroke:#000000;stroke-width:0.8;" x="119.94843" xlink:href="#mfb6f0013d7" y="307.584"/>
      </g>
     </g>
     <g id="text_2">
      <!-- 25 -->
      <defs>
       <path d="M 19.1875 8.296875 
L 53.609375 8.296875 
L 53.609375 0 
L 7.328125 0 
L 7.328125 8.296875 
Q 12.9375 14.109375 22.625 23.890625 
Q 32.328125 33.6875 34.8125 36.53125 
Q 39.546875 41.84375 41.421875 45.53125 
Q 43.3125 49.21875 43.3125 52.78125 
Q 43.3125 58.59375 39.234375 62.25 
Q 35.15625 65.921875 28.609375 65.921875 
Q 23.96875 65.921875 18.8125 64.3125 
Q 13.671875 62.703125 7.8125 59.421875 
L 7.8125 69.390625 
Q 13.765625 71.78125 18.9375 73 
Q 24.125 74.21875 28.421875 74.21875 
Q 39.75 74.21875 46.484375 68.546875 
Q 53.21875 62.890625 53.21875 53.421875 
Q 53.21875 48.921875 51.53125 44.890625 
Q 49.859375 40.875 45.40625 35.40625 
Q 44.1875 33.984375 37.640625 27.21875 
Q 31.109375 20.453125 19.1875 8.296875 
z
" id="DejaVuSans-32"/>
       <path d="M 10.796875 72.90625 
L 49.515625 72.90625 
L 49.515625 64.59375 
L 19.828125 64.59375 
L 19.828125 46.734375 
Q 21.96875 47.46875 24.109375 47.828125 
Q 26.265625 48.1875 28.421875 48.1875 
Q 40.625 48.1875 47.75 41.5 
Q 54.890625 34.8125 54.890625 23.390625 
Q 54.890625 11.625 47.5625 5.09375 
Q 40.234375 -1.421875 26.90625 -1.421875 
Q 22.3125 -1.421875 17.546875 -0.640625 
Q 12.796875 0.140625 7.71875 1.703125 
L 7.71875 11.625 
Q 12.109375 9.234375 16.796875 8.0625 
Q 21.484375 6.890625 26.703125 6.890625 
Q 35.15625 6.890625 40.078125 11.328125 
Q 45.015625 15.765625 45.015625 23.390625 
Q 45.015625 31 40.078125 35.4375 
Q 35.15625 39.890625 26.703125 39.890625 
Q 22.75 39.890625 18.8125 39.015625 
Q 14.890625 38.140625 10.796875 36.28125 
z
" id="DejaVuSans-35"/>
      </defs>
      <g transform="translate(113.58593 322.182437)scale(0.1 -0.1)">
       <use xlink:href="#DejaVuSans-32"/>
       <use x="63.623047" xlink:href="#DejaVuSans-35"/>
      </g>
     </g>
    </g>
    <g id="xtick_3">
     <g id="line2d_3">
      <g>
       <use style="stroke:#000000;stroke-width:0.8;" x="166.064132" xlink:href="#mfb6f0013d7" y="307.584"/>
      </g>
     </g>
     <g id="text_3">
      <!-- 50 -->
      <g transform="translate(159.701632 322.182437)scale(0.1 -0.1)">
       <use xlink:href="#DejaVuSans-35"/>
       <use x="63.623047" xlink:href="#DejaVuSans-30"/>
      </g>
     </g>
    </g>
    <g id="xtick_4">
     <g id="line2d_4">
      <g>
       <use style="stroke:#000000;stroke-width:0.8;" x="212.179835" xlink:href="#mfb6f0013d7" y="307.584"/>
      </g>
     </g>
     <g id="text_4">
      <!-- 75 -->
      <defs>
       <path d="M 8.203125 72.90625 
L 55.078125 72.90625 
L 55.078125 68.703125 
L 28.609375 0 
L 18.3125 0 
L 43.21875 64.59375 
L 8.203125 64.59375 
z
" id="DejaVuSans-37"/>
      </defs>
      <g transform="translate(205.817335 322.182437)scale(0.1 -0.1)">
       <use xlink:href="#DejaVuSans-37"/>
       <use x="63.623047" xlink:href="#DejaVuSans-35"/>
      </g>
     </g>
    </g>
    <g id="xtick_5">
     <g id="line2d_5">
      <g>
       <use style="stroke:#000000;stroke-width:0.8;" x="258.295537" xlink:href="#mfb6f0013d7" y="307.584"/>
      </g>
     </g>
     <g id="text_5">
      <!-- 100 -->
      <defs>
       <path d="M 12.40625 8.296875 
L 28.515625 8.296875 
L 28.515625 63.921875 
L 10.984375 60.40625 
L 10.984375 69.390625 
L 28.421875 72.90625 
L 38.28125 72.90625 
L 38.28125 8.296875 
L 54.390625 8.296875 
L 54.390625 0 
L 12.40625 0 
z
" id="DejaVuSans-31"/>
      </defs>
      <g transform="translate(248.751787 322.182437)scale(0.1 -0.1)">
       <use xlink:href="#DejaVuSans-31"/>
       <use x="63.623047" xlink:href="#DejaVuSans-30"/>
       <use x="127.246094" xlink:href="#DejaVuSans-30"/>
      </g>
     </g>
    </g>
    <g id="xtick_6">
     <g id="line2d_6">
      <g>
       <use style="stroke:#000000;stroke-width:0.8;" x="304.41124" xlink:href="#mfb6f0013d7" y="307.584"/>
      </g>
     </g>
     <g id="text_6">
      <!-- 125 -->
      <g transform="translate(294.86749 322.182437)scale(0.1 -0.1)">
       <use xlink:href="#DejaVuSans-31"/>
       <use x="63.623047" xlink:href="#DejaVuSans-32"/>
       <use x="127.246094" xlink:href="#DejaVuSans-35"/>
      </g>
     </g>
    </g>
    <g id="xtick_7">
     <g id="line2d_7">
      <g>
       <use style="stroke:#000000;stroke-width:0.8;" x="350.526942" xlink:href="#mfb6f0013d7" y="307.584"/>
      </g>
     </g>
     <g id="text_7">
      <!-- 150 -->
      <g transform="translate(340.983192 322.182437)scale(0.1 -0.1)">
       <use xlink:href="#DejaVuSans-31"/>
       <use x="63.623047" xlink:href="#DejaVuSans-35"/>
       <use x="127.246094" xlink:href="#DejaVuSans-30"/>
      </g>
     </g>
    </g>
    <g id="xtick_8">
     <g id="line2d_8">
      <g>
       <use style="stroke:#000000;stroke-width:0.8;" x="396.642645" xlink:href="#mfb6f0013d7" y="307.584"/>
      </g>
     </g>
     <g id="text_8">
      <!-- 175 -->
      <g transform="translate(387.098895 322.182437)scale(0.1 -0.1)">
       <use xlink:href="#DejaVuSans-31"/>
       <use x="63.623047" xlink:href="#DejaVuSans-37"/>
       <use x="127.246094" xlink:href="#DejaVuSans-35"/>
      </g>
     </g>
    </g>
   </g>
   <g id="matplotlib.axis_2">
    <g id="ytick_1">
     <g id="line2d_9">
      <defs>
       <path d="M 0 0 
L -3.5 0 
" id="m8da633ffbd" style="stroke:#000000;stroke-width:0.8;"/>
      </defs>
      <g>
       <use style="stroke:#000000;stroke-width:0.8;" x="57.6" xlink:href="#m8da633ffbd" y="291.236788"/>
      </g>
     </g>
     <g id="text_9">
      <!-- 0.5 -->
      <defs>
       <path d="M 10.6875 12.40625 
L 21 12.40625 
L 21 0 
L 10.6875 0 
z
" id="DejaVuSans-2e"/>
      </defs>
      <g transform="translate(34.696875 295.036007)scale(0.1 -0.1)">
       <use xlink:href="#DejaVuSans-30"/>
       <use x="63.623047" xlink:href="#DejaVuSans-2e"/>
       <use x="95.410156" xlink:href="#DejaVuSans-35"/>
      </g>
     </g>
    </g>
    <g id="ytick_2">
     <g id="line2d_10">
      <g>
       <use style="stroke:#000000;stroke-width:0.8;" x="57.6" xlink:href="#m8da633ffbd" y="242.912739"/>
      </g>
     </g>
     <g id="text_10">
      <!-- 0.6 -->
      <defs>
       <path d="M 33.015625 40.375 
Q 26.375 40.375 22.484375 35.828125 
Q 18.609375 31.296875 18.609375 23.390625 
Q 18.609375 15.53125 22.484375 10.953125 
Q 26.375 6.390625 33.015625 6.390625 
Q 39.65625 6.390625 43.53125 10.953125 
Q 47.40625 15.53125 47.40625 23.390625 
Q 47.40625 31.296875 43.53125 35.828125 
Q 39.65625 40.375 33.015625 40.375 
z
M 52.59375 71.296875 
L 52.59375 62.3125 
Q 48.875 64.0625 45.09375 64.984375 
Q 41.3125 65.921875 37.59375 65.921875 
Q 27.828125 65.921875 22.671875 59.328125 
Q 17.53125 52.734375 16.796875 39.40625 
Q 19.671875 43.65625 24.015625 45.921875 
Q 28.375 48.1875 33.59375 48.1875 
Q 44.578125 48.1875 50.953125 41.515625 
Q 57.328125 34.859375 57.328125 23.390625 
Q 57.328125 12.15625 50.6875 5.359375 
Q 44.046875 -1.421875 33.015625 -1.421875 
Q 20.359375 -1.421875 13.671875 8.265625 
Q 6.984375 17.96875 6.984375 36.375 
Q 6.984375 53.65625 15.1875 63.9375 
Q 23.390625 74.21875 37.203125 74.21875 
Q 40.921875 74.21875 44.703125 73.484375 
Q 48.484375 72.75 52.59375 71.296875 
z
" id="DejaVuSans-36"/>
      </defs>
      <g transform="translate(34.696875 246.711958)scale(0.1 -0.1)">
       <use xlink:href="#DejaVuSans-30"/>
       <use x="63.623047" xlink:href="#DejaVuSans-2e"/>
       <use x="95.410156" xlink:href="#DejaVuSans-36"/>
      </g>
     </g>
    </g>
    <g id="ytick_3">
     <g id="line2d_11">
      <g>
       <use style="stroke:#000000;stroke-width:0.8;" x="57.6" xlink:href="#m8da633ffbd" y="194.58869"/>
      </g>
     </g>
     <g id="text_11">
      <!-- 0.7 -->
      <g transform="translate(34.696875 198.387909)scale(0.1 -0.1)">
       <use xlink:href="#DejaVuSans-30"/>
       <use x="63.623047" xlink:href="#DejaVuSans-2e"/>
       <use x="95.410156" xlink:href="#DejaVuSans-37"/>
      </g>
     </g>
    </g>
    <g id="ytick_4">
     <g id="line2d_12">
      <g>
       <use style="stroke:#000000;stroke-width:0.8;" x="57.6" xlink:href="#m8da633ffbd" y="146.264641"/>
      </g>
     </g>
     <g id="text_12">
      <!-- 0.8 -->
      <defs>
       <path d="M 31.78125 34.625 
Q 24.75 34.625 20.71875 30.859375 
Q 16.703125 27.09375 16.703125 20.515625 
Q 16.703125 13.921875 20.71875 10.15625 
Q 24.75 6.390625 31.78125 6.390625 
Q 38.8125 6.390625 42.859375 10.171875 
Q 46.921875 13.96875 46.921875 20.515625 
Q 46.921875 27.09375 42.890625 30.859375 
Q 38.875 34.625 31.78125 34.625 
z
M 21.921875 38.8125 
Q 15.578125 40.375 12.03125 44.71875 
Q 8.5 49.078125 8.5 55.328125 
Q 8.5 64.0625 14.71875 69.140625 
Q 20.953125 74.21875 31.78125 74.21875 
Q 42.671875 74.21875 48.875 69.140625 
Q 55.078125 64.0625 55.078125 55.328125 
Q 55.078125 49.078125 51.53125 44.71875 
Q 48 40.375 41.703125 38.8125 
Q 48.828125 37.15625 52.796875 32.3125 
Q 56.78125 27.484375 56.78125 20.515625 
Q 56.78125 9.90625 50.3125 4.234375 
Q 43.84375 -1.421875 31.78125 -1.421875 
Q 19.734375 -1.421875 13.25 4.234375 
Q 6.78125 9.90625 6.78125 20.515625 
Q 6.78125 27.484375 10.78125 32.3125 
Q 14.796875 37.15625 21.921875 38.8125 
z
M 18.3125 54.390625 
Q 18.3125 48.734375 21.84375 45.5625 
Q 25.390625 42.390625 31.78125 42.390625 
Q 38.140625 42.390625 41.71875 45.5625 
Q 45.3125 48.734375 45.3125 54.390625 
Q 45.3125 60.0625 41.71875 63.234375 
Q 38.140625 66.40625 31.78125 66.40625 
Q 25.390625 66.40625 21.84375 63.234375 
Q 18.3125 60.0625 18.3125 54.390625 
z
" id="DejaVuSans-38"/>
      </defs>
      <g transform="translate(34.696875 150.06386)scale(0.1 -0.1)">
       <use xlink:href="#DejaVuSans-30"/>
       <use x="63.623047" xlink:href="#DejaVuSans-2e"/>
       <use x="95.410156" xlink:href="#DejaVuSans-38"/>
      </g>
     </g>
    </g>
    <g id="ytick_5">
     <g id="line2d_13">
      <g>
       <use style="stroke:#000000;stroke-width:0.8;" x="57.6" xlink:href="#m8da633ffbd" y="97.940592"/>
      </g>
     </g>
     <g id="text_13">
      <!-- 0.9 -->
      <defs>
       <path d="M 10.984375 1.515625 
L 10.984375 10.5 
Q 14.703125 8.734375 18.5 7.8125 
Q 22.3125 6.890625 25.984375 6.890625 
Q 35.75 6.890625 40.890625 13.453125 
Q 46.046875 20.015625 46.78125 33.40625 
Q 43.953125 29.203125 39.59375 26.953125 
Q 35.25 24.703125 29.984375 24.703125 
Q 19.046875 24.703125 12.671875 31.3125 
Q 6.296875 37.9375 6.296875 49.421875 
Q 6.296875 60.640625 12.9375 67.421875 
Q 19.578125 74.21875 30.609375 74.21875 
Q 43.265625 74.21875 49.921875 64.515625 
Q 56.59375 54.828125 56.59375 36.375 
Q 56.59375 19.140625 48.40625 8.859375 
Q 40.234375 -1.421875 26.421875 -1.421875 
Q 22.703125 -1.421875 18.890625 -0.6875 
Q 15.09375 0.046875 10.984375 1.515625 
z
M 30.609375 32.421875 
Q 37.25 32.421875 41.125 36.953125 
Q 45.015625 41.5 45.015625 49.421875 
Q 45.015625 57.28125 41.125 61.84375 
Q 37.25 66.40625 30.609375 66.40625 
Q 23.96875 66.40625 20.09375 61.84375 
Q 16.21875 57.28125 16.21875 49.421875 
Q 16.21875 41.5 20.09375 36.953125 
Q 23.96875 32.421875 30.609375 32.421875 
z
" id="DejaVuSans-39"/>
      </defs>
      <g transform="translate(34.696875 101.73981)scale(0.1 -0.1)">
       <use xlink:href="#DejaVuSans-30"/>
       <use x="63.623047" xlink:href="#DejaVuSans-2e"/>
       <use x="95.410156" xlink:href="#DejaVuSans-39"/>
      </g>
     </g>
    </g>
    <g id="ytick_6">
     <g id="line2d_14">
      <g>
       <use style="stroke:#000000;stroke-width:0.8;" x="57.6" xlink:href="#m8da633ffbd" y="49.616542"/>
      </g>
     </g>
     <g id="text_14">
      <!-- 1.0 -->
      <g transform="translate(34.696875 53.415761)scale(0.1 -0.1)">
       <use xlink:href="#DejaVuSans-31"/>
       <use x="63.623047" xlink:href="#DejaVuSans-2e"/>
       <use x="95.410156" xlink:href="#DejaVuSans-30"/>
      </g>
     </g>
    </g>
   </g>
   <g id="line2d_15">
    <path clip-path="url(#pea5fc70d37)" d="M 73.832727 139.09158 
L 77.521983 138.964649 
L 79.366612 137.90297 
L 81.21124 136.186499 
L 83.055868 136.009472 
L 88.589752 136.913776 
L 90.43438 137.104978 
L 92.279008 137.785381 
L 94.123636 138.075809 
L 95.968264 137.559063 
L 97.812893 138.312596 
L 99.657521 138.188726 
L 101.502149 138.365914 
L 103.346777 141.282431 
L 105.191405 143.875661 
L 107.036033 144.356485 
L 110.725289 142.97329 
L 112.569917 141.627948 
L 116.259174 141.340581 
L 119.94843 137.406198 
L 121.793058 128.864439 
L 123.637686 113.167177 
L 125.482314 104.395396 
L 127.326942 98.225865 
L 129.17157 96.879557 
L 131.016198 100.281409 
L 132.860826 105.548891 
L 134.705455 107.953818 
L 136.550083 106.395045 
L 140.239339 86.373908 
L 142.083967 80.874632 
L 143.928595 76.836191 
L 145.773223 71.083374 
L 147.617851 71.033439 
L 149.462479 77.736468 
L 151.307107 83.262645 
L 153.151736 81.521046 
L 154.996364 77.397072 
L 156.840992 74.912733 
L 158.68562 71.552922 
L 160.530248 89.656561 
L 162.374876 116.889418 
L 164.219504 121.679298 
L 166.064132 115.854317 
L 167.90876 113.548293 
L 169.753388 116.601245 
L 206.64595 116.601245 
L 208.490579 140.835756 
L 210.335207 178.441531 
L 212.179835 167.396748 
L 214.024463 161.487522 
L 215.869091 160.208706 
L 217.713719 166.790281 
L 219.558347 164.916435 
L 221.402975 164.951551 
L 223.247603 164.844755 
L 225.092231 166.161907 
L 226.93686 168.678785 
L 228.781488 169.642205 
L 230.626116 172.076932 
L 232.470744 175.151791 
L 234.315372 177.333461 
L 236.16 178.561536 
L 239.849256 184.711577 
L 241.693884 185.160829 
L 243.538512 186.882776 
L 245.38314 192.04169 
L 247.227769 198.051752 
L 249.072397 200.908026 
L 250.917025 202.731131 
L 252.761653 205.496556 
L 254.606281 203.961945 
L 256.450909 205.235928 
L 258.295537 205.6404 
L 260.140165 207.586087 
L 261.984793 206.756363 
L 263.829421 205.065022 
L 265.67405 204.004631 
L 267.518678 203.998832 
L 269.363306 203.348068 
L 271.207934 202.55652 
L 274.89719 201.814746 
L 276.741818 202.406716 
L 278.586446 203.373841 
L 280.431074 203.308765 
L 282.275702 201.092463 
L 284.120331 198.331871 
L 285.964959 197.857973 
L 287.809587 197.1969 
L 289.654215 195.675176 
L 291.498843 193.501882 
L 293.343471 192.653634 
L 295.188099 192.164917 
L 297.032727 190.27899 
L 298.877355 187.999545 
L 300.721983 186.540803 
L 302.566612 184.694019 
L 306.255868 179.206823 
L 308.100496 175.662737 
L 309.945124 169.477903 
L 311.789752 162.155199 
L 313.63438 158.432959 
L 315.479008 159.032338 
L 317.323636 161.732847 
L 319.168264 165.675284 
L 321.012893 170.638486 
L 322.857521 172.873312 
L 324.702149 174.843645 
L 326.546777 177.653527 
L 328.391405 180.127396 
L 330.236033 182.028142 
L 332.080661 182.329684 
L 333.925289 184.74637 
L 335.769917 193.075342 
L 337.614545 199.612619 
L 339.459174 200.187353 
L 341.303802 199.597639 
L 343.14843 201.433631 
L 346.837686 203.459214 
L 348.682314 215.077282 
L 350.526942 234.440889 
L 352.37157 232.624871 
L 354.216198 226.373028 
L 356.060826 224.179277 
L 357.905455 223.239697 
L 359.750083 219.804501 
L 361.594711 215.162171 
L 363.439339 211.09683 
L 365.283967 211.011296 
L 367.128595 210.538365 
L 368.973223 202.575689 
L 370.817851 201.153995 
L 372.662479 205.560504 
L 374.507107 208.848795 
L 376.351736 213.625949 
L 378.196364 220.974104 
L 380.040992 221.247135 
L 381.88562 216.232548 
L 383.730248 213.246767 
L 385.574876 207.636989 
L 387.419504 206.411008 
L 389.264132 213.142548 
L 391.10876 226.608044 
L 392.953388 256.206202 
L 396.642645 286.557732 
L 398.487273 282.577602 
L 398.487273 282.577602 
" style="fill:none;opacity:0.4;stroke:#1f77b4;stroke-linecap:square;stroke-width:1.5;"/>
   </g>
   <g id="line2d_16">
    <path clip-path="url(#pea5fc70d37)" d="M 73.832727 142.222721 
L 75.677355 142.026573 
L 77.521983 142.100992 
L 79.366612 141.550002 
L 81.21124 138.977471 
L 83.055868 138.590395 
L 84.900496 139.18971 
L 86.745124 139.273939 
L 88.589752 139.818019 
L 90.43438 139.983626 
L 92.279008 140.477788 
L 94.123636 141.592044 
L 95.968264 140.216548 
L 99.657521 141.824289 
L 101.502149 142.233594 
L 103.346777 145.05625 
L 105.191405 147.065032 
L 107.036033 147.776604 
L 108.880661 146.998538 
L 110.725289 146.744499 
L 112.569917 144.880978 
L 114.414545 144.302008 
L 116.259174 144.850293 
L 118.103802 143.256469 
L 119.94843 140.061621 
L 121.793058 140.25482 
L 123.637686 114.370382 
L 125.482314 113.191227 
L 127.326942 103.659453 
L 129.17157 104.784147 
L 131.016198 103.540238 
L 132.860826 107.966479 
L 134.705455 109.076579 
L 136.550083 108.933298 
L 138.394711 105.606091 
L 140.239339 94.674031 
L 142.083967 94.261489 
L 143.928595 89.357467 
L 145.773223 87.919489 
L 147.617851 82.402235 
L 149.462479 86.790542 
L 151.307107 92.519648 
L 153.151736 91.987552 
L 154.996364 87.898709 
L 156.840992 87.312732 
L 158.68562 86.004986 
L 160.530248 113.62421 
L 162.374876 118.163578 
L 164.219504 128.132781 
L 166.064132 116.719994 
L 167.90876 116.516163 
L 169.753388 117.097163 
L 206.64595 117.097163 
L 208.490579 182.255475 
L 210.335207 185.043772 
L 212.179835 170.384672 
L 214.024463 166.935833 
L 215.869091 167.101971 
L 217.713719 169.514597 
L 219.558347 168.057192 
L 223.247603 167.970209 
L 225.092231 170.987998 
L 226.93686 171.605482 
L 228.781488 173.511479 
L 230.626116 176.888799 
L 232.470744 179.36299 
L 234.315372 180.326717 
L 236.16 182.873829 
L 238.004628 186.691042 
L 239.849256 187.099139 
L 241.693884 187.833423 
L 243.538512 191.79643 
L 245.38314 197.570284 
L 247.227769 201.74408 
L 249.072397 202.480152 
L 250.917025 207.484204 
L 252.761653 207.571381 
L 254.606281 205.959194 
L 258.295537 207.205326 
L 260.140165 208.510462 
L 261.984793 208.394001 
L 263.829421 206.603402 
L 265.67405 205.411296 
L 267.518678 205.538436 
L 269.363306 204.865331 
L 271.207934 203.959835 
L 273.052562 203.788139 
L 274.89719 203.177033 
L 276.741818 203.696952 
L 278.586446 204.619845 
L 280.431074 204.877508 
L 282.275702 203.425516 
L 284.120331 200.148855 
L 285.964959 199.744963 
L 287.809587 199.170631 
L 289.654215 197.830074 
L 291.498843 195.684824 
L 293.343471 194.610146 
L 295.188099 194.45691 
L 297.032727 192.838103 
L 298.877355 190.444951 
L 300.721983 189.164799 
L 302.566612 187.648293 
L 304.41124 184.938716 
L 306.255868 182.430553 
L 308.100496 179.574408 
L 309.945124 174.494294 
L 311.789752 166.489995 
L 313.63438 161.641257 
L 315.479008 162.158179 
L 317.323636 165.247922 
L 319.168264 171.902579 
L 321.012893 174.990147 
L 322.857521 176.673419 
L 324.702149 179.993522 
L 326.546777 181.754741 
L 328.391405 184.104256 
L 330.236033 185.039761 
L 332.080661 184.919193 
L 333.925289 191.829918 
L 335.769917 199.726745 
L 337.614545 201.61404 
L 339.459174 201.52237 
L 341.303802 202.694953 
L 344.993058 203.962492 
L 346.837686 206.883585 
L 348.682314 229.745209 
L 350.526942 237.196198 
L 352.37157 237.267572 
L 354.216198 226.845331 
L 356.060826 226.429696 
L 357.905455 226.239348 
L 359.750083 222.509456 
L 361.594711 217.888952 
L 363.439339 212.659855 
L 365.283967 212.280656 
L 367.128595 214.59156 
L 368.973223 204.869293 
L 370.817851 204.888236 
L 372.662479 206.652257 
L 374.507107 210.251143 
L 376.351736 219.058297 
L 378.196364 221.772949 
L 380.040992 223.948691 
L 381.88562 217.215411 
L 383.730248 216.396415 
L 385.574876 210.887425 
L 387.419504 210.974167 
L 389.264132 213.585889 
L 391.10876 244.116491 
L 392.953388 259.314308 
L 394.798017 278.532154 
L 396.642645 295.488 
L 398.487273 289.195726 
L 398.487273 289.195726 
" style="fill:none;opacity:0.4;stroke:#ff7f0e;stroke-linecap:square;stroke-width:1.5;"/>
   </g>
   <g id="line2d_17">
    <path clip-path="url(#pea5fc70d37)" d="M 73.832727 134.700841 
L 77.521983 134.756558 
L 79.366612 134.376925 
L 81.21124 132.314986 
L 83.055868 132.224088 
L 88.589752 132.885016 
L 90.43438 132.95929 
L 92.279008 133.321238 
L 94.123636 134.248479 
L 95.968264 133.122626 
L 97.812893 134.062432 
L 99.657521 134.32111 
L 101.502149 133.287797 
L 105.191405 138.90339 
L 107.036033 139.766748 
L 108.880661 138.734691 
L 110.725289 138.72377 
L 112.569917 137.231233 
L 114.414545 137.059779 
L 116.259174 137.3158 
L 118.103802 136.000758 
L 119.94843 133.136446 
L 121.793058 114.196802 
L 123.637686 111.416429 
L 125.482314 96.252536 
L 127.326942 94.181319 
L 129.17157 89.421593 
L 132.860826 102.455218 
L 134.705455 106.680189 
L 136.550083 103.060621 
L 138.394711 84.622677 
L 140.239339 80.293954 
L 142.083967 70.143632 
L 143.928595 66.904471 
L 145.773223 55.185503 
L 147.617851 63.014965 
L 149.462479 69.558283 
L 151.307107 75.212583 
L 153.151736 71.579533 
L 154.996364 69.765303 
L 156.840992 64.332617 
L 158.68562 58.072478 
L 160.530248 68.843039 
L 162.374876 115.686294 
L 164.219504 117.020666 
L 166.064132 114.810711 
L 167.90876 110.215093 
L 169.753388 115.974644 
L 208.490579 116.009002 
L 210.335207 169.826481 
L 212.179835 163.601715 
L 214.024463 154.92518 
L 215.869091 150.143274 
L 217.713719 163.664101 
L 219.558347 160.062123 
L 221.402975 160.157805 
L 223.247603 159.955569 
L 225.092231 160.022884 
L 226.93686 163.906157 
L 228.781488 164.167735 
L 230.626116 166.126792 
L 232.470744 169.571281 
L 234.315372 172.729596 
L 236.16 173.094733 
L 238.004628 175.95687 
L 239.849256 180.788501 
L 243.538512 181.434546 
L 245.38314 186.512533 
L 247.227769 194.240467 
L 249.072397 198.554162 
L 250.917025 198.29355 
L 252.761653 204.146414 
L 254.606281 201.37126 
L 256.450909 203.60185 
L 258.295537 203.401982 
L 260.140165 206.604658 
L 261.984793 205.713176 
L 265.67405 202.246844 
L 267.518678 202.657115 
L 269.363306 202.126227 
L 271.207934 200.894544 
L 273.052562 200.602376 
L 274.89719 199.951258 
L 276.741818 200.334178 
L 278.586446 201.611527 
L 280.431074 202.00793 
L 282.275702 199.444291 
L 284.120331 196.06499 
L 287.809587 195.361633 
L 289.654215 193.976714 
L 291.498843 191.083843 
L 293.343471 189.868252 
L 295.188099 189.808089 
L 297.032727 187.994439 
L 298.877355 185.06286 
L 302.566612 181.976983 
L 308.100496 172.857993 
L 311.789752 158.875913 
L 313.63438 154.227671 
L 315.479008 154.158326 
L 317.323636 156.645275 
L 319.168264 158.860304 
L 321.012893 164.98359 
L 322.857521 167.509729 
L 324.702149 168.672647 
L 326.546777 172.127865 
L 330.236033 177.572681 
L 332.080661 178.32238 
L 333.925289 177.885627 
L 335.769917 186.987607 
L 337.614545 197.00784 
L 339.459174 198.041733 
L 341.303802 195.788045 
L 343.14843 198.587215 
L 344.993058 200.719321 
L 346.837686 200.08671 
L 348.682314 205.389453 
L 350.526942 231.993292 
L 352.37157 227.015287 
L 354.216198 225.896778 
L 356.060826 221.785658 
L 357.905455 219.002773 
L 359.750083 215.820441 
L 361.594711 210.786331 
L 363.439339 209.134422 
L 365.283967 209.662894 
L 367.128595 204.037008 
L 368.973223 200.386609 
L 370.817851 197.379839 
L 372.662479 203.823561 
L 374.507107 207.611635 
L 376.351736 209.796317 
L 378.196364 220.36469 
L 380.040992 217.060919 
L 381.88562 215.587954 
L 385.574876 203.520811 
L 387.419504 202.713364 
L 389.264132 212.443363 
L 391.10876 216.145275 
L 392.953388 251.644557 
L 396.642645 277.768634 
L 398.487273 276.589672 
L 398.487273 276.589672 
" style="fill:none;opacity:0.4;stroke:#2ca02c;stroke-linecap:square;stroke-width:1.5;"/>
   </g>
   <g id="line2d_18">
    <path clip-path="url(#pea5fc70d37)" d="M 73.832727 140.891007 
L 75.677355 140.891007 
L 77.521983 140.495716 
L 79.366612 137.730131 
L 84.900496 137.730131 
L 86.745124 138.520229 
L 88.589752 138.520229 
L 90.43438 138.915036 
L 92.279008 140.495716 
L 94.123636 138.520229 
L 95.968264 140.100425 
L 97.812893 140.495716 
L 99.657521 138.520229 
L 101.502149 142.471203 
L 103.346777 145.237272 
L 105.191405 146.422661 
L 107.036033 146.02737 
L 108.880661 146.02737 
L 110.725289 143.656592 
L 112.569917 143.261784 
L 114.414545 143.656592 
L 116.259174 142.076396 
L 118.103802 138.520229 
L 119.94843 140.100425 
L 121.793058 112.046865 
L 123.637686 114.417159 
L 125.482314 95.45142 
L 127.326942 96.241518 
L 129.17157 96.241518 
L 131.016198 101.773172 
L 132.860826 106.514728 
L 134.705455 106.514728 
L 136.550083 102.563753 
L 138.394711 82.807432 
L 140.239339 83.20224 
L 142.083967 69.372864 
L 143.928595 66.211987 
L 145.773223 53.568 
L 147.617851 62.655821 
L 149.462479 76.485197 
L 151.307107 74.50971 
L 153.151736 70.558252 
L 154.996364 69.372864 
L 156.840992 63.445919 
L 158.68562 56.728876 
L 160.530248 116.787937 
L 206.64595 116.787937 
L 208.490579 189.491469 
L 210.335207 168.549759 
L 212.179835 168.549759 
L 214.024463 167.36437 
L 223.247603 167.36437 
L 225.092231 171.315828 
L 226.93686 171.315828 
L 228.781488 173.686606 
L 230.626116 177.242773 
L 232.470744 179.61355 
L 234.315372 180.403649 
L 236.16 183.169717 
L 238.004628 187.120691 
L 239.849256 187.120691 
L 241.693884 187.911273 
L 243.538512 192.257538 
L 245.38314 198.184483 
L 247.227769 202.135457 
L 249.072397 202.530748 
L 250.917025 208.062401 
L 252.761653 204.111427 
L 254.606281 206.086914 
L 256.450909 205.691624 
L 258.295537 207.272303 
L 260.140165 207.667594 
L 261.984793 205.691624 
L 263.829421 204.506235 
L 265.67405 204.506235 
L 269.363306 202.926038 
L 271.207934 202.926038 
L 273.052562 202.135457 
L 274.89719 202.530748 
L 276.741818 203.716136 
L 278.586446 204.111427 
L 280.431074 202.926038 
L 282.275702 199.369871 
L 284.120331 198.974581 
L 285.964959 198.184483 
L 287.809587 196.999094 
L 289.654215 195.023123 
L 291.498843 193.837734 
L 293.343471 193.837734 
L 295.188099 192.257538 
L 297.032727 189.88676 
L 298.877355 188.701371 
L 300.721983 187.120691 
L 302.566612 184.355106 
L 304.41124 181.984328 
L 306.255868 179.21826 
L 308.100496 174.081413 
L 309.945124 165.783691 
L 311.789752 160.647328 
L 313.63438 159.857229 
L 315.479008 162.228007 
L 317.323636 165.388883 
L 319.168264 172.501217 
L 321.012893 175.266802 
L 322.857521 176.847482 
L 324.702149 180.403649 
L 326.546777 181.984328 
L 328.391405 184.355106 
L 330.236033 185.145204 
L 332.080661 184.355106 
L 335.769917 200.55526 
L 337.614545 201.740649 
L 339.459174 201.345359 
L 341.303802 202.926038 
L 343.14843 203.320846 
L 344.993058 202.530748 
L 346.837686 207.272303 
L 348.682314 232.165471 
L 350.526942 231.77018 
L 352.37157 226.238526 
L 354.216198 225.843235 
L 356.060826 221.49697 
L 359.750083 215.174735 
L 361.594711 210.038372 
L 363.439339 208.852983 
L 365.283967 212.40915 
L 367.128595 202.926038 
L 368.973223 200.15997 
L 370.817851 205.296816 
L 372.662479 206.482205 
L 374.507107 210.433179 
L 376.351736 219.916291 
L 378.196364 221.891778 
L 380.040992 216.360124 
L 381.88562 215.570026 
L 383.730248 208.852983 
L 385.574876 202.926038 
L 387.419504 211.618568 
L 389.264132 213.594539 
L 391.10876 247.180236 
L 392.953388 259.428933 
L 394.798017 279.185254 
L 396.642645 276.814476 
L 398.487273 276.024378 
L 398.487273 276.024378 
" style="fill:none;stroke:#000000;stroke-linecap:square;stroke-width:1.5;"/>
   </g>
   <g id="patch_3">
    <path d="M 57.6 307.584 
L 57.6 41.472 
" style="fill:none;stroke:#000000;stroke-linecap:square;stroke-linejoin:miter;stroke-width:0.8;"/>
   </g>
   <g id="patch_4">
    <path d="M 414.72 307.584 
L 414.72 41.472 
" style="fill:none;stroke:#000000;stroke-linecap:square;stroke-linejoin:miter;stroke-width:0.8;"/>
   </g>
   <g id="patch_5">
    <path d="M 57.6 307.584 
L 414.72 307.584 
" style="fill:none;stroke:#000000;stroke-linecap:square;stroke-linejoin:miter;stroke-width:0.8;"/>
   </g>
   <g id="patch_6">
    <path d="M 57.6 41.472 
L 414.72 41.472 
" style="fill:none;stroke:#000000;stroke-linecap:square;stroke-linejoin:miter;stroke-width:0.8;"/>
   </g>
   <g id="text_15">
    <!-- Plot of Train Data for TWIExchange -->
    <defs>
     <path d="M 19.671875 64.796875 
L 19.671875 37.40625 
L 32.078125 37.40625 
Q 38.96875 37.40625 42.71875 40.96875 
Q 46.484375 44.53125 46.484375 51.125 
Q 46.484375 57.671875 42.71875 61.234375 
Q 38.96875 64.796875 32.078125 64.796875 
z
M 9.8125 72.90625 
L 32.078125 72.90625 
Q 44.34375 72.90625 50.609375 67.359375 
Q 56.890625 61.8125 56.890625 51.125 
Q 56.890625 40.328125 50.609375 34.8125 
Q 44.34375 29.296875 32.078125 29.296875 
L 19.671875 29.296875 
L 19.671875 0 
L 9.8125 0 
z
" id="DejaVuSans-50"/>
     <path d="M 9.421875 75.984375 
L 18.40625 75.984375 
L 18.40625 0 
L 9.421875 0 
z
" id="DejaVuSans-6c"/>
     <path d="M 30.609375 48.390625 
Q 23.390625 48.390625 19.1875 42.75 
Q 14.984375 37.109375 14.984375 27.296875 
Q 14.984375 17.484375 19.15625 11.84375 
Q 23.34375 6.203125 30.609375 6.203125 
Q 37.796875 6.203125 41.984375 11.859375 
Q 46.1875 17.53125 46.1875 27.296875 
Q 46.1875 37.015625 41.984375 42.703125 
Q 37.796875 48.390625 30.609375 48.390625 
z
M 30.609375 56 
Q 42.328125 56 49.015625 48.375 
Q 55.71875 40.765625 55.71875 27.296875 
Q 55.71875 13.875 49.015625 6.21875 
Q 42.328125 -1.421875 30.609375 -1.421875 
Q 18.84375 -1.421875 12.171875 6.21875 
Q 5.515625 13.875 5.515625 27.296875 
Q 5.515625 40.765625 12.171875 48.375 
Q 18.84375 56 30.609375 56 
z
" id="DejaVuSans-6f"/>
     <path d="M 18.3125 70.21875 
L 18.3125 54.6875 
L 36.8125 54.6875 
L 36.8125 47.703125 
L 18.3125 47.703125 
L 18.3125 18.015625 
Q 18.3125 11.328125 20.140625 9.421875 
Q 21.96875 7.515625 27.59375 7.515625 
L 36.8125 7.515625 
L 36.8125 0 
L 27.59375 0 
Q 17.1875 0 13.234375 3.875 
Q 9.28125 7.765625 9.28125 18.015625 
L 9.28125 47.703125 
L 2.6875 47.703125 
L 2.6875 54.6875 
L 9.28125 54.6875 
L 9.28125 70.21875 
z
" id="DejaVuSans-74"/>
     <path id="DejaVuSans-20"/>
     <path d="M 37.109375 75.984375 
L 37.109375 68.5 
L 28.515625 68.5 
Q 23.6875 68.5 21.796875 66.546875 
Q 19.921875 64.59375 19.921875 59.515625 
L 19.921875 54.6875 
L 34.71875 54.6875 
L 34.71875 47.703125 
L 19.921875 47.703125 
L 19.921875 0 
L 10.890625 0 
L 10.890625 47.703125 
L 2.296875 47.703125 
L 2.296875 54.6875 
L 10.890625 54.6875 
L 10.890625 58.5 
Q 10.890625 67.625 15.140625 71.796875 
Q 19.390625 75.984375 28.609375 75.984375 
z
" id="DejaVuSans-66"/>
     <path d="M -0.296875 72.90625 
L 61.375 72.90625 
L 61.375 64.59375 
L 35.5 64.59375 
L 35.5 0 
L 25.59375 0 
L 25.59375 64.59375 
L -0.296875 64.59375 
z
" id="DejaVuSans-54"/>
     <path d="M 41.109375 46.296875 
Q 39.59375 47.171875 37.8125 47.578125 
Q 36.03125 48 33.890625 48 
Q 26.265625 48 22.1875 43.046875 
Q 18.109375 38.09375 18.109375 28.8125 
L 18.109375 0 
L 9.078125 0 
L 9.078125 54.6875 
L 18.109375 54.6875 
L 18.109375 46.1875 
Q 20.953125 51.171875 25.484375 53.578125 
Q 30.03125 56 36.53125 56 
Q 37.453125 56 38.578125 55.875 
Q 39.703125 55.765625 41.0625 55.515625 
z
" id="DejaVuSans-72"/>
     <path d="M 34.28125 27.484375 
Q 23.390625 27.484375 19.1875 25 
Q 14.984375 22.515625 14.984375 16.5 
Q 14.984375 11.71875 18.140625 8.90625 
Q 21.296875 6.109375 26.703125 6.109375 
Q 34.1875 6.109375 38.703125 11.40625 
Q 43.21875 16.703125 43.21875 25.484375 
L 43.21875 27.484375 
z
M 52.203125 31.203125 
L 52.203125 0 
L 43.21875 0 
L 43.21875 8.296875 
Q 40.140625 3.328125 35.546875 0.953125 
Q 30.953125 -1.421875 24.3125 -1.421875 
Q 15.921875 -1.421875 10.953125 3.296875 
Q 6 8.015625 6 15.921875 
Q 6 25.140625 12.171875 29.828125 
Q 18.359375 34.515625 30.609375 34.515625 
L 43.21875 34.515625 
L 43.21875 35.40625 
Q 43.21875 41.609375 39.140625 45 
Q 35.0625 48.390625 27.6875 48.390625 
Q 23 48.390625 18.546875 47.265625 
Q 14.109375 46.140625 10.015625 43.890625 
L 10.015625 52.203125 
Q 14.9375 54.109375 19.578125 55.046875 
Q 24.21875 56 28.609375 56 
Q 40.484375 56 46.34375 49.84375 
Q 52.203125 43.703125 52.203125 31.203125 
z
" id="DejaVuSans-61"/>
     <path d="M 9.421875 54.6875 
L 18.40625 54.6875 
L 18.40625 0 
L 9.421875 0 
z
M 9.421875 75.984375 
L 18.40625 75.984375 
L 18.40625 64.59375 
L 9.421875 64.59375 
z
" id="DejaVuSans-69"/>
     <path d="M 54.890625 33.015625 
L 54.890625 0 
L 45.90625 0 
L 45.90625 32.71875 
Q 45.90625 40.484375 42.875 44.328125 
Q 39.84375 48.1875 33.796875 48.1875 
Q 26.515625 48.1875 22.3125 43.546875 
Q 18.109375 38.921875 18.109375 30.90625 
L 18.109375 0 
L 9.078125 0 
L 9.078125 54.6875 
L 18.109375 54.6875 
L 18.109375 46.1875 
Q 21.34375 51.125 25.703125 53.5625 
Q 30.078125 56 35.796875 56 
Q 45.21875 56 50.046875 50.171875 
Q 54.890625 44.34375 54.890625 33.015625 
z
" id="DejaVuSans-6e"/>
     <path d="M 19.671875 64.796875 
L 19.671875 8.109375 
L 31.59375 8.109375 
Q 46.6875 8.109375 53.6875 14.9375 
Q 60.6875 21.78125 60.6875 36.53125 
Q 60.6875 51.171875 53.6875 57.984375 
Q 46.6875 64.796875 31.59375 64.796875 
z
M 9.8125 72.90625 
L 30.078125 72.90625 
Q 51.265625 72.90625 61.171875 64.09375 
Q 71.09375 55.28125 71.09375 36.53125 
Q 71.09375 17.671875 61.125 8.828125 
Q 51.171875 0 30.078125 0 
L 9.8125 0 
z
" id="DejaVuSans-44"/>
     <path d="M 3.328125 72.90625 
L 13.28125 72.90625 
L 28.609375 11.28125 
L 43.890625 72.90625 
L 54.984375 72.90625 
L 70.3125 11.28125 
L 85.59375 72.90625 
L 95.609375 72.90625 
L 77.296875 0 
L 64.890625 0 
L 49.515625 63.28125 
L 33.984375 0 
L 21.578125 0 
z
" id="DejaVuSans-57"/>
     <path d="M 9.8125 72.90625 
L 19.671875 72.90625 
L 19.671875 0 
L 9.8125 0 
z
" id="DejaVuSans-49"/>
     <path d="M 9.8125 72.90625 
L 55.90625 72.90625 
L 55.90625 64.59375 
L 19.671875 64.59375 
L 19.671875 43.015625 
L 54.390625 43.015625 
L 54.390625 34.71875 
L 19.671875 34.71875 
L 19.671875 8.296875 
L 56.78125 8.296875 
L 56.78125 0 
L 9.8125 0 
z
" id="DejaVuSans-45"/>
     <path d="M 54.890625 54.6875 
L 35.109375 28.078125 
L 55.90625 0 
L 45.3125 0 
L 29.390625 21.484375 
L 13.484375 0 
L 2.875 0 
L 24.125 28.609375 
L 4.6875 54.6875 
L 15.28125 54.6875 
L 29.78125 35.203125 
L 44.28125 54.6875 
z
" id="DejaVuSans-78"/>
     <path d="M 48.78125 52.59375 
L 48.78125 44.1875 
Q 44.96875 46.296875 41.140625 47.34375 
Q 37.3125 48.390625 33.40625 48.390625 
Q 24.65625 48.390625 19.8125 42.84375 
Q 14.984375 37.3125 14.984375 27.296875 
Q 14.984375 17.28125 19.8125 11.734375 
Q 24.65625 6.203125 33.40625 6.203125 
Q 37.3125 6.203125 41.140625 7.25 
Q 44.96875 8.296875 48.78125 10.40625 
L 48.78125 2.09375 
Q 45.015625 0.34375 40.984375 -0.53125 
Q 36.96875 -1.421875 32.421875 -1.421875 
Q 20.0625 -1.421875 12.78125 6.34375 
Q 5.515625 14.109375 5.515625 27.296875 
Q 5.515625 40.671875 12.859375 48.328125 
Q 20.21875 56 33.015625 56 
Q 37.15625 56 41.109375 55.140625 
Q 45.0625 54.296875 48.78125 52.59375 
z
" id="DejaVuSans-63"/>
     <path d="M 54.890625 33.015625 
L 54.890625 0 
L 45.90625 0 
L 45.90625 32.71875 
Q 45.90625 40.484375 42.875 44.328125 
Q 39.84375 48.1875 33.796875 48.1875 
Q 26.515625 48.1875 22.3125 43.546875 
Q 18.109375 38.921875 18.109375 30.90625 
L 18.109375 0 
L 9.078125 0 
L 9.078125 75.984375 
L 18.109375 75.984375 
L 18.109375 46.1875 
Q 21.34375 51.125 25.703125 53.5625 
Q 30.078125 56 35.796875 56 
Q 45.21875 56 50.046875 50.171875 
Q 54.890625 44.34375 54.890625 33.015625 
z
" id="DejaVuSans-68"/>
     <path d="M 45.40625 27.984375 
Q 45.40625 37.75 41.375 43.109375 
Q 37.359375 48.484375 30.078125 48.484375 
Q 22.859375 48.484375 18.828125 43.109375 
Q 14.796875 37.75 14.796875 27.984375 
Q 14.796875 18.265625 18.828125 12.890625 
Q 22.859375 7.515625 30.078125 7.515625 
Q 37.359375 7.515625 41.375 12.890625 
Q 45.40625 18.265625 45.40625 27.984375 
z
M 54.390625 6.78125 
Q 54.390625 -7.171875 48.1875 -13.984375 
Q 42 -20.796875 29.203125 -20.796875 
Q 24.46875 -20.796875 20.265625 -20.09375 
Q 16.0625 -19.390625 12.109375 -17.921875 
L 12.109375 -9.1875 
Q 16.0625 -11.328125 19.921875 -12.34375 
Q 23.78125 -13.375 27.78125 -13.375 
Q 36.625 -13.375 41.015625 -8.765625 
Q 45.40625 -4.15625 45.40625 5.171875 
L 45.40625 9.625 
Q 42.625 4.78125 38.28125 2.390625 
Q 33.9375 0 27.875 0 
Q 17.828125 0 11.671875 7.65625 
Q 5.515625 15.328125 5.515625 27.984375 
Q 5.515625 40.671875 11.671875 48.328125 
Q 17.828125 56 27.875 56 
Q 33.9375 56 38.28125 53.609375 
Q 42.625 51.21875 45.40625 46.390625 
L 45.40625 54.6875 
L 54.390625 54.6875 
z
" id="DejaVuSans-67"/>
     <path d="M 56.203125 29.59375 
L 56.203125 25.203125 
L 14.890625 25.203125 
Q 15.484375 15.921875 20.484375 11.0625 
Q 25.484375 6.203125 34.421875 6.203125 
Q 39.59375 6.203125 44.453125 7.46875 
Q 49.3125 8.734375 54.109375 11.28125 
L 54.109375 2.78125 
Q 49.265625 0.734375 44.1875 -0.34375 
Q 39.109375 -1.421875 33.890625 -1.421875 
Q 20.796875 -1.421875 13.15625 6.1875 
Q 5.515625 13.8125 5.515625 26.8125 
Q 5.515625 40.234375 12.765625 48.109375 
Q 20.015625 56 32.328125 56 
Q 43.359375 56 49.78125 48.890625 
Q 56.203125 41.796875 56.203125 29.59375 
z
M 47.21875 32.234375 
Q 47.125 39.59375 43.09375 43.984375 
Q 39.0625 48.390625 32.421875 48.390625 
Q 24.90625 48.390625 20.390625 44.140625 
Q 15.875 39.890625 15.1875 32.171875 
z
" id="DejaVuSans-65"/>
    </defs>
    <g transform="translate(130.903125 35.472)scale(0.12 -0.12)">
     <use xlink:href="#DejaVuSans-50"/>
     <use x="60.302734" xlink:href="#DejaVuSans-6c"/>
     <use x="88.085938" xlink:href="#DejaVuSans-6f"/>
     <use x="149.267578" xlink:href="#DejaVuSans-74"/>
     <use x="188.476562" xlink:href="#DejaVuSans-20"/>
     <use x="220.263672" xlink:href="#DejaVuSans-6f"/>
     <use x="281.445312" xlink:href="#DejaVuSans-66"/>
     <use x="316.650391" xlink:href="#DejaVuSans-20"/>
     <use x="348.4375" xlink:href="#DejaVuSans-54"/>
     <use x="409.302734" xlink:href="#DejaVuSans-72"/>
     <use x="450.416016" xlink:href="#DejaVuSans-61"/>
     <use x="511.695312" xlink:href="#DejaVuSans-69"/>
     <use x="539.478516" xlink:href="#DejaVuSans-6e"/>
     <use x="602.857422" xlink:href="#DejaVuSans-20"/>
     <use x="634.644531" xlink:href="#DejaVuSans-44"/>
     <use x="711.646484" xlink:href="#DejaVuSans-61"/>
     <use x="772.925781" xlink:href="#DejaVuSans-74"/>
     <use x="812.134766" xlink:href="#DejaVuSans-61"/>
     <use x="873.414062" xlink:href="#DejaVuSans-20"/>
     <use x="905.201172" xlink:href="#DejaVuSans-66"/>
     <use x="940.40625" xlink:href="#DejaVuSans-6f"/>
     <use x="1001.587891" xlink:href="#DejaVuSans-72"/>
     <use x="1042.701172" xlink:href="#DejaVuSans-20"/>
     <use x="1074.488281" xlink:href="#DejaVuSans-54"/>
     <use x="1135.572266" xlink:href="#DejaVuSans-57"/>
     <use x="1234.449219" xlink:href="#DejaVuSans-49"/>
     <use x="1263.941406" xlink:href="#DejaVuSans-45"/>
     <use x="1327.125" xlink:href="#DejaVuSans-78"/>
     <use x="1386.289062" xlink:href="#DejaVuSans-63"/>
     <use x="1441.269531" xlink:href="#DejaVuSans-68"/>
     <use x="1504.648438" xlink:href="#DejaVuSans-61"/>
     <use x="1565.927734" xlink:href="#DejaVuSans-6e"/>
     <use x="1629.306641" xlink:href="#DejaVuSans-67"/>
     <use x="1692.783203" xlink:href="#DejaVuSans-65"/>
    </g>
   </g>
   <g id="legend_1">
    <g id="patch_7">
     <path d="M 277.843437 108.1845 
L 407.72 108.1845 
Q 409.72 108.1845 409.72 106.1845 
L 409.72 48.472 
Q 409.72 46.472 407.72 46.472 
L 277.843437 46.472 
Q 275.843437 46.472 275.843437 48.472 
L 275.843437 106.1845 
Q 275.843437 108.1845 277.843437 108.1845 
z
" style="fill:#ffffff;opacity:0.8;stroke:#cccccc;stroke-linejoin:miter;"/>
    </g>
    <g id="line2d_19">
     <path d="M 279.843437 54.570438 
L 299.843437 54.570438 
" style="fill:none;opacity:0.4;stroke:#1f77b4;stroke-linecap:square;stroke-width:1.5;"/>
    </g>
    <g id="line2d_20"/>
    <g id="text_16">
     <!-- pred. (mean) -->
     <defs>
      <path d="M 18.109375 8.203125 
L 18.109375 -20.796875 
L 9.078125 -20.796875 
L 9.078125 54.6875 
L 18.109375 54.6875 
L 18.109375 46.390625 
Q 20.953125 51.265625 25.265625 53.625 
Q 29.59375 56 35.59375 56 
Q 45.5625 56 51.78125 48.09375 
Q 58.015625 40.1875 58.015625 27.296875 
Q 58.015625 14.40625 51.78125 6.484375 
Q 45.5625 -1.421875 35.59375 -1.421875 
Q 29.59375 -1.421875 25.265625 0.953125 
Q 20.953125 3.328125 18.109375 8.203125 
z
M 48.6875 27.296875 
Q 48.6875 37.203125 44.609375 42.84375 
Q 40.53125 48.484375 33.40625 48.484375 
Q 26.265625 48.484375 22.1875 42.84375 
Q 18.109375 37.203125 18.109375 27.296875 
Q 18.109375 17.390625 22.1875 11.75 
Q 26.265625 6.109375 33.40625 6.109375 
Q 40.53125 6.109375 44.609375 11.75 
Q 48.6875 17.390625 48.6875 27.296875 
z
" id="DejaVuSans-70"/>
      <path d="M 45.40625 46.390625 
L 45.40625 75.984375 
L 54.390625 75.984375 
L 54.390625 0 
L 45.40625 0 
L 45.40625 8.203125 
Q 42.578125 3.328125 38.25 0.953125 
Q 33.9375 -1.421875 27.875 -1.421875 
Q 17.96875 -1.421875 11.734375 6.484375 
Q 5.515625 14.40625 5.515625 27.296875 
Q 5.515625 40.1875 11.734375 48.09375 
Q 17.96875 56 27.875 56 
Q 33.9375 56 38.25 53.625 
Q 42.578125 51.265625 45.40625 46.390625 
z
M 14.796875 27.296875 
Q 14.796875 17.390625 18.875 11.75 
Q 22.953125 6.109375 30.078125 6.109375 
Q 37.203125 6.109375 41.296875 11.75 
Q 45.40625 17.390625 45.40625 27.296875 
Q 45.40625 37.203125 41.296875 42.84375 
Q 37.203125 48.484375 30.078125 48.484375 
Q 22.953125 48.484375 18.875 42.84375 
Q 14.796875 37.203125 14.796875 27.296875 
z
" id="DejaVuSans-64"/>
      <path d="M 31 75.875 
Q 24.46875 64.65625 21.28125 53.65625 
Q 18.109375 42.671875 18.109375 31.390625 
Q 18.109375 20.125 21.3125 9.0625 
Q 24.515625 -2 31 -13.1875 
L 23.1875 -13.1875 
Q 15.875 -1.703125 12.234375 9.375 
Q 8.59375 20.453125 8.59375 31.390625 
Q 8.59375 42.28125 12.203125 53.3125 
Q 15.828125 64.359375 23.1875 75.875 
z
" id="DejaVuSans-28"/>
      <path d="M 52 44.1875 
Q 55.375 50.25 60.0625 53.125 
Q 64.75 56 71.09375 56 
Q 79.640625 56 84.28125 50.015625 
Q 88.921875 44.046875 88.921875 33.015625 
L 88.921875 0 
L 79.890625 0 
L 79.890625 32.71875 
Q 79.890625 40.578125 77.09375 44.375 
Q 74.3125 48.1875 68.609375 48.1875 
Q 61.625 48.1875 57.5625 43.546875 
Q 53.515625 38.921875 53.515625 30.90625 
L 53.515625 0 
L 44.484375 0 
L 44.484375 32.71875 
Q 44.484375 40.625 41.703125 44.40625 
Q 38.921875 48.1875 33.109375 48.1875 
Q 26.21875 48.1875 22.15625 43.53125 
Q 18.109375 38.875 18.109375 30.90625 
L 18.109375 0 
L 9.078125 0 
L 9.078125 54.6875 
L 18.109375 54.6875 
L 18.109375 46.1875 
Q 21.1875 51.21875 25.484375 53.609375 
Q 29.78125 56 35.6875 56 
Q 41.65625 56 45.828125 52.96875 
Q 50 49.953125 52 44.1875 
z
" id="DejaVuSans-6d"/>
      <path d="M 8.015625 75.875 
L 15.828125 75.875 
Q 23.140625 64.359375 26.78125 53.3125 
Q 30.421875 42.28125 30.421875 31.390625 
Q 30.421875 20.453125 26.78125 9.375 
Q 23.140625 -1.703125 15.828125 -13.1875 
L 8.015625 -13.1875 
Q 14.5 -2 17.703125 9.0625 
Q 20.90625 20.125 20.90625 31.390625 
Q 20.90625 42.671875 17.703125 53.65625 
Q 14.5 64.65625 8.015625 75.875 
z
" id="DejaVuSans-29"/>
     </defs>
     <g transform="translate(307.843437 58.070438)scale(0.1 -0.1)">
      <use xlink:href="#DejaVuSans-70"/>
      <use x="63.476562" xlink:href="#DejaVuSans-72"/>
      <use x="104.558594" xlink:href="#DejaVuSans-65"/>
      <use x="166.082031" xlink:href="#DejaVuSans-64"/>
      <use x="229.558594" xlink:href="#DejaVuSans-2e"/>
      <use x="261.345703" xlink:href="#DejaVuSans-20"/>
      <use x="293.132812" xlink:href="#DejaVuSans-28"/>
      <use x="332.146484" xlink:href="#DejaVuSans-6d"/>
      <use x="429.558594" xlink:href="#DejaVuSans-65"/>
      <use x="491.082031" xlink:href="#DejaVuSans-61"/>
      <use x="552.361328" xlink:href="#DejaVuSans-6e"/>
      <use x="615.740234" xlink:href="#DejaVuSans-29"/>
     </g>
    </g>
    <g id="line2d_21">
     <path d="M 279.843437 69.248563 
L 299.843437 69.248563 
" style="fill:none;opacity:0.4;stroke:#ff7f0e;stroke-linecap:square;stroke-width:1.5;"/>
    </g>
    <g id="line2d_22"/>
    <g id="text_17">
     <!-- pred.(5th percen.) -->
     <g transform="translate(307.843437 72.748563)scale(0.1 -0.1)">
      <use xlink:href="#DejaVuSans-70"/>
      <use x="63.476562" xlink:href="#DejaVuSans-72"/>
      <use x="104.558594" xlink:href="#DejaVuSans-65"/>
      <use x="166.082031" xlink:href="#DejaVuSans-64"/>
      <use x="229.558594" xlink:href="#DejaVuSans-2e"/>
      <use x="261.345703" xlink:href="#DejaVuSans-28"/>
      <use x="300.359375" xlink:href="#DejaVuSans-35"/>
      <use x="363.982422" xlink:href="#DejaVuSans-74"/>
      <use x="403.191406" xlink:href="#DejaVuSans-68"/>
      <use x="466.570312" xlink:href="#DejaVuSans-20"/>
      <use x="498.357422" xlink:href="#DejaVuSans-70"/>
      <use x="561.833984" xlink:href="#DejaVuSans-65"/>
      <use x="623.357422" xlink:href="#DejaVuSans-72"/>
      <use x="664.439453" xlink:href="#DejaVuSans-63"/>
      <use x="719.419922" xlink:href="#DejaVuSans-65"/>
      <use x="780.943359" xlink:href="#DejaVuSans-6e"/>
      <use x="844.322266" xlink:href="#DejaVuSans-2e"/>
      <use x="876.109375" xlink:href="#DejaVuSans-29"/>
     </g>
    </g>
    <g id="line2d_23">
     <path d="M 279.843437 83.926688 
L 299.843437 83.926688 
" style="fill:none;opacity:0.4;stroke:#2ca02c;stroke-linecap:square;stroke-width:1.5;"/>
    </g>
    <g id="line2d_24"/>
    <g id="text_18">
     <!-- pred.(95th percen.) -->
     <g transform="translate(307.843437 87.426688)scale(0.1 -0.1)">
      <use xlink:href="#DejaVuSans-70"/>
      <use x="63.476562" xlink:href="#DejaVuSans-72"/>
      <use x="104.558594" xlink:href="#DejaVuSans-65"/>
      <use x="166.082031" xlink:href="#DejaVuSans-64"/>
      <use x="229.558594" xlink:href="#DejaVuSans-2e"/>
      <use x="261.345703" xlink:href="#DejaVuSans-28"/>
      <use x="300.359375" xlink:href="#DejaVuSans-39"/>
      <use x="363.982422" xlink:href="#DejaVuSans-35"/>
      <use x="427.605469" xlink:href="#DejaVuSans-74"/>
      <use x="466.814453" xlink:href="#DejaVuSans-68"/>
      <use x="530.193359" xlink:href="#DejaVuSans-20"/>
      <use x="561.980469" xlink:href="#DejaVuSans-70"/>
      <use x="625.457031" xlink:href="#DejaVuSans-65"/>
      <use x="686.980469" xlink:href="#DejaVuSans-72"/>
      <use x="728.0625" xlink:href="#DejaVuSans-63"/>
      <use x="783.042969" xlink:href="#DejaVuSans-65"/>
      <use x="844.566406" xlink:href="#DejaVuSans-6e"/>
      <use x="907.945312" xlink:href="#DejaVuSans-2e"/>
      <use x="939.732422" xlink:href="#DejaVuSans-29"/>
     </g>
    </g>
    <g id="line2d_25">
     <path d="M 279.843437 98.604813 
L 299.843437 98.604813 
" style="fill:none;stroke:#000000;stroke-linecap:square;stroke-width:1.5;"/>
    </g>
    <g id="line2d_26"/>
    <g id="text_19">
     <!-- actual -->
     <defs>
      <path d="M 8.5 21.578125 
L 8.5 54.6875 
L 17.484375 54.6875 
L 17.484375 21.921875 
Q 17.484375 14.15625 20.5 10.265625 
Q 23.53125 6.390625 29.59375 6.390625 
Q 36.859375 6.390625 41.078125 11.03125 
Q 45.3125 15.671875 45.3125 23.6875 
L 45.3125 54.6875 
L 54.296875 54.6875 
L 54.296875 0 
L 45.3125 0 
L 45.3125 8.40625 
Q 42.046875 3.421875 37.71875 1 
Q 33.40625 -1.421875 27.6875 -1.421875 
Q 18.265625 -1.421875 13.375 4.4375 
Q 8.5 10.296875 8.5 21.578125 
z
M 31.109375 56 
z
" id="DejaVuSans-75"/>
     </defs>
     <g transform="translate(307.843437 102.104813)scale(0.1 -0.1)">
      <use xlink:href="#DejaVuSans-61"/>
      <use x="61.279297" xlink:href="#DejaVuSans-63"/>
      <use x="116.259766" xlink:href="#DejaVuSans-74"/>
      <use x="155.46875" xlink:href="#DejaVuSans-75"/>
      <use x="218.847656" xlink:href="#DejaVuSans-61"/>
      <use x="280.126953" xlink:href="#DejaVuSans-6c"/>
     </g>
    </g>
   </g>
  </g>
 </g>
 <defs>
  <clipPath id="pea5fc70d37">
   <rect height="266.112" width="357.12" x="57.6" y="41.472"/>
  </clipPath>
 </defs>
</svg>
