<?xml version="1.0" encoding="utf-8" standalone="no"?>
<!DOCTYPE svg PUBLIC "-//W3C//DTD SVG 1.1//EN"
  "http://www.w3.org/Graphics/SVG/1.1/DTD/svg11.dtd">
<!-- Created with matplotlib (http://matplotlib.org/) -->
<svg height="345pt" version="1.1" viewBox="0 0 460 345" width="460pt" xmlns="http://www.w3.org/2000/svg" xmlns:xlink="http://www.w3.org/1999/xlink">
 <defs>
  <style type="text/css">
*{stroke-linecap:butt;stroke-linejoin:round;}
  </style>
 </defs>
 <g id="figure_1">
  <g id="patch_1">
   <path d="M 0 345.6 
L 460.8 345.6 
L 460.8 0 
L 0 0 
z
" style="fill:#ffffff;"/>
  </g>
  <g id="axes_1">
   <g id="patch_2">
    <path d="M 57.6 307.584 
L 414.72 307.584 
L 414.72 41.472 
L 57.6 41.472 
z
" style="fill:#ffffff;"/>
   </g>
   <g id="PolyCollection_1">
    <path clip-path="url(#p6315f23b5b)" d="M 73.832727 105.042065 
L 73.832727 108.158189 
L 74.92584 99.816719 
L 76.018953 101.218971 
L 77.112066 102.38925 
L 78.205179 101.144691 
L 79.298292 97.290812 
L 80.391405 93.644125 
L 81.484518 96.697657 
L 82.577631 113.068659 
L 83.670744 139.291961 
L 84.763857 165.567955 
L 85.85697 186.370279 
L 86.950083 202.398877 
L 88.043196 216.035183 
L 89.136309 229.446988 
L 90.229421 242.154506 
L 91.322534 250.702976 
L 92.415647 248.307108 
L 93.50876 227.369509 
L 94.601873 192.743805 
L 95.694986 160.944131 
L 96.788099 135.802904 
L 97.881212 117.376649 
L 98.974325 105.413402 
L 100.067438 99.298163 
L 101.160551 96.86557 
L 102.253664 93.624007 
L 103.346777 84.331394 
L 104.43989 71.696496 
L 105.533003 70.6362 
L 106.626116 86.734096 
L 107.719229 111.713861 
L 108.812342 139.735981 
L 109.905455 165.947148 
L 110.998567 189.246701 
L 112.09168 209.889095 
L 113.184793 230.75861 
L 114.277906 251.65859 
L 115.371019 267.618081 
L 116.464132 275.368823 
L 117.557245 268.537545 
L 118.650358 244.076527 
L 119.743471 206.875035 
L 120.836584 172.44573 
L 121.929697 146.426682 
L 123.02281 129.527225 
L 124.115923 122.414539 
L 125.209036 122.294464 
L 126.302149 124.663444 
L 127.395262 123.784793 
L 128.488375 113.782271 
L 129.581488 97.029906 
L 130.674601 86.553282 
L 131.767713 91.723254 
L 132.860826 107.66748 
L 133.953939 124.35719 
L 135.047052 138.409988 
L 136.140165 148.449426 
L 137.233278 157.979952 
L 138.326391 172.838271 
L 139.419504 195.108889 
L 140.512617 218.659384 
L 141.60573 233.775353 
L 142.698843 237.419676 
L 143.791956 228.734844 
L 144.885069 211.380382 
L 145.978182 190.749547 
L 147.071295 168.389194 
L 148.164408 143.165001 
L 149.257521 119.806496 
L 150.350634 104.602196 
L 151.443747 96.441221 
L 152.53686 90.130479 
L 153.629972 82.339244 
L 154.723085 72.557072 
L 155.816198 63.697621 
L 156.909311 61.204863 
L 158.002424 72.375236 
L 159.095537 98.074298 
L 160.18865 128.741504 
L 161.281763 158.892263 
L 162.374876 187.066072 
L 163.467989 213.552133 
L 164.561102 237.91741 
L 165.654215 259.258664 
L 166.747328 277.396357 
L 167.840441 288.608245 
L 168.933554 286.841043 
L 170.026667 266.202416 
L 171.11978 229.350354 
L 172.212893 190.70535 
L 173.306006 162.435545 
L 174.399118 145.115125 
L 175.492231 137.683091 
L 176.585344 138.373647 
L 177.678457 142.831858 
L 178.77157 145.834869 
L 179.864683 140.018092 
L 180.957796 122.550389 
L 182.050909 103.754011 
L 183.144022 96.250124 
L 184.237135 101.086378 
L 185.330248 107.874864 
L 186.423361 112.828893 
L 187.516474 114.098616 
L 188.609587 113.872008 
L 189.7027 118.548844 
L 190.795813 134.59507 
L 191.888926 159.908297 
L 192.982039 184.862131 
L 194.075152 202.003398 
L 195.168264 211.415127 
L 196.261377 215.80685 
L 197.35449 219.072428 
L 198.447603 222.513774 
L 199.540716 222.118359 
L 200.633829 209.699531 
L 201.726942 180.818815 
L 202.820055 150.876143 
L 203.913168 127.191394 
L 205.006281 109.739595 
L 206.099394 95.894499 
L 207.192507 85.322647 
L 208.28562 77.511101 
L 209.378733 71.114071 
L 210.471846 63.469799 
L 211.564959 56.714078 
L 212.658072 63.400948 
L 213.751185 85.969324 
L 214.844298 115.892708 
L 215.93741 148.748462 
L 217.030523 180.884154 
L 218.123636 210.502497 
L 219.216749 235.924813 
L 220.309862 257.774276 
L 221.402975 277.415198 
L 222.496088 291.388288 
L 223.589201 295.081791 
L 224.682314 281.232608 
L 225.775427 248.232572 
L 226.86854 206.585387 
L 227.961653 174.720438 
L 229.054766 155.100145 
L 230.147879 145.380693 
L 231.240992 144.473684 
L 232.334105 148.993785 
L 233.427218 154.088071 
L 234.520331 152.848302 
L 235.613444 138.708961 
L 236.706556 117.172139 
L 237.799669 102.184612 
L 238.892782 99.638587 
L 239.985895 102.397617 
L 241.079008 103.586482 
L 242.172121 102.223828 
L 243.265234 98.564623 
L 244.358347 97.311697 
L 245.45146 105.998764 
L 246.544573 127.747824 
L 247.637686 155.217537 
L 248.730799 178.652813 
L 249.823912 196.264861 
L 250.917025 209.4818 
L 252.010138 221.220291 
L 253.103251 233.115454 
L 254.196364 243.312905 
L 255.289477 246.716057 
L 256.38259 234.879271 
L 257.475702 204.597006 
L 258.568815 170.977501 
L 259.661928 143.221717 
L 260.755041 122.414283 
L 261.848154 107.466866 
L 262.941267 98.303206 
L 264.03438 93.761901 
L 265.127493 90.804365 
L 266.220606 84.258519 
L 267.313719 72.46874 
L 268.406832 66.255143 
L 269.499945 77.654552 
L 270.593058 101.338535 
L 271.686171 130.019211 
L 272.779284 158.654732 
L 273.872397 184.891894 
L 274.96551 207.795138 
L 276.058623 229.037521 
L 277.151736 250.097367 
L 278.244848 267.904216 
L 279.337961 279.143057 
L 280.431074 277.423501 
L 281.524187 258.340414 
L 282.6173 222.549286 
L 283.710413 185.14156 
L 284.803526 156.652427 
L 285.896639 137.601913 
L 286.989752 128.361992 
L 288.082865 127.370484 
L 289.175978 130.3376 
L 290.269091 131.927629 
L 291.362204 125.5511 
L 292.455317 109.205902 
L 293.54843 93.439743 
L 294.641543 90.991246 
L 295.734656 101.799288 
L 296.827769 115.156932 
L 297.920882 127.167762 
L 299.013994 134.962574 
L 300.107107 140.815182 
L 301.20022 150.868671 
L 302.293333 169.747759 
L 303.386446 195.160559 
L 304.479559 215.755052 
L 305.572672 226.412809 
L 306.665785 226.185178 
L 307.758898 217.533559 
L 308.852011 205.253328 
L 309.945124 191.515405 
L 311.038237 173.238988 
L 312.13135 147.344294 
L 313.224463 123.333044 
L 314.317576 106.924998 
L 315.410689 96.347972 
L 316.503802 87.02847 
L 317.596915 77.472332 
L 318.690028 68.203862 
L 319.78314 60.525548 
L 320.876253 57.132678 
L 321.969366 65.711168 
L 323.062479 90.071719 
L 324.155592 120.724299 
L 325.248705 152.539302 
L 326.341818 183.259329 
L 327.434931 212.517001 
L 328.528044 238.423639 
L 329.621157 260.365648 
L 330.71427 279.516693 
L 331.807383 292.421631 
L 332.900496 294.000993 
L 333.993609 277.145031 
L 335.086722 242.416178 
L 336.179835 201.60102 
L 337.272948 171.110732 
L 338.366061 152.739086 
L 339.459174 144.371493 
L 340.552287 144.448328 
L 341.645399 149.30815 
L 342.738512 153.958863 
L 343.831625 151.089403 
L 344.924738 135.298399 
L 346.017851 114.079456 
L 347.110964 100.871202 
L 348.204077 100.059167 
L 349.29719 103.046274 
L 350.390303 104.177146 
L 351.483416 102.567765 
L 352.576529 99.056034 
L 353.669642 98.895147 
L 354.762755 109.589693 
L 355.855868 132.662893 
L 356.948981 160.035908 
L 358.042094 182.392557 
L 359.135207 198.859299 
L 360.22832 211.226584 
L 361.321433 222.479093 
L 362.414545 233.925318 
L 363.507658 243.156233 
L 364.600771 244.4478 
L 365.693884 229.240179 
L 366.786997 196.997187 
L 367.88011 164.493097 
L 368.973223 138.220488 
L 370.066336 118.548588 
L 371.159449 104.596384 
L 372.252562 96.175142 
L 373.345675 91.93811 
L 374.438788 88.512156 
L 375.531901 80.846871 
L 376.625014 69.167332 
L 377.718127 66.356951 
L 378.81124 81.403238 
L 379.904353 106.705735 
L 380.997466 136.227444 
L 382.090579 164.843357 
L 383.183691 191.046796 
L 384.276804 213.821278 
L 385.369917 235.158955 
L 386.46303 255.780912 
L 387.556143 272.60066 
L 388.649256 281.60618 
L 389.742369 276.205704 
L 390.835482 253.04743 
L 391.928595 214.838398 
L 393.021708 178.818107 
L 394.114821 152.681923 
L 395.207934 136.018399 
L 396.301047 129.082631 
L 397.39416 129.630885 
L 398.487273 132.999229 
L 398.487273 132.58708 
L 398.487273 132.58708 
L 397.39416 129.185396 
L 396.301047 128.948122 
L 395.207934 135.611423 
L 394.114821 151.893838 
L 393.021708 178.324333 
L 391.928595 214.204942 
L 390.835482 251.646583 
L 389.742369 275.569948 
L 388.649256 279.57475 
L 387.556143 271.467681 
L 386.46303 255.398654 
L 385.369917 234.55424 
L 384.276804 212.900984 
L 383.183691 190.269058 
L 382.090579 164.550771 
L 380.997466 135.580191 
L 379.904353 106.460285 
L 378.81124 80.70885 
L 377.718127 65.96607 
L 376.625014 68.2068 
L 375.531901 79.251733 
L 374.438788 87.306749 
L 373.345675 91.117261 
L 372.252562 95.385907 
L 371.159449 103.715753 
L 370.066336 117.682903 
L 368.973223 137.86927 
L 367.88011 163.529691 
L 366.786997 195.832593 
L 365.693884 226.065998 
L 364.600771 241.92547 
L 363.507658 241.676635 
L 362.414545 233.005024 
L 361.321433 221.964625 
L 360.22832 210.60175 
L 359.135207 197.914288 
L 358.042094 181.257279 
L 356.948981 158.957537 
L 355.855868 131.88803 
L 354.762755 106.91446 
L 353.669642 96.845323 
L 352.576529 97.628745 
L 351.483416 101.645171 
L 350.390303 103.958712 
L 349.29719 102.243819 
L 348.204077 99.14692 
L 347.110964 98.924272 
L 346.017851 111.044957 
L 344.924738 134.00447 
L 343.831625 149.996087 
L 342.738512 153.348975 
L 341.645399 149.033959 
L 340.552287 144.242541 
L 339.459174 143.980038 
L 338.366061 151.632549 
L 337.272948 169.87371 
L 336.179835 200.745107 
L 335.086722 241.667757 
L 333.993609 276.428225 
L 332.900496 289.968024 
L 331.807383 288.085729 
L 330.71427 277.111052 
L 329.621157 260.137443 
L 328.528044 237.221681 
L 327.434931 211.220772 
L 326.341818 182.866724 
L 325.248705 151.851812 
L 324.155592 120.101189 
L 323.062479 89.358936 
L 321.969366 64.322966 
L 320.876253 53.83491 
L 319.78314 56.906453 
L 318.690028 65.594734 
L 317.596915 75.599554 
L 316.503802 85.291351 
L 315.410689 94.775252 
L 314.317576 106.286943 
L 313.224463 121.70859 
L 312.13135 146.331453 
L 311.038237 171.564524 
L 309.945124 190.439334 
L 308.852011 204.710118 
L 307.758898 216.696039 
L 306.665785 224.530834 
L 305.572672 224.068675 
L 304.479559 213.073495 
L 303.386446 193.228574 
L 302.293333 168.740667 
L 301.20022 148.02099 
L 300.107107 138.229621 
L 299.013994 133.22258 
L 297.920882 126.215278 
L 296.827769 115.111521 
L 295.734656 101.070986 
L 294.641543 90.093945 
L 293.54843 90.809921 
L 292.455317 107.644679 
L 291.362204 124.76704 
L 290.269091 131.429256 
L 289.175978 129.884638 
L 288.082865 126.977879 
L 286.989752 128.266571 
L 285.896639 137.111588 
L 284.803526 155.967236 
L 283.710413 184.673078 
L 282.6173 221.814085 
L 281.524187 257.078099 
L 280.431074 276.506082 
L 279.337961 277.409386 
L 278.244848 267.28398 
L 277.151736 249.52944 
L 276.058623 228.386245 
L 274.96551 206.91968 
L 273.872397 184.293502 
L 272.779284 158.227638 
L 271.686171 129.381731 
L 270.593058 101.033303 
L 269.499945 77.096397 
L 268.406832 65.944163 
L 267.313719 71.457049 
L 266.220606 82.823757 
L 265.127493 89.778303 
L 264.03438 93.042795 
L 262.941267 97.554784 
L 261.848154 106.614402 
L 260.755041 121.615277 
L 259.661928 143.041222 
L 258.568815 169.887633 
L 257.475702 203.316872 
L 256.38259 231.659104 
L 255.289477 244.449524 
L 254.196364 241.98621 
L 253.103251 232.269313 
L 252.010138 220.697776 
L 250.917025 208.813854 
L 249.823912 195.305479 
L 248.730799 177.559497 
L 247.637686 154.278274 
L 246.544573 126.611971 
L 245.45146 103.3425 
L 244.358347 95.448691 
L 243.265234 97.272418 
L 242.172121 101.43172 
L 241.079008 103.467493 
L 239.985895 101.478472 
L 238.892782 98.911434 
L 237.799669 99.890488 
L 236.706556 114.271575 
L 235.613444 137.465616 
L 234.520331 151.714748 
L 233.427218 153.580501 
L 232.334105 148.702924 
L 231.240992 144.30756 
L 230.147879 144.912786 
L 229.054766 153.869446 
L 227.961653 173.459274 
L 226.86854 205.565074 
L 225.775427 247.308829 
L 224.682314 280.019728 
L 223.589201 290.690706 
L 222.496088 287.201841 
L 221.402975 275.286048 
L 220.309862 257.574811 
L 219.216749 234.736651 
L 218.123636 209.066586 
L 217.030523 180.320826 
L 215.93741 148.101785 
L 214.844298 115.141412 
L 213.751185 84.95131 
L 212.658072 61.845473 
L 211.564959 53.950322 
L 210.471846 59.815065 
L 209.378733 68.329621 
L 208.28562 75.605558 
L 207.192507 83.757974 
L 206.099394 94.466635 
L 205.006281 108.522691 
L 203.913168 126.747055 
L 202.820055 149.101085 
L 201.726942 179.524886 
L 200.633829 206.413834 
L 199.540716 219.708695 
L 198.447603 221.279051 
L 197.35449 218.607395 
L 196.261377 215.232025 
L 195.168264 210.194774 
L 194.075152 200.220867 
L 192.982039 182.946241 
L 191.888926 159.229429 
L 190.795813 132.203225 
L 189.7027 115.469509 
L 188.609587 111.516952 
L 187.516474 112.546016 
L 186.423361 112.114386 
L 185.330248 107.553537 
L 184.237135 100.125272 
L 183.144022 95.061387 
L 182.050909 100.708016 
L 180.957796 120.931108 
L 179.864683 139.129988 
L 178.77157 145.279588 
L 177.678457 142.472018 
L 176.585344 138.016681 
L 175.492231 137.558929 
L 174.399118 144.351758 
L 173.306006 161.428452 
L 172.212893 190.027057 
L 171.11978 228.651942 
L 170.026667 265.704043 
L 168.933554 284.405511 
L 167.840441 285.166196 
L 166.747328 275.399417 
L 165.654215 259.009765 
L 164.561102 236.905144 
L 163.467989 212.5117 
L 162.374876 186.631505 
L 161.281763 158.386992 
L 160.18865 128.257502 
L 159.095537 97.677669 
L 158.002424 71.569907 
L 156.909311 59.009608 
L 155.816198 61.200584 
L 154.723085 70.706712 
L 153.629972 80.836078 
L 152.53686 88.617541 
L 151.443747 95.088659 
L 150.350634 103.996331 
L 149.257521 118.687888 
L 148.164408 142.448194 
L 147.071295 167.389574 
L 145.978182 190.094247 
L 144.885069 210.587699 
L 143.791956 227.197189 
L 142.698843 235.262935 
L 141.60573 231.243251 
L 140.512617 216.105439 
L 139.419504 194.305859 
L 138.326391 171.08908 
L 137.233278 155.61455 
L 136.140165 146.648501 
L 135.047052 137.258615 
L 133.953939 123.934119 
L 132.860826 107.155886 
L 131.767713 91.640479 
L 130.674601 84.455173 
L 129.581488 95.241627 
L 128.488375 112.986714 
L 127.395262 123.257678 
L 126.302149 124.290957 
L 125.209036 121.911056 
L 124.115923 122.191507 
L 123.02281 129.331785 
L 121.929697 145.857031 
L 120.836584 172.097387 
L 119.743471 206.354244 
L 118.650358 242.515304 
L 117.557245 268.004108 
L 116.464132 274.408291 
L 115.371019 267.226051 
L 114.277906 250.862458 
L 113.184793 230.18666 
L 112.09168 209.314271 
L 110.998567 188.697743 
L 109.905455 165.603403 
L 108.812342 139.14966 
L 107.719229 111.522445 
L 106.626116 86.179965 
L 105.533003 70.199333 
L 104.43989 71.576932 
L 103.346777 83.266244 
L 102.253664 92.641057 
L 101.160551 96.283847 
L 100.067438 98.76875 
L 98.974325 104.740282 
L 97.881212 116.617306 
L 96.788099 135.313728 
L 95.694986 160.499791 
L 94.601873 191.778675 
L 93.50876 224.724741 
L 92.415647 245.723846 
L 91.322534 249.199235 
L 90.229421 241.135342 
L 89.136309 228.741104 
L 88.043196 215.463807 
L 86.950083 201.679197 
L 85.85697 185.49827 
L 84.763857 164.641338 
L 83.670744 138.993627 
L 82.577631 110.935485 
L 81.484518 94.563334 
L 80.391405 92.35307 
L 79.298292 96.349824 
L 78.205179 100.710698 
L 77.112066 101.91502 
L 76.018953 100.052077 
L 74.92584 99.301101 
L 73.832727 105.042065 
z
" style="fill:#008000;fill-opacity:0.4;"/>
   </g>
   <g id="matplotlib.axis_1">
    <g id="xtick_1">
     <g id="line2d_1">
      <defs>
       <path d="M 0 0 
L 0 3.5 
" id="m3fd194ae24" style="stroke:#000000;stroke-width:0.8;"/>
      </defs>
      <g>
       <use style="stroke:#000000;stroke-width:0.8;" x="73.832727" xlink:href="#m3fd194ae24" y="307.584"/>
      </g>
     </g>
     <g id="text_1">
      <!-- 0 -->
      <defs>
       <path d="M 31.78125 66.40625 
Q 24.171875 66.40625 20.328125 58.90625 
Q 16.5 51.421875 16.5 36.375 
Q 16.5 21.390625 20.328125 13.890625 
Q 24.171875 6.390625 31.78125 6.390625 
Q 39.453125 6.390625 43.28125 13.890625 
Q 47.125 21.390625 47.125 36.375 
Q 47.125 51.421875 43.28125 58.90625 
Q 39.453125 66.40625 31.78125 66.40625 
z
M 31.78125 74.21875 
Q 44.046875 74.21875 50.515625 64.515625 
Q 56.984375 54.828125 56.984375 36.375 
Q 56.984375 17.96875 50.515625 8.265625 
Q 44.046875 -1.421875 31.78125 -1.421875 
Q 19.53125 -1.421875 13.0625 8.265625 
Q 6.59375 17.96875 6.59375 36.375 
Q 6.59375 54.828125 13.0625 64.515625 
Q 19.53125 74.21875 31.78125 74.21875 
z
" id="DejaVuSans-30"/>
      </defs>
      <g transform="translate(70.651477 322.182437)scale(0.1 -0.1)">
       <use xlink:href="#DejaVuSans-30"/>
      </g>
     </g>
    </g>
    <g id="xtick_2">
     <g id="line2d_2">
      <g>
       <use style="stroke:#000000;stroke-width:0.8;" x="128.488375" xlink:href="#m3fd194ae24" y="307.584"/>
      </g>
     </g>
     <g id="text_2">
      <!-- 50 -->
      <defs>
       <path d="M 10.796875 72.90625 
L 49.515625 72.90625 
L 49.515625 64.59375 
L 19.828125 64.59375 
L 19.828125 46.734375 
Q 21.96875 47.46875 24.109375 47.828125 
Q 26.265625 48.1875 28.421875 48.1875 
Q 40.625 48.1875 47.75 41.5 
Q 54.890625 34.8125 54.890625 23.390625 
Q 54.890625 11.625 47.5625 5.09375 
Q 40.234375 -1.421875 26.90625 -1.421875 
Q 22.3125 -1.421875 17.546875 -0.640625 
Q 12.796875 0.140625 7.71875 1.703125 
L 7.71875 11.625 
Q 12.109375 9.234375 16.796875 8.0625 
Q 21.484375 6.890625 26.703125 6.890625 
Q 35.15625 6.890625 40.078125 11.328125 
Q 45.015625 15.765625 45.015625 23.390625 
Q 45.015625 31 40.078125 35.4375 
Q 35.15625 39.890625 26.703125 39.890625 
Q 22.75 39.890625 18.8125 39.015625 
Q 14.890625 38.140625 10.796875 36.28125 
z
" id="DejaVuSans-35"/>
      </defs>
      <g transform="translate(122.125875 322.182437)scale(0.1 -0.1)">
       <use xlink:href="#DejaVuSans-35"/>
       <use x="63.623047" xlink:href="#DejaVuSans-30"/>
      </g>
     </g>
    </g>
    <g id="xtick_3">
     <g id="line2d_3">
      <g>
       <use style="stroke:#000000;stroke-width:0.8;" x="183.144022" xlink:href="#m3fd194ae24" y="307.584"/>
      </g>
     </g>
     <g id="text_3">
      <!-- 100 -->
      <defs>
       <path d="M 12.40625 8.296875 
L 28.515625 8.296875 
L 28.515625 63.921875 
L 10.984375 60.40625 
L 10.984375 69.390625 
L 28.421875 72.90625 
L 38.28125 72.90625 
L 38.28125 8.296875 
L 54.390625 8.296875 
L 54.390625 0 
L 12.40625 0 
z
" id="DejaVuSans-31"/>
      </defs>
      <g transform="translate(173.600272 322.182437)scale(0.1 -0.1)">
       <use xlink:href="#DejaVuSans-31"/>
       <use x="63.623047" xlink:href="#DejaVuSans-30"/>
       <use x="127.246094" xlink:href="#DejaVuSans-30"/>
      </g>
     </g>
    </g>
    <g id="xtick_4">
     <g id="line2d_4">
      <g>
       <use style="stroke:#000000;stroke-width:0.8;" x="237.799669" xlink:href="#m3fd194ae24" y="307.584"/>
      </g>
     </g>
     <g id="text_4">
      <!-- 150 -->
      <g transform="translate(228.255919 322.182437)scale(0.1 -0.1)">
       <use xlink:href="#DejaVuSans-31"/>
       <use x="63.623047" xlink:href="#DejaVuSans-35"/>
       <use x="127.246094" xlink:href="#DejaVuSans-30"/>
      </g>
     </g>
    </g>
    <g id="xtick_5">
     <g id="line2d_5">
      <g>
       <use style="stroke:#000000;stroke-width:0.8;" x="292.455317" xlink:href="#m3fd194ae24" y="307.584"/>
      </g>
     </g>
     <g id="text_5">
      <!-- 200 -->
      <defs>
       <path d="M 19.1875 8.296875 
L 53.609375 8.296875 
L 53.609375 0 
L 7.328125 0 
L 7.328125 8.296875 
Q 12.9375 14.109375 22.625 23.890625 
Q 32.328125 33.6875 34.8125 36.53125 
Q 39.546875 41.84375 41.421875 45.53125 
Q 43.3125 49.21875 43.3125 52.78125 
Q 43.3125 58.59375 39.234375 62.25 
Q 35.15625 65.921875 28.609375 65.921875 
Q 23.96875 65.921875 18.8125 64.3125 
Q 13.671875 62.703125 7.8125 59.421875 
L 7.8125 69.390625 
Q 13.765625 71.78125 18.9375 73 
Q 24.125 74.21875 28.421875 74.21875 
Q 39.75 74.21875 46.484375 68.546875 
Q 53.21875 62.890625 53.21875 53.421875 
Q 53.21875 48.921875 51.53125 44.890625 
Q 49.859375 40.875 45.40625 35.40625 
Q 44.1875 33.984375 37.640625 27.21875 
Q 31.109375 20.453125 19.1875 8.296875 
z
" id="DejaVuSans-32"/>
      </defs>
      <g transform="translate(282.911567 322.182437)scale(0.1 -0.1)">
       <use xlink:href="#DejaVuSans-32"/>
       <use x="63.623047" xlink:href="#DejaVuSans-30"/>
       <use x="127.246094" xlink:href="#DejaVuSans-30"/>
      </g>
     </g>
    </g>
    <g id="xtick_6">
     <g id="line2d_6">
      <g>
       <use style="stroke:#000000;stroke-width:0.8;" x="347.110964" xlink:href="#m3fd194ae24" y="307.584"/>
      </g>
     </g>
     <g id="text_6">
      <!-- 250 -->
      <g transform="translate(337.567214 322.182437)scale(0.1 -0.1)">
       <use xlink:href="#DejaVuSans-32"/>
       <use x="63.623047" xlink:href="#DejaVuSans-35"/>
       <use x="127.246094" xlink:href="#DejaVuSans-30"/>
      </g>
     </g>
    </g>
    <g id="xtick_7">
     <g id="line2d_7">
      <g>
       <use style="stroke:#000000;stroke-width:0.8;" x="401.766612" xlink:href="#m3fd194ae24" y="307.584"/>
      </g>
     </g>
     <g id="text_7">
      <!-- 300 -->
      <defs>
       <path d="M 40.578125 39.3125 
Q 47.65625 37.796875 51.625 33 
Q 55.609375 28.21875 55.609375 21.1875 
Q 55.609375 10.40625 48.1875 4.484375 
Q 40.765625 -1.421875 27.09375 -1.421875 
Q 22.515625 -1.421875 17.65625 -0.515625 
Q 12.796875 0.390625 7.625 2.203125 
L 7.625 11.71875 
Q 11.71875 9.328125 16.59375 8.109375 
Q 21.484375 6.890625 26.8125 6.890625 
Q 36.078125 6.890625 40.9375 10.546875 
Q 45.796875 14.203125 45.796875 21.1875 
Q 45.796875 27.640625 41.28125 31.265625 
Q 36.765625 34.90625 28.71875 34.90625 
L 20.21875 34.90625 
L 20.21875 43.015625 
L 29.109375 43.015625 
Q 36.375 43.015625 40.234375 45.921875 
Q 44.09375 48.828125 44.09375 54.296875 
Q 44.09375 59.90625 40.109375 62.90625 
Q 36.140625 65.921875 28.71875 65.921875 
Q 24.65625 65.921875 20.015625 65.03125 
Q 15.375 64.15625 9.8125 62.3125 
L 9.8125 71.09375 
Q 15.4375 72.65625 20.34375 73.4375 
Q 25.25 74.21875 29.59375 74.21875 
Q 40.828125 74.21875 47.359375 69.109375 
Q 53.90625 64.015625 53.90625 55.328125 
Q 53.90625 49.265625 50.4375 45.09375 
Q 46.96875 40.921875 40.578125 39.3125 
z
" id="DejaVuSans-33"/>
      </defs>
      <g transform="translate(392.222862 322.182437)scale(0.1 -0.1)">
       <use xlink:href="#DejaVuSans-33"/>
       <use x="63.623047" xlink:href="#DejaVuSans-30"/>
       <use x="127.246094" xlink:href="#DejaVuSans-30"/>
      </g>
     </g>
    </g>
   </g>
   <g id="matplotlib.axis_2">
    <g id="ytick_1">
     <g id="line2d_8">
      <defs>
       <path d="M 0 0 
L -3.5 0 
" id="m5151a33bd4" style="stroke:#000000;stroke-width:0.8;"/>
      </defs>
      <g>
       <use style="stroke:#000000;stroke-width:0.8;" x="57.6" xlink:href="#m5151a33bd4" y="286.924392"/>
      </g>
     </g>
     <g id="text_8">
      <!-- 0.20 -->
      <defs>
       <path d="M 10.6875 12.40625 
L 21 12.40625 
L 21 0 
L 10.6875 0 
z
" id="DejaVuSans-2e"/>
      </defs>
      <g transform="translate(28.334375 290.723611)scale(0.1 -0.1)">
       <use xlink:href="#DejaVuSans-30"/>
       <use x="63.623047" xlink:href="#DejaVuSans-2e"/>
       <use x="95.410156" xlink:href="#DejaVuSans-32"/>
       <use x="159.033203" xlink:href="#DejaVuSans-30"/>
      </g>
     </g>
    </g>
    <g id="ytick_2">
     <g id="line2d_9">
      <g>
       <use style="stroke:#000000;stroke-width:0.8;" x="57.6" xlink:href="#m5151a33bd4" y="254.989698"/>
      </g>
     </g>
     <g id="text_9">
      <!-- 0.25 -->
      <g transform="translate(28.334375 258.788917)scale(0.1 -0.1)">
       <use xlink:href="#DejaVuSans-30"/>
       <use x="63.623047" xlink:href="#DejaVuSans-2e"/>
       <use x="95.410156" xlink:href="#DejaVuSans-32"/>
       <use x="159.033203" xlink:href="#DejaVuSans-35"/>
      </g>
     </g>
    </g>
    <g id="ytick_3">
     <g id="line2d_10">
      <g>
       <use style="stroke:#000000;stroke-width:0.8;" x="57.6" xlink:href="#m5151a33bd4" y="223.055004"/>
      </g>
     </g>
     <g id="text_10">
      <!-- 0.30 -->
      <g transform="translate(28.334375 226.854222)scale(0.1 -0.1)">
       <use xlink:href="#DejaVuSans-30"/>
       <use x="63.623047" xlink:href="#DejaVuSans-2e"/>
       <use x="95.410156" xlink:href="#DejaVuSans-33"/>
       <use x="159.033203" xlink:href="#DejaVuSans-30"/>
      </g>
     </g>
    </g>
    <g id="ytick_4">
     <g id="line2d_11">
      <g>
       <use style="stroke:#000000;stroke-width:0.8;" x="57.6" xlink:href="#m5151a33bd4" y="191.120309"/>
      </g>
     </g>
     <g id="text_11">
      <!-- 0.35 -->
      <g transform="translate(28.334375 194.919528)scale(0.1 -0.1)">
       <use xlink:href="#DejaVuSans-30"/>
       <use x="63.623047" xlink:href="#DejaVuSans-2e"/>
       <use x="95.410156" xlink:href="#DejaVuSans-33"/>
       <use x="159.033203" xlink:href="#DejaVuSans-35"/>
      </g>
     </g>
    </g>
    <g id="ytick_5">
     <g id="line2d_12">
      <g>
       <use style="stroke:#000000;stroke-width:0.8;" x="57.6" xlink:href="#m5151a33bd4" y="159.185615"/>
      </g>
     </g>
     <g id="text_12">
      <!-- 0.40 -->
      <defs>
       <path d="M 37.796875 64.3125 
L 12.890625 25.390625 
L 37.796875 25.390625 
z
M 35.203125 72.90625 
L 47.609375 72.90625 
L 47.609375 25.390625 
L 58.015625 25.390625 
L 58.015625 17.1875 
L 47.609375 17.1875 
L 47.609375 0 
L 37.796875 0 
L 37.796875 17.1875 
L 4.890625 17.1875 
L 4.890625 26.703125 
z
" id="DejaVuSans-34"/>
      </defs>
      <g transform="translate(28.334375 162.984834)scale(0.1 -0.1)">
       <use xlink:href="#DejaVuSans-30"/>
       <use x="63.623047" xlink:href="#DejaVuSans-2e"/>
       <use x="95.410156" xlink:href="#DejaVuSans-34"/>
       <use x="159.033203" xlink:href="#DejaVuSans-30"/>
      </g>
     </g>
    </g>
    <g id="ytick_6">
     <g id="line2d_13">
      <g>
       <use style="stroke:#000000;stroke-width:0.8;" x="57.6" xlink:href="#m5151a33bd4" y="127.25092"/>
      </g>
     </g>
     <g id="text_13">
      <!-- 0.45 -->
      <g transform="translate(28.334375 131.050139)scale(0.1 -0.1)">
       <use xlink:href="#DejaVuSans-30"/>
       <use x="63.623047" xlink:href="#DejaVuSans-2e"/>
       <use x="95.410156" xlink:href="#DejaVuSans-34"/>
       <use x="159.033203" xlink:href="#DejaVuSans-35"/>
      </g>
     </g>
    </g>
    <g id="ytick_7">
     <g id="line2d_14">
      <g>
       <use style="stroke:#000000;stroke-width:0.8;" x="57.6" xlink:href="#m5151a33bd4" y="95.316226"/>
      </g>
     </g>
     <g id="text_14">
      <!-- 0.50 -->
      <g transform="translate(28.334375 99.115445)scale(0.1 -0.1)">
       <use xlink:href="#DejaVuSans-30"/>
       <use x="63.623047" xlink:href="#DejaVuSans-2e"/>
       <use x="95.410156" xlink:href="#DejaVuSans-35"/>
       <use x="159.033203" xlink:href="#DejaVuSans-30"/>
      </g>
     </g>
    </g>
    <g id="ytick_8">
     <g id="line2d_15">
      <g>
       <use style="stroke:#000000;stroke-width:0.8;" x="57.6" xlink:href="#m5151a33bd4" y="63.381532"/>
      </g>
     </g>
     <g id="text_15">
      <!-- 0.55 -->
      <g transform="translate(28.334375 67.18075)scale(0.1 -0.1)">
       <use xlink:href="#DejaVuSans-30"/>
       <use x="63.623047" xlink:href="#DejaVuSans-2e"/>
       <use x="95.410156" xlink:href="#DejaVuSans-35"/>
       <use x="159.033203" xlink:href="#DejaVuSans-35"/>
      </g>
     </g>
    </g>
   </g>
   <g id="line2d_16">
    <path clip-path="url(#p6315f23b5b)" d="M 73.832727 106.483363 
L 74.92584 99.595049 
L 76.018953 100.719576 
L 77.112066 102.173669 
L 78.205179 100.907352 
L 80.391405 92.873861 
L 81.484518 95.360083 
L 82.577631 111.735981 
L 84.763857 165.124616 
L 85.85697 185.908567 
L 86.950083 202.006846 
L 89.136309 229.166027 
L 90.229421 241.712955 
L 91.322534 250.077929 
L 92.415647 247.341552 
L 93.50876 226.177152 
L 95.694986 160.702513 
L 96.788099 135.593114 
L 97.881212 116.98051 
L 98.974325 105.027141 
L 100.067438 98.997019 
L 101.160551 96.585737 
L 102.253664 93.220458 
L 103.346777 83.908727 
L 104.43989 71.651766 
L 105.533003 70.423132 
L 106.626116 86.472232 
L 107.719229 111.639539 
L 109.905455 165.816109 
L 110.998567 188.917454 
L 114.277906 251.300389 
L 115.371019 267.470202 
L 116.464132 274.87671 
L 117.557245 268.305401 
L 118.650358 243.349715 
L 120.836584 172.282885 
L 121.929697 146.117938 
L 123.02281 129.45335 
L 124.115923 122.316584 
L 125.209036 122.13264 
L 126.302149 124.523697 
L 127.395262 123.503278 
L 128.488375 113.438739 
L 129.581488 96.144186 
L 130.674601 85.360266 
L 131.767713 91.68738 
L 135.047052 137.747642 
L 137.233278 156.609549 
L 138.326391 171.784916 
L 140.512617 217.665492 
L 141.60573 232.777628 
L 142.698843 236.53847 
L 143.791956 228.04597 
L 144.885069 210.991566 
L 147.071295 167.956372 
L 149.257521 119.3226 
L 150.350634 104.251128 
L 151.443747 95.818665 
L 152.53686 89.492189 
L 153.629972 81.758671 
L 155.816198 62.674285 
L 156.909311 60.221913 
L 158.002424 71.901708 
L 159.095537 97.835448 
L 162.374876 186.793797 
L 164.561102 237.526104 
L 165.654215 259.121622 
L 166.747328 276.273746 
L 167.840441 286.61569 
L 168.933554 285.447945 
L 170.026667 265.977149 
L 172.212893 190.374102 
L 173.306006 161.855994 
L 174.399118 144.684709 
L 175.492231 137.618625 
L 176.585344 138.19643 
L 177.678457 142.691132 
L 178.77157 145.491805 
L 179.864683 139.491702 
L 180.957796 121.864815 
L 182.050909 102.128109 
L 183.144022 95.60449 
L 184.237135 100.68168 
L 185.330248 107.732009 
L 186.423361 112.410016 
L 187.516474 113.193481 
L 188.609587 112.482189 
L 189.7027 116.672446 
L 190.795813 133.11115 
L 192.982039 184.031233 
L 194.075152 201.198047 
L 195.168264 210.831254 
L 196.261377 215.523312 
L 198.447603 222.000733 
L 199.540716 221.208752 
L 200.633829 208.340135 
L 202.820055 149.98161 
L 203.913168 126.94605 
L 205.006281 109.128833 
L 206.099394 95.197855 
L 207.192507 84.631516 
L 208.28562 76.776433 
L 209.378733 70.024374 
L 210.471846 61.964483 
L 211.564959 55.453211 
L 212.658072 62.598919 
L 213.751185 85.448618 
L 215.93741 148.342934 
L 218.123636 209.861291 
L 219.216749 235.440343 
L 220.309862 257.683709 
L 221.402975 276.210089 
L 222.496088 288.940749 
L 223.589201 292.507641 
L 224.682314 280.541073 
L 225.775427 247.712207 
L 226.86854 205.972923 
L 227.961653 174.08464 
L 229.054766 154.385617 
L 230.147879 145.123491 
L 231.240992 144.383245 
L 233.427218 153.788013 
L 234.520331 152.234283 
L 235.613444 138.11851 
L 236.706556 115.714406 
L 237.799669 100.932261 
L 238.892782 99.294012 
L 239.985895 102.00548 
L 241.079008 103.531533 
L 242.172121 101.768312 
L 243.265234 97.808835 
L 244.358347 96.179527 
L 245.45146 104.327345 
L 246.544573 127.051435 
L 247.637686 154.786504 
L 248.730799 178.12225 
L 249.823912 195.766169 
L 250.917025 209.133819 
L 253.103251 232.756764 
L 254.196364 242.752536 
L 255.289477 245.842324 
L 256.38259 233.566202 
L 257.475702 203.823931 
L 258.568815 170.437485 
L 259.661928 143.130128 
L 260.755041 122.020443 
L 261.848154 107.002408 
L 262.941267 97.898891 
L 264.03438 93.418666 
L 265.127493 90.391257 
L 266.220606 83.724145 
L 267.313719 72.065427 
L 268.406832 66.111948 
L 269.499945 77.360199 
L 270.593058 101.164533 
L 273.872397 184.551343 
L 276.058623 228.767695 
L 277.151736 249.832032 
L 278.244848 267.621147 
L 279.337961 278.187699 
L 280.431074 276.944375 
L 281.524187 257.800164 
L 283.710413 184.899644 
L 284.803526 156.225481 
L 285.896639 137.352503 
L 286.989752 128.314133 
L 288.082865 127.189606 
L 289.175978 130.142713 
L 290.269091 131.667489 
L 291.362204 125.14685 
L 293.54843 92.005237 
L 294.641543 90.486636 
L 295.734656 101.504957 
L 296.827769 115.133407 
L 297.920882 126.603072 
L 299.013994 133.965083 
L 300.107107 139.311377 
L 301.20022 149.152585 
L 302.293333 169.137956 
L 303.386446 194.385099 
L 304.479559 214.66874 
L 305.572672 225.439248 
L 306.665785 225.456067 
L 307.758898 217.132608 
L 308.852011 205.031275 
L 309.945124 191.116264 
L 311.038237 172.514943 
L 313.224463 122.550772 
L 314.317576 106.527433 
L 315.410689 95.623012 
L 319.78314 59.042671 
L 320.876253 55.679096 
L 321.969366 64.956338 
L 323.062479 89.662721 
L 327.434931 211.938111 
L 328.528044 237.948068 
L 329.621157 260.267864 
L 330.71427 278.142564 
L 331.807383 289.882822 
L 332.900496 291.642637 
L 333.993609 276.731264 
L 335.086722 241.958214 
L 336.179835 201.091172 
L 337.272948 170.464949 
L 338.366061 152.096326 
L 339.459174 144.158851 
L 340.552287 144.342156 
L 342.738512 153.61152 
L 343.831625 150.474043 
L 344.924738 134.753445 
L 346.017851 112.522639 
L 347.110964 99.809437 
L 348.204077 99.651254 
L 349.29719 102.702721 
L 350.390303 104.070164 
L 351.483416 102.03486 
L 352.576529 98.218025 
L 353.669642 97.643414 
L 354.762755 107.905734 
L 355.855868 132.205269 
L 356.948981 159.544561 
L 358.042094 181.839448 
L 359.135207 198.367569 
L 361.321433 222.280055 
L 362.414545 233.533203 
L 363.507658 242.541767 
L 364.600771 243.498105 
L 365.693884 227.900774 
L 367.88011 163.999025 
L 368.973223 138.05315 
L 370.066336 118.109933 
L 371.159449 104.118066 
L 372.252562 95.763312 
L 373.345675 91.56837 
L 374.438788 88.044696 
L 375.531901 80.243263 
L 376.625014 68.759121 
L 377.718127 66.154953 
L 378.81124 81.060366 
L 379.904353 106.590238 
L 382.090579 164.732458 
L 383.183691 190.636392 
L 385.369917 234.927684 
L 386.46303 255.567503 
L 387.556143 272.008761 
L 388.649256 280.469752 
L 389.742369 275.886485 
L 390.835482 252.412355 
L 393.021708 178.625541 
L 394.114821 152.214484 
L 395.207934 135.814315 
L 396.301047 129.029683 
L 397.39416 129.420138 
L 398.487273 132.836298 
L 398.487273 132.836298 
" style="fill:none;opacity:0.4;stroke:#1f77b4;stroke-linecap:square;stroke-width:1.5;"/>
   </g>
   <g id="line2d_17">
    <path clip-path="url(#p6315f23b5b)" d="M 73.832727 108.158189 
L 74.92584 99.816719 
L 76.018953 101.218971 
L 77.112066 102.38925 
L 78.205179 101.144691 
L 80.391405 93.644125 
L 81.484518 96.697657 
L 82.577631 113.068659 
L 84.763857 165.567955 
L 85.85697 186.370279 
L 86.950083 202.398877 
L 90.229421 242.154506 
L 91.322534 250.702976 
L 92.415647 248.307108 
L 93.50876 227.369509 
L 95.694986 160.944131 
L 96.788099 135.802904 
L 97.881212 117.376649 
L 98.974325 105.413402 
L 100.067438 99.298163 
L 101.160551 96.86557 
L 102.253664 93.624007 
L 103.346777 84.331394 
L 104.43989 71.696496 
L 105.533003 70.6362 
L 106.626116 86.734096 
L 107.719229 111.713861 
L 109.905455 165.947148 
L 110.998567 189.246701 
L 114.277906 251.65859 
L 115.371019 267.618081 
L 116.464132 275.368823 
L 117.557245 268.537545 
L 118.650358 244.076527 
L 120.836584 172.44573 
L 121.929697 146.426682 
L 123.02281 129.527225 
L 124.115923 122.414539 
L 125.209036 122.294464 
L 126.302149 124.663444 
L 127.395262 123.784793 
L 128.488375 113.782271 
L 129.581488 97.029906 
L 130.674601 86.553282 
L 131.767713 91.723254 
L 135.047052 138.409988 
L 137.233278 157.979952 
L 138.326391 172.838271 
L 140.512617 218.659384 
L 141.60573 233.775353 
L 142.698843 237.419676 
L 143.791956 228.734844 
L 144.885069 211.380382 
L 147.071295 168.389194 
L 149.257521 119.806496 
L 150.350634 104.602196 
L 151.443747 96.441221 
L 152.53686 90.130479 
L 153.629972 82.339244 
L 155.816198 63.697621 
L 156.909311 61.204863 
L 158.002424 72.375236 
L 159.095537 98.074298 
L 162.374876 187.066072 
L 164.561102 237.91741 
L 165.654215 259.258664 
L 166.747328 277.396357 
L 167.840441 288.608245 
L 168.933554 286.841043 
L 170.026667 266.202416 
L 172.212893 190.70535 
L 173.306006 162.435545 
L 174.399118 145.115125 
L 175.492231 137.683091 
L 176.585344 138.373647 
L 177.678457 142.831858 
L 178.77157 145.834869 
L 179.864683 140.018092 
L 182.050909 103.754011 
L 183.144022 96.250124 
L 184.237135 101.086378 
L 185.330248 107.874864 
L 186.423361 112.828893 
L 187.516474 114.098616 
L 188.609587 113.872008 
L 189.7027 118.548844 
L 190.795813 134.59507 
L 192.982039 184.862131 
L 194.075152 202.003398 
L 195.168264 211.415127 
L 196.261377 215.80685 
L 198.447603 222.513774 
L 199.540716 222.118359 
L 200.633829 209.699531 
L 202.820055 150.876143 
L 203.913168 127.191394 
L 205.006281 109.739595 
L 206.099394 95.894499 
L 207.192507 85.322647 
L 208.28562 77.511101 
L 209.378733 71.114071 
L 210.471846 63.469799 
L 211.564959 56.714078 
L 212.658072 63.400948 
L 213.751185 85.969324 
L 215.93741 148.748462 
L 218.123636 210.502497 
L 219.216749 235.924813 
L 221.402975 277.415198 
L 222.496088 291.388288 
L 223.589201 295.081791 
L 224.682314 281.232608 
L 225.775427 248.232572 
L 226.86854 206.585387 
L 227.961653 174.720438 
L 229.054766 155.100145 
L 230.147879 145.380693 
L 231.240992 144.473684 
L 232.334105 148.993785 
L 233.427218 154.088071 
L 234.520331 152.848302 
L 235.613444 138.708961 
L 236.706556 117.172139 
L 237.799669 102.184612 
L 238.892782 99.638587 
L 239.985895 102.397617 
L 241.079008 103.586482 
L 242.172121 102.223828 
L 243.265234 98.564623 
L 244.358347 97.311697 
L 245.45146 105.998764 
L 246.544573 127.747824 
L 247.637686 155.217537 
L 248.730799 178.652813 
L 249.823912 196.264861 
L 250.917025 209.4818 
L 253.103251 233.115454 
L 254.196364 243.312905 
L 255.289477 246.716057 
L 256.38259 234.879271 
L 257.475702 204.597006 
L 258.568815 170.977501 
L 259.661928 143.221717 
L 260.755041 122.414283 
L 261.848154 107.466866 
L 262.941267 98.303206 
L 264.03438 93.761901 
L 265.127493 90.804365 
L 266.220606 84.258519 
L 267.313719 72.46874 
L 268.406832 66.255143 
L 269.499945 77.654552 
L 270.593058 101.338535 
L 273.872397 184.891894 
L 276.058623 229.037521 
L 277.151736 250.097367 
L 278.244848 267.904216 
L 279.337961 279.143057 
L 280.431074 277.423501 
L 281.524187 258.340414 
L 283.710413 185.14156 
L 284.803526 156.652427 
L 285.896639 137.601913 
L 286.989752 128.361992 
L 288.082865 127.370484 
L 289.175978 130.3376 
L 290.269091 131.927629 
L 291.362204 125.5511 
L 293.54843 93.439743 
L 294.641543 90.991246 
L 295.734656 101.799288 
L 297.920882 127.167762 
L 299.013994 134.962574 
L 300.107107 140.815182 
L 301.20022 150.868671 
L 302.293333 169.747759 
L 303.386446 195.160559 
L 304.479559 215.755052 
L 305.572672 226.412809 
L 306.665785 226.185178 
L 307.758898 217.533559 
L 308.852011 205.253328 
L 309.945124 191.515405 
L 311.038237 173.238988 
L 313.224463 123.333044 
L 314.317576 106.924998 
L 315.410689 96.347972 
L 318.690028 68.203862 
L 319.78314 60.525548 
L 320.876253 57.132678 
L 321.969366 65.711168 
L 323.062479 90.071719 
L 327.434931 212.517001 
L 328.528044 238.423639 
L 329.621157 260.365648 
L 330.71427 279.516693 
L 331.807383 292.421631 
L 332.900496 294.000993 
L 333.993609 277.145031 
L 335.086722 242.416178 
L 336.179835 201.60102 
L 337.272948 171.110732 
L 338.366061 152.739086 
L 339.459174 144.371493 
L 340.552287 144.448328 
L 342.738512 153.958863 
L 343.831625 151.089403 
L 344.924738 135.298399 
L 346.017851 114.079456 
L 347.110964 100.871202 
L 348.204077 100.059167 
L 349.29719 103.046274 
L 350.390303 104.177146 
L 351.483416 102.567765 
L 352.576529 99.056034 
L 353.669642 98.895147 
L 354.762755 109.589693 
L 355.855868 132.662893 
L 356.948981 160.035908 
L 358.042094 182.392557 
L 359.135207 198.859299 
L 361.321433 222.479093 
L 362.414545 233.925318 
L 363.507658 243.156233 
L 364.600771 244.4478 
L 365.693884 229.240179 
L 367.88011 164.493097 
L 368.973223 138.220488 
L 370.066336 118.548588 
L 371.159449 104.596384 
L 372.252562 96.175142 
L 373.345675 91.93811 
L 374.438788 88.512156 
L 375.531901 80.846871 
L 376.625014 69.167332 
L 377.718127 66.356951 
L 378.81124 81.403238 
L 379.904353 106.705735 
L 382.090579 164.843357 
L 383.183691 191.046796 
L 385.369917 235.158955 
L 386.46303 255.780912 
L 387.556143 272.60066 
L 388.649256 281.60618 
L 389.742369 276.205704 
L 390.835482 253.04743 
L 393.021708 178.818107 
L 394.114821 152.681923 
L 395.207934 136.018399 
L 396.301047 129.082631 
L 397.39416 129.630885 
L 398.487273 132.999229 
L 398.487273 132.999229 
" style="fill:none;opacity:0.4;stroke:#ff7f0e;stroke-linecap:square;stroke-width:1.5;"/>
   </g>
   <g id="line2d_18">
    <path clip-path="url(#p6315f23b5b)" d="M 73.832727 105.042065 
L 74.92584 99.301101 
L 76.018953 100.052077 
L 77.112066 101.91502 
L 78.205179 100.710698 
L 80.391405 92.35307 
L 81.484518 94.563334 
L 82.577631 110.935485 
L 84.763857 164.641338 
L 85.85697 185.49827 
L 86.950083 201.679197 
L 89.136309 228.741104 
L 90.229421 241.135342 
L 91.322534 249.199235 
L 92.415647 245.723846 
L 93.50876 224.724741 
L 95.694986 160.499791 
L 96.788099 135.313728 
L 97.881212 116.617306 
L 98.974325 104.740282 
L 100.067438 98.76875 
L 101.160551 96.283847 
L 102.253664 92.641057 
L 103.346777 83.266244 
L 104.43989 71.576932 
L 105.533003 70.199333 
L 106.626116 86.179965 
L 108.812342 139.14966 
L 109.905455 165.603403 
L 110.998567 188.697743 
L 114.277906 250.862458 
L 115.371019 267.226051 
L 116.464132 274.408291 
L 117.557245 268.004108 
L 118.650358 242.515304 
L 120.836584 172.097387 
L 121.929697 145.857031 
L 123.02281 129.331785 
L 124.115923 122.191507 
L 125.209036 121.911056 
L 126.302149 124.290957 
L 127.395262 123.257678 
L 128.488375 112.986714 
L 129.581488 95.241627 
L 130.674601 84.455173 
L 131.767713 91.640479 
L 135.047052 137.258615 
L 137.233278 155.61455 
L 138.326391 171.08908 
L 140.512617 216.105439 
L 141.60573 231.243251 
L 142.698843 235.262935 
L 143.791956 227.197189 
L 144.885069 210.587699 
L 145.978182 190.094247 
L 148.164408 142.448194 
L 149.257521 118.687888 
L 150.350634 103.996331 
L 151.443747 95.088659 
L 152.53686 88.617541 
L 153.629972 80.836078 
L 155.816198 61.200584 
L 156.909311 59.009608 
L 158.002424 71.569907 
L 159.095537 97.677669 
L 162.374876 186.631505 
L 164.561102 236.905144 
L 165.654215 259.009765 
L 166.747328 275.399417 
L 167.840441 285.166196 
L 168.933554 284.405511 
L 170.026667 265.704043 
L 172.212893 190.027057 
L 173.306006 161.428452 
L 174.399118 144.351758 
L 175.492231 137.558929 
L 176.585344 138.016681 
L 177.678457 142.472018 
L 178.77157 145.279588 
L 179.864683 139.129988 
L 180.957796 120.931108 
L 182.050909 100.708016 
L 183.144022 95.061387 
L 184.237135 100.125272 
L 185.330248 107.553537 
L 186.423361 112.114386 
L 187.516474 112.546016 
L 188.609587 111.516952 
L 189.7027 115.469509 
L 190.795813 132.203225 
L 191.888926 159.229429 
L 192.982039 182.946241 
L 194.075152 200.220867 
L 195.168264 210.194774 
L 196.261377 215.232025 
L 197.35449 218.607395 
L 198.447603 221.279051 
L 199.540716 219.708695 
L 200.633829 206.413834 
L 201.726942 179.524886 
L 202.820055 149.101085 
L 203.913168 126.747055 
L 205.006281 108.522691 
L 206.099394 94.466635 
L 207.192507 83.757974 
L 208.28562 75.605558 
L 209.378733 68.329621 
L 210.471846 59.815065 
L 211.564959 53.950322 
L 212.658072 61.845473 
L 213.751185 84.95131 
L 215.93741 148.101785 
L 217.030523 180.320826 
L 218.123636 209.066586 
L 219.216749 234.736651 
L 220.309862 257.574811 
L 221.402975 275.286048 
L 222.496088 287.201841 
L 223.589201 290.690706 
L 224.682314 280.019728 
L 225.775427 247.308829 
L 226.86854 205.565074 
L 227.961653 173.459274 
L 229.054766 153.869446 
L 230.147879 144.912786 
L 231.240992 144.30756 
L 232.334105 148.702924 
L 233.427218 153.580501 
L 234.520331 151.714748 
L 235.613444 137.465616 
L 236.706556 114.271575 
L 237.799669 99.890488 
L 238.892782 98.911434 
L 239.985895 101.478472 
L 241.079008 103.467493 
L 242.172121 101.43172 
L 243.265234 97.272418 
L 244.358347 95.448691 
L 245.45146 103.3425 
L 246.544573 126.611971 
L 247.637686 154.278274 
L 248.730799 177.559497 
L 249.823912 195.305479 
L 250.917025 208.813854 
L 253.103251 232.269313 
L 254.196364 241.98621 
L 255.289477 244.449524 
L 256.38259 231.659104 
L 257.475702 203.316872 
L 258.568815 169.887633 
L 259.661928 143.041222 
L 260.755041 121.615277 
L 261.848154 106.614402 
L 262.941267 97.554784 
L 264.03438 93.042795 
L 265.127493 89.778303 
L 266.220606 82.823757 
L 267.313719 71.457049 
L 268.406832 65.944163 
L 269.499945 77.096397 
L 270.593058 101.033303 
L 273.872397 184.293502 
L 276.058623 228.386245 
L 277.151736 249.52944 
L 278.244848 267.28398 
L 279.337961 277.409386 
L 280.431074 276.506082 
L 281.524187 257.078099 
L 283.710413 184.673078 
L 284.803526 155.967236 
L 285.896639 137.111588 
L 286.989752 128.266571 
L 288.082865 126.977879 
L 289.175978 129.884638 
L 290.269091 131.429256 
L 291.362204 124.76704 
L 293.54843 90.809921 
L 294.641543 90.093945 
L 295.734656 101.070986 
L 296.827769 115.111521 
L 297.920882 126.215278 
L 299.013994 133.22258 
L 300.107107 138.229621 
L 301.20022 148.02099 
L 302.293333 168.740667 
L 303.386446 193.228574 
L 304.479559 213.073495 
L 305.572672 224.068675 
L 306.665785 224.530834 
L 307.758898 216.696039 
L 308.852011 204.710118 
L 309.945124 190.439334 
L 311.038237 171.564524 
L 313.224463 121.70859 
L 314.317576 106.286943 
L 315.410689 94.775252 
L 319.78314 56.906453 
L 320.876253 53.83491 
L 321.969366 64.322966 
L 323.062479 89.358936 
L 327.434931 211.220772 
L 328.528044 237.221681 
L 329.621157 260.137443 
L 330.71427 277.111052 
L 331.807383 288.085729 
L 332.900496 289.968024 
L 333.993609 276.428225 
L 335.086722 241.667757 
L 336.179835 200.745107 
L 337.272948 169.87371 
L 338.366061 151.632549 
L 339.459174 143.980038 
L 340.552287 144.242541 
L 342.738512 153.348975 
L 343.831625 149.996087 
L 344.924738 134.00447 
L 346.017851 111.044957 
L 347.110964 98.924272 
L 348.204077 99.14692 
L 349.29719 102.243819 
L 350.390303 103.958712 
L 351.483416 101.645171 
L 352.576529 97.628745 
L 353.669642 96.845323 
L 354.762755 106.91446 
L 358.042094 181.257279 
L 359.135207 197.914288 
L 360.22832 210.60175 
L 362.414545 233.005024 
L 363.507658 241.676635 
L 364.600771 241.92547 
L 365.693884 226.065998 
L 368.973223 137.86927 
L 370.066336 117.682903 
L 371.159449 103.715753 
L 372.252562 95.385907 
L 373.345675 91.117261 
L 374.438788 87.306749 
L 375.531901 79.251733 
L 376.625014 68.2068 
L 377.718127 65.96607 
L 378.81124 80.70885 
L 379.904353 106.460285 
L 382.090579 164.550771 
L 383.183691 190.269058 
L 385.369917 234.55424 
L 386.46303 255.398654 
L 387.556143 271.467681 
L 388.649256 279.57475 
L 389.742369 275.569948 
L 390.835482 251.646583 
L 393.021708 178.324333 
L 394.114821 151.893838 
L 395.207934 135.611423 
L 396.301047 128.948122 
L 397.39416 129.185396 
L 398.487273 132.58708 
L 398.487273 132.58708 
" style="fill:none;opacity:0.4;stroke:#2ca02c;stroke-linecap:square;stroke-width:1.5;"/>
   </g>
   <g id="line2d_19">
    <path clip-path="url(#p6315f23b5b)" d="M 73.832727 108.381348 
L 74.92584 99.829876 
L 76.018953 99.951228 
L 77.112066 101.879444 
L 78.205179 101.17752 
L 80.391405 93.769309 
L 81.484518 96.932122 
L 82.577631 113.301207 
L 84.763857 164.581301 
L 85.85697 185.460843 
L 86.950083 201.65301 
L 89.136309 228.671039 
L 90.229421 241.049565 
L 91.322534 249.061341 
L 92.415647 245.440586 
L 93.50876 224.522083 
L 95.694986 160.977151 
L 96.788099 135.271638 
L 97.881212 116.582178 
L 98.974325 104.724187 
L 100.067438 98.754954 
L 101.160551 96.246803 
L 102.253664 92.548765 
L 103.346777 83.159965 
L 104.43989 71.563839 
L 105.533003 70.658171 
L 106.626116 86.142666 
L 108.812342 139.800617 
L 109.905455 165.948744 
L 112.09168 209.288596 
L 114.277906 250.801143 
L 115.371019 267.607734 
L 116.464132 275.427264 
L 117.557245 267.959655 
L 118.650358 242.405512 
L 120.836584 172.315245 
L 121.929697 145.835635 
L 123.02281 129.310708 
L 124.115923 122.355332 
L 125.209036 122.302959 
L 126.302149 124.656546 
L 127.395262 123.451969 
L 128.488375 113.593729 
L 129.581488 97.125646 
L 130.674601 86.731541 
L 131.767713 91.703135 
L 132.860826 107.102683 
L 133.953939 124.402346 
L 135.047052 138.511094 
L 137.233278 158.191807 
L 138.326391 173.01206 
L 140.512617 215.842233 
L 141.60573 230.987582 
L 142.698843 235.058616 
L 143.791956 227.077498 
L 144.885069 210.540436 
L 145.978182 190.035168 
L 149.257521 119.836323 
L 150.350634 104.113596 
L 151.443747 94.990492 
L 152.53686 88.48284 
L 153.629972 80.679278 
L 155.816198 60.965353 
L 156.909311 58.838502 
L 158.002424 71.555536 
L 159.095537 97.719631 
L 161.281763 158.929499 
L 163.467989 212.434802 
L 165.654215 259.085642 
L 166.747328 277.560501 
L 167.840441 288.91584 
L 168.933554 287.051492 
L 170.026667 265.666105 
L 172.212893 190.739648 
L 173.306006 161.638838 
L 174.399118 144.330234 
L 175.492231 137.553053 
L 176.585344 138.392935 
L 177.678457 142.835051 
L 178.77157 145.276778 
L 179.864683 139.256449 
L 180.957796 122.587178 
L 182.050909 103.967335 
L 183.144022 96.338136 
L 184.237135 100.039367 
L 185.330248 107.528053 
L 186.423361 112.894998 
L 187.516474 114.240087 
L 188.609587 114.093826 
L 189.7027 118.864231 
L 190.795813 134.851378 
L 192.982039 182.785354 
L 194.075152 200.085017 
L 195.168264 210.115704 
L 196.261377 215.19843 
L 197.35449 218.561153 
L 198.447603 221.165747 
L 199.540716 219.448299 
L 200.633829 206.109816 
L 201.726942 179.927837 
L 202.820055 150.97776 
L 203.913168 126.879839 
L 205.006281 108.456075 
L 206.099394 94.379901 
L 207.192507 83.63196 
L 208.28562 75.406221 
L 209.378733 68.045274 
L 210.471846 59.474002 
L 211.564959 53.744918 
L 212.658072 61.769468 
L 213.751185 84.899767 
L 218.123636 208.95392 
L 220.309862 257.709895 
L 221.402975 277.593713 
L 222.496088 291.772718 
L 223.589201 295.488 
L 224.682314 281.33646 
L 225.775427 247.282579 
L 226.86854 206.685918 
L 227.961653 174.069737 
L 229.054766 153.843579 
L 230.147879 144.896755 
L 231.240992 144.486075 
L 233.427218 153.572134 
L 234.520331 151.67202 
L 235.613444 138.207714 
L 236.706556 117.336475 
L 237.799669 102.357187 
L 238.892782 98.862893 
L 239.985895 101.398508 
L 241.079008 103.544519 
L 242.172121 102.293318 
L 243.265234 98.68342 
L 244.358347 97.501198 
L 245.45146 106.293458 
L 246.544573 127.865983 
L 247.637686 154.209551 
L 248.730799 177.491859 
L 249.823912 195.260323 
L 250.917025 208.78275 
L 253.103251 232.194713 
L 254.196364 241.868371 
L 255.289477 244.212377 
L 256.38259 231.352915 
L 257.475702 203.302756 
L 258.568815 171.035941 
L 259.661928 143.031769 
L 260.755041 121.568461 
L 261.848154 106.583425 
L 262.941267 97.526107 
L 264.03438 92.995851 
L 265.127493 89.678475 
L 266.220606 82.665616 
L 267.313719 71.356902 
L 268.406832 66.147076 
L 269.499945 77.071935 
L 270.593058 101.025511 
L 272.779284 158.678492 
L 273.872397 184.277982 
L 276.058623 228.326144 
L 277.151736 249.489905 
L 278.244848 267.927081 
L 279.337961 279.27731 
L 280.431074 277.483219 
L 281.524187 256.96901 
L 283.710413 185.170876 
L 284.803526 155.96532 
L 285.896639 137.086168 
L 286.989752 128.313707 
L 288.082865 127.385685 
L 289.175978 130.349224 
L 290.269091 131.636193 
L 291.362204 125.111935 
L 293.54843 93.6371 
L 294.641543 91.065079 
L 295.734656 101.000602 
L 296.827769 115.159806 
L 297.920882 127.258585 
L 299.013994 135.113881 
L 300.107107 141.049263 
L 301.20022 151.152123 
L 302.293333 169.849248 
L 303.386446 193.039584 
L 304.479559 212.815463 
L 305.572672 223.853371 
L 306.665785 224.396899 
L 307.758898 216.641878 
L 308.852011 204.658704 
L 309.945124 190.320026 
L 311.038237 171.42299 
L 313.224463 123.410454 
L 314.317576 106.285155 
L 315.410689 94.661565 
L 319.78314 56.56539 
L 320.876253 53.568 
L 321.969366 64.271871 
L 323.062479 89.341883 
L 326.341818 182.869023 
L 328.528044 237.10116 
L 329.621157 260.314489 
L 330.71427 279.723757 
L 331.807383 292.821453 
L 332.900496 294.371563 
L 333.993609 277.208581 
L 335.086722 241.662073 
L 336.179835 201.683667 
L 337.272948 170.387028 
L 338.366061 151.609428 
L 339.459174 143.965539 
L 340.552287 144.461166 
L 341.645399 149.301827 
L 342.738512 153.333263 
L 343.831625 149.964791 
L 344.924738 135.044902 
L 346.017851 114.264996 
L 347.110964 101.017208 
L 348.204077 99.075578 
L 349.29719 102.174521 
L 350.390303 104.188323 
L 351.483416 102.649709 
L 352.576529 99.188627 
L 353.669642 99.106236 
L 354.762755 109.88675 
L 355.855868 132.736023 
L 356.948981 158.877126 
L 358.042094 181.187981 
L 359.135207 197.870026 
L 360.22832 210.571093 
L 362.414545 232.92474 
L 363.507658 241.540721 
L 364.600771 241.651853 
L 365.693884 225.783504 
L 368.973223 137.846213 
L 370.066336 117.6373 
L 371.159449 103.683116 
L 372.252562 95.349438 
L 374.438788 87.181821 
L 375.531901 79.079989 
L 376.625014 68.122556 
L 377.718127 66.136218 
L 378.81124 80.66842 
L 379.904353 106.610889 
L 382.090579 164.844443 
L 383.183691 190.235079 
L 385.369917 234.490179 
L 386.46303 255.386966 
L 387.556143 272.674493 
L 388.649256 281.770771 
L 389.742369 276.241598 
L 390.835482 251.540751 
L 393.021708 178.822258 
L 394.114821 151.881511 
L 395.207934 135.589069 
L 396.301047 129.083972 
L 397.39416 129.650493 
L 398.487273 133.003636 
L 398.487273 133.003636 
" style="fill:none;stroke:#000000;stroke-linecap:square;stroke-width:1.5;"/>
   </g>
   <g id="patch_3">
    <path d="M 57.6 307.584 
L 57.6 41.472 
" style="fill:none;stroke:#000000;stroke-linecap:square;stroke-linejoin:miter;stroke-width:0.8;"/>
   </g>
   <g id="patch_4">
    <path d="M 414.72 307.584 
L 414.72 41.472 
" style="fill:none;stroke:#000000;stroke-linecap:square;stroke-linejoin:miter;stroke-width:0.8;"/>
   </g>
   <g id="patch_5">
    <path d="M 57.6 307.584 
L 414.72 307.584 
" style="fill:none;stroke:#000000;stroke-linecap:square;stroke-linejoin:miter;stroke-width:0.8;"/>
   </g>
   <g id="patch_6">
    <path d="M 57.6 41.472 
L 414.72 41.472 
" style="fill:none;stroke:#000000;stroke-linecap:square;stroke-linejoin:miter;stroke-width:0.8;"/>
   </g>
   <g id="text_16">
    <!-- Plot of Train Data for Mackey -->
    <defs>
     <path d="M 19.671875 64.796875 
L 19.671875 37.40625 
L 32.078125 37.40625 
Q 38.96875 37.40625 42.71875 40.96875 
Q 46.484375 44.53125 46.484375 51.125 
Q 46.484375 57.671875 42.71875 61.234375 
Q 38.96875 64.796875 32.078125 64.796875 
z
M 9.8125 72.90625 
L 32.078125 72.90625 
Q 44.34375 72.90625 50.609375 67.359375 
Q 56.890625 61.8125 56.890625 51.125 
Q 56.890625 40.328125 50.609375 34.8125 
Q 44.34375 29.296875 32.078125 29.296875 
L 19.671875 29.296875 
L 19.671875 0 
L 9.8125 0 
z
" id="DejaVuSans-50"/>
     <path d="M 9.421875 75.984375 
L 18.40625 75.984375 
L 18.40625 0 
L 9.421875 0 
z
" id="DejaVuSans-6c"/>
     <path d="M 30.609375 48.390625 
Q 23.390625 48.390625 19.1875 42.75 
Q 14.984375 37.109375 14.984375 27.296875 
Q 14.984375 17.484375 19.15625 11.84375 
Q 23.34375 6.203125 30.609375 6.203125 
Q 37.796875 6.203125 41.984375 11.859375 
Q 46.1875 17.53125 46.1875 27.296875 
Q 46.1875 37.015625 41.984375 42.703125 
Q 37.796875 48.390625 30.609375 48.390625 
z
M 30.609375 56 
Q 42.328125 56 49.015625 48.375 
Q 55.71875 40.765625 55.71875 27.296875 
Q 55.71875 13.875 49.015625 6.21875 
Q 42.328125 -1.421875 30.609375 -1.421875 
Q 18.84375 -1.421875 12.171875 6.21875 
Q 5.515625 13.875 5.515625 27.296875 
Q 5.515625 40.765625 12.171875 48.375 
Q 18.84375 56 30.609375 56 
z
" id="DejaVuSans-6f"/>
     <path d="M 18.3125 70.21875 
L 18.3125 54.6875 
L 36.8125 54.6875 
L 36.8125 47.703125 
L 18.3125 47.703125 
L 18.3125 18.015625 
Q 18.3125 11.328125 20.140625 9.421875 
Q 21.96875 7.515625 27.59375 7.515625 
L 36.8125 7.515625 
L 36.8125 0 
L 27.59375 0 
Q 17.1875 0 13.234375 3.875 
Q 9.28125 7.765625 9.28125 18.015625 
L 9.28125 47.703125 
L 2.6875 47.703125 
L 2.6875 54.6875 
L 9.28125 54.6875 
L 9.28125 70.21875 
z
" id="DejaVuSans-74"/>
     <path id="DejaVuSans-20"/>
     <path d="M 37.109375 75.984375 
L 37.109375 68.5 
L 28.515625 68.5 
Q 23.6875 68.5 21.796875 66.546875 
Q 19.921875 64.59375 19.921875 59.515625 
L 19.921875 54.6875 
L 34.71875 54.6875 
L 34.71875 47.703125 
L 19.921875 47.703125 
L 19.921875 0 
L 10.890625 0 
L 10.890625 47.703125 
L 2.296875 47.703125 
L 2.296875 54.6875 
L 10.890625 54.6875 
L 10.890625 58.5 
Q 10.890625 67.625 15.140625 71.796875 
Q 19.390625 75.984375 28.609375 75.984375 
z
" id="DejaVuSans-66"/>
     <path d="M -0.296875 72.90625 
L 61.375 72.90625 
L 61.375 64.59375 
L 35.5 64.59375 
L 35.5 0 
L 25.59375 0 
L 25.59375 64.59375 
L -0.296875 64.59375 
z
" id="DejaVuSans-54"/>
     <path d="M 41.109375 46.296875 
Q 39.59375 47.171875 37.8125 47.578125 
Q 36.03125 48 33.890625 48 
Q 26.265625 48 22.1875 43.046875 
Q 18.109375 38.09375 18.109375 28.8125 
L 18.109375 0 
L 9.078125 0 
L 9.078125 54.6875 
L 18.109375 54.6875 
L 18.109375 46.1875 
Q 20.953125 51.171875 25.484375 53.578125 
Q 30.03125 56 36.53125 56 
Q 37.453125 56 38.578125 55.875 
Q 39.703125 55.765625 41.0625 55.515625 
z
" id="DejaVuSans-72"/>
     <path d="M 34.28125 27.484375 
Q 23.390625 27.484375 19.1875 25 
Q 14.984375 22.515625 14.984375 16.5 
Q 14.984375 11.71875 18.140625 8.90625 
Q 21.296875 6.109375 26.703125 6.109375 
Q 34.1875 6.109375 38.703125 11.40625 
Q 43.21875 16.703125 43.21875 25.484375 
L 43.21875 27.484375 
z
M 52.203125 31.203125 
L 52.203125 0 
L 43.21875 0 
L 43.21875 8.296875 
Q 40.140625 3.328125 35.546875 0.953125 
Q 30.953125 -1.421875 24.3125 -1.421875 
Q 15.921875 -1.421875 10.953125 3.296875 
Q 6 8.015625 6 15.921875 
Q 6 25.140625 12.171875 29.828125 
Q 18.359375 34.515625 30.609375 34.515625 
L 43.21875 34.515625 
L 43.21875 35.40625 
Q 43.21875 41.609375 39.140625 45 
Q 35.0625 48.390625 27.6875 48.390625 
Q 23 48.390625 18.546875 47.265625 
Q 14.109375 46.140625 10.015625 43.890625 
L 10.015625 52.203125 
Q 14.9375 54.109375 19.578125 55.046875 
Q 24.21875 56 28.609375 56 
Q 40.484375 56 46.34375 49.84375 
Q 52.203125 43.703125 52.203125 31.203125 
z
" id="DejaVuSans-61"/>
     <path d="M 9.421875 54.6875 
L 18.40625 54.6875 
L 18.40625 0 
L 9.421875 0 
z
M 9.421875 75.984375 
L 18.40625 75.984375 
L 18.40625 64.59375 
L 9.421875 64.59375 
z
" id="DejaVuSans-69"/>
     <path d="M 54.890625 33.015625 
L 54.890625 0 
L 45.90625 0 
L 45.90625 32.71875 
Q 45.90625 40.484375 42.875 44.328125 
Q 39.84375 48.1875 33.796875 48.1875 
Q 26.515625 48.1875 22.3125 43.546875 
Q 18.109375 38.921875 18.109375 30.90625 
L 18.109375 0 
L 9.078125 0 
L 9.078125 54.6875 
L 18.109375 54.6875 
L 18.109375 46.1875 
Q 21.34375 51.125 25.703125 53.5625 
Q 30.078125 56 35.796875 56 
Q 45.21875 56 50.046875 50.171875 
Q 54.890625 44.34375 54.890625 33.015625 
z
" id="DejaVuSans-6e"/>
     <path d="M 19.671875 64.796875 
L 19.671875 8.109375 
L 31.59375 8.109375 
Q 46.6875 8.109375 53.6875 14.9375 
Q 60.6875 21.78125 60.6875 36.53125 
Q 60.6875 51.171875 53.6875 57.984375 
Q 46.6875 64.796875 31.59375 64.796875 
z
M 9.8125 72.90625 
L 30.078125 72.90625 
Q 51.265625 72.90625 61.171875 64.09375 
Q 71.09375 55.28125 71.09375 36.53125 
Q 71.09375 17.671875 61.125 8.828125 
Q 51.171875 0 30.078125 0 
L 9.8125 0 
z
" id="DejaVuSans-44"/>
     <path d="M 9.8125 72.90625 
L 24.515625 72.90625 
L 43.109375 23.296875 
L 61.8125 72.90625 
L 76.515625 72.90625 
L 76.515625 0 
L 66.890625 0 
L 66.890625 64.015625 
L 48.09375 14.015625 
L 38.1875 14.015625 
L 19.390625 64.015625 
L 19.390625 0 
L 9.8125 0 
z
" id="DejaVuSans-4d"/>
     <path d="M 48.78125 52.59375 
L 48.78125 44.1875 
Q 44.96875 46.296875 41.140625 47.34375 
Q 37.3125 48.390625 33.40625 48.390625 
Q 24.65625 48.390625 19.8125 42.84375 
Q 14.984375 37.3125 14.984375 27.296875 
Q 14.984375 17.28125 19.8125 11.734375 
Q 24.65625 6.203125 33.40625 6.203125 
Q 37.3125 6.203125 41.140625 7.25 
Q 44.96875 8.296875 48.78125 10.40625 
L 48.78125 2.09375 
Q 45.015625 0.34375 40.984375 -0.53125 
Q 36.96875 -1.421875 32.421875 -1.421875 
Q 20.0625 -1.421875 12.78125 6.34375 
Q 5.515625 14.109375 5.515625 27.296875 
Q 5.515625 40.671875 12.859375 48.328125 
Q 20.21875 56 33.015625 56 
Q 37.15625 56 41.109375 55.140625 
Q 45.0625 54.296875 48.78125 52.59375 
z
" id="DejaVuSans-63"/>
     <path d="M 9.078125 75.984375 
L 18.109375 75.984375 
L 18.109375 31.109375 
L 44.921875 54.6875 
L 56.390625 54.6875 
L 27.390625 29.109375 
L 57.625 0 
L 45.90625 0 
L 18.109375 26.703125 
L 18.109375 0 
L 9.078125 0 
z
" id="DejaVuSans-6b"/>
     <path d="M 56.203125 29.59375 
L 56.203125 25.203125 
L 14.890625 25.203125 
Q 15.484375 15.921875 20.484375 11.0625 
Q 25.484375 6.203125 34.421875 6.203125 
Q 39.59375 6.203125 44.453125 7.46875 
Q 49.3125 8.734375 54.109375 11.28125 
L 54.109375 2.78125 
Q 49.265625 0.734375 44.1875 -0.34375 
Q 39.109375 -1.421875 33.890625 -1.421875 
Q 20.796875 -1.421875 13.15625 6.1875 
Q 5.515625 13.8125 5.515625 26.8125 
Q 5.515625 40.234375 12.765625 48.109375 
Q 20.015625 56 32.328125 56 
Q 43.359375 56 49.78125 48.890625 
Q 56.203125 41.796875 56.203125 29.59375 
z
M 47.21875 32.234375 
Q 47.125 39.59375 43.09375 43.984375 
Q 39.0625 48.390625 32.421875 48.390625 
Q 24.90625 48.390625 20.390625 44.140625 
Q 15.875 39.890625 15.1875 32.171875 
z
" id="DejaVuSans-65"/>
     <path d="M 32.171875 -5.078125 
Q 28.375 -14.84375 24.75 -17.8125 
Q 21.140625 -20.796875 15.09375 -20.796875 
L 7.90625 -20.796875 
L 7.90625 -13.28125 
L 13.1875 -13.28125 
Q 16.890625 -13.28125 18.9375 -11.515625 
Q 21 -9.765625 23.484375 -3.21875 
L 25.09375 0.875 
L 2.984375 54.6875 
L 12.5 54.6875 
L 29.59375 11.921875 
L 46.6875 54.6875 
L 56.203125 54.6875 
z
" id="DejaVuSans-79"/>
    </defs>
    <g transform="translate(148.82625 35.472)scale(0.12 -0.12)">
     <use xlink:href="#DejaVuSans-50"/>
     <use x="60.302734" xlink:href="#DejaVuSans-6c"/>
     <use x="88.085938" xlink:href="#DejaVuSans-6f"/>
     <use x="149.267578" xlink:href="#DejaVuSans-74"/>
     <use x="188.476562" xlink:href="#DejaVuSans-20"/>
     <use x="220.263672" xlink:href="#DejaVuSans-6f"/>
     <use x="281.445312" xlink:href="#DejaVuSans-66"/>
     <use x="316.650391" xlink:href="#DejaVuSans-20"/>
     <use x="348.4375" xlink:href="#DejaVuSans-54"/>
     <use x="409.302734" xlink:href="#DejaVuSans-72"/>
     <use x="450.416016" xlink:href="#DejaVuSans-61"/>
     <use x="511.695312" xlink:href="#DejaVuSans-69"/>
     <use x="539.478516" xlink:href="#DejaVuSans-6e"/>
     <use x="602.857422" xlink:href="#DejaVuSans-20"/>
     <use x="634.644531" xlink:href="#DejaVuSans-44"/>
     <use x="711.646484" xlink:href="#DejaVuSans-61"/>
     <use x="772.925781" xlink:href="#DejaVuSans-74"/>
     <use x="812.134766" xlink:href="#DejaVuSans-61"/>
     <use x="873.414062" xlink:href="#DejaVuSans-20"/>
     <use x="905.201172" xlink:href="#DejaVuSans-66"/>
     <use x="940.40625" xlink:href="#DejaVuSans-6f"/>
     <use x="1001.587891" xlink:href="#DejaVuSans-72"/>
     <use x="1042.701172" xlink:href="#DejaVuSans-20"/>
     <use x="1074.488281" xlink:href="#DejaVuSans-4d"/>
     <use x="1160.767578" xlink:href="#DejaVuSans-61"/>
     <use x="1222.046875" xlink:href="#DejaVuSans-63"/>
     <use x="1277.027344" xlink:href="#DejaVuSans-6b"/>
     <use x="1334.890625" xlink:href="#DejaVuSans-65"/>
     <use x="1396.414062" xlink:href="#DejaVuSans-79"/>
    </g>
   </g>
   <g id="legend_1">
    <g id="patch_7">
     <path d="M 277.843437 108.1845 
L 407.72 108.1845 
Q 409.72 108.1845 409.72 106.1845 
L 409.72 48.472 
Q 409.72 46.472 407.72 46.472 
L 277.843437 46.472 
Q 275.843437 46.472 275.843437 48.472 
L 275.843437 106.1845 
Q 275.843437 108.1845 277.843437 108.1845 
z
" style="fill:#ffffff;opacity:0.8;stroke:#cccccc;stroke-linejoin:miter;"/>
    </g>
    <g id="line2d_20">
     <path d="M 279.843437 54.570438 
L 299.843437 54.570438 
" style="fill:none;opacity:0.4;stroke:#1f77b4;stroke-linecap:square;stroke-width:1.5;"/>
    </g>
    <g id="line2d_21"/>
    <g id="text_17">
     <!-- pred. (mean) -->
     <defs>
      <path d="M 18.109375 8.203125 
L 18.109375 -20.796875 
L 9.078125 -20.796875 
L 9.078125 54.6875 
L 18.109375 54.6875 
L 18.109375 46.390625 
Q 20.953125 51.265625 25.265625 53.625 
Q 29.59375 56 35.59375 56 
Q 45.5625 56 51.78125 48.09375 
Q 58.015625 40.1875 58.015625 27.296875 
Q 58.015625 14.40625 51.78125 6.484375 
Q 45.5625 -1.421875 35.59375 -1.421875 
Q 29.59375 -1.421875 25.265625 0.953125 
Q 20.953125 3.328125 18.109375 8.203125 
z
M 48.6875 27.296875 
Q 48.6875 37.203125 44.609375 42.84375 
Q 40.53125 48.484375 33.40625 48.484375 
Q 26.265625 48.484375 22.1875 42.84375 
Q 18.109375 37.203125 18.109375 27.296875 
Q 18.109375 17.390625 22.1875 11.75 
Q 26.265625 6.109375 33.40625 6.109375 
Q 40.53125 6.109375 44.609375 11.75 
Q 48.6875 17.390625 48.6875 27.296875 
z
" id="DejaVuSans-70"/>
      <path d="M 45.40625 46.390625 
L 45.40625 75.984375 
L 54.390625 75.984375 
L 54.390625 0 
L 45.40625 0 
L 45.40625 8.203125 
Q 42.578125 3.328125 38.25 0.953125 
Q 33.9375 -1.421875 27.875 -1.421875 
Q 17.96875 -1.421875 11.734375 6.484375 
Q 5.515625 14.40625 5.515625 27.296875 
Q 5.515625 40.1875 11.734375 48.09375 
Q 17.96875 56 27.875 56 
Q 33.9375 56 38.25 53.625 
Q 42.578125 51.265625 45.40625 46.390625 
z
M 14.796875 27.296875 
Q 14.796875 17.390625 18.875 11.75 
Q 22.953125 6.109375 30.078125 6.109375 
Q 37.203125 6.109375 41.296875 11.75 
Q 45.40625 17.390625 45.40625 27.296875 
Q 45.40625 37.203125 41.296875 42.84375 
Q 37.203125 48.484375 30.078125 48.484375 
Q 22.953125 48.484375 18.875 42.84375 
Q 14.796875 37.203125 14.796875 27.296875 
z
" id="DejaVuSans-64"/>
      <path d="M 31 75.875 
Q 24.46875 64.65625 21.28125 53.65625 
Q 18.109375 42.671875 18.109375 31.390625 
Q 18.109375 20.125 21.3125 9.0625 
Q 24.515625 -2 31 -13.1875 
L 23.1875 -13.1875 
Q 15.875 -1.703125 12.234375 9.375 
Q 8.59375 20.453125 8.59375 31.390625 
Q 8.59375 42.28125 12.203125 53.3125 
Q 15.828125 64.359375 23.1875 75.875 
z
" id="DejaVuSans-28"/>
      <path d="M 52 44.1875 
Q 55.375 50.25 60.0625 53.125 
Q 64.75 56 71.09375 56 
Q 79.640625 56 84.28125 50.015625 
Q 88.921875 44.046875 88.921875 33.015625 
L 88.921875 0 
L 79.890625 0 
L 79.890625 32.71875 
Q 79.890625 40.578125 77.09375 44.375 
Q 74.3125 48.1875 68.609375 48.1875 
Q 61.625 48.1875 57.5625 43.546875 
Q 53.515625 38.921875 53.515625 30.90625 
L 53.515625 0 
L 44.484375 0 
L 44.484375 32.71875 
Q 44.484375 40.625 41.703125 44.40625 
Q 38.921875 48.1875 33.109375 48.1875 
Q 26.21875 48.1875 22.15625 43.53125 
Q 18.109375 38.875 18.109375 30.90625 
L 18.109375 0 
L 9.078125 0 
L 9.078125 54.6875 
L 18.109375 54.6875 
L 18.109375 46.1875 
Q 21.1875 51.21875 25.484375 53.609375 
Q 29.78125 56 35.6875 56 
Q 41.65625 56 45.828125 52.96875 
Q 50 49.953125 52 44.1875 
z
" id="DejaVuSans-6d"/>
      <path d="M 8.015625 75.875 
L 15.828125 75.875 
Q 23.140625 64.359375 26.78125 53.3125 
Q 30.421875 42.28125 30.421875 31.390625 
Q 30.421875 20.453125 26.78125 9.375 
Q 23.140625 -1.703125 15.828125 -13.1875 
L 8.015625 -13.1875 
Q 14.5 -2 17.703125 9.0625 
Q 20.90625 20.125 20.90625 31.390625 
Q 20.90625 42.671875 17.703125 53.65625 
Q 14.5 64.65625 8.015625 75.875 
z
" id="DejaVuSans-29"/>
     </defs>
     <g transform="translate(307.843437 58.070438)scale(0.1 -0.1)">
      <use xlink:href="#DejaVuSans-70"/>
      <use x="63.476562" xlink:href="#DejaVuSans-72"/>
      <use x="104.558594" xlink:href="#DejaVuSans-65"/>
      <use x="166.082031" xlink:href="#DejaVuSans-64"/>
      <use x="229.558594" xlink:href="#DejaVuSans-2e"/>
      <use x="261.345703" xlink:href="#DejaVuSans-20"/>
      <use x="293.132812" xlink:href="#DejaVuSans-28"/>
      <use x="332.146484" xlink:href="#DejaVuSans-6d"/>
      <use x="429.558594" xlink:href="#DejaVuSans-65"/>
      <use x="491.082031" xlink:href="#DejaVuSans-61"/>
      <use x="552.361328" xlink:href="#DejaVuSans-6e"/>
      <use x="615.740234" xlink:href="#DejaVuSans-29"/>
     </g>
    </g>
    <g id="line2d_22">
     <path d="M 279.843437 69.248563 
L 299.843437 69.248563 
" style="fill:none;opacity:0.4;stroke:#ff7f0e;stroke-linecap:square;stroke-width:1.5;"/>
    </g>
    <g id="line2d_23"/>
    <g id="text_18">
     <!-- pred.(5th percen.) -->
     <defs>
      <path d="M 54.890625 33.015625 
L 54.890625 0 
L 45.90625 0 
L 45.90625 32.71875 
Q 45.90625 40.484375 42.875 44.328125 
Q 39.84375 48.1875 33.796875 48.1875 
Q 26.515625 48.1875 22.3125 43.546875 
Q 18.109375 38.921875 18.109375 30.90625 
L 18.109375 0 
L 9.078125 0 
L 9.078125 75.984375 
L 18.109375 75.984375 
L 18.109375 46.1875 
Q 21.34375 51.125 25.703125 53.5625 
Q 30.078125 56 35.796875 56 
Q 45.21875 56 50.046875 50.171875 
Q 54.890625 44.34375 54.890625 33.015625 
z
" id="DejaVuSans-68"/>
     </defs>
     <g transform="translate(307.843437 72.748563)scale(0.1 -0.1)">
      <use xlink:href="#DejaVuSans-70"/>
      <use x="63.476562" xlink:href="#DejaVuSans-72"/>
      <use x="104.558594" xlink:href="#DejaVuSans-65"/>
      <use x="166.082031" xlink:href="#DejaVuSans-64"/>
      <use x="229.558594" xlink:href="#DejaVuSans-2e"/>
      <use x="261.345703" xlink:href="#DejaVuSans-28"/>
      <use x="300.359375" xlink:href="#DejaVuSans-35"/>
      <use x="363.982422" xlink:href="#DejaVuSans-74"/>
      <use x="403.191406" xlink:href="#DejaVuSans-68"/>
      <use x="466.570312" xlink:href="#DejaVuSans-20"/>
      <use x="498.357422" xlink:href="#DejaVuSans-70"/>
      <use x="561.833984" xlink:href="#DejaVuSans-65"/>
      <use x="623.357422" xlink:href="#DejaVuSans-72"/>
      <use x="664.439453" xlink:href="#DejaVuSans-63"/>
      <use x="719.419922" xlink:href="#DejaVuSans-65"/>
      <use x="780.943359" xlink:href="#DejaVuSans-6e"/>
      <use x="844.322266" xlink:href="#DejaVuSans-2e"/>
      <use x="876.109375" xlink:href="#DejaVuSans-29"/>
     </g>
    </g>
    <g id="line2d_24">
     <path d="M 279.843437 83.926688 
L 299.843437 83.926688 
" style="fill:none;opacity:0.4;stroke:#2ca02c;stroke-linecap:square;stroke-width:1.5;"/>
    </g>
    <g id="line2d_25"/>
    <g id="text_19">
     <!-- pred.(95th percen.) -->
     <defs>
      <path d="M 10.984375 1.515625 
L 10.984375 10.5 
Q 14.703125 8.734375 18.5 7.8125 
Q 22.3125 6.890625 25.984375 6.890625 
Q 35.75 6.890625 40.890625 13.453125 
Q 46.046875 20.015625 46.78125 33.40625 
Q 43.953125 29.203125 39.59375 26.953125 
Q 35.25 24.703125 29.984375 24.703125 
Q 19.046875 24.703125 12.671875 31.3125 
Q 6.296875 37.9375 6.296875 49.421875 
Q 6.296875 60.640625 12.9375 67.421875 
Q 19.578125 74.21875 30.609375 74.21875 
Q 43.265625 74.21875 49.921875 64.515625 
Q 56.59375 54.828125 56.59375 36.375 
Q 56.59375 19.140625 48.40625 8.859375 
Q 40.234375 -1.421875 26.421875 -1.421875 
Q 22.703125 -1.421875 18.890625 -0.6875 
Q 15.09375 0.046875 10.984375 1.515625 
z
M 30.609375 32.421875 
Q 37.25 32.421875 41.125 36.953125 
Q 45.015625 41.5 45.015625 49.421875 
Q 45.015625 57.28125 41.125 61.84375 
Q 37.25 66.40625 30.609375 66.40625 
Q 23.96875 66.40625 20.09375 61.84375 
Q 16.21875 57.28125 16.21875 49.421875 
Q 16.21875 41.5 20.09375 36.953125 
Q 23.96875 32.421875 30.609375 32.421875 
z
" id="DejaVuSans-39"/>
     </defs>
     <g transform="translate(307.843437 87.426688)scale(0.1 -0.1)">
      <use xlink:href="#DejaVuSans-70"/>
      <use x="63.476562" xlink:href="#DejaVuSans-72"/>
      <use x="104.558594" xlink:href="#DejaVuSans-65"/>
      <use x="166.082031" xlink:href="#DejaVuSans-64"/>
      <use x="229.558594" xlink:href="#DejaVuSans-2e"/>
      <use x="261.345703" xlink:href="#DejaVuSans-28"/>
      <use x="300.359375" xlink:href="#DejaVuSans-39"/>
      <use x="363.982422" xlink:href="#DejaVuSans-35"/>
      <use x="427.605469" xlink:href="#DejaVuSans-74"/>
      <use x="466.814453" xlink:href="#DejaVuSans-68"/>
      <use x="530.193359" xlink:href="#DejaVuSans-20"/>
      <use x="561.980469" xlink:href="#DejaVuSans-70"/>
      <use x="625.457031" xlink:href="#DejaVuSans-65"/>
      <use x="686.980469" xlink:href="#DejaVuSans-72"/>
      <use x="728.0625" xlink:href="#DejaVuSans-63"/>
      <use x="783.042969" xlink:href="#DejaVuSans-65"/>
      <use x="844.566406" xlink:href="#DejaVuSans-6e"/>
      <use x="907.945312" xlink:href="#DejaVuSans-2e"/>
      <use x="939.732422" xlink:href="#DejaVuSans-29"/>
     </g>
    </g>
    <g id="line2d_26">
     <path d="M 279.843437 98.604813 
L 299.843437 98.604813 
" style="fill:none;stroke:#000000;stroke-linecap:square;stroke-width:1.5;"/>
    </g>
    <g id="line2d_27"/>
    <g id="text_20">
     <!-- actual -->
     <defs>
      <path d="M 8.5 21.578125 
L 8.5 54.6875 
L 17.484375 54.6875 
L 17.484375 21.921875 
Q 17.484375 14.15625 20.5 10.265625 
Q 23.53125 6.390625 29.59375 6.390625 
Q 36.859375 6.390625 41.078125 11.03125 
Q 45.3125 15.671875 45.3125 23.6875 
L 45.3125 54.6875 
L 54.296875 54.6875 
L 54.296875 0 
L 45.3125 0 
L 45.3125 8.40625 
Q 42.046875 3.421875 37.71875 1 
Q 33.40625 -1.421875 27.6875 -1.421875 
Q 18.265625 -1.421875 13.375 4.4375 
Q 8.5 10.296875 8.5 21.578125 
z
M 31.109375 56 
z
" id="DejaVuSans-75"/>
     </defs>
     <g transform="translate(307.843437 102.104813)scale(0.1 -0.1)">
      <use xlink:href="#DejaVuSans-61"/>
      <use x="61.279297" xlink:href="#DejaVuSans-63"/>
      <use x="116.259766" xlink:href="#DejaVuSans-74"/>
      <use x="155.46875" xlink:href="#DejaVuSans-75"/>
      <use x="218.847656" xlink:href="#DejaVuSans-61"/>
      <use x="280.126953" xlink:href="#DejaVuSans-6c"/>
     </g>
    </g>
   </g>
  </g>
 </g>
 <defs>
  <clipPath id="p6315f23b5b">
   <rect height="266.112" width="357.12" x="57.6" y="41.472"/>
  </clipPath>
 </defs>
</svg>
