<?xml version="1.0" encoding="utf-8" standalone="no"?>
<!DOCTYPE svg PUBLIC "-//W3C//DTD SVG 1.1//EN"
  "http://www.w3.org/Graphics/SVG/1.1/DTD/svg11.dtd">
<!-- Created with matplotlib (http://matplotlib.org/) -->
<svg height="345pt" version="1.1" viewBox="0 0 460 345" width="460pt" xmlns="http://www.w3.org/2000/svg" xmlns:xlink="http://www.w3.org/1999/xlink">
 <defs>
  <style type="text/css">
*{stroke-linecap:butt;stroke-linejoin:round;}
  </style>
 </defs>
 <g id="figure_1">
  <g id="patch_1">
   <path d="M 0 345.6 
L 460.8 345.6 
L 460.8 0 
L 0 0 
z
" style="fill:#ffffff;"/>
  </g>
  <g id="axes_1">
   <g id="patch_2">
    <path d="M 57.6 307.584 
L 414.72 307.584 
L 414.72 41.472 
L 57.6 41.472 
z
" style="fill:#ffffff;"/>
   </g>
   <g id="PolyCollection_1">
    <path clip-path="url(#p7fd35e4f62)" d="M 73.832727 283.401237 
L 73.832727 286.57686 
L 74.92584 287.036 
L 76.018953 286.05679 
L 77.112066 285.891411 
L 78.205179 280.774523 
L 79.298292 276.933819 
L 80.391405 275.305232 
L 81.484518 263.992175 
L 82.577631 252.867756 
L 83.670744 230.647627 
L 84.763857 206.462601 
L 85.85697 188.163704 
L 86.950083 164.081453 
L 88.043196 143.191485 
L 89.136309 124.800482 
L 90.229421 119.445893 
L 91.322534 112.468303 
L 92.415647 87.406197 
L 93.50876 73.344968 
L 94.601873 72.883972 
L 95.694986 69.897784 
L 96.788099 66.734954 
L 97.881212 68.382718 
L 98.974325 79.221542 
L 100.067438 88.477115 
L 101.160551 87.343744 
L 102.253664 103.313048 
L 103.346777 114.938287 
L 104.43989 122.863178 
L 105.533003 135.535862 
L 106.626116 142.080073 
L 107.719229 161.562116 
L 108.812342 177.421872 
L 109.905455 157.372213 
L 110.998567 154.106782 
L 112.09168 160.015563 
L 113.184793 165.804003 
L 114.277906 162.538349 
L 115.371019 168.460529 
L 116.464132 184.978269 
L 117.557245 196.777768 
L 118.650358 202.357458 
L 119.743471 214.969177 
L 120.836584 219.79647 
L 121.929697 220.2464 
L 123.02281 228.566905 
L 124.115923 236.494872 
L 125.209036 240.842957 
L 126.302149 241.591483 
L 127.395262 250.256513 
L 128.488375 258.390947 
L 129.581488 262.125413 
L 130.674601 260.011591 
L 131.767713 261.645783 
L 132.860826 266.274475 
L 133.953939 269.623748 
L 135.047052 271.021574 
L 136.140165 275.044066 
L 137.233278 282.517094 
L 138.326391 283.33284 
L 139.419504 279.478154 
L 140.512617 279.436752 
L 141.60573 279.781802 
L 142.698843 276.898562 
L 143.791956 275.551228 
L 144.885069 274.148403 
L 145.978182 267.187509 
L 147.071295 256.816579 
L 148.164408 249.022476 
L 149.257521 246.040506 
L 150.350634 238.491925 
L 151.443747 229.48381 
L 152.53686 226.336463 
L 153.629972 223.043391 
L 154.723085 215.216213 
L 155.816198 201.26669 
L 156.909311 196.267494 
L 158.002424 193.099925 
L 159.095537 192.021538 
L 160.18865 193.133199 
L 161.281763 187.746403 
L 162.374876 165.868838 
L 163.467989 136.78955 
L 164.561102 118.867905 
L 165.654215 106.246534 
L 166.747328 94.574126 
L 167.840441 83.165279 
L 168.933554 89.683883 
L 170.026667 98.634979 
L 171.11978 90.535381 
L 172.212893 89.259783 
L 173.306006 95.74427 
L 174.399118 112.504108 
L 175.492231 123.847028 
L 176.585344 134.032905 
L 177.678457 152.99537 
L 178.77157 166.141158 
L 179.864683 172.599492 
L 180.957796 177.450581 
L 182.050909 179.513214 
L 183.144022 184.626027 
L 184.237135 191.866781 
L 185.330248 188.099091 
L 186.423361 186.527452 
L 187.516474 187.770223 
L 188.609587 191.291796 
L 189.7027 193.353015 
L 190.795813 194.395323 
L 191.888926 199.498907 
L 192.982039 198.838764 
L 194.075152 200.345989 
L 195.168264 206.770106 
L 196.261377 206.523244 
L 197.35449 213.719186 
L 198.447603 220.166925 
L 199.540716 225.316957 
L 200.633829 225.989631 
L 201.726942 225.251725 
L 202.820055 232.138971 
L 203.913168 238.896249 
L 205.006281 244.863812 
L 206.099394 249.687011 
L 207.192507 256.14001 
L 208.28562 263.246726 
L 209.378733 267.558584 
L 210.471846 267.530223 
L 211.564959 269.078265 
L 212.658072 273.004682 
L 213.751185 278.036571 
L 214.844298 282.694612 
L 215.93741 286.516158 
L 217.030523 290.105393 
L 218.123636 292.639552 
L 219.216749 293.605884 
L 220.309862 292.973385 
L 221.402975 292.411248 
L 222.496088 292.145595 
L 223.589201 289.8695 
L 224.682314 288.677037 
L 225.775427 284.922647 
L 226.86854 280.302642 
L 227.961653 276.37521 
L 229.054766 268.103521 
L 230.147879 260.459536 
L 231.240992 250.100763 
L 232.334105 239.71234 
L 233.427218 232.397297 
L 234.520331 220.090948 
L 235.613444 209.210513 
L 236.706556 199.062376 
L 237.799669 185.749226 
L 238.892782 172.393745 
L 239.985895 160.564917 
L 241.079008 151.457997 
L 242.172121 142.816961 
L 243.265234 141.679347 
L 244.358347 141.905267 
L 245.45146 142.403928 
L 246.544573 135.750442 
L 247.637686 138.808985 
L 248.730799 143.561046 
L 249.823912 141.950203 
L 250.917025 144.726103 
L 252.010138 146.895828 
L 253.103251 155.951113 
L 254.196364 163.024926 
L 255.289477 168.988246 
L 256.38259 175.120094 
L 257.475702 182.285095 
L 258.568815 191.344994 
L 259.661928 187.267939 
L 260.755041 192.235176 
L 261.848154 197.108646 
L 262.941267 204.133752 
L 264.03438 202.89654 
L 265.127493 206.202316 
L 266.220606 216.282168 
L 267.313719 223.958336 
L 268.406832 226.81319 
L 269.499945 225.198328 
L 270.593058 226.392341 
L 271.686171 228.634544 
L 272.779284 223.534633 
L 273.872397 220.978376 
L 274.96551 219.896639 
L 276.058623 222.699238 
L 277.151736 227.212353 
L 278.244848 229.843595 
L 279.337961 236.697642 
L 280.431074 241.36338 
L 281.524187 246.918728 
L 282.6173 252.734189 
L 283.710413 254.636259 
L 284.803526 259.013623 
L 285.896639 264.423197 
L 286.989752 269.634666 
L 288.082865 271.624498 
L 289.175978 278.641099 
L 290.269091 286.428666 
L 291.362204 287.935876 
L 292.455317 290.077997 
L 293.54843 290.246795 
L 294.641543 289.106079 
L 295.734656 284.130327 
L 296.827769 280.179332 
L 297.920882 274.60958 
L 299.013994 268.04675 
L 300.107107 259.332243 
L 301.20022 243.953978 
L 302.293333 227.742204 
L 303.386446 219.463037 
L 304.479559 208.879164 
L 305.572672 190.187803 
L 306.665785 182.29301 
L 307.758898 179.006513 
L 308.852011 170.724071 
L 309.945124 151.451397 
L 311.038237 121.701991 
L 312.13135 109.337233 
L 313.224463 92.516976 
L 314.317576 76.885646 
L 315.410689 71.429524 
L 316.503802 71.703928 
L 317.596915 73.879558 
L 318.690028 82.040319 
L 319.78314 96.899998 
L 320.876253 111.259576 
L 321.969366 117.30448 
L 323.062479 126.105434 
L 324.155592 140.015901 
L 325.248705 137.495795 
L 326.341818 133.169223 
L 327.434931 128.161318 
L 328.528044 128.685164 
L 329.621157 130.006418 
L 330.71427 144.386342 
L 331.807383 160.733495 
L 332.900496 171.819652 
L 333.993609 188.714894 
L 335.086722 197.633138 
L 336.179835 207.891319 
L 337.272948 216.394743 
L 338.366061 214.285884 
L 339.459174 216.964742 
L 340.552287 222.781691 
L 341.645399 233.464096 
L 342.738512 241.658874 
L 343.831625 244.437976 
L 344.924738 256.212463 
L 346.017851 266.17845 
L 347.110964 270.353019 
L 348.204077 272.958009 
L 349.29719 273.834519 
L 350.390303 278.400619 
L 351.483416 281.653747 
L 352.576529 280.374956 
L 353.669642 280.172273 
L 354.762755 279.984788 
L 355.855868 281.701991 
L 356.948981 279.489568 
L 358.042094 277.81079 
L 359.135207 278.015128 
L 360.22832 278.210305 
L 361.321433 281.3609 
L 362.414545 283.471308 
L 363.507658 287.05814 
L 364.600771 288.937586 
L 365.693884 291.14459 
L 366.786997 293.114488 
L 367.88011 293.908716 
L 368.973223 295.036339 
L 370.066336 295.154296 
L 371.159449 293.631856 
L 372.252562 291.943667 
L 373.345675 289.507294 
L 374.438788 285.439968 
L 375.531901 279.691501 
L 376.625014 276.283055 
L 377.718127 270.659605 
L 378.81124 260.194362 
L 379.904353 248.739611 
L 380.997466 243.925617 
L 382.090579 236.156948 
L 383.183691 226.871401 
L 384.276804 216.203512 
L 385.369917 216.052278 
L 386.46303 210.822175 
L 387.556143 206.319705 
L 388.649256 202.024769 
L 389.742369 194.184787 
L 390.835482 201.041142 
L 391.928595 204.39183 
L 393.021708 200.006426 
L 394.114821 198.44109 
L 395.207934 204.718762 
L 396.301047 210.963061 
L 397.39416 202.647147 
L 398.487273 200.10729 
L 398.487273 195.322551 
L 398.487273 195.322551 
L 397.39416 200.451294 
L 396.301047 207.972208 
L 395.207934 201.374179 
L 394.114821 195.080205 
L 393.021708 198.913524 
L 391.928595 202.339345 
L 390.835482 194.733844 
L 389.742369 189.49183 
L 388.649256 199.399705 
L 387.556143 202.731262 
L 386.46303 209.340035 
L 385.369917 210.491743 
L 384.276804 215.324099 
L 383.183691 225.649646 
L 382.090579 233.094187 
L 380.997466 241.499304 
L 379.904353 244.995741 
L 378.81124 252.896663 
L 377.718127 265.872856 
L 376.625014 272.748342 
L 375.531901 277.824993 
L 374.438788 283.75948 
L 373.345675 285.612106 
L 372.252562 286.700105 
L 371.159449 287.669802 
L 370.066336 287.698267 
L 368.973223 287.774951 
L 367.88011 287.20001 
L 366.786997 286.723804 
L 365.693884 285.611992 
L 364.600771 284.715131 
L 363.507658 283.172935 
L 362.414545 281.091667 
L 361.321433 279.580993 
L 360.22832 277.892506 
L 359.135207 277.57493 
L 358.042094 275.885461 
L 356.948981 277.404502 
L 355.855868 280.24656 
L 354.762755 279.300597 
L 353.669642 279.21671 
L 352.576529 279.08288 
L 351.483416 279.464907 
L 350.390303 277.173215 
L 349.29719 272.807719 
L 348.204077 271.309501 
L 347.110964 269.408622 
L 346.017851 264.899973 
L 344.924738 252.038043 
L 343.831625 243.462091 
L 342.738512 238.76159 
L 341.645399 230.033759 
L 340.552287 220.950734 
L 339.459174 214.369602 
L 338.366061 212.820047 
L 337.272948 212.128317 
L 336.179835 206.158397 
L 335.086722 193.376537 
L 333.993609 184.502956 
L 332.900496 169.291061 
L 331.807383 156.578949 
L 330.71427 138.168369 
L 329.621157 129.386496 
L 328.528044 127.913166 
L 327.434931 127.264709 
L 326.341818 129.928704 
L 325.248705 133.747906 
L 324.155592 134.956038 
L 323.062479 119.442618 
L 321.969366 114.183881 
L 320.876253 104.706407 
L 319.78314 89.855761 
L 318.690028 79.106411 
L 317.596915 68.021792 
L 316.503802 65.006498 
L 315.410689 64.037586 
L 314.317576 68.032114 
L 313.224463 85.904407 
L 312.13135 104.76576 
L 311.038237 118.495193 
L 309.945124 142.583349 
L 308.852011 169.163548 
L 307.758898 176.404898 
L 306.665785 175.470078 
L 305.572672 184.407527 
L 304.479559 203.526088 
L 303.386446 215.068875 
L 302.293333 226.74957 
L 301.20022 239.150704 
L 300.107107 252.476484 
L 299.013994 262.389967 
L 297.920882 270.416713 
L 296.827769 278.162444 
L 295.734656 283.033919 
L 294.641543 285.521522 
L 293.54843 285.776461 
L 292.455317 285.296607 
L 291.362204 283.739682 
L 290.269091 281.726508 
L 289.175978 275.584524 
L 288.082865 270.752455 
L 286.989752 267.934571 
L 285.896639 262.812875 
L 284.803526 256.964488 
L 283.710413 252.432813 
L 282.6173 250.558434 
L 281.524187 245.556509 
L 280.431074 240.130236 
L 279.337961 235.280711 
L 278.244848 229.38178 
L 277.151736 225.645354 
L 276.058623 219.892173 
L 274.96551 218.385023 
L 273.872397 218.115035 
L 272.779284 222.140703 
L 271.686171 226.753119 
L 270.593058 224.676392 
L 269.499945 224.645624 
L 268.406832 225.455214 
L 267.313719 223.546097 
L 266.220606 214.654651 
L 265.127493 200.966481 
L 264.03438 200.971121 
L 262.941267 202.749871 
L 261.848154 196.246205 
L 260.755041 190.777155 
L 259.661928 187.060033 
L 258.568815 185.10201 
L 257.475702 178.174319 
L 256.38259 170.479616 
L 255.289477 168.555016 
L 254.196364 159.390927 
L 253.103251 154.271117 
L 252.010138 143.527797 
L 250.917025 140.867226 
L 249.823912 141.006252 
L 248.730799 139.739909 
L 247.637686 135.655559 
L 246.544573 133.781031 
L 245.45146 139.177255 
L 244.358347 140.66989 
L 243.265234 138.986842 
L 242.172121 141.370552 
L 241.079008 149.031014 
L 239.985895 158.782196 
L 238.892782 170.331211 
L 237.799669 182.553817 
L 236.706556 196.781664 
L 235.613444 205.286205 
L 234.520331 217.888396 
L 233.427218 229.448204 
L 232.334105 238.522296 
L 231.240992 244.547598 
L 230.147879 254.798956 
L 229.054766 262.040305 
L 227.961653 271.384261 
L 226.86854 279.399021 
L 225.775427 283.301941 
L 224.682314 285.0124 
L 223.589201 285.846108 
L 222.496088 286.720412 
L 221.402975 286.616233 
L 220.309862 287.149808 
L 219.216749 287.092154 
L 218.123636 286.399516 
L 217.030523 285.146713 
L 215.93741 282.319629 
L 214.844298 279.929552 
L 213.751185 276.661154 
L 212.658072 272.791417 
L 211.564959 267.039625 
L 210.471846 265.214003 
L 209.378733 264.647231 
L 208.28562 262.003756 
L 207.192507 253.807712 
L 206.099394 248.111749 
L 205.006281 243.660369 
L 203.913168 237.947832 
L 202.820055 229.771166 
L 201.726942 222.453145 
L 200.633829 223.900075 
L 199.540716 224.548978 
L 198.447603 219.735481 
L 197.35449 210.241954 
L 196.261377 205.631995 
L 195.168264 204.060852 
L 194.075152 199.227852 
L 192.982039 197.858859 
L 191.888926 197.305957 
L 190.795813 191.037788 
L 189.7027 191.788026 
L 188.609587 189.992105 
L 187.516474 186.57616 
L 186.423361 185.601813 
L 185.330248 187.170102 
L 184.237135 186.855154 
L 183.144022 181.032672 
L 182.050909 176.205701 
L 180.957796 174.770582 
L 179.864683 168.227438 
L 178.77157 159.58464 
L 177.678457 150.294826 
L 176.585344 131.462107 
L 175.492231 120.690029 
L 174.399118 103.290369 
L 173.306006 90.417099 
L 172.212893 86.958973 
L 171.11978 86.594548 
L 170.026667 93.620225 
L 168.933554 82.03022 
L 167.840441 77.076382 
L 166.747328 92.538166 
L 165.654215 103.608742 
L 164.561102 116.015284 
L 163.467989 133.601511 
L 162.374876 160.277933 
L 161.281763 182.536919 
L 160.18865 190.402061 
L 159.095537 189.100136 
L 158.002424 190.4465 
L 156.909311 189.685518 
L 155.816198 200.869413 
L 154.723085 213.122861 
L 153.629972 220.545617 
L 152.53686 225.090591 
L 151.443747 227.944949 
L 150.350634 234.836711 
L 149.257521 242.729643 
L 148.164408 245.8724 
L 147.071295 250.930228 
L 145.978182 261.159577 
L 144.885069 270.031396 
L 143.791956 273.844859 
L 142.698843 275.224261 
L 141.60573 277.840819 
L 140.512617 278.063456 
L 139.419504 278.622636 
L 138.326391 280.658469 
L 137.233278 279.294642 
L 136.140165 273.462775 
L 135.047052 269.634566 
L 133.953939 267.721777 
L 132.860826 264.713952 
L 131.767713 259.161184 
L 130.674601 256.303005 
L 129.581488 259.362564 
L 128.488375 256.45012 
L 127.395262 247.34248 
L 126.302149 240.967319 
L 125.209036 238.702486 
L 124.115923 236.096256 
L 123.02281 226.182351 
L 121.929697 217.162201 
L 120.836584 215.749116 
L 119.743471 213.112316 
L 118.650358 197.967762 
L 117.557245 190.114506 
L 116.464132 184.21431 
L 115.371019 162.700574 
L 114.277906 159.404128 
L 113.184793 162.042044 
L 112.09168 159.151782 
L 110.998567 147.819358 
L 109.905455 149.932262 
L 108.812342 164.555376 
L 107.719229 160.983731 
L 106.626116 138.167377 
L 105.533003 130.623163 
L 104.43989 119.041594 
L 103.346777 110.17119 
L 102.253664 94.385152 
L 101.160551 82.595181 
L 100.067438 85.920609 
L 98.974325 74.413578 
L 97.881212 60.768135 
L 96.788099 54.102491 
L 95.694986 55.163261 
L 94.601873 65.441565 
L 93.50876 67.470006 
L 92.415647 76.963782 
L 91.322534 105.082618 
L 90.229421 116.056647 
L 89.136309 123.444069 
L 88.043196 141.071336 
L 86.950083 161.392745 
L 85.85697 184.769098 
L 84.763857 201.365891 
L 83.670744 224.776238 
L 82.577631 245.789575 
L 81.484518 256.939005 
L 80.391405 269.696797 
L 79.298292 274.210005 
L 78.205179 278.908885 
L 77.112066 283.351296 
L 76.018953 283.367613 
L 74.92584 283.89106 
L 73.832727 283.401237 
z
" style="fill:#008000;fill-opacity:0.4;"/>
   </g>
   <g id="matplotlib.axis_1">
    <g id="xtick_1">
     <g id="line2d_1">
      <defs>
       <path d="M 0 0 
L 0 3.5 
" id="m88e26ce57f" style="stroke:#000000;stroke-width:0.8;"/>
      </defs>
      <g>
       <use style="stroke:#000000;stroke-width:0.8;" x="73.832727" xlink:href="#m88e26ce57f" y="307.584"/>
      </g>
     </g>
     <g id="text_1">
      <!-- 0 -->
      <defs>
       <path d="M 31.78125 66.40625 
Q 24.171875 66.40625 20.328125 58.90625 
Q 16.5 51.421875 16.5 36.375 
Q 16.5 21.390625 20.328125 13.890625 
Q 24.171875 6.390625 31.78125 6.390625 
Q 39.453125 6.390625 43.28125 13.890625 
Q 47.125 21.390625 47.125 36.375 
Q 47.125 51.421875 43.28125 58.90625 
Q 39.453125 66.40625 31.78125 66.40625 
z
M 31.78125 74.21875 
Q 44.046875 74.21875 50.515625 64.515625 
Q 56.984375 54.828125 56.984375 36.375 
Q 56.984375 17.96875 50.515625 8.265625 
Q 44.046875 -1.421875 31.78125 -1.421875 
Q 19.53125 -1.421875 13.0625 8.265625 
Q 6.59375 17.96875 6.59375 36.375 
Q 6.59375 54.828125 13.0625 64.515625 
Q 19.53125 74.21875 31.78125 74.21875 
z
" id="DejaVuSans-30"/>
      </defs>
      <g transform="translate(70.651477 322.182437)scale(0.1 -0.1)">
       <use xlink:href="#DejaVuSans-30"/>
      </g>
     </g>
    </g>
    <g id="xtick_2">
     <g id="line2d_2">
      <g>
       <use style="stroke:#000000;stroke-width:0.8;" x="128.488375" xlink:href="#m88e26ce57f" y="307.584"/>
      </g>
     </g>
     <g id="text_2">
      <!-- 50 -->
      <defs>
       <path d="M 10.796875 72.90625 
L 49.515625 72.90625 
L 49.515625 64.59375 
L 19.828125 64.59375 
L 19.828125 46.734375 
Q 21.96875 47.46875 24.109375 47.828125 
Q 26.265625 48.1875 28.421875 48.1875 
Q 40.625 48.1875 47.75 41.5 
Q 54.890625 34.8125 54.890625 23.390625 
Q 54.890625 11.625 47.5625 5.09375 
Q 40.234375 -1.421875 26.90625 -1.421875 
Q 22.3125 -1.421875 17.546875 -0.640625 
Q 12.796875 0.140625 7.71875 1.703125 
L 7.71875 11.625 
Q 12.109375 9.234375 16.796875 8.0625 
Q 21.484375 6.890625 26.703125 6.890625 
Q 35.15625 6.890625 40.078125 11.328125 
Q 45.015625 15.765625 45.015625 23.390625 
Q 45.015625 31 40.078125 35.4375 
Q 35.15625 39.890625 26.703125 39.890625 
Q 22.75 39.890625 18.8125 39.015625 
Q 14.890625 38.140625 10.796875 36.28125 
z
" id="DejaVuSans-35"/>
      </defs>
      <g transform="translate(122.125875 322.182437)scale(0.1 -0.1)">
       <use xlink:href="#DejaVuSans-35"/>
       <use x="63.623047" xlink:href="#DejaVuSans-30"/>
      </g>
     </g>
    </g>
    <g id="xtick_3">
     <g id="line2d_3">
      <g>
       <use style="stroke:#000000;stroke-width:0.8;" x="183.144022" xlink:href="#m88e26ce57f" y="307.584"/>
      </g>
     </g>
     <g id="text_3">
      <!-- 100 -->
      <defs>
       <path d="M 12.40625 8.296875 
L 28.515625 8.296875 
L 28.515625 63.921875 
L 10.984375 60.40625 
L 10.984375 69.390625 
L 28.421875 72.90625 
L 38.28125 72.90625 
L 38.28125 8.296875 
L 54.390625 8.296875 
L 54.390625 0 
L 12.40625 0 
z
" id="DejaVuSans-31"/>
      </defs>
      <g transform="translate(173.600272 322.182437)scale(0.1 -0.1)">
       <use xlink:href="#DejaVuSans-31"/>
       <use x="63.623047" xlink:href="#DejaVuSans-30"/>
       <use x="127.246094" xlink:href="#DejaVuSans-30"/>
      </g>
     </g>
    </g>
    <g id="xtick_4">
     <g id="line2d_4">
      <g>
       <use style="stroke:#000000;stroke-width:0.8;" x="237.799669" xlink:href="#m88e26ce57f" y="307.584"/>
      </g>
     </g>
     <g id="text_4">
      <!-- 150 -->
      <g transform="translate(228.255919 322.182437)scale(0.1 -0.1)">
       <use xlink:href="#DejaVuSans-31"/>
       <use x="63.623047" xlink:href="#DejaVuSans-35"/>
       <use x="127.246094" xlink:href="#DejaVuSans-30"/>
      </g>
     </g>
    </g>
    <g id="xtick_5">
     <g id="line2d_5">
      <g>
       <use style="stroke:#000000;stroke-width:0.8;" x="292.455317" xlink:href="#m88e26ce57f" y="307.584"/>
      </g>
     </g>
     <g id="text_5">
      <!-- 200 -->
      <defs>
       <path d="M 19.1875 8.296875 
L 53.609375 8.296875 
L 53.609375 0 
L 7.328125 0 
L 7.328125 8.296875 
Q 12.9375 14.109375 22.625 23.890625 
Q 32.328125 33.6875 34.8125 36.53125 
Q 39.546875 41.84375 41.421875 45.53125 
Q 43.3125 49.21875 43.3125 52.78125 
Q 43.3125 58.59375 39.234375 62.25 
Q 35.15625 65.921875 28.609375 65.921875 
Q 23.96875 65.921875 18.8125 64.3125 
Q 13.671875 62.703125 7.8125 59.421875 
L 7.8125 69.390625 
Q 13.765625 71.78125 18.9375 73 
Q 24.125 74.21875 28.421875 74.21875 
Q 39.75 74.21875 46.484375 68.546875 
Q 53.21875 62.890625 53.21875 53.421875 
Q 53.21875 48.921875 51.53125 44.890625 
Q 49.859375 40.875 45.40625 35.40625 
Q 44.1875 33.984375 37.640625 27.21875 
Q 31.109375 20.453125 19.1875 8.296875 
z
" id="DejaVuSans-32"/>
      </defs>
      <g transform="translate(282.911567 322.182437)scale(0.1 -0.1)">
       <use xlink:href="#DejaVuSans-32"/>
       <use x="63.623047" xlink:href="#DejaVuSans-30"/>
       <use x="127.246094" xlink:href="#DejaVuSans-30"/>
      </g>
     </g>
    </g>
    <g id="xtick_6">
     <g id="line2d_6">
      <g>
       <use style="stroke:#000000;stroke-width:0.8;" x="347.110964" xlink:href="#m88e26ce57f" y="307.584"/>
      </g>
     </g>
     <g id="text_6">
      <!-- 250 -->
      <g transform="translate(337.567214 322.182437)scale(0.1 -0.1)">
       <use xlink:href="#DejaVuSans-32"/>
       <use x="63.623047" xlink:href="#DejaVuSans-35"/>
       <use x="127.246094" xlink:href="#DejaVuSans-30"/>
      </g>
     </g>
    </g>
    <g id="xtick_7">
     <g id="line2d_7">
      <g>
       <use style="stroke:#000000;stroke-width:0.8;" x="401.766612" xlink:href="#m88e26ce57f" y="307.584"/>
      </g>
     </g>
     <g id="text_7">
      <!-- 300 -->
      <defs>
       <path d="M 40.578125 39.3125 
Q 47.65625 37.796875 51.625 33 
Q 55.609375 28.21875 55.609375 21.1875 
Q 55.609375 10.40625 48.1875 4.484375 
Q 40.765625 -1.421875 27.09375 -1.421875 
Q 22.515625 -1.421875 17.65625 -0.515625 
Q 12.796875 0.390625 7.625 2.203125 
L 7.625 11.71875 
Q 11.71875 9.328125 16.59375 8.109375 
Q 21.484375 6.890625 26.8125 6.890625 
Q 36.078125 6.890625 40.9375 10.546875 
Q 45.796875 14.203125 45.796875 21.1875 
Q 45.796875 27.640625 41.28125 31.265625 
Q 36.765625 34.90625 28.71875 34.90625 
L 20.21875 34.90625 
L 20.21875 43.015625 
L 29.109375 43.015625 
Q 36.375 43.015625 40.234375 45.921875 
Q 44.09375 48.828125 44.09375 54.296875 
Q 44.09375 59.90625 40.109375 62.90625 
Q 36.140625 65.921875 28.71875 65.921875 
Q 24.65625 65.921875 20.015625 65.03125 
Q 15.375 64.15625 9.8125 62.3125 
L 9.8125 71.09375 
Q 15.4375 72.65625 20.34375 73.4375 
Q 25.25 74.21875 29.59375 74.21875 
Q 40.828125 74.21875 47.359375 69.109375 
Q 53.90625 64.015625 53.90625 55.328125 
Q 53.90625 49.265625 50.4375 45.09375 
Q 46.96875 40.921875 40.578125 39.3125 
z
" id="DejaVuSans-33"/>
      </defs>
      <g transform="translate(392.222862 322.182437)scale(0.1 -0.1)">
       <use xlink:href="#DejaVuSans-33"/>
       <use x="63.623047" xlink:href="#DejaVuSans-30"/>
       <use x="127.246094" xlink:href="#DejaVuSans-30"/>
      </g>
     </g>
    </g>
   </g>
   <g id="matplotlib.axis_2">
    <g id="ytick_1">
     <g id="line2d_8">
      <defs>
       <path d="M 0 0 
L -3.5 0 
" id="mdd215b3b22" style="stroke:#000000;stroke-width:0.8;"/>
      </defs>
      <g>
       <use style="stroke:#000000;stroke-width:0.8;" x="57.6" xlink:href="#mdd215b3b22" y="299.17887"/>
      </g>
     </g>
     <g id="text_8">
      <!-- 0.0 -->
      <defs>
       <path d="M 10.6875 12.40625 
L 21 12.40625 
L 21 0 
L 10.6875 0 
z
" id="DejaVuSans-2e"/>
      </defs>
      <g transform="translate(34.696875 302.978089)scale(0.1 -0.1)">
       <use xlink:href="#DejaVuSans-30"/>
       <use x="63.623047" xlink:href="#DejaVuSans-2e"/>
       <use x="95.410156" xlink:href="#DejaVuSans-30"/>
      </g>
     </g>
    </g>
    <g id="ytick_2">
     <g id="line2d_9">
      <g>
       <use style="stroke:#000000;stroke-width:0.8;" x="57.6" xlink:href="#mdd215b3b22" y="249.553394"/>
      </g>
     </g>
     <g id="text_9">
      <!-- 0.2 -->
      <g transform="translate(34.696875 253.352613)scale(0.1 -0.1)">
       <use xlink:href="#DejaVuSans-30"/>
       <use x="63.623047" xlink:href="#DejaVuSans-2e"/>
       <use x="95.410156" xlink:href="#DejaVuSans-32"/>
      </g>
     </g>
    </g>
    <g id="ytick_3">
     <g id="line2d_10">
      <g>
       <use style="stroke:#000000;stroke-width:0.8;" x="57.6" xlink:href="#mdd215b3b22" y="199.927919"/>
      </g>
     </g>
     <g id="text_10">
      <!-- 0.4 -->
      <defs>
       <path d="M 37.796875 64.3125 
L 12.890625 25.390625 
L 37.796875 25.390625 
z
M 35.203125 72.90625 
L 47.609375 72.90625 
L 47.609375 25.390625 
L 58.015625 25.390625 
L 58.015625 17.1875 
L 47.609375 17.1875 
L 47.609375 0 
L 37.796875 0 
L 37.796875 17.1875 
L 4.890625 17.1875 
L 4.890625 26.703125 
z
" id="DejaVuSans-34"/>
      </defs>
      <g transform="translate(34.696875 203.727138)scale(0.1 -0.1)">
       <use xlink:href="#DejaVuSans-30"/>
       <use x="63.623047" xlink:href="#DejaVuSans-2e"/>
       <use x="95.410156" xlink:href="#DejaVuSans-34"/>
      </g>
     </g>
    </g>
    <g id="ytick_4">
     <g id="line2d_11">
      <g>
       <use style="stroke:#000000;stroke-width:0.8;" x="57.6" xlink:href="#mdd215b3b22" y="150.302443"/>
      </g>
     </g>
     <g id="text_11">
      <!-- 0.6 -->
      <defs>
       <path d="M 33.015625 40.375 
Q 26.375 40.375 22.484375 35.828125 
Q 18.609375 31.296875 18.609375 23.390625 
Q 18.609375 15.53125 22.484375 10.953125 
Q 26.375 6.390625 33.015625 6.390625 
Q 39.65625 6.390625 43.53125 10.953125 
Q 47.40625 15.53125 47.40625 23.390625 
Q 47.40625 31.296875 43.53125 35.828125 
Q 39.65625 40.375 33.015625 40.375 
z
M 52.59375 71.296875 
L 52.59375 62.3125 
Q 48.875 64.0625 45.09375 64.984375 
Q 41.3125 65.921875 37.59375 65.921875 
Q 27.828125 65.921875 22.671875 59.328125 
Q 17.53125 52.734375 16.796875 39.40625 
Q 19.671875 43.65625 24.015625 45.921875 
Q 28.375 48.1875 33.59375 48.1875 
Q 44.578125 48.1875 50.953125 41.515625 
Q 57.328125 34.859375 57.328125 23.390625 
Q 57.328125 12.15625 50.6875 5.359375 
Q 44.046875 -1.421875 33.015625 -1.421875 
Q 20.359375 -1.421875 13.671875 8.265625 
Q 6.984375 17.96875 6.984375 36.375 
Q 6.984375 53.65625 15.1875 63.9375 
Q 23.390625 74.21875 37.203125 74.21875 
Q 40.921875 74.21875 44.703125 73.484375 
Q 48.484375 72.75 52.59375 71.296875 
z
" id="DejaVuSans-36"/>
      </defs>
      <g transform="translate(34.696875 154.101662)scale(0.1 -0.1)">
       <use xlink:href="#DejaVuSans-30"/>
       <use x="63.623047" xlink:href="#DejaVuSans-2e"/>
       <use x="95.410156" xlink:href="#DejaVuSans-36"/>
      </g>
     </g>
    </g>
    <g id="ytick_5">
     <g id="line2d_12">
      <g>
       <use style="stroke:#000000;stroke-width:0.8;" x="57.6" xlink:href="#mdd215b3b22" y="100.676968"/>
      </g>
     </g>
     <g id="text_12">
      <!-- 0.8 -->
      <defs>
       <path d="M 31.78125 34.625 
Q 24.75 34.625 20.71875 30.859375 
Q 16.703125 27.09375 16.703125 20.515625 
Q 16.703125 13.921875 20.71875 10.15625 
Q 24.75 6.390625 31.78125 6.390625 
Q 38.8125 6.390625 42.859375 10.171875 
Q 46.921875 13.96875 46.921875 20.515625 
Q 46.921875 27.09375 42.890625 30.859375 
Q 38.875 34.625 31.78125 34.625 
z
M 21.921875 38.8125 
Q 15.578125 40.375 12.03125 44.71875 
Q 8.5 49.078125 8.5 55.328125 
Q 8.5 64.0625 14.71875 69.140625 
Q 20.953125 74.21875 31.78125 74.21875 
Q 42.671875 74.21875 48.875 69.140625 
Q 55.078125 64.0625 55.078125 55.328125 
Q 55.078125 49.078125 51.53125 44.71875 
Q 48 40.375 41.703125 38.8125 
Q 48.828125 37.15625 52.796875 32.3125 
Q 56.78125 27.484375 56.78125 20.515625 
Q 56.78125 9.90625 50.3125 4.234375 
Q 43.84375 -1.421875 31.78125 -1.421875 
Q 19.734375 -1.421875 13.25 4.234375 
Q 6.78125 9.90625 6.78125 20.515625 
Q 6.78125 27.484375 10.78125 32.3125 
Q 14.796875 37.15625 21.921875 38.8125 
z
M 18.3125 54.390625 
Q 18.3125 48.734375 21.84375 45.5625 
Q 25.390625 42.390625 31.78125 42.390625 
Q 38.140625 42.390625 41.71875 45.5625 
Q 45.3125 48.734375 45.3125 54.390625 
Q 45.3125 60.0625 41.71875 63.234375 
Q 38.140625 66.40625 31.78125 66.40625 
Q 25.390625 66.40625 21.84375 63.234375 
Q 18.3125 60.0625 18.3125 54.390625 
z
" id="DejaVuSans-38"/>
      </defs>
      <g transform="translate(34.696875 104.476186)scale(0.1 -0.1)">
       <use xlink:href="#DejaVuSans-30"/>
       <use x="63.623047" xlink:href="#DejaVuSans-2e"/>
       <use x="95.410156" xlink:href="#DejaVuSans-38"/>
      </g>
     </g>
    </g>
    <g id="ytick_6">
     <g id="line2d_13">
      <g>
       <use style="stroke:#000000;stroke-width:0.8;" x="57.6" xlink:href="#mdd215b3b22" y="51.051492"/>
      </g>
     </g>
     <g id="text_13">
      <!-- 1.0 -->
      <g transform="translate(34.696875 54.850711)scale(0.1 -0.1)">
       <use xlink:href="#DejaVuSans-31"/>
       <use x="63.623047" xlink:href="#DejaVuSans-2e"/>
       <use x="95.410156" xlink:href="#DejaVuSans-30"/>
      </g>
     </g>
    </g>
   </g>
   <g id="line2d_14">
    <path clip-path="url(#p7fd35e4f62)" d="M 73.832727 285.355214 
L 74.92584 285.800718 
L 76.018953 284.976183 
L 77.112066 284.741934 
L 79.298292 275.733397 
L 80.391405 272.661952 
L 81.484518 259.933059 
L 82.577631 248.710506 
L 83.670744 227.542759 
L 84.763857 203.929386 
L 85.85697 186.502904 
L 86.950083 162.980842 
L 88.043196 142.266425 
L 89.136309 124.138486 
L 90.229421 118.161263 
L 91.322534 109.40766 
L 92.415647 81.400696 
L 93.50876 69.984438 
L 94.601873 68.892595 
L 95.694986 61.993909 
L 96.788099 60.028327 
L 97.881212 63.85288 
L 98.974325 76.623086 
L 100.067438 87.197531 
L 101.160551 85.320778 
L 102.253664 99.815883 
L 103.346777 112.572194 
L 104.43989 121.402386 
L 105.533003 132.950896 
L 106.626116 139.687389 
L 107.719229 161.236507 
L 108.812342 170.713153 
L 109.905455 153.236136 
L 110.998567 151.10315 
L 112.09168 159.674049 
L 113.184793 163.660463 
L 114.277906 160.701875 
L 115.371019 165.08794 
L 116.464132 184.63922 
L 117.557245 192.936765 
L 118.650358 199.902279 
L 119.743471 214.01808 
L 120.836584 217.915334 
L 121.929697 218.912641 
L 124.115923 236.331431 
L 125.209036 239.699512 
L 126.302149 241.241045 
L 127.395262 248.547155 
L 128.488375 257.290006 
L 129.581488 260.647997 
L 130.674601 257.875256 
L 131.767713 260.539482 
L 132.860826 265.441239 
L 133.953939 268.620164 
L 135.047052 270.196269 
L 136.140165 274.12214 
L 137.233278 280.902345 
L 138.326391 281.709594 
L 139.419504 279.124074 
L 140.512617 278.663566 
L 141.60573 278.877344 
L 142.698843 275.928565 
L 143.791956 274.694636 
L 144.885069 272.050186 
L 145.978182 263.540996 
L 147.071295 253.266621 
L 148.164408 247.506261 
L 149.257521 244.162 
L 151.443747 228.746425 
L 152.53686 225.622253 
L 153.629972 221.586048 
L 154.723085 214.200454 
L 155.816198 201.021416 
L 156.909311 193.665763 
L 158.002424 192.000166 
L 159.095537 190.655151 
L 160.18865 191.656179 
L 161.281763 185.538599 
L 162.374876 163.155193 
L 163.467989 134.847168 
L 164.561102 117.551945 
L 165.654215 104.693736 
L 166.747328 93.404602 
L 167.840441 79.543545 
L 168.933554 85.782047 
L 170.026667 95.765865 
L 171.11978 88.625669 
L 172.212893 87.917017 
L 173.306006 92.752441 
L 174.399118 108.816373 
L 175.492231 122.290268 
L 176.585344 132.879683 
L 177.678457 151.618842 
L 178.77157 162.233566 
L 179.864683 170.412423 
L 180.957796 175.937558 
L 182.050909 177.430706 
L 183.144022 182.586793 
L 184.237135 189.289871 
L 186.423361 185.998544 
L 187.516474 187.301461 
L 188.609587 190.780207 
L 189.7027 192.71254 
L 190.795813 192.534385 
L 191.888926 198.42038 
L 192.982039 198.439651 
L 194.075152 199.889542 
L 195.168264 205.454212 
L 196.261377 206.080485 
L 197.35449 212.276391 
L 198.447603 219.961971 
L 199.540716 224.895075 
L 200.633829 225.179015 
L 201.726942 223.959138 
L 203.913168 238.418596 
L 205.006281 244.276883 
L 206.099394 248.842758 
L 207.192507 255.065048 
L 208.28562 262.533186 
L 209.378733 266.182891 
L 210.471846 266.178508 
L 211.564959 268.123992 
L 213.751185 277.39762 
L 214.844298 281.420716 
L 217.030523 288.236064 
L 218.123636 289.945339 
L 219.216749 290.716337 
L 220.309862 290.429485 
L 221.402975 289.740642 
L 222.496088 289.774983 
L 223.589201 288.187596 
L 224.682314 287.08577 
L 225.775427 284.016889 
L 226.86854 279.816366 
L 227.961653 273.751802 
L 229.054766 264.563033 
L 230.147879 257.092662 
L 231.240992 246.745999 
L 233.427218 231.072702 
L 235.613444 207.651462 
L 236.706556 197.772271 
L 238.892782 171.347367 
L 239.985895 159.814737 
L 241.079008 149.966892 
L 242.172121 142.274365 
L 243.265234 140.369077 
L 244.358347 141.380444 
L 245.45146 140.87625 
L 246.544573 134.766113 
L 247.637686 137.285681 
L 248.730799 141.797216 
L 249.823912 141.528163 
L 250.917025 142.828681 
L 252.010138 144.98069 
L 253.103251 155.14316 
L 254.196364 160.833714 
L 255.289477 168.741698 
L 256.38259 172.203985 
L 258.568815 187.816491 
L 259.661928 187.166562 
L 260.755041 191.517311 
L 261.848154 196.63105 
L 262.941267 203.348686 
L 264.03438 201.926419 
L 265.127493 203.792999 
L 266.220606 215.640999 
L 267.313719 223.769238 
L 268.406832 226.176901 
L 269.499945 224.861908 
L 270.593058 225.576515 
L 271.686171 227.565504 
L 272.779284 222.971178 
L 273.872397 219.868841 
L 274.96551 219.231236 
L 276.058623 221.523354 
L 277.151736 226.587055 
L 278.244848 229.561854 
L 279.337961 236.004895 
L 280.431074 240.599635 
L 282.6173 251.438666 
L 283.710413 253.537576 
L 284.803526 258.142075 
L 286.989752 268.863329 
L 288.082865 271.138078 
L 289.175978 276.953762 
L 290.269091 284.208659 
L 291.362204 286.375663 
L 292.455317 288.210407 
L 293.54843 288.49678 
L 294.641543 287.649739 
L 296.827769 279.194608 
L 299.013994 264.62796 
L 300.107107 255.259745 
L 302.293333 227.224494 
L 304.479559 206.623388 
L 305.572672 187.78961 
L 306.665785 178.70302 
L 307.758898 177.664773 
L 308.852011 170.142626 
L 309.945124 146.881346 
L 311.038237 120.170847 
L 312.13135 107.309164 
L 314.317576 71.787166 
L 315.410689 67.325588 
L 316.503802 67.557835 
L 317.596915 71.228549 
L 318.690028 80.449872 
L 319.78314 93.620639 
L 320.876253 108.446249 
L 323.062479 122.999416 
L 324.155592 137.66209 
L 325.248705 135.269811 
L 327.434931 127.682242 
L 328.528044 128.30041 
L 329.621157 129.629297 
L 330.71427 141.432055 
L 331.807383 158.513971 
L 332.900496 170.758891 
L 333.993609 186.347494 
L 335.086722 195.285786 
L 336.179835 206.80601 
L 337.272948 214.147851 
L 338.366061 213.458884 
L 339.459174 215.984241 
L 340.552287 221.955923 
L 342.738512 240.176826 
L 343.831625 243.962423 
L 344.924738 253.841532 
L 346.017851 265.637838 
L 347.110964 269.973947 
L 348.204077 272.264659 
L 349.29719 273.427301 
L 350.390303 277.896083 
L 351.483416 280.384677 
L 352.576529 279.645538 
L 353.669642 279.704212 
L 354.762755 279.575203 
L 355.855868 281.083503 
L 356.948981 278.650688 
L 358.042094 276.953786 
L 359.135207 277.826641 
L 360.22832 278.056961 
L 361.321433 280.620753 
L 362.414545 282.530251 
L 363.507658 285.522303 
L 364.600771 287.356229 
L 366.786997 290.298292 
L 367.88011 290.870689 
L 368.973223 291.684497 
L 370.066336 291.614161 
L 371.159449 291.007233 
L 372.252562 289.56065 
L 373.345675 287.810658 
L 374.438788 284.464941 
L 375.531901 278.70258 
L 376.625014 274.236395 
L 377.718127 267.668595 
L 378.81124 255.649884 
L 379.904353 246.815888 
L 380.997466 242.473493 
L 383.183691 226.201382 
L 384.276804 215.772837 
L 385.369917 213.84009 
L 386.46303 210.085592 
L 387.556143 204.838442 
L 388.649256 200.470491 
L 389.742369 191.729377 
L 390.835482 198.327332 
L 391.928595 203.402612 
L 393.021708 199.45656 
L 394.114821 197.015565 
L 396.301047 209.607947 
L 397.39416 201.467963 
L 398.487273 198.010308 
L 398.487273 198.010308 
" style="fill:none;opacity:0.4;stroke:#1f77b4;stroke-linecap:square;stroke-width:1.5;"/>
   </g>
   <g id="line2d_15">
    <path clip-path="url(#p7fd35e4f62)" d="M 73.832727 286.57686 
L 74.92584 287.036 
L 76.018953 286.05679 
L 77.112066 285.891411 
L 78.205179 280.774523 
L 79.298292 276.933819 
L 80.391405 275.305232 
L 82.577631 252.867756 
L 88.043196 143.191485 
L 89.136309 124.800482 
L 90.229421 119.445893 
L 91.322534 112.468303 
L 92.415647 87.406197 
L 93.50876 73.344968 
L 94.601873 72.883972 
L 96.788099 66.734954 
L 97.881212 68.382718 
L 98.974325 79.221542 
L 100.067438 88.477115 
L 101.160551 87.343744 
L 102.253664 103.313048 
L 103.346777 114.938287 
L 104.43989 122.863178 
L 105.533003 135.535862 
L 106.626116 142.080073 
L 107.719229 161.562116 
L 108.812342 177.421872 
L 109.905455 157.372213 
L 110.998567 154.106782 
L 113.184793 165.804003 
L 114.277906 162.538349 
L 115.371019 168.460529 
L 116.464132 184.978269 
L 117.557245 196.777768 
L 118.650358 202.357458 
L 119.743471 214.969177 
L 120.836584 219.79647 
L 121.929697 220.2464 
L 124.115923 236.494872 
L 125.209036 240.842957 
L 126.302149 241.591483 
L 128.488375 258.390947 
L 129.581488 262.125413 
L 130.674601 260.011591 
L 131.767713 261.645783 
L 132.860826 266.274475 
L 133.953939 269.623748 
L 135.047052 271.021574 
L 136.140165 275.044066 
L 137.233278 282.517094 
L 138.326391 283.33284 
L 139.419504 279.478154 
L 140.512617 279.436752 
L 141.60573 279.781802 
L 142.698843 276.898562 
L 144.885069 274.148403 
L 145.978182 267.187509 
L 147.071295 256.816579 
L 148.164408 249.022476 
L 149.257521 246.040506 
L 150.350634 238.491925 
L 151.443747 229.48381 
L 153.629972 223.043391 
L 154.723085 215.216213 
L 155.816198 201.26669 
L 156.909311 196.267494 
L 158.002424 193.099925 
L 159.095537 192.021538 
L 160.18865 193.133199 
L 161.281763 187.746403 
L 162.374876 165.868838 
L 163.467989 136.78955 
L 164.561102 118.867905 
L 166.747328 94.574126 
L 167.840441 83.165279 
L 168.933554 89.683883 
L 170.026667 98.634979 
L 171.11978 90.535381 
L 172.212893 89.259783 
L 173.306006 95.74427 
L 174.399118 112.504108 
L 176.585344 134.032905 
L 177.678457 152.99537 
L 178.77157 166.141158 
L 179.864683 172.599492 
L 180.957796 177.450581 
L 182.050909 179.513214 
L 183.144022 184.626027 
L 184.237135 191.866781 
L 185.330248 188.099091 
L 186.423361 186.527452 
L 187.516474 187.770223 
L 188.609587 191.291796 
L 189.7027 193.353015 
L 190.795813 194.395323 
L 191.888926 199.498907 
L 192.982039 198.838764 
L 194.075152 200.345989 
L 195.168264 206.770106 
L 196.261377 206.523244 
L 197.35449 213.719186 
L 198.447603 220.166925 
L 199.540716 225.316957 
L 200.633829 225.989631 
L 201.726942 225.251725 
L 203.913168 238.896249 
L 205.006281 244.863812 
L 206.099394 249.687011 
L 208.28562 263.246726 
L 209.378733 267.558584 
L 210.471846 267.530223 
L 211.564959 269.078265 
L 212.658072 273.004682 
L 214.844298 282.694612 
L 217.030523 290.105393 
L 218.123636 292.639552 
L 219.216749 293.605884 
L 221.402975 292.411248 
L 222.496088 292.145595 
L 223.589201 289.8695 
L 224.682314 288.677037 
L 225.775427 284.922647 
L 226.86854 280.302642 
L 227.961653 276.37521 
L 230.147879 260.459536 
L 232.334105 239.71234 
L 233.427218 232.397297 
L 234.520331 220.090948 
L 236.706556 199.062376 
L 238.892782 172.393745 
L 239.985895 160.564917 
L 242.172121 142.816961 
L 243.265234 141.679347 
L 244.358347 141.905267 
L 245.45146 142.403928 
L 246.544573 135.750442 
L 247.637686 138.808985 
L 248.730799 143.561046 
L 249.823912 141.950203 
L 250.917025 144.726103 
L 252.010138 146.895828 
L 253.103251 155.951113 
L 254.196364 163.024926 
L 256.38259 175.120094 
L 257.475702 182.285095 
L 258.568815 191.344994 
L 259.661928 187.267939 
L 261.848154 197.108646 
L 262.941267 204.133752 
L 264.03438 202.89654 
L 265.127493 206.202316 
L 266.220606 216.282168 
L 267.313719 223.958336 
L 268.406832 226.81319 
L 269.499945 225.198328 
L 270.593058 226.392341 
L 271.686171 228.634544 
L 272.779284 223.534633 
L 273.872397 220.978376 
L 274.96551 219.896639 
L 276.058623 222.699238 
L 277.151736 227.212353 
L 278.244848 229.843595 
L 279.337961 236.697642 
L 280.431074 241.36338 
L 282.6173 252.734189 
L 283.710413 254.636259 
L 284.803526 259.013623 
L 286.989752 269.634666 
L 288.082865 271.624498 
L 289.175978 278.641099 
L 290.269091 286.428666 
L 291.362204 287.935876 
L 292.455317 290.077997 
L 293.54843 290.246795 
L 294.641543 289.106079 
L 295.734656 284.130327 
L 296.827769 280.179332 
L 297.920882 274.60958 
L 299.013994 268.04675 
L 300.107107 259.332243 
L 302.293333 227.742204 
L 303.386446 219.463037 
L 304.479559 208.879164 
L 305.572672 190.187803 
L 306.665785 182.29301 
L 307.758898 179.006513 
L 308.852011 170.724071 
L 309.945124 151.451397 
L 311.038237 121.701991 
L 312.13135 109.337233 
L 314.317576 76.885646 
L 315.410689 71.429524 
L 316.503802 71.703928 
L 317.596915 73.879558 
L 318.690028 82.040319 
L 320.876253 111.259576 
L 321.969366 117.30448 
L 323.062479 126.105434 
L 324.155592 140.015901 
L 325.248705 137.495795 
L 326.341818 133.169223 
L 327.434931 128.161318 
L 328.528044 128.685164 
L 329.621157 130.006418 
L 330.71427 144.386342 
L 331.807383 160.733495 
L 332.900496 171.819652 
L 333.993609 188.714894 
L 335.086722 197.633138 
L 336.179835 207.891319 
L 337.272948 216.394743 
L 338.366061 214.285884 
L 339.459174 216.964742 
L 340.552287 222.781691 
L 341.645399 233.464096 
L 342.738512 241.658874 
L 343.831625 244.437976 
L 344.924738 256.212463 
L 346.017851 266.17845 
L 347.110964 270.353019 
L 348.204077 272.958009 
L 349.29719 273.834519 
L 350.390303 278.400619 
L 351.483416 281.653747 
L 352.576529 280.374956 
L 354.762755 279.984788 
L 355.855868 281.701991 
L 356.948981 279.489568 
L 358.042094 277.81079 
L 360.22832 278.210305 
L 361.321433 281.3609 
L 362.414545 283.471308 
L 363.507658 287.05814 
L 364.600771 288.937586 
L 366.786997 293.114488 
L 367.88011 293.908716 
L 368.973223 295.036339 
L 370.066336 295.154296 
L 372.252562 291.943667 
L 373.345675 289.507294 
L 374.438788 285.439968 
L 375.531901 279.691501 
L 376.625014 276.283055 
L 377.718127 270.659605 
L 379.904353 248.739611 
L 380.997466 243.925617 
L 382.090579 236.156948 
L 383.183691 226.871401 
L 384.276804 216.203512 
L 385.369917 216.052278 
L 386.46303 210.822175 
L 388.649256 202.024769 
L 389.742369 194.184787 
L 390.835482 201.041142 
L 391.928595 204.39183 
L 393.021708 200.006426 
L 394.114821 198.44109 
L 396.301047 210.963061 
L 397.39416 202.647147 
L 398.487273 200.10729 
L 398.487273 200.10729 
" style="fill:none;opacity:0.4;stroke:#ff7f0e;stroke-linecap:square;stroke-width:1.5;"/>
   </g>
   <g id="line2d_16">
    <path clip-path="url(#p7fd35e4f62)" d="M 73.832727 283.401237 
L 74.92584 283.89106 
L 76.018953 283.367613 
L 77.112066 283.351296 
L 80.391405 269.696797 
L 81.484518 256.939005 
L 82.577631 245.789575 
L 83.670744 224.776238 
L 84.763857 201.365891 
L 85.85697 184.769098 
L 86.950083 161.392745 
L 88.043196 141.071336 
L 89.136309 123.444069 
L 90.229421 116.056647 
L 91.322534 105.082618 
L 92.415647 76.963782 
L 93.50876 67.470006 
L 94.601873 65.441565 
L 95.694986 55.163261 
L 96.788099 54.102491 
L 97.881212 60.768135 
L 98.974325 74.413578 
L 100.067438 85.920609 
L 101.160551 82.595181 
L 102.253664 94.385152 
L 103.346777 110.17119 
L 104.43989 119.041594 
L 105.533003 130.623163 
L 106.626116 138.167377 
L 107.719229 160.983731 
L 108.812342 164.555376 
L 109.905455 149.932262 
L 110.998567 147.819358 
L 112.09168 159.151782 
L 113.184793 162.042044 
L 114.277906 159.404128 
L 115.371019 162.700574 
L 116.464132 184.21431 
L 117.557245 190.114506 
L 118.650358 197.967762 
L 119.743471 213.112316 
L 120.836584 215.749116 
L 121.929697 217.162201 
L 124.115923 236.096256 
L 125.209036 238.702486 
L 126.302149 240.967319 
L 127.395262 247.34248 
L 128.488375 256.45012 
L 129.581488 259.362564 
L 130.674601 256.303005 
L 131.767713 259.161184 
L 132.860826 264.713952 
L 133.953939 267.721777 
L 135.047052 269.634566 
L 136.140165 273.462775 
L 137.233278 279.294642 
L 138.326391 280.658469 
L 139.419504 278.622636 
L 140.512617 278.063456 
L 141.60573 277.840819 
L 142.698843 275.224261 
L 143.791956 273.844859 
L 144.885069 270.031396 
L 145.978182 261.159577 
L 147.071295 250.930228 
L 148.164408 245.8724 
L 149.257521 242.729643 
L 150.350634 234.836711 
L 151.443747 227.944949 
L 152.53686 225.090591 
L 153.629972 220.545617 
L 154.723085 213.122861 
L 156.909311 189.685518 
L 158.002424 190.4465 
L 159.095537 189.100136 
L 160.18865 190.402061 
L 161.281763 182.536919 
L 162.374876 160.277933 
L 163.467989 133.601511 
L 164.561102 116.015284 
L 165.654215 103.608742 
L 166.747328 92.538166 
L 167.840441 77.076382 
L 168.933554 82.03022 
L 170.026667 93.620225 
L 171.11978 86.594548 
L 172.212893 86.958973 
L 173.306006 90.417099 
L 174.399118 103.290369 
L 175.492231 120.690029 
L 176.585344 131.462107 
L 177.678457 150.294826 
L 179.864683 168.227438 
L 180.957796 174.770582 
L 182.050909 176.205701 
L 183.144022 181.032672 
L 184.237135 186.855154 
L 185.330248 187.170102 
L 186.423361 185.601813 
L 187.516474 186.57616 
L 188.609587 189.992105 
L 189.7027 191.788026 
L 190.795813 191.037788 
L 191.888926 197.305957 
L 192.982039 197.858859 
L 194.075152 199.227852 
L 195.168264 204.060852 
L 196.261377 205.631995 
L 197.35449 210.241954 
L 198.447603 219.735481 
L 199.540716 224.548978 
L 200.633829 223.900075 
L 201.726942 222.453145 
L 202.820055 229.771166 
L 203.913168 237.947832 
L 205.006281 243.660369 
L 206.099394 248.111749 
L 207.192507 253.807712 
L 208.28562 262.003756 
L 209.378733 264.647231 
L 210.471846 265.214003 
L 211.564959 267.039625 
L 212.658072 272.791417 
L 213.751185 276.661154 
L 214.844298 279.929552 
L 215.93741 282.319629 
L 217.030523 285.146713 
L 218.123636 286.399516 
L 219.216749 287.092154 
L 220.309862 287.149808 
L 221.402975 286.616233 
L 222.496088 286.720412 
L 224.682314 285.0124 
L 225.775427 283.301941 
L 226.86854 279.399021 
L 227.961653 271.384261 
L 229.054766 262.040305 
L 230.147879 254.798956 
L 231.240992 244.547598 
L 232.334105 238.522296 
L 233.427218 229.448204 
L 235.613444 205.286205 
L 236.706556 196.781664 
L 237.799669 182.553817 
L 239.985895 158.782196 
L 241.079008 149.031014 
L 242.172121 141.370552 
L 243.265234 138.986842 
L 244.358347 140.66989 
L 245.45146 139.177255 
L 246.544573 133.781031 
L 247.637686 135.655559 
L 248.730799 139.739909 
L 249.823912 141.006252 
L 250.917025 140.867226 
L 252.010138 143.527797 
L 253.103251 154.271117 
L 254.196364 159.390927 
L 255.289477 168.555016 
L 256.38259 170.479616 
L 258.568815 185.10201 
L 259.661928 187.060033 
L 260.755041 190.777155 
L 261.848154 196.246205 
L 262.941267 202.749871 
L 264.03438 200.971121 
L 265.127493 200.966481 
L 266.220606 214.654651 
L 267.313719 223.546097 
L 268.406832 225.455214 
L 269.499945 224.645624 
L 270.593058 224.676392 
L 271.686171 226.753119 
L 272.779284 222.140703 
L 273.872397 218.115035 
L 274.96551 218.385023 
L 276.058623 219.892173 
L 277.151736 225.645354 
L 278.244848 229.38178 
L 279.337961 235.280711 
L 280.431074 240.130236 
L 282.6173 250.558434 
L 283.710413 252.432813 
L 284.803526 256.964488 
L 285.896639 262.812875 
L 286.989752 267.934571 
L 288.082865 270.752455 
L 289.175978 275.584524 
L 290.269091 281.726508 
L 291.362204 283.739682 
L 292.455317 285.296607 
L 293.54843 285.776461 
L 294.641543 285.521522 
L 295.734656 283.033919 
L 296.827769 278.162444 
L 299.013994 262.389967 
L 300.107107 252.476484 
L 302.293333 226.74957 
L 304.479559 203.526088 
L 305.572672 184.407527 
L 306.665785 175.470078 
L 307.758898 176.404898 
L 308.852011 169.163548 
L 311.038237 118.495193 
L 312.13135 104.76576 
L 314.317576 68.032114 
L 315.410689 64.037586 
L 316.503802 65.006498 
L 317.596915 68.021792 
L 319.78314 89.855761 
L 320.876253 104.706407 
L 321.969366 114.183881 
L 323.062479 119.442618 
L 324.155592 134.956038 
L 325.248705 133.747906 
L 326.341818 129.928704 
L 327.434931 127.264709 
L 328.528044 127.913166 
L 329.621157 129.386496 
L 330.71427 138.168369 
L 331.807383 156.578949 
L 332.900496 169.291061 
L 333.993609 184.502956 
L 335.086722 193.376537 
L 336.179835 206.158397 
L 337.272948 212.128317 
L 338.366061 212.820047 
L 339.459174 214.369602 
L 340.552287 220.950734 
L 342.738512 238.76159 
L 343.831625 243.462091 
L 344.924738 252.038043 
L 346.017851 264.899973 
L 347.110964 269.408622 
L 348.204077 271.309501 
L 349.29719 272.807719 
L 350.390303 277.173215 
L 351.483416 279.464907 
L 352.576529 279.08288 
L 354.762755 279.300597 
L 355.855868 280.24656 
L 356.948981 277.404502 
L 358.042094 275.885461 
L 359.135207 277.57493 
L 360.22832 277.892506 
L 362.414545 281.091667 
L 363.507658 283.172935 
L 364.600771 284.715131 
L 365.693884 285.611992 
L 366.786997 286.723804 
L 368.973223 287.774951 
L 371.159449 287.669802 
L 373.345675 285.612106 
L 374.438788 283.75948 
L 375.531901 277.824993 
L 376.625014 272.748342 
L 377.718127 265.872856 
L 378.81124 252.896663 
L 379.904353 244.995741 
L 380.997466 241.499304 
L 382.090579 233.094187 
L 383.183691 225.649646 
L 384.276804 215.324099 
L 385.369917 210.491743 
L 386.46303 209.340035 
L 387.556143 202.731262 
L 388.649256 199.399705 
L 389.742369 189.49183 
L 390.835482 194.733844 
L 391.928595 202.339345 
L 393.021708 198.913524 
L 394.114821 195.080205 
L 396.301047 207.972208 
L 397.39416 200.451294 
L 398.487273 195.322551 
L 398.487273 195.322551 
" style="fill:none;opacity:0.4;stroke:#2ca02c;stroke-linecap:square;stroke-width:1.5;"/>
   </g>
   <g id="line2d_17">
    <path clip-path="url(#p7fd35e4f62)" d="M 73.832727 286.596355 
L 74.92584 286.764114 
L 76.018953 286.093054 
L 77.112066 285.086451 
L 78.205179 278.711289 
L 79.298292 276.194781 
L 80.391405 269.316244 
L 81.484518 258.411542 
L 82.577631 245.661268 
L 83.670744 224.522553 
L 84.763857 206.739263 
L 85.85697 186.607201 
L 88.043196 142.65218 
L 89.136309 124.868891 
L 90.229421 119.332673 
L 91.322534 104.40136 
L 92.415647 76.719773 
L 93.50876 67.324926 
L 94.601873 65.143887 
L 95.694986 54.574653 
L 96.788099 53.568 
L 97.881212 61.78846 
L 98.974325 79.571997 
L 100.067438 85.779152 
L 101.160551 87.456989 
L 102.253664 103.394707 
L 105.533003 130.405357 
L 106.626116 142.484446 
L 107.719229 161.609856 
L 108.812342 163.95863 
L 109.905455 152.047275 
L 110.998567 154.396049 
L 112.09168 159.932267 
L 113.184793 161.945572 
L 114.277906 159.932267 
L 115.371019 168.991645 
L 116.464132 184.761877 
L 117.557245 189.962627 
L 118.650358 202.712901 
L 119.743471 213.953319 
L 120.836584 215.463174 
L 121.929697 220.328456 
L 124.115923 236.433907 
L 125.209036 238.614947 
L 126.302149 241.131455 
L 127.395262 250.52655 
L 128.488375 256.398236 
L 129.581488 259.250212 
L 130.674601 257.069421 
L 131.767713 260.92805 
L 132.860826 265.289881 
L 135.047052 269.819694 
L 137.233278 280.892279 
L 138.326391 280.892279 
L 139.419504 278.54353 
L 140.512617 279.550133 
L 141.60573 277.704686 
L 142.698843 275.188178 
L 143.791956 274.684901 
L 144.885069 269.819694 
L 147.071295 251.532955 
L 148.164408 247.674326 
L 149.257521 242.64131 
L 150.350634 234.588584 
L 151.443747 229.555568 
L 152.53686 225.361471 
L 153.629972 220.49619 
L 154.723085 214.288787 
L 155.816198 200.867329 
L 156.909311 196.337764 
L 158.002424 193.150071 
L 159.095537 192.143419 
L 160.18865 190.298095 
L 161.281763 182.077387 
L 164.561102 115.809512 
L 167.840441 77.89416 
L 168.933554 90.141231 
L 170.026667 93.496658 
L 171.11978 88.79911 
L 172.212893 89.470047 
L 173.306006 96.1809 
L 174.399118 112.622068 
L 175.492231 122.352383 
L 176.585344 133.257333 
L 177.678457 151.543825 
L 178.77157 160.435469 
L 179.864683 167.984993 
L 180.957796 174.695846 
L 182.050909 176.205701 
L 183.144022 184.929611 
L 184.237135 186.607201 
L 185.330248 187.110403 
L 186.423361 186.607201 
L 187.516474 187.781587 
L 188.609587 191.304748 
L 189.7027 191.640216 
L 190.795813 194.659926 
L 191.888926 197.176434 
L 194.075152 200.364127 
L 195.168264 205.564877 
L 196.261377 206.571529 
L 197.35449 213.785585 
L 198.447603 219.992739 
L 199.540716 224.522553 
L 200.633829 223.683634 
L 201.726942 225.361471 
L 203.913168 238.950415 
L 205.006281 244.319147 
L 206.099394 248.680979 
L 207.192507 256.230502 
L 208.28562 262.270171 
L 209.378733 264.45121 
L 210.471846 265.625349 
L 211.564959 268.309839 
L 213.751185 277.536927 
L 214.844298 281.731099 
L 215.93741 286.596355 
L 217.030523 290.119442 
L 218.123636 292.803733 
L 219.216749 293.810336 
L 220.309862 293.139251 
L 221.402975 292.635949 
L 222.496088 292.300432 
L 223.589201 289.951683 
L 224.682314 288.777321 
L 225.775427 283.744305 
L 226.86854 279.717892 
L 229.054766 263.109089 
L 230.147879 255.559566 
L 231.240992 244.486881 
L 232.334105 238.782681 
L 233.427218 229.2201 
L 234.520331 217.811948 
L 235.613444 209.255771 
L 239.985895 160.603451 
L 242.172121 142.819914 
L 243.265234 141.813509 
L 244.358347 141.645775 
L 245.45146 138.961285 
L 246.544573 134.767188 
L 247.637686 138.961285 
L 248.730799 139.464736 
L 249.823912 141.981244 
L 250.917025 140.639123 
L 252.010138 147.181993 
L 253.103251 155.234719 
L 254.196364 159.764533 
L 255.289477 168.656177 
L 256.38259 170.501501 
L 257.475702 182.580838 
L 259.661928 187.278385 
L 262.941267 202.712901 
L 264.03438 200.867329 
L 265.127493 206.403795 
L 266.220606 216.13411 
L 267.313719 223.5159 
L 268.406832 225.361471 
L 269.499945 224.690287 
L 271.686171 226.703592 
L 272.779284 222.006045 
L 273.872397 220.999392 
L 274.96551 219.489537 
L 276.058623 222.173779 
L 277.151736 227.03906 
L 278.244848 229.891037 
L 279.337961 236.769624 
L 280.431074 240.124802 
L 281.524187 247.003389 
L 282.6173 250.52655 
L 283.710413 253.54626 
L 285.896639 263.94776 
L 286.989752 267.806389 
L 288.082865 270.994081 
L 289.175978 278.879073 
L 290.269091 284.583149 
L 291.362204 287.938476 
L 292.455317 290.119442 
L 293.54843 290.287225 
L 294.641543 288.609562 
L 295.734656 283.744305 
L 296.827769 278.040229 
L 299.013994 262.941107 
L 300.107107 252.371873 
L 302.293333 226.703592 
L 303.386446 219.657271 
L 304.479559 203.048369 
L 305.572672 190.298095 
L 306.665785 182.748572 
L 307.758898 177.547822 
L 308.852011 168.991645 
L 309.945124 142.148978 
L 311.038237 121.849181 
L 314.317576 67.828129 
L 315.410689 63.801766 
L 316.503802 64.976152 
L 317.596915 72.022474 
L 318.690028 82.256239 
L 319.78314 97.187304 
L 320.876253 109.769844 
L 321.969366 114.131923 
L 323.062479 126.378994 
L 324.155592 134.599454 
L 325.248705 134.263986 
L 326.341818 129.734172 
L 327.434931 128.224317 
L 328.528044 128.72752 
L 329.621157 130.069641 
L 330.71427 144.665485 
L 331.807383 156.409106 
L 333.993609 185.600548 
L 335.086722 194.659926 
L 336.179835 208.081384 
L 337.272948 211.940013 
L 338.366061 212.778932 
L 339.459174 216.973029 
L 340.552287 222.844963 
L 341.645399 233.749665 
L 342.738512 238.614947 
L 343.831625 244.486881 
L 344.924738 256.56597 
L 346.017851 264.786678 
L 347.110964 269.316244 
L 348.204077 271.161815 
L 349.29719 273.846057 
L 350.390303 278.207988 
L 351.483416 279.885676 
L 352.576529 279.046832 
L 353.669642 280.221194 
L 354.762755 279.382374 
L 355.855868 281.395581 
L 356.948981 277.201384 
L 358.042094 277.87247 
L 359.135207 277.536927 
L 360.22832 277.87247 
L 361.321433 281.395581 
L 362.414545 283.241003 
L 363.507658 287.099657 
L 364.600771 288.94508 
L 365.693884 291.293828 
L 366.786997 293.307035 
L 367.88011 294.145854 
L 368.973223 295.320241 
L 370.066336 295.488 
L 372.252562 292.132648 
L 373.345675 289.61614 
L 376.625014 272.67167 
L 377.718127 265.961065 
L 378.81124 252.875076 
L 379.904353 246.667921 
L 380.997466 241.466923 
L 382.090579 232.910995 
L 383.183691 226.032408 
L 384.276804 215.798642 
L 385.369917 215.463174 
L 386.46303 209.255771 
L 387.556143 205.732611 
L 388.649256 199.357474 
L 389.742369 194.492192 
L 390.835482 201.203045 
L 391.928595 202.20945 
L 393.021708 198.854272 
L 394.114821 198.518555 
L 395.207934 204.39049 
L 396.301047 207.745916 
L 397.39416 200.364127 
L 398.487273 198.854272 
L 398.487273 198.854272 
" style="fill:none;stroke:#000000;stroke-linecap:square;stroke-width:1.5;"/>
   </g>
   <g id="patch_3">
    <path d="M 57.6 307.584 
L 57.6 41.472 
" style="fill:none;stroke:#000000;stroke-linecap:square;stroke-linejoin:miter;stroke-width:0.8;"/>
   </g>
   <g id="patch_4">
    <path d="M 414.72 307.584 
L 414.72 41.472 
" style="fill:none;stroke:#000000;stroke-linecap:square;stroke-linejoin:miter;stroke-width:0.8;"/>
   </g>
   <g id="patch_5">
    <path d="M 57.6 307.584 
L 414.72 307.584 
" style="fill:none;stroke:#000000;stroke-linecap:square;stroke-linejoin:miter;stroke-width:0.8;"/>
   </g>
   <g id="patch_6">
    <path d="M 57.6 41.472 
L 414.72 41.472 
" style="fill:none;stroke:#000000;stroke-linecap:square;stroke-linejoin:miter;stroke-width:0.8;"/>
   </g>
   <g id="text_14">
    <!-- Plot of Train Data for Sunspot -->
    <defs>
     <path d="M 19.671875 64.796875 
L 19.671875 37.40625 
L 32.078125 37.40625 
Q 38.96875 37.40625 42.71875 40.96875 
Q 46.484375 44.53125 46.484375 51.125 
Q 46.484375 57.671875 42.71875 61.234375 
Q 38.96875 64.796875 32.078125 64.796875 
z
M 9.8125 72.90625 
L 32.078125 72.90625 
Q 44.34375 72.90625 50.609375 67.359375 
Q 56.890625 61.8125 56.890625 51.125 
Q 56.890625 40.328125 50.609375 34.8125 
Q 44.34375 29.296875 32.078125 29.296875 
L 19.671875 29.296875 
L 19.671875 0 
L 9.8125 0 
z
" id="DejaVuSans-50"/>
     <path d="M 9.421875 75.984375 
L 18.40625 75.984375 
L 18.40625 0 
L 9.421875 0 
z
" id="DejaVuSans-6c"/>
     <path d="M 30.609375 48.390625 
Q 23.390625 48.390625 19.1875 42.75 
Q 14.984375 37.109375 14.984375 27.296875 
Q 14.984375 17.484375 19.15625 11.84375 
Q 23.34375 6.203125 30.609375 6.203125 
Q 37.796875 6.203125 41.984375 11.859375 
Q 46.1875 17.53125 46.1875 27.296875 
Q 46.1875 37.015625 41.984375 42.703125 
Q 37.796875 48.390625 30.609375 48.390625 
z
M 30.609375 56 
Q 42.328125 56 49.015625 48.375 
Q 55.71875 40.765625 55.71875 27.296875 
Q 55.71875 13.875 49.015625 6.21875 
Q 42.328125 -1.421875 30.609375 -1.421875 
Q 18.84375 -1.421875 12.171875 6.21875 
Q 5.515625 13.875 5.515625 27.296875 
Q 5.515625 40.765625 12.171875 48.375 
Q 18.84375 56 30.609375 56 
z
" id="DejaVuSans-6f"/>
     <path d="M 18.3125 70.21875 
L 18.3125 54.6875 
L 36.8125 54.6875 
L 36.8125 47.703125 
L 18.3125 47.703125 
L 18.3125 18.015625 
Q 18.3125 11.328125 20.140625 9.421875 
Q 21.96875 7.515625 27.59375 7.515625 
L 36.8125 7.515625 
L 36.8125 0 
L 27.59375 0 
Q 17.1875 0 13.234375 3.875 
Q 9.28125 7.765625 9.28125 18.015625 
L 9.28125 47.703125 
L 2.6875 47.703125 
L 2.6875 54.6875 
L 9.28125 54.6875 
L 9.28125 70.21875 
z
" id="DejaVuSans-74"/>
     <path id="DejaVuSans-20"/>
     <path d="M 37.109375 75.984375 
L 37.109375 68.5 
L 28.515625 68.5 
Q 23.6875 68.5 21.796875 66.546875 
Q 19.921875 64.59375 19.921875 59.515625 
L 19.921875 54.6875 
L 34.71875 54.6875 
L 34.71875 47.703125 
L 19.921875 47.703125 
L 19.921875 0 
L 10.890625 0 
L 10.890625 47.703125 
L 2.296875 47.703125 
L 2.296875 54.6875 
L 10.890625 54.6875 
L 10.890625 58.5 
Q 10.890625 67.625 15.140625 71.796875 
Q 19.390625 75.984375 28.609375 75.984375 
z
" id="DejaVuSans-66"/>
     <path d="M -0.296875 72.90625 
L 61.375 72.90625 
L 61.375 64.59375 
L 35.5 64.59375 
L 35.5 0 
L 25.59375 0 
L 25.59375 64.59375 
L -0.296875 64.59375 
z
" id="DejaVuSans-54"/>
     <path d="M 41.109375 46.296875 
Q 39.59375 47.171875 37.8125 47.578125 
Q 36.03125 48 33.890625 48 
Q 26.265625 48 22.1875 43.046875 
Q 18.109375 38.09375 18.109375 28.8125 
L 18.109375 0 
L 9.078125 0 
L 9.078125 54.6875 
L 18.109375 54.6875 
L 18.109375 46.1875 
Q 20.953125 51.171875 25.484375 53.578125 
Q 30.03125 56 36.53125 56 
Q 37.453125 56 38.578125 55.875 
Q 39.703125 55.765625 41.0625 55.515625 
z
" id="DejaVuSans-72"/>
     <path d="M 34.28125 27.484375 
Q 23.390625 27.484375 19.1875 25 
Q 14.984375 22.515625 14.984375 16.5 
Q 14.984375 11.71875 18.140625 8.90625 
Q 21.296875 6.109375 26.703125 6.109375 
Q 34.1875 6.109375 38.703125 11.40625 
Q 43.21875 16.703125 43.21875 25.484375 
L 43.21875 27.484375 
z
M 52.203125 31.203125 
L 52.203125 0 
L 43.21875 0 
L 43.21875 8.296875 
Q 40.140625 3.328125 35.546875 0.953125 
Q 30.953125 -1.421875 24.3125 -1.421875 
Q 15.921875 -1.421875 10.953125 3.296875 
Q 6 8.015625 6 15.921875 
Q 6 25.140625 12.171875 29.828125 
Q 18.359375 34.515625 30.609375 34.515625 
L 43.21875 34.515625 
L 43.21875 35.40625 
Q 43.21875 41.609375 39.140625 45 
Q 35.0625 48.390625 27.6875 48.390625 
Q 23 48.390625 18.546875 47.265625 
Q 14.109375 46.140625 10.015625 43.890625 
L 10.015625 52.203125 
Q 14.9375 54.109375 19.578125 55.046875 
Q 24.21875 56 28.609375 56 
Q 40.484375 56 46.34375 49.84375 
Q 52.203125 43.703125 52.203125 31.203125 
z
" id="DejaVuSans-61"/>
     <path d="M 9.421875 54.6875 
L 18.40625 54.6875 
L 18.40625 0 
L 9.421875 0 
z
M 9.421875 75.984375 
L 18.40625 75.984375 
L 18.40625 64.59375 
L 9.421875 64.59375 
z
" id="DejaVuSans-69"/>
     <path d="M 54.890625 33.015625 
L 54.890625 0 
L 45.90625 0 
L 45.90625 32.71875 
Q 45.90625 40.484375 42.875 44.328125 
Q 39.84375 48.1875 33.796875 48.1875 
Q 26.515625 48.1875 22.3125 43.546875 
Q 18.109375 38.921875 18.109375 30.90625 
L 18.109375 0 
L 9.078125 0 
L 9.078125 54.6875 
L 18.109375 54.6875 
L 18.109375 46.1875 
Q 21.34375 51.125 25.703125 53.5625 
Q 30.078125 56 35.796875 56 
Q 45.21875 56 50.046875 50.171875 
Q 54.890625 44.34375 54.890625 33.015625 
z
" id="DejaVuSans-6e"/>
     <path d="M 19.671875 64.796875 
L 19.671875 8.109375 
L 31.59375 8.109375 
Q 46.6875 8.109375 53.6875 14.9375 
Q 60.6875 21.78125 60.6875 36.53125 
Q 60.6875 51.171875 53.6875 57.984375 
Q 46.6875 64.796875 31.59375 64.796875 
z
M 9.8125 72.90625 
L 30.078125 72.90625 
Q 51.265625 72.90625 61.171875 64.09375 
Q 71.09375 55.28125 71.09375 36.53125 
Q 71.09375 17.671875 61.125 8.828125 
Q 51.171875 0 30.078125 0 
L 9.8125 0 
z
" id="DejaVuSans-44"/>
     <path d="M 53.515625 70.515625 
L 53.515625 60.890625 
Q 47.90625 63.578125 42.921875 64.890625 
Q 37.9375 66.21875 33.296875 66.21875 
Q 25.25 66.21875 20.875 63.09375 
Q 16.5 59.96875 16.5 54.203125 
Q 16.5 49.359375 19.40625 46.890625 
Q 22.3125 44.4375 30.421875 42.921875 
L 36.375 41.703125 
Q 47.40625 39.59375 52.65625 34.296875 
Q 57.90625 29 57.90625 20.125 
Q 57.90625 9.515625 50.796875 4.046875 
Q 43.703125 -1.421875 29.984375 -1.421875 
Q 24.8125 -1.421875 18.96875 -0.25 
Q 13.140625 0.921875 6.890625 3.21875 
L 6.890625 13.375 
Q 12.890625 10.015625 18.65625 8.296875 
Q 24.421875 6.59375 29.984375 6.59375 
Q 38.421875 6.59375 43.015625 9.90625 
Q 47.609375 13.234375 47.609375 19.390625 
Q 47.609375 24.75 44.3125 27.78125 
Q 41.015625 30.8125 33.5 32.328125 
L 27.484375 33.5 
Q 16.453125 35.6875 11.515625 40.375 
Q 6.59375 45.0625 6.59375 53.421875 
Q 6.59375 63.09375 13.40625 68.65625 
Q 20.21875 74.21875 32.171875 74.21875 
Q 37.3125 74.21875 42.625 73.28125 
Q 47.953125 72.359375 53.515625 70.515625 
z
" id="DejaVuSans-53"/>
     <path d="M 8.5 21.578125 
L 8.5 54.6875 
L 17.484375 54.6875 
L 17.484375 21.921875 
Q 17.484375 14.15625 20.5 10.265625 
Q 23.53125 6.390625 29.59375 6.390625 
Q 36.859375 6.390625 41.078125 11.03125 
Q 45.3125 15.671875 45.3125 23.6875 
L 45.3125 54.6875 
L 54.296875 54.6875 
L 54.296875 0 
L 45.3125 0 
L 45.3125 8.40625 
Q 42.046875 3.421875 37.71875 1 
Q 33.40625 -1.421875 27.6875 -1.421875 
Q 18.265625 -1.421875 13.375 4.4375 
Q 8.5 10.296875 8.5 21.578125 
z
M 31.109375 56 
z
" id="DejaVuSans-75"/>
     <path d="M 44.28125 53.078125 
L 44.28125 44.578125 
Q 40.484375 46.53125 36.375 47.5 
Q 32.28125 48.484375 27.875 48.484375 
Q 21.1875 48.484375 17.84375 46.4375 
Q 14.5 44.390625 14.5 40.28125 
Q 14.5 37.15625 16.890625 35.375 
Q 19.28125 33.59375 26.515625 31.984375 
L 29.59375 31.296875 
Q 39.15625 29.25 43.1875 25.515625 
Q 47.21875 21.78125 47.21875 15.09375 
Q 47.21875 7.46875 41.1875 3.015625 
Q 35.15625 -1.421875 24.609375 -1.421875 
Q 20.21875 -1.421875 15.453125 -0.5625 
Q 10.6875 0.296875 5.421875 2 
L 5.421875 11.28125 
Q 10.40625 8.6875 15.234375 7.390625 
Q 20.0625 6.109375 24.8125 6.109375 
Q 31.15625 6.109375 34.5625 8.28125 
Q 37.984375 10.453125 37.984375 14.40625 
Q 37.984375 18.0625 35.515625 20.015625 
Q 33.0625 21.96875 24.703125 23.78125 
L 21.578125 24.515625 
Q 13.234375 26.265625 9.515625 29.90625 
Q 5.8125 33.546875 5.8125 39.890625 
Q 5.8125 47.609375 11.28125 51.796875 
Q 16.75 56 26.8125 56 
Q 31.78125 56 36.171875 55.265625 
Q 40.578125 54.546875 44.28125 53.078125 
z
" id="DejaVuSans-73"/>
     <path d="M 18.109375 8.203125 
L 18.109375 -20.796875 
L 9.078125 -20.796875 
L 9.078125 54.6875 
L 18.109375 54.6875 
L 18.109375 46.390625 
Q 20.953125 51.265625 25.265625 53.625 
Q 29.59375 56 35.59375 56 
Q 45.5625 56 51.78125 48.09375 
Q 58.015625 40.1875 58.015625 27.296875 
Q 58.015625 14.40625 51.78125 6.484375 
Q 45.5625 -1.421875 35.59375 -1.421875 
Q 29.59375 -1.421875 25.265625 0.953125 
Q 20.953125 3.328125 18.109375 8.203125 
z
M 48.6875 27.296875 
Q 48.6875 37.203125 44.609375 42.84375 
Q 40.53125 48.484375 33.40625 48.484375 
Q 26.265625 48.484375 22.1875 42.84375 
Q 18.109375 37.203125 18.109375 27.296875 
Q 18.109375 17.390625 22.1875 11.75 
Q 26.265625 6.109375 33.40625 6.109375 
Q 40.53125 6.109375 44.609375 11.75 
Q 48.6875 17.390625 48.6875 27.296875 
z
" id="DejaVuSans-70"/>
    </defs>
    <g transform="translate(147.321562 35.472)scale(0.12 -0.12)">
     <use xlink:href="#DejaVuSans-50"/>
     <use x="60.302734" xlink:href="#DejaVuSans-6c"/>
     <use x="88.085938" xlink:href="#DejaVuSans-6f"/>
     <use x="149.267578" xlink:href="#DejaVuSans-74"/>
     <use x="188.476562" xlink:href="#DejaVuSans-20"/>
     <use x="220.263672" xlink:href="#DejaVuSans-6f"/>
     <use x="281.445312" xlink:href="#DejaVuSans-66"/>
     <use x="316.650391" xlink:href="#DejaVuSans-20"/>
     <use x="348.4375" xlink:href="#DejaVuSans-54"/>
     <use x="409.302734" xlink:href="#DejaVuSans-72"/>
     <use x="450.416016" xlink:href="#DejaVuSans-61"/>
     <use x="511.695312" xlink:href="#DejaVuSans-69"/>
     <use x="539.478516" xlink:href="#DejaVuSans-6e"/>
     <use x="602.857422" xlink:href="#DejaVuSans-20"/>
     <use x="634.644531" xlink:href="#DejaVuSans-44"/>
     <use x="711.646484" xlink:href="#DejaVuSans-61"/>
     <use x="772.925781" xlink:href="#DejaVuSans-74"/>
     <use x="812.134766" xlink:href="#DejaVuSans-61"/>
     <use x="873.414062" xlink:href="#DejaVuSans-20"/>
     <use x="905.201172" xlink:href="#DejaVuSans-66"/>
     <use x="940.40625" xlink:href="#DejaVuSans-6f"/>
     <use x="1001.587891" xlink:href="#DejaVuSans-72"/>
     <use x="1042.701172" xlink:href="#DejaVuSans-20"/>
     <use x="1074.488281" xlink:href="#DejaVuSans-53"/>
     <use x="1137.964844" xlink:href="#DejaVuSans-75"/>
     <use x="1201.34375" xlink:href="#DejaVuSans-6e"/>
     <use x="1264.722656" xlink:href="#DejaVuSans-73"/>
     <use x="1316.822266" xlink:href="#DejaVuSans-70"/>
     <use x="1380.298828" xlink:href="#DejaVuSans-6f"/>
     <use x="1441.480469" xlink:href="#DejaVuSans-74"/>
    </g>
   </g>
   <g id="legend_1">
    <g id="patch_7">
     <path d="M 277.843437 108.1845 
L 407.72 108.1845 
Q 409.72 108.1845 409.72 106.1845 
L 409.72 48.472 
Q 409.72 46.472 407.72 46.472 
L 277.843437 46.472 
Q 275.843437 46.472 275.843437 48.472 
L 275.843437 106.1845 
Q 275.843437 108.1845 277.843437 108.1845 
z
" style="fill:#ffffff;opacity:0.8;stroke:#cccccc;stroke-linejoin:miter;"/>
    </g>
    <g id="line2d_18">
     <path d="M 279.843437 54.570438 
L 299.843437 54.570438 
" style="fill:none;opacity:0.4;stroke:#1f77b4;stroke-linecap:square;stroke-width:1.5;"/>
    </g>
    <g id="line2d_19"/>
    <g id="text_15">
     <!-- pred. (mean) -->
     <defs>
      <path d="M 56.203125 29.59375 
L 56.203125 25.203125 
L 14.890625 25.203125 
Q 15.484375 15.921875 20.484375 11.0625 
Q 25.484375 6.203125 34.421875 6.203125 
Q 39.59375 6.203125 44.453125 7.46875 
Q 49.3125 8.734375 54.109375 11.28125 
L 54.109375 2.78125 
Q 49.265625 0.734375 44.1875 -0.34375 
Q 39.109375 -1.421875 33.890625 -1.421875 
Q 20.796875 -1.421875 13.15625 6.1875 
Q 5.515625 13.8125 5.515625 26.8125 
Q 5.515625 40.234375 12.765625 48.109375 
Q 20.015625 56 32.328125 56 
Q 43.359375 56 49.78125 48.890625 
Q 56.203125 41.796875 56.203125 29.59375 
z
M 47.21875 32.234375 
Q 47.125 39.59375 43.09375 43.984375 
Q 39.0625 48.390625 32.421875 48.390625 
Q 24.90625 48.390625 20.390625 44.140625 
Q 15.875 39.890625 15.1875 32.171875 
z
" id="DejaVuSans-65"/>
      <path d="M 45.40625 46.390625 
L 45.40625 75.984375 
L 54.390625 75.984375 
L 54.390625 0 
L 45.40625 0 
L 45.40625 8.203125 
Q 42.578125 3.328125 38.25 0.953125 
Q 33.9375 -1.421875 27.875 -1.421875 
Q 17.96875 -1.421875 11.734375 6.484375 
Q 5.515625 14.40625 5.515625 27.296875 
Q 5.515625 40.1875 11.734375 48.09375 
Q 17.96875 56 27.875 56 
Q 33.9375 56 38.25 53.625 
Q 42.578125 51.265625 45.40625 46.390625 
z
M 14.796875 27.296875 
Q 14.796875 17.390625 18.875 11.75 
Q 22.953125 6.109375 30.078125 6.109375 
Q 37.203125 6.109375 41.296875 11.75 
Q 45.40625 17.390625 45.40625 27.296875 
Q 45.40625 37.203125 41.296875 42.84375 
Q 37.203125 48.484375 30.078125 48.484375 
Q 22.953125 48.484375 18.875 42.84375 
Q 14.796875 37.203125 14.796875 27.296875 
z
" id="DejaVuSans-64"/>
      <path d="M 31 75.875 
Q 24.46875 64.65625 21.28125 53.65625 
Q 18.109375 42.671875 18.109375 31.390625 
Q 18.109375 20.125 21.3125 9.0625 
Q 24.515625 -2 31 -13.1875 
L 23.1875 -13.1875 
Q 15.875 -1.703125 12.234375 9.375 
Q 8.59375 20.453125 8.59375 31.390625 
Q 8.59375 42.28125 12.203125 53.3125 
Q 15.828125 64.359375 23.1875 75.875 
z
" id="DejaVuSans-28"/>
      <path d="M 52 44.1875 
Q 55.375 50.25 60.0625 53.125 
Q 64.75 56 71.09375 56 
Q 79.640625 56 84.28125 50.015625 
Q 88.921875 44.046875 88.921875 33.015625 
L 88.921875 0 
L 79.890625 0 
L 79.890625 32.71875 
Q 79.890625 40.578125 77.09375 44.375 
Q 74.3125 48.1875 68.609375 48.1875 
Q 61.625 48.1875 57.5625 43.546875 
Q 53.515625 38.921875 53.515625 30.90625 
L 53.515625 0 
L 44.484375 0 
L 44.484375 32.71875 
Q 44.484375 40.625 41.703125 44.40625 
Q 38.921875 48.1875 33.109375 48.1875 
Q 26.21875 48.1875 22.15625 43.53125 
Q 18.109375 38.875 18.109375 30.90625 
L 18.109375 0 
L 9.078125 0 
L 9.078125 54.6875 
L 18.109375 54.6875 
L 18.109375 46.1875 
Q 21.1875 51.21875 25.484375 53.609375 
Q 29.78125 56 35.6875 56 
Q 41.65625 56 45.828125 52.96875 
Q 50 49.953125 52 44.1875 
z
" id="DejaVuSans-6d"/>
      <path d="M 8.015625 75.875 
L 15.828125 75.875 
Q 23.140625 64.359375 26.78125 53.3125 
Q 30.421875 42.28125 30.421875 31.390625 
Q 30.421875 20.453125 26.78125 9.375 
Q 23.140625 -1.703125 15.828125 -13.1875 
L 8.015625 -13.1875 
Q 14.5 -2 17.703125 9.0625 
Q 20.90625 20.125 20.90625 31.390625 
Q 20.90625 42.671875 17.703125 53.65625 
Q 14.5 64.65625 8.015625 75.875 
z
" id="DejaVuSans-29"/>
     </defs>
     <g transform="translate(307.843437 58.070438)scale(0.1 -0.1)">
      <use xlink:href="#DejaVuSans-70"/>
      <use x="63.476562" xlink:href="#DejaVuSans-72"/>
      <use x="104.558594" xlink:href="#DejaVuSans-65"/>
      <use x="166.082031" xlink:href="#DejaVuSans-64"/>
      <use x="229.558594" xlink:href="#DejaVuSans-2e"/>
      <use x="261.345703" xlink:href="#DejaVuSans-20"/>
      <use x="293.132812" xlink:href="#DejaVuSans-28"/>
      <use x="332.146484" xlink:href="#DejaVuSans-6d"/>
      <use x="429.558594" xlink:href="#DejaVuSans-65"/>
      <use x="491.082031" xlink:href="#DejaVuSans-61"/>
      <use x="552.361328" xlink:href="#DejaVuSans-6e"/>
      <use x="615.740234" xlink:href="#DejaVuSans-29"/>
     </g>
    </g>
    <g id="line2d_20">
     <path d="M 279.843437 69.248563 
L 299.843437 69.248563 
" style="fill:none;opacity:0.4;stroke:#ff7f0e;stroke-linecap:square;stroke-width:1.5;"/>
    </g>
    <g id="line2d_21"/>
    <g id="text_16">
     <!-- pred.(5th percen.) -->
     <defs>
      <path d="M 54.890625 33.015625 
L 54.890625 0 
L 45.90625 0 
L 45.90625 32.71875 
Q 45.90625 40.484375 42.875 44.328125 
Q 39.84375 48.1875 33.796875 48.1875 
Q 26.515625 48.1875 22.3125 43.546875 
Q 18.109375 38.921875 18.109375 30.90625 
L 18.109375 0 
L 9.078125 0 
L 9.078125 75.984375 
L 18.109375 75.984375 
L 18.109375 46.1875 
Q 21.34375 51.125 25.703125 53.5625 
Q 30.078125 56 35.796875 56 
Q 45.21875 56 50.046875 50.171875 
Q 54.890625 44.34375 54.890625 33.015625 
z
" id="DejaVuSans-68"/>
      <path d="M 48.78125 52.59375 
L 48.78125 44.1875 
Q 44.96875 46.296875 41.140625 47.34375 
Q 37.3125 48.390625 33.40625 48.390625 
Q 24.65625 48.390625 19.8125 42.84375 
Q 14.984375 37.3125 14.984375 27.296875 
Q 14.984375 17.28125 19.8125 11.734375 
Q 24.65625 6.203125 33.40625 6.203125 
Q 37.3125 6.203125 41.140625 7.25 
Q 44.96875 8.296875 48.78125 10.40625 
L 48.78125 2.09375 
Q 45.015625 0.34375 40.984375 -0.53125 
Q 36.96875 -1.421875 32.421875 -1.421875 
Q 20.0625 -1.421875 12.78125 6.34375 
Q 5.515625 14.109375 5.515625 27.296875 
Q 5.515625 40.671875 12.859375 48.328125 
Q 20.21875 56 33.015625 56 
Q 37.15625 56 41.109375 55.140625 
Q 45.0625 54.296875 48.78125 52.59375 
z
" id="DejaVuSans-63"/>
     </defs>
     <g transform="translate(307.843437 72.748563)scale(0.1 -0.1)">
      <use xlink:href="#DejaVuSans-70"/>
      <use x="63.476562" xlink:href="#DejaVuSans-72"/>
      <use x="104.558594" xlink:href="#DejaVuSans-65"/>
      <use x="166.082031" xlink:href="#DejaVuSans-64"/>
      <use x="229.558594" xlink:href="#DejaVuSans-2e"/>
      <use x="261.345703" xlink:href="#DejaVuSans-28"/>
      <use x="300.359375" xlink:href="#DejaVuSans-35"/>
      <use x="363.982422" xlink:href="#DejaVuSans-74"/>
      <use x="403.191406" xlink:href="#DejaVuSans-68"/>
      <use x="466.570312" xlink:href="#DejaVuSans-20"/>
      <use x="498.357422" xlink:href="#DejaVuSans-70"/>
      <use x="561.833984" xlink:href="#DejaVuSans-65"/>
      <use x="623.357422" xlink:href="#DejaVuSans-72"/>
      <use x="664.439453" xlink:href="#DejaVuSans-63"/>
      <use x="719.419922" xlink:href="#DejaVuSans-65"/>
      <use x="780.943359" xlink:href="#DejaVuSans-6e"/>
      <use x="844.322266" xlink:href="#DejaVuSans-2e"/>
      <use x="876.109375" xlink:href="#DejaVuSans-29"/>
     </g>
    </g>
    <g id="line2d_22">
     <path d="M 279.843437 83.926688 
L 299.843437 83.926688 
" style="fill:none;opacity:0.4;stroke:#2ca02c;stroke-linecap:square;stroke-width:1.5;"/>
    </g>
    <g id="line2d_23"/>
    <g id="text_17">
     <!-- pred.(95th percen.) -->
     <defs>
      <path d="M 10.984375 1.515625 
L 10.984375 10.5 
Q 14.703125 8.734375 18.5 7.8125 
Q 22.3125 6.890625 25.984375 6.890625 
Q 35.75 6.890625 40.890625 13.453125 
Q 46.046875 20.015625 46.78125 33.40625 
Q 43.953125 29.203125 39.59375 26.953125 
Q 35.25 24.703125 29.984375 24.703125 
Q 19.046875 24.703125 12.671875 31.3125 
Q 6.296875 37.9375 6.296875 49.421875 
Q 6.296875 60.640625 12.9375 67.421875 
Q 19.578125 74.21875 30.609375 74.21875 
Q 43.265625 74.21875 49.921875 64.515625 
Q 56.59375 54.828125 56.59375 36.375 
Q 56.59375 19.140625 48.40625 8.859375 
Q 40.234375 -1.421875 26.421875 -1.421875 
Q 22.703125 -1.421875 18.890625 -0.6875 
Q 15.09375 0.046875 10.984375 1.515625 
z
M 30.609375 32.421875 
Q 37.25 32.421875 41.125 36.953125 
Q 45.015625 41.5 45.015625 49.421875 
Q 45.015625 57.28125 41.125 61.84375 
Q 37.25 66.40625 30.609375 66.40625 
Q 23.96875 66.40625 20.09375 61.84375 
Q 16.21875 57.28125 16.21875 49.421875 
Q 16.21875 41.5 20.09375 36.953125 
Q 23.96875 32.421875 30.609375 32.421875 
z
" id="DejaVuSans-39"/>
     </defs>
     <g transform="translate(307.843437 87.426688)scale(0.1 -0.1)">
      <use xlink:href="#DejaVuSans-70"/>
      <use x="63.476562" xlink:href="#DejaVuSans-72"/>
      <use x="104.558594" xlink:href="#DejaVuSans-65"/>
      <use x="166.082031" xlink:href="#DejaVuSans-64"/>
      <use x="229.558594" xlink:href="#DejaVuSans-2e"/>
      <use x="261.345703" xlink:href="#DejaVuSans-28"/>
      <use x="300.359375" xlink:href="#DejaVuSans-39"/>
      <use x="363.982422" xlink:href="#DejaVuSans-35"/>
      <use x="427.605469" xlink:href="#DejaVuSans-74"/>
      <use x="466.814453" xlink:href="#DejaVuSans-68"/>
      <use x="530.193359" xlink:href="#DejaVuSans-20"/>
      <use x="561.980469" xlink:href="#DejaVuSans-70"/>
      <use x="625.457031" xlink:href="#DejaVuSans-65"/>
      <use x="686.980469" xlink:href="#DejaVuSans-72"/>
      <use x="728.0625" xlink:href="#DejaVuSans-63"/>
      <use x="783.042969" xlink:href="#DejaVuSans-65"/>
      <use x="844.566406" xlink:href="#DejaVuSans-6e"/>
      <use x="907.945312" xlink:href="#DejaVuSans-2e"/>
      <use x="939.732422" xlink:href="#DejaVuSans-29"/>
     </g>
    </g>
    <g id="line2d_24">
     <path d="M 279.843437 98.604813 
L 299.843437 98.604813 
" style="fill:none;stroke:#000000;stroke-linecap:square;stroke-width:1.5;"/>
    </g>
    <g id="line2d_25"/>
    <g id="text_18">
     <!-- actual -->
     <g transform="translate(307.843437 102.104813)scale(0.1 -0.1)">
      <use xlink:href="#DejaVuSans-61"/>
      <use x="61.279297" xlink:href="#DejaVuSans-63"/>
      <use x="116.259766" xlink:href="#DejaVuSans-74"/>
      <use x="155.46875" xlink:href="#DejaVuSans-75"/>
      <use x="218.847656" xlink:href="#DejaVuSans-61"/>
      <use x="280.126953" xlink:href="#DejaVuSans-6c"/>
     </g>
    </g>
   </g>
  </g>
 </g>
 <defs>
  <clipPath id="p7fd35e4f62">
   <rect height="266.112" width="357.12" x="57.6" y="41.472"/>
  </clipPath>
 </defs>
</svg>
