<?xml version="1.0" encoding="utf-8" standalone="no"?>
<!DOCTYPE svg PUBLIC "-//W3C//DTD SVG 1.1//EN"
  "http://www.w3.org/Graphics/SVG/1.1/DTD/svg11.dtd">
<!-- Created with matplotlib (http://matplotlib.org/) -->
<svg height="345pt" version="1.1" viewBox="0 0 460 345" width="460pt" xmlns="http://www.w3.org/2000/svg" xmlns:xlink="http://www.w3.org/1999/xlink">
 <defs>
  <style type="text/css">
*{stroke-linecap:butt;stroke-linejoin:round;}
  </style>
 </defs>
 <g id="figure_1">
  <g id="patch_1">
   <path d="M 0 345.6 
L 460.8 345.6 
L 460.8 0 
L 0 0 
z
" style="fill:#ffffff;"/>
  </g>
  <g id="axes_1">
   <g id="patch_2">
    <path d="M 57.6 307.584 
L 414.72 307.584 
L 414.72 41.472 
L 57.6 41.472 
z
" style="fill:#ffffff;"/>
   </g>
   <g id="PolyCollection_1">
    <path clip-path="url(#p5777712646)" d="M 73.832727 179.945677 
L 73.832727 180.173118 
L 74.92584 179.420198 
L 76.018953 178.74201 
L 77.112066 178.087526 
L 78.205179 177.414987 
L 79.298292 176.686311 
L 80.391405 175.865226 
L 81.484518 174.915109 
L 82.577631 173.794824 
L 83.670744 172.460774 
L 84.763857 170.858794 
L 85.85697 168.926046 
L 86.950083 166.595391 
L 88.043196 163.859098 
L 89.136309 160.566407 
L 90.229421 156.592176 
L 91.322534 151.800563 
L 92.415647 146.042941 
L 93.50876 139.265064 
L 94.601873 131.291494 
L 95.694986 121.988657 
L 96.788099 111.244955 
L 97.881212 98.991845 
L 98.974325 85.773726 
L 100.067438 75.823324 
L 101.160551 68.578268 
L 102.253664 64.131695 
L 103.346777 62.47347 
L 104.43989 63.544808 
L 105.533003 68.002895 
L 106.626116 80.738861 
L 107.719229 97.192859 
L 108.812342 114.013843 
L 109.905455 130.131099 
L 110.998567 144.622996 
L 112.09168 158.887668 
L 113.184793 170.328801 
L 114.277906 178.97037 
L 115.371019 185.474993 
L 116.464132 190.447153 
L 117.557245 194.362193 
L 118.650358 197.579881 
L 119.743471 200.37596 
L 120.836584 202.964111 
L 121.929697 205.515153 
L 123.02281 208.20366 
L 124.115923 211.215206 
L 125.209036 214.538277 
L 126.302149 218.271958 
L 127.395262 222.481386 
L 128.488375 227.229781 
L 129.581488 232.559036 
L 130.674601 238.519125 
L 131.767713 245.026533 
L 132.860826 251.935252 
L 133.953939 259.089467 
L 135.047052 266.151112 
L 136.140165 272.381833 
L 137.233278 277.248097 
L 138.326391 280.477192 
L 139.419504 281.568908 
L 140.512617 280.341403 
L 141.60573 277.010548 
L 142.698843 271.358037 
L 143.791956 263.618422 
L 144.885069 254.46278 
L 145.978182 245.164835 
L 147.071295 236.861982 
L 148.164408 229.275345 
L 149.257521 222.628176 
L 150.350634 217.018154 
L 151.443747 212.452333 
L 152.53686 208.879226 
L 153.629972 206.21699 
L 154.723085 204.372651 
L 155.816198 203.256636 
L 156.909311 202.81616 
L 158.002424 202.969246 
L 159.095537 203.664597 
L 160.18865 204.87821 
L 161.281763 206.605329 
L 162.374876 208.857684 
L 163.467989 211.660736 
L 164.561102 215.05381 
L 165.654215 219.083421 
L 166.747328 223.798625 
L 167.840441 229.271075 
L 168.933554 235.530824 
L 170.026667 242.523222 
L 171.11978 250.14559 
L 172.212893 258.193299 
L 173.306006 266.408824 
L 174.399118 273.909674 
L 175.492231 280.273968 
L 176.585344 284.777326 
L 177.678457 286.71694 
L 178.77157 285.786283 
L 179.864683 282.207365 
L 180.957796 276.396633 
L 182.050909 267.860419 
L 183.144022 257.269696 
L 184.237135 245.996569 
L 185.330248 236.206822 
L 186.423361 227.286973 
L 187.516474 219.495274 
L 188.609587 212.927351 
L 189.7027 207.564879 
L 190.795813 203.320341 
L 191.888926 200.071002 
L 192.982039 197.684534 
L 194.075152 196.034337 
L 195.168264 195.009514 
L 196.261377 194.519955 
L 197.35449 194.509279 
L 198.447603 194.933674 
L 199.540716 195.769516 
L 200.633829 196.97421 
L 201.726942 198.549864 
L 202.820055 200.527614 
L 203.913168 202.98595 
L 205.006281 205.960467 
L 206.099394 209.530142 
L 207.192507 213.768896 
L 208.28562 218.76576 
L 209.378733 224.659496 
L 210.471846 231.508591 
L 211.564959 239.335426 
L 212.658072 248.098567 
L 213.751185 257.63971 
L 214.844298 267.571084 
L 215.93741 277.227583 
L 217.030523 285.772337 
L 218.123636 292.129203 
L 219.216749 295.308774 
L 220.309862 294.624703 
L 221.402975 289.887478 
L 222.496088 282.630975 
L 223.589201 272.603679 
L 224.682314 259.398966 
L 225.775427 244.991639 
L 226.86854 232.796964 
L 227.961653 221.889662 
L 229.054766 212.490605 
L 230.147879 204.645012 
L 231.240992 198.260448 
L 232.334105 193.166472 
L 233.427218 189.161402 
L 234.520331 186.041582 
L 235.613444 183.617842 
L 236.706556 181.726203 
L 237.799669 180.231634 
L 238.892782 179.00575 
L 239.985895 178.001252 
L 241.079008 177.087461 
L 242.172121 176.184995 
L 243.265234 175.239905 
L 244.358347 174.200569 
L 245.45146 173.019011 
L 246.544573 171.644932 
L 247.637686 170.021871 
L 248.730799 168.086447 
L 249.823912 165.837713 
L 250.917025 163.152991 
L 252.010138 159.945113 
L 253.103251 156.095995 
L 254.196364 151.483957 
L 255.289477 145.974966 
L 256.38259 139.478478 
L 257.475702 131.926896 
L 258.568815 123.164026 
L 259.661928 113.106674 
L 260.755041 101.716921 
L 261.848154 89.277398 
L 262.941267 78.633349 
L 264.03438 71.242368 
L 265.127493 66.340021 
L 266.220606 64.169615 
L 267.313719 64.675067 
L 268.406832 68.312015 
L 269.499945 79.101042 
L 270.593058 94.042605 
L 271.686171 109.695302 
L 272.779284 125.062611 
L 273.872397 139.128681 
L 274.96551 152.052275 
L 276.058623 163.794799 
L 277.151736 172.824247 
L 278.244848 179.649855 
L 279.337961 184.83351 
L 280.431074 188.844444 
L 281.524187 192.049862 
L 282.6173 194.734396 
L 283.710413 197.117729 
L 284.803526 199.374652 
L 285.896639 201.648575 
L 286.989752 204.059288 
L 288.082865 206.762551 
L 289.175978 209.865939 
L 290.269091 213.404153 
L 291.362204 217.458927 
L 292.455317 222.103264 
L 293.54843 227.403707 
L 294.641543 233.45361 
L 295.734656 240.233352 
L 296.827769 247.651848 
L 297.920882 255.542631 
L 299.013994 263.706912 
L 300.107107 271.445149 
L 301.20022 278.083669 
L 302.293333 283.189537 
L 303.386446 285.9471 
L 304.479559 285.899207 
L 305.572672 283.226944 
L 306.665785 278.208376 
L 307.758898 270.581306 
L 308.852011 260.656256 
L 309.945124 249.539189 
L 311.038237 239.399996 
L 312.13135 230.273545 
L 313.224463 222.193457 
L 314.317576 215.303197 
L 315.410689 209.619308 
L 316.503802 205.075569 
L 317.596915 201.561923 
L 318.690028 198.950149 
L 319.78314 197.11435 
L 320.876253 195.940468 
L 321.969366 195.334013 
L 323.062479 195.232739 
L 324.155592 195.588698 
L 325.248705 196.357971 
L 326.341818 197.521987 
L 327.434931 199.08583 
L 328.528044 201.074472 
L 329.621157 203.527051 
L 330.71427 206.501569 
L 331.807383 210.069649 
L 332.900496 214.304376 
L 333.993609 219.29151 
L 335.086722 225.163514 
L 336.179835 231.975771 
L 337.272948 239.741901 
L 338.366061 248.413147 
L 339.459174 257.823771 
L 340.552287 267.581544 
L 341.645399 277.027602 
L 342.738512 285.342294 
L 343.831625 291.48153 
L 344.924738 294.493741 
L 346.017851 293.727047 
L 347.110964 289.023892 
L 348.204077 281.970356 
L 349.29719 272.036577 
L 350.390303 259.064602 
L 351.483416 244.963773 
L 352.576529 233.040406 
L 353.669642 222.340841 
L 354.762755 213.112142 
L 355.855868 205.404203 
L 356.948981 199.130642 
L 358.042094 194.129806 
L 359.135207 190.207523 
L 360.22832 187.167489 
L 361.321433 184.826536 
L 362.414545 183.025442 
L 363.507658 181.637416 
L 364.600771 180.543835 
L 365.693884 179.711452 
L 366.786997 178.984398 
L 367.88011 178.306264 
L 368.973223 177.629509 
L 370.066336 176.91432 
L 371.159449 176.122182 
L 372.252562 175.215769 
L 373.345675 174.156864 
L 374.438788 172.90152 
L 375.531901 171.399031 
L 376.625014 169.591422 
L 377.718127 167.405745 
L 378.81124 164.834459 
L 379.904353 161.755343 
L 380.997466 158.045906 
L 382.090579 153.572468 
L 383.183691 148.191563 
L 384.276804 141.800944 
L 385.369917 134.299823 
L 386.46303 125.519871 
L 387.556143 115.347839 
L 388.649256 103.690968 
L 389.742369 90.634774 
L 390.835482 79.186694 
L 391.928595 71.055307 
L 393.021708 65.531748 
L 394.114821 62.89554 
L 395.207934 62.924109 
L 396.301047 66.012252 
L 397.39416 75.319549 
L 398.487273 91.081683 
L 398.487273 84.559599 
L 398.487273 84.559599 
L 397.39416 72.983109 
L 396.301047 62.784779 
L 395.207934 55.654997 
L 394.114821 54.120453 
L 393.021708 58.07217 
L 391.928595 65.533964 
L 390.835482 77.100318 
L 389.742369 89.34359 
L 388.649256 100.604825 
L 387.556143 111.95909 
L 386.46303 122.60887 
L 385.369917 132.098389 
L 384.276804 140.271129 
L 383.183691 147.155307 
L 382.090579 152.88309 
L 380.997466 157.620215 
L 379.904353 161.52547 
L 378.81124 164.684859 
L 377.718127 167.242036 
L 376.625014 169.35717 
L 375.531901 171.116615 
L 374.438788 172.586021 
L 373.345675 173.820203 
L 372.252562 174.866459 
L 371.159449 175.768006 
L 370.066336 176.56282 
L 368.973223 177.288469 
L 367.88011 177.983711 
L 366.786997 178.691522 
L 365.693884 179.461145 
L 364.600771 180.352152 
L 363.507658 181.427246 
L 362.414545 182.783892 
L 361.321433 184.42444 
L 360.22832 186.554737 
L 359.135207 189.339598 
L 358.042094 192.960005 
L 356.948981 197.622964 
L 355.855868 203.561323 
L 354.762755 211.038902 
L 353.669642 220.343009 
L 352.576529 231.696193 
L 351.483416 244.838498 
L 350.390303 257.517273 
L 349.29719 269.844872 
L 348.204077 280.748499 
L 347.110964 288.22724 
L 346.017851 291.196079 
L 344.924738 291.390862 
L 343.831625 289.015851 
L 342.738512 284.058164 
L 341.645399 276.678292 
L 340.552287 267.336589 
L 339.459174 257.538193 
L 338.366061 247.994023 
L 337.272948 239.156879 
L 336.179835 231.366424 
L 335.086722 224.633711 
L 333.993609 218.874332 
L 332.900496 213.976472 
L 331.807383 209.83564 
L 330.71427 206.352212 
L 329.621157 203.407858 
L 328.528044 200.959657 
L 327.434931 198.981961 
L 326.341818 197.433687 
L 325.248705 196.290833 
L 324.155592 195.535426 
L 323.062479 195.116464 
L 321.969366 195.105842 
L 320.876253 195.554184 
L 319.78314 196.532247 
L 318.690028 198.13501 
L 317.596915 200.478964 
L 316.503802 203.702896 
L 315.410689 207.964462 
L 314.317576 213.437695 
L 313.224463 220.298277 
L 312.13135 228.680485 
L 311.038237 238.561505 
L 309.945124 249.254097 
L 308.852011 259.304259 
L 307.758898 268.810428 
L 306.665785 276.908679 
L 305.572672 282.769143 
L 304.479559 285.312725 
L 303.386446 285.098393 
L 302.293333 282.58992 
L 301.20022 277.933096 
L 300.107107 271.280467 
L 299.013994 263.507445 
L 297.920882 255.398383 
L 296.827769 247.294753 
L 295.734656 239.714008 
L 294.641543 232.889995 
L 293.54843 226.868308 
L 292.455317 221.610192 
L 291.362204 217.05002 
L 290.269091 213.102277 
L 289.175978 209.621956 
L 288.082865 206.481108 
L 286.989752 203.662786 
L 285.896639 201.06331 
L 284.803526 198.573865 
L 283.710413 196.064932 
L 282.6173 193.385561 
L 281.524187 190.359015 
L 280.431074 186.778015 
L 279.337961 182.401472 
L 278.244848 176.957051 
L 277.151736 170.153822 
L 276.058623 161.708423 
L 274.96551 151.084617 
L 273.872397 137.260746 
L 272.779284 120.187589 
L 271.686171 102.681363 
L 270.593058 87.239079 
L 269.499945 75.638588 
L 268.406832 66.558651 
L 267.313719 59.398192 
L 266.220606 57.072483 
L 265.127493 59.761017 
L 264.03438 66.149879 
L 262.941267 76.597083 
L 261.848154 88.035352 
L 260.755041 98.677239 
L 259.661928 109.60092 
L 258.568815 120.029232 
L 257.475702 129.466885 
L 256.38259 137.701762 
L 255.289477 144.712242 
L 254.196364 150.598518 
L 253.103251 155.504405 
L 252.010138 159.575856 
L 250.917025 162.948902 
L 249.823912 165.661112 
L 248.730799 167.908386 
L 247.637686 169.785673 
L 246.544573 171.369814 
L 245.45146 172.719567 
L 244.358347 173.888719 
L 243.265234 174.926839 
L 242.172121 175.882389 
L 241.079008 176.806505 
L 239.985895 177.75654 
L 238.892782 178.795336 
L 237.799669 179.995922 
L 236.706556 181.460085 
L 235.613444 183.206502 
L 234.520331 185.424694 
L 233.427218 188.292991 
L 232.334105 191.999104 
L 231.240992 196.754229 
L 230.147879 202.79897 
L 229.054766 210.404472 
L 227.961653 219.871396 
L 226.86854 231.441562 
L 225.775427 244.831823 
L 224.682314 257.78377 
L 223.589201 270.373298 
L 222.496088 281.492797 
L 221.402975 288.875865 
L 220.309862 291.788769 
L 219.216749 291.919125 
L 218.123636 289.463327 
L 217.030523 284.385555 
L 215.93741 276.839109 
L 214.844298 267.305696 
L 213.751185 257.337347 
L 212.658072 247.664362 
L 211.564959 238.742134 
L 210.471846 230.900217 
L 209.378733 224.139665 
L 208.28562 218.366096 
L 207.192507 213.462155 
L 206.099394 209.319972 
L 205.006281 205.836652 
L 203.913168 202.869675 
L 202.820055 200.415961 
L 201.726942 198.423859 
L 200.633829 196.85453 
L 199.540716 195.680972 
L 198.447603 194.891104 
L 197.35449 194.440925 
L 196.261377 194.350408 
L 195.168264 194.691827 
L 194.075152 195.532021 
L 192.982039 196.959885 
L 191.888926 199.08729 
L 190.795813 202.04886 
L 189.7027 205.99955 
L 188.609587 211.112202 
L 187.516474 217.569931 
L 186.423361 225.536042 
L 185.330248 235.064266 
L 184.237135 245.905349 
L 183.144022 256.190385 
L 182.050909 266.098785 
L 180.957796 274.865115 
L 179.864683 281.61991 
L 178.77157 285.250642 
L 177.678457 285.791365 
L 176.585344 283.972648 
L 175.492231 279.931225 
L 174.399118 273.816265 
L 173.306006 266.197195 
L 172.212893 258.050266 
L 171.11978 249.840065 
L 170.026667 242.010933 
L 168.933554 234.923422 
L 167.840441 228.668052 
L 166.747328 223.231604 
L 165.654215 218.559698 
L 164.561102 214.588224 
L 163.467989 211.250856 
L 162.374876 208.489643 
L 161.281763 206.259424 
L 160.18865 204.530603 
L 159.095537 203.287799 
L 158.002424 202.534798 
L 156.909311 202.29268 
L 155.816198 202.603016 
L 154.723085 203.525889 
L 153.629972 205.14595 
L 152.53686 207.56542 
L 151.443747 210.901842 
L 150.350634 215.283034 
L 149.257521 220.836379 
L 148.164408 227.656744 
L 147.071295 235.741075 
L 145.978182 244.866851 
L 144.885069 253.806728 
L 143.791956 262.24964 
L 142.698843 269.834061 
L 141.60573 275.878937 
L 140.512617 279.817924 
L 139.419504 281.296952 
L 138.326391 280.297671 
L 137.233278 277.122092 
L 136.140165 272.123985 
L 135.047052 265.900318 
L 133.953939 258.978788 
L 132.860826 251.757678 
L 131.767713 244.631004 
L 130.674601 237.999538 
L 129.581488 231.998339 
L 128.488375 226.657895 
L 127.395262 221.954745 
L 126.302149 217.830698 
L 125.209036 214.209399 
L 124.115923 210.89022 
L 123.02281 207.824186 
L 121.929697 204.936212 
L 120.836584 202.105673 
L 119.743471 199.185482 
L 118.650358 195.997525 
L 117.557245 192.329576 
L 116.464132 187.932653 
L 115.371019 182.520693 
L 114.277906 175.778655 
L 113.184793 167.383501 
L 112.09168 156.935081 
L 110.998567 144.045271 
L 109.905455 126.371876 
L 108.812342 107.378404 
L 107.719229 90.011318 
L 106.626116 76.642734 
L 105.533003 66.473324 
L 104.43989 57.45839 
L 103.346777 53.75871 
L 102.253664 55.779867 
L 101.160551 62.124295 
L 100.067438 72.290327 
L 98.974325 85.327115 
L 97.881212 96.376395 
L 96.788099 107.846476 
L 95.694986 118.860918 
L 94.601873 128.834401 
L 93.50876 137.511701 
L 92.415647 144.868518 
L 91.322534 151.005128 
L 90.229421 156.088644 
L 89.136309 160.280099 
L 88.043196 163.711444 
L 86.950083 166.449682 
L 85.85697 168.711497 
L 84.763857 170.589271 
L 83.670744 172.153302 
L 82.577631 173.462298 
L 81.484518 174.566772 
L 80.391405 175.509591 
L 79.298292 176.329946 
L 78.205179 177.06519 
L 77.112066 177.752081 
L 76.018953 178.43016 
L 74.92584 179.14362 
L 73.832727 179.945677 
z
" style="fill:#008000;fill-opacity:0.4;"/>
   </g>
   <g id="matplotlib.axis_1">
    <g id="xtick_1">
     <g id="line2d_1">
      <defs>
       <path d="M 0 0 
L 0 3.5 
" id="m54cbaef6a1" style="stroke:#000000;stroke-width:0.8;"/>
      </defs>
      <g>
       <use style="stroke:#000000;stroke-width:0.8;" x="73.832727" xlink:href="#m54cbaef6a1" y="307.584"/>
      </g>
     </g>
     <g id="text_1">
      <!-- 0 -->
      <defs>
       <path d="M 31.78125 66.40625 
Q 24.171875 66.40625 20.328125 58.90625 
Q 16.5 51.421875 16.5 36.375 
Q 16.5 21.390625 20.328125 13.890625 
Q 24.171875 6.390625 31.78125 6.390625 
Q 39.453125 6.390625 43.28125 13.890625 
Q 47.125 21.390625 47.125 36.375 
Q 47.125 51.421875 43.28125 58.90625 
Q 39.453125 66.40625 31.78125 66.40625 
z
M 31.78125 74.21875 
Q 44.046875 74.21875 50.515625 64.515625 
Q 56.984375 54.828125 56.984375 36.375 
Q 56.984375 17.96875 50.515625 8.265625 
Q 44.046875 -1.421875 31.78125 -1.421875 
Q 19.53125 -1.421875 13.0625 8.265625 
Q 6.59375 17.96875 6.59375 36.375 
Q 6.59375 54.828125 13.0625 64.515625 
Q 19.53125 74.21875 31.78125 74.21875 
z
" id="DejaVuSans-30"/>
      </defs>
      <g transform="translate(70.651477 322.182437)scale(0.1 -0.1)">
       <use xlink:href="#DejaVuSans-30"/>
      </g>
     </g>
    </g>
    <g id="xtick_2">
     <g id="line2d_2">
      <g>
       <use style="stroke:#000000;stroke-width:0.8;" x="128.488375" xlink:href="#m54cbaef6a1" y="307.584"/>
      </g>
     </g>
     <g id="text_2">
      <!-- 50 -->
      <defs>
       <path d="M 10.796875 72.90625 
L 49.515625 72.90625 
L 49.515625 64.59375 
L 19.828125 64.59375 
L 19.828125 46.734375 
Q 21.96875 47.46875 24.109375 47.828125 
Q 26.265625 48.1875 28.421875 48.1875 
Q 40.625 48.1875 47.75 41.5 
Q 54.890625 34.8125 54.890625 23.390625 
Q 54.890625 11.625 47.5625 5.09375 
Q 40.234375 -1.421875 26.90625 -1.421875 
Q 22.3125 -1.421875 17.546875 -0.640625 
Q 12.796875 0.140625 7.71875 1.703125 
L 7.71875 11.625 
Q 12.109375 9.234375 16.796875 8.0625 
Q 21.484375 6.890625 26.703125 6.890625 
Q 35.15625 6.890625 40.078125 11.328125 
Q 45.015625 15.765625 45.015625 23.390625 
Q 45.015625 31 40.078125 35.4375 
Q 35.15625 39.890625 26.703125 39.890625 
Q 22.75 39.890625 18.8125 39.015625 
Q 14.890625 38.140625 10.796875 36.28125 
z
" id="DejaVuSans-35"/>
      </defs>
      <g transform="translate(122.125875 322.182437)scale(0.1 -0.1)">
       <use xlink:href="#DejaVuSans-35"/>
       <use x="63.623047" xlink:href="#DejaVuSans-30"/>
      </g>
     </g>
    </g>
    <g id="xtick_3">
     <g id="line2d_3">
      <g>
       <use style="stroke:#000000;stroke-width:0.8;" x="183.144022" xlink:href="#m54cbaef6a1" y="307.584"/>
      </g>
     </g>
     <g id="text_3">
      <!-- 100 -->
      <defs>
       <path d="M 12.40625 8.296875 
L 28.515625 8.296875 
L 28.515625 63.921875 
L 10.984375 60.40625 
L 10.984375 69.390625 
L 28.421875 72.90625 
L 38.28125 72.90625 
L 38.28125 8.296875 
L 54.390625 8.296875 
L 54.390625 0 
L 12.40625 0 
z
" id="DejaVuSans-31"/>
      </defs>
      <g transform="translate(173.600272 322.182437)scale(0.1 -0.1)">
       <use xlink:href="#DejaVuSans-31"/>
       <use x="63.623047" xlink:href="#DejaVuSans-30"/>
       <use x="127.246094" xlink:href="#DejaVuSans-30"/>
      </g>
     </g>
    </g>
    <g id="xtick_4">
     <g id="line2d_4">
      <g>
       <use style="stroke:#000000;stroke-width:0.8;" x="237.799669" xlink:href="#m54cbaef6a1" y="307.584"/>
      </g>
     </g>
     <g id="text_4">
      <!-- 150 -->
      <g transform="translate(228.255919 322.182437)scale(0.1 -0.1)">
       <use xlink:href="#DejaVuSans-31"/>
       <use x="63.623047" xlink:href="#DejaVuSans-35"/>
       <use x="127.246094" xlink:href="#DejaVuSans-30"/>
      </g>
     </g>
    </g>
    <g id="xtick_5">
     <g id="line2d_5">
      <g>
       <use style="stroke:#000000;stroke-width:0.8;" x="292.455317" xlink:href="#m54cbaef6a1" y="307.584"/>
      </g>
     </g>
     <g id="text_5">
      <!-- 200 -->
      <defs>
       <path d="M 19.1875 8.296875 
L 53.609375 8.296875 
L 53.609375 0 
L 7.328125 0 
L 7.328125 8.296875 
Q 12.9375 14.109375 22.625 23.890625 
Q 32.328125 33.6875 34.8125 36.53125 
Q 39.546875 41.84375 41.421875 45.53125 
Q 43.3125 49.21875 43.3125 52.78125 
Q 43.3125 58.59375 39.234375 62.25 
Q 35.15625 65.921875 28.609375 65.921875 
Q 23.96875 65.921875 18.8125 64.3125 
Q 13.671875 62.703125 7.8125 59.421875 
L 7.8125 69.390625 
Q 13.765625 71.78125 18.9375 73 
Q 24.125 74.21875 28.421875 74.21875 
Q 39.75 74.21875 46.484375 68.546875 
Q 53.21875 62.890625 53.21875 53.421875 
Q 53.21875 48.921875 51.53125 44.890625 
Q 49.859375 40.875 45.40625 35.40625 
Q 44.1875 33.984375 37.640625 27.21875 
Q 31.109375 20.453125 19.1875 8.296875 
z
" id="DejaVuSans-32"/>
      </defs>
      <g transform="translate(282.911567 322.182437)scale(0.1 -0.1)">
       <use xlink:href="#DejaVuSans-32"/>
       <use x="63.623047" xlink:href="#DejaVuSans-30"/>
       <use x="127.246094" xlink:href="#DejaVuSans-30"/>
      </g>
     </g>
    </g>
    <g id="xtick_6">
     <g id="line2d_6">
      <g>
       <use style="stroke:#000000;stroke-width:0.8;" x="347.110964" xlink:href="#m54cbaef6a1" y="307.584"/>
      </g>
     </g>
     <g id="text_6">
      <!-- 250 -->
      <g transform="translate(337.567214 322.182437)scale(0.1 -0.1)">
       <use xlink:href="#DejaVuSans-32"/>
       <use x="63.623047" xlink:href="#DejaVuSans-35"/>
       <use x="127.246094" xlink:href="#DejaVuSans-30"/>
      </g>
     </g>
    </g>
    <g id="xtick_7">
     <g id="line2d_7">
      <g>
       <use style="stroke:#000000;stroke-width:0.8;" x="401.766612" xlink:href="#m54cbaef6a1" y="307.584"/>
      </g>
     </g>
     <g id="text_7">
      <!-- 300 -->
      <defs>
       <path d="M 40.578125 39.3125 
Q 47.65625 37.796875 51.625 33 
Q 55.609375 28.21875 55.609375 21.1875 
Q 55.609375 10.40625 48.1875 4.484375 
Q 40.765625 -1.421875 27.09375 -1.421875 
Q 22.515625 -1.421875 17.65625 -0.515625 
Q 12.796875 0.390625 7.625 2.203125 
L 7.625 11.71875 
Q 11.71875 9.328125 16.59375 8.109375 
Q 21.484375 6.890625 26.8125 6.890625 
Q 36.078125 6.890625 40.9375 10.546875 
Q 45.796875 14.203125 45.796875 21.1875 
Q 45.796875 27.640625 41.28125 31.265625 
Q 36.765625 34.90625 28.71875 34.90625 
L 20.21875 34.90625 
L 20.21875 43.015625 
L 29.109375 43.015625 
Q 36.375 43.015625 40.234375 45.921875 
Q 44.09375 48.828125 44.09375 54.296875 
Q 44.09375 59.90625 40.109375 62.90625 
Q 36.140625 65.921875 28.71875 65.921875 
Q 24.65625 65.921875 20.015625 65.03125 
Q 15.375 64.15625 9.8125 62.3125 
L 9.8125 71.09375 
Q 15.4375 72.65625 20.34375 73.4375 
Q 25.25 74.21875 29.59375 74.21875 
Q 40.828125 74.21875 47.359375 69.109375 
Q 53.90625 64.015625 53.90625 55.328125 
Q 53.90625 49.265625 50.4375 45.09375 
Q 46.96875 40.921875 40.578125 39.3125 
z
" id="DejaVuSans-33"/>
      </defs>
      <g transform="translate(392.222862 322.182437)scale(0.1 -0.1)">
       <use xlink:href="#DejaVuSans-33"/>
       <use x="63.623047" xlink:href="#DejaVuSans-30"/>
       <use x="127.246094" xlink:href="#DejaVuSans-30"/>
      </g>
     </g>
    </g>
   </g>
   <g id="matplotlib.axis_2">
    <g id="ytick_1">
     <g id="line2d_8">
      <defs>
       <path d="M 0 0 
L -3.5 0 
" id="m027adf0ea7" style="stroke:#000000;stroke-width:0.8;"/>
      </defs>
      <g>
       <use style="stroke:#000000;stroke-width:0.8;" x="57.6" xlink:href="#m027adf0ea7" y="262.212882"/>
      </g>
     </g>
     <g id="text_8">
      <!-- 0.2 -->
      <defs>
       <path d="M 10.6875 12.40625 
L 21 12.40625 
L 21 0 
L 10.6875 0 
z
" id="DejaVuSans-2e"/>
      </defs>
      <g transform="translate(34.696875 266.012101)scale(0.1 -0.1)">
       <use xlink:href="#DejaVuSans-30"/>
       <use x="63.623047" xlink:href="#DejaVuSans-2e"/>
       <use x="95.410156" xlink:href="#DejaVuSans-32"/>
      </g>
     </g>
    </g>
    <g id="ytick_2">
     <g id="line2d_9">
      <g>
       <use style="stroke:#000000;stroke-width:0.8;" x="57.6" xlink:href="#m027adf0ea7" y="208.156793"/>
      </g>
     </g>
     <g id="text_9">
      <!-- 0.4 -->
      <defs>
       <path d="M 37.796875 64.3125 
L 12.890625 25.390625 
L 37.796875 25.390625 
z
M 35.203125 72.90625 
L 47.609375 72.90625 
L 47.609375 25.390625 
L 58.015625 25.390625 
L 58.015625 17.1875 
L 47.609375 17.1875 
L 47.609375 0 
L 37.796875 0 
L 37.796875 17.1875 
L 4.890625 17.1875 
L 4.890625 26.703125 
z
" id="DejaVuSans-34"/>
      </defs>
      <g transform="translate(34.696875 211.956012)scale(0.1 -0.1)">
       <use xlink:href="#DejaVuSans-30"/>
       <use x="63.623047" xlink:href="#DejaVuSans-2e"/>
       <use x="95.410156" xlink:href="#DejaVuSans-34"/>
      </g>
     </g>
    </g>
    <g id="ytick_3">
     <g id="line2d_10">
      <g>
       <use style="stroke:#000000;stroke-width:0.8;" x="57.6" xlink:href="#m027adf0ea7" y="154.100704"/>
      </g>
     </g>
     <g id="text_10">
      <!-- 0.6 -->
      <defs>
       <path d="M 33.015625 40.375 
Q 26.375 40.375 22.484375 35.828125 
Q 18.609375 31.296875 18.609375 23.390625 
Q 18.609375 15.53125 22.484375 10.953125 
Q 26.375 6.390625 33.015625 6.390625 
Q 39.65625 6.390625 43.53125 10.953125 
Q 47.40625 15.53125 47.40625 23.390625 
Q 47.40625 31.296875 43.53125 35.828125 
Q 39.65625 40.375 33.015625 40.375 
z
M 52.59375 71.296875 
L 52.59375 62.3125 
Q 48.875 64.0625 45.09375 64.984375 
Q 41.3125 65.921875 37.59375 65.921875 
Q 27.828125 65.921875 22.671875 59.328125 
Q 17.53125 52.734375 16.796875 39.40625 
Q 19.671875 43.65625 24.015625 45.921875 
Q 28.375 48.1875 33.59375 48.1875 
Q 44.578125 48.1875 50.953125 41.515625 
Q 57.328125 34.859375 57.328125 23.390625 
Q 57.328125 12.15625 50.6875 5.359375 
Q 44.046875 -1.421875 33.015625 -1.421875 
Q 20.359375 -1.421875 13.671875 8.265625 
Q 6.984375 17.96875 6.984375 36.375 
Q 6.984375 53.65625 15.1875 63.9375 
Q 23.390625 74.21875 37.203125 74.21875 
Q 40.921875 74.21875 44.703125 73.484375 
Q 48.484375 72.75 52.59375 71.296875 
z
" id="DejaVuSans-36"/>
      </defs>
      <g transform="translate(34.696875 157.899923)scale(0.1 -0.1)">
       <use xlink:href="#DejaVuSans-30"/>
       <use x="63.623047" xlink:href="#DejaVuSans-2e"/>
       <use x="95.410156" xlink:href="#DejaVuSans-36"/>
      </g>
     </g>
    </g>
    <g id="ytick_4">
     <g id="line2d_11">
      <g>
       <use style="stroke:#000000;stroke-width:0.8;" x="57.6" xlink:href="#m027adf0ea7" y="100.044615"/>
      </g>
     </g>
     <g id="text_11">
      <!-- 0.8 -->
      <defs>
       <path d="M 31.78125 34.625 
Q 24.75 34.625 20.71875 30.859375 
Q 16.703125 27.09375 16.703125 20.515625 
Q 16.703125 13.921875 20.71875 10.15625 
Q 24.75 6.390625 31.78125 6.390625 
Q 38.8125 6.390625 42.859375 10.171875 
Q 46.921875 13.96875 46.921875 20.515625 
Q 46.921875 27.09375 42.890625 30.859375 
Q 38.875 34.625 31.78125 34.625 
z
M 21.921875 38.8125 
Q 15.578125 40.375 12.03125 44.71875 
Q 8.5 49.078125 8.5 55.328125 
Q 8.5 64.0625 14.71875 69.140625 
Q 20.953125 74.21875 31.78125 74.21875 
Q 42.671875 74.21875 48.875 69.140625 
Q 55.078125 64.0625 55.078125 55.328125 
Q 55.078125 49.078125 51.53125 44.71875 
Q 48 40.375 41.703125 38.8125 
Q 48.828125 37.15625 52.796875 32.3125 
Q 56.78125 27.484375 56.78125 20.515625 
Q 56.78125 9.90625 50.3125 4.234375 
Q 43.84375 -1.421875 31.78125 -1.421875 
Q 19.734375 -1.421875 13.25 4.234375 
Q 6.78125 9.90625 6.78125 20.515625 
Q 6.78125 27.484375 10.78125 32.3125 
Q 14.796875 37.15625 21.921875 38.8125 
z
M 18.3125 54.390625 
Q 18.3125 48.734375 21.84375 45.5625 
Q 25.390625 42.390625 31.78125 42.390625 
Q 38.140625 42.390625 41.71875 45.5625 
Q 45.3125 48.734375 45.3125 54.390625 
Q 45.3125 60.0625 41.71875 63.234375 
Q 38.140625 66.40625 31.78125 66.40625 
Q 25.390625 66.40625 21.84375 63.234375 
Q 18.3125 60.0625 18.3125 54.390625 
z
" id="DejaVuSans-38"/>
      </defs>
      <g transform="translate(34.696875 103.843833)scale(0.1 -0.1)">
       <use xlink:href="#DejaVuSans-30"/>
       <use x="63.623047" xlink:href="#DejaVuSans-2e"/>
       <use x="95.410156" xlink:href="#DejaVuSans-38"/>
      </g>
     </g>
    </g>
    <g id="ytick_5">
     <g id="line2d_12">
      <g>
       <use style="stroke:#000000;stroke-width:0.8;" x="57.6" xlink:href="#m027adf0ea7" y="45.988525"/>
      </g>
     </g>
     <g id="text_12">
      <!-- 1.0 -->
      <g transform="translate(34.696875 49.787744)scale(0.1 -0.1)">
       <use xlink:href="#DejaVuSans-31"/>
       <use x="63.623047" xlink:href="#DejaVuSans-2e"/>
       <use x="95.410156" xlink:href="#DejaVuSans-30"/>
      </g>
     </g>
    </g>
   </g>
   <g id="line2d_13">
    <path clip-path="url(#p5777712646)" d="M 73.832727 180.073934 
L 76.018953 178.581355 
L 79.298292 176.492898 
L 81.484518 174.727066 
L 82.577631 173.617745 
L 83.670744 172.300668 
L 84.763857 170.724032 
L 85.85697 168.827475 
L 86.950083 166.53865 
L 88.043196 163.771428 
L 89.136309 160.423284 
L 90.229421 156.372952 
L 91.322534 151.483128 
L 92.415647 145.604438 
L 93.50876 138.586156 
L 94.601873 130.30206 
L 95.694986 120.690167 
L 97.881212 97.893813 
L 100.067438 73.898405 
L 101.160551 64.697608 
L 102.253664 59.115686 
L 103.346777 57.431389 
L 104.43989 59.8904 
L 105.533003 67.144457 
L 106.626116 79.210046 
L 107.719229 94.50774 
L 110.998567 144.280875 
L 112.09168 157.69219 
L 113.184793 168.549716 
L 114.277906 177.108597 
L 115.371019 183.797768 
L 116.464132 189.054723 
L 117.557245 193.264971 
L 118.650358 196.750328 
L 120.836584 202.55397 
L 123.02281 208.052645 
L 125.209036 214.346215 
L 126.302149 218.052841 
L 127.395262 222.246603 
L 128.488375 226.99552 
L 129.581488 232.346893 
L 131.767713 244.857905 
L 136.140165 272.245783 
L 137.233278 277.19714 
L 138.326391 280.370593 
L 139.419504 281.418741 
L 140.512617 280.140584 
L 141.60573 276.482519 
L 142.698843 270.592297 
L 143.791956 262.901016 
L 148.164408 228.610086 
L 149.257521 221.897761 
L 150.350634 216.316109 
L 151.443747 211.829454 
L 152.53686 208.35599 
L 153.629972 205.795713 
L 154.723085 204.045918 
L 155.816198 203.012095 
L 156.909311 202.614963 
L 158.002424 202.792447 
L 159.095537 203.502023 
L 160.18865 204.720898 
L 161.281763 206.444927 
L 162.374876 208.687444 
L 163.467989 211.476197 
L 164.561102 214.852991 
L 165.654215 218.869269 
L 166.747328 223.580797 
L 167.840441 229.039471 
L 168.933554 235.280067 
L 171.11978 249.986836 
L 174.399118 273.86278 
L 175.492231 280.11707 
L 176.585344 284.419574 
L 177.678457 286.322799 
L 178.77157 285.557815 
L 179.864683 281.98651 
L 180.957796 275.650235 
L 182.050909 266.936844 
L 186.423361 226.550188 
L 187.516474 218.692505 
L 188.609587 212.173341 
L 189.7027 206.914494 
L 190.795813 202.790645 
L 191.888926 199.659807 
L 192.982039 197.380892 
L 194.075152 195.824077 
L 195.168264 194.877915 
L 196.261377 194.452493 
L 197.35449 194.480242 
L 198.447603 194.914943 
L 199.540716 195.73092 
L 200.633829 196.921055 
L 201.726942 198.4967 
L 202.820055 200.485063 
L 203.913168 202.928758 
L 205.006281 205.885536 
L 206.099394 209.427201 
L 207.192507 213.638261 
L 208.28562 218.613763 
L 209.378733 224.452272 
L 210.471846 231.24505 
L 211.564959 239.053632 
L 213.751185 257.481623 
L 215.93741 276.996862 
L 217.030523 285.076896 
L 218.123636 290.807166 
L 219.216749 293.635155 
L 220.309862 293.270205 
L 221.402975 289.487234 
L 222.496088 282.125614 
L 223.589201 271.436743 
L 226.86854 232.185355 
L 227.961653 221.008899 
L 229.054766 211.58458 
L 230.147879 203.835099 
L 231.240992 197.585224 
L 232.334105 192.626208 
L 233.427218 188.741828 
L 234.520331 185.725318 
L 235.613444 183.387482 
L 236.706556 181.56363 
L 237.799669 180.113936 
L 238.892782 178.9229 
L 241.079008 176.956159 
L 243.265234 175.084287 
L 245.45146 172.871591 
L 246.544573 171.513522 
L 247.637686 169.916164 
L 248.730799 168.018795 
L 249.823912 165.751052 
L 250.917025 163.03086 
L 252.010138 159.762629 
L 253.103251 155.834823 
L 254.196364 151.122844 
L 255.289477 145.491461 
L 256.38259 138.806434 
L 257.475702 130.956499 
L 258.568815 121.887329 
L 260.755041 100.456342 
L 262.941267 77.606292 
L 264.03438 68.334412 
L 265.127493 62.248327 
L 266.220606 59.854993 
L 267.313719 61.396673 
L 268.406832 67.342122 
L 269.499945 77.770533 
L 270.593058 91.488977 
L 273.872397 138.260648 
L 274.96551 151.53376 
L 276.058623 162.49093 
L 277.151736 171.230088 
L 278.244848 178.087012 
L 279.337961 183.453521 
L 280.431074 187.695662 
L 281.524187 191.128855 
L 282.6173 194.01599 
L 284.803526 198.974826 
L 286.989752 203.892128 
L 288.082865 206.643493 
L 289.175978 209.728023 
L 290.269091 213.239687 
L 291.362204 217.267496 
L 292.455317 221.896049 
L 293.54843 227.199042 
L 294.641543 233.231431 
L 296.827769 247.478724 
L 300.107107 271.349533 
L 301.20022 278.012576 
L 302.293333 282.925644 
L 303.386446 285.584393 
L 304.479559 285.673225 
L 305.572672 283.01835 
L 306.665785 277.596525 
L 307.758898 269.67001 
L 309.945124 249.379426 
L 312.13135 229.601474 
L 313.224463 221.403058 
L 314.317576 214.529465 
L 315.410689 208.93394 
L 316.503802 204.506566 
L 317.596915 201.112204 
L 318.690028 198.611479 
L 319.78314 196.873215 
L 320.876253 195.782453 
L 321.969366 195.244145 
L 323.062479 195.186395 
L 324.155592 195.558121 
L 325.248705 196.329321 
L 326.341818 197.489094 
L 327.434931 199.04591 
L 328.528044 201.023371 
L 329.621157 203.461842 
L 330.71427 206.416547 
L 331.807383 209.957311 
L 332.900496 214.165398 
L 333.993609 219.132522 
L 335.086722 224.953101 
L 336.179835 231.712815 
L 337.272948 239.464999 
L 339.459174 257.676315 
L 341.645399 276.819018 
L 342.738512 284.701206 
L 343.831625 290.265993 
L 344.924738 292.973437 
L 346.017851 292.532673 
L 347.110964 288.725682 
L 348.204077 281.417479 
L 349.29719 270.888254 
L 352.576529 232.437167 
L 353.669642 221.472249 
L 354.762755 212.215685 
L 355.855868 204.600443 
L 356.948981 198.460302 
L 358.042094 193.594443 
L 359.135207 189.79412 
L 360.22832 186.858874 
L 361.321433 184.605906 
L 362.414545 182.875751 
L 363.507658 181.534349 
L 364.600771 180.470886 
L 366.786997 178.838212 
L 371.159449 175.930715 
L 372.252562 175.027618 
L 373.345675 173.977308 
L 374.438788 172.73636 
L 375.531901 171.256215 
L 376.625014 169.480382 
L 377.718127 167.340572 
L 378.81124 164.756601 
L 379.904353 161.631798 
L 380.997466 157.852737 
L 382.090579 153.289142 
L 383.183691 147.795151 
L 384.276804 141.219588 
L 385.369917 133.426142 
L 386.46303 124.324988 
L 387.556143 113.922344 
L 389.742369 90.140728 
L 390.835482 78.109735 
L 391.928595 67.862322 
L 393.021708 60.899177 
L 394.114821 57.772212 
L 395.207934 58.642155 
L 396.301047 64.029835 
L 397.39416 74.383378 
L 398.487273 88.624095 
L 398.487273 88.624095 
" style="fill:none;opacity:0.4;stroke:#1f77b4;stroke-linecap:square;stroke-width:1.5;"/>
   </g>
   <g id="line2d_14">
    <path clip-path="url(#p5777712646)" d="M 73.832727 180.173118 
L 76.018953 178.74201 
L 79.298292 176.686311 
L 81.484518 174.915109 
L 82.577631 173.794824 
L 83.670744 172.460774 
L 84.763857 170.858794 
L 85.85697 168.926046 
L 86.950083 166.595391 
L 88.043196 163.859098 
L 89.136309 160.566407 
L 90.229421 156.592176 
L 91.322534 151.800563 
L 92.415647 146.042941 
L 93.50876 139.265064 
L 94.601873 131.291494 
L 95.694986 121.988657 
L 96.788099 111.244955 
L 98.974325 85.773726 
L 100.067438 75.823324 
L 101.160551 68.578268 
L 102.253664 64.131695 
L 103.346777 62.47347 
L 104.43989 63.544808 
L 105.533003 68.002895 
L 106.626116 80.738861 
L 109.905455 130.131099 
L 112.09168 158.887668 
L 113.184793 170.328801 
L 114.277906 178.97037 
L 115.371019 185.474993 
L 116.464132 190.447153 
L 117.557245 194.362193 
L 118.650358 197.579881 
L 120.836584 202.964111 
L 123.02281 208.20366 
L 125.209036 214.538277 
L 126.302149 218.271958 
L 127.395262 222.481386 
L 128.488375 227.229781 
L 129.581488 232.559036 
L 131.767713 245.026533 
L 136.140165 272.381833 
L 137.233278 277.248097 
L 138.326391 280.477192 
L 139.419504 281.568908 
L 140.512617 280.341403 
L 141.60573 277.010548 
L 142.698843 271.358037 
L 143.791956 263.618422 
L 147.071295 236.861982 
L 148.164408 229.275345 
L 149.257521 222.628176 
L 150.350634 217.018154 
L 151.443747 212.452333 
L 152.53686 208.879226 
L 153.629972 206.21699 
L 154.723085 204.372651 
L 155.816198 203.256636 
L 156.909311 202.81616 
L 158.002424 202.969246 
L 159.095537 203.664597 
L 160.18865 204.87821 
L 161.281763 206.605329 
L 162.374876 208.857684 
L 163.467989 211.660736 
L 164.561102 215.05381 
L 165.654215 219.083421 
L 166.747328 223.798625 
L 167.840441 229.271075 
L 168.933554 235.530824 
L 171.11978 250.14559 
L 174.399118 273.909674 
L 175.492231 280.273968 
L 176.585344 284.777326 
L 177.678457 286.71694 
L 178.77157 285.786283 
L 179.864683 282.207365 
L 180.957796 276.396633 
L 182.050909 267.860419 
L 185.330248 236.206822 
L 186.423361 227.286973 
L 187.516474 219.495274 
L 188.609587 212.927351 
L 189.7027 207.564879 
L 190.795813 203.320341 
L 191.888926 200.071002 
L 192.982039 197.684534 
L 194.075152 196.034337 
L 195.168264 195.009514 
L 196.261377 194.519955 
L 197.35449 194.509279 
L 198.447603 194.933674 
L 199.540716 195.769516 
L 200.633829 196.97421 
L 201.726942 198.549864 
L 202.820055 200.527614 
L 203.913168 202.98595 
L 205.006281 205.960467 
L 206.099394 209.530142 
L 207.192507 213.768896 
L 208.28562 218.76576 
L 209.378733 224.659496 
L 210.471846 231.508591 
L 211.564959 239.335426 
L 213.751185 257.63971 
L 215.93741 277.227583 
L 217.030523 285.772337 
L 218.123636 292.129203 
L 219.216749 295.308774 
L 220.309862 294.624703 
L 221.402975 289.887478 
L 222.496088 282.630975 
L 223.589201 272.603679 
L 226.86854 232.796964 
L 227.961653 221.889662 
L 229.054766 212.490605 
L 230.147879 204.645012 
L 231.240992 198.260448 
L 232.334105 193.166472 
L 233.427218 189.161402 
L 234.520331 186.041582 
L 235.613444 183.617842 
L 236.706556 181.726203 
L 237.799669 180.231634 
L 238.892782 179.00575 
L 241.079008 177.087461 
L 243.265234 175.239905 
L 245.45146 173.019011 
L 246.544573 171.644932 
L 247.637686 170.021871 
L 248.730799 168.086447 
L 249.823912 165.837713 
L 250.917025 163.152991 
L 252.010138 159.945113 
L 253.103251 156.095995 
L 254.196364 151.483957 
L 255.289477 145.974966 
L 256.38259 139.478478 
L 257.475702 131.926896 
L 258.568815 123.164026 
L 259.661928 113.106674 
L 262.941267 78.633349 
L 264.03438 71.242368 
L 265.127493 66.340021 
L 266.220606 64.169615 
L 267.313719 64.675067 
L 268.406832 68.312015 
L 269.499945 79.101042 
L 273.872397 139.128681 
L 276.058623 163.794799 
L 277.151736 172.824247 
L 278.244848 179.649855 
L 279.337961 184.83351 
L 280.431074 188.844444 
L 281.524187 192.049862 
L 282.6173 194.734396 
L 288.082865 206.762551 
L 289.175978 209.865939 
L 290.269091 213.404153 
L 291.362204 217.458927 
L 292.455317 222.103264 
L 293.54843 227.403707 
L 294.641543 233.45361 
L 296.827769 247.651848 
L 300.107107 271.445149 
L 301.20022 278.083669 
L 302.293333 283.189537 
L 303.386446 285.9471 
L 304.479559 285.899207 
L 305.572672 283.226944 
L 306.665785 278.208376 
L 307.758898 270.581306 
L 308.852011 260.656256 
L 311.038237 239.399996 
L 312.13135 230.273545 
L 313.224463 222.193457 
L 314.317576 215.303197 
L 315.410689 209.619308 
L 316.503802 205.075569 
L 317.596915 201.561923 
L 318.690028 198.950149 
L 319.78314 197.11435 
L 320.876253 195.940468 
L 321.969366 195.334013 
L 323.062479 195.232739 
L 324.155592 195.588698 
L 325.248705 196.357971 
L 326.341818 197.521987 
L 327.434931 199.08583 
L 328.528044 201.074472 
L 329.621157 203.527051 
L 330.71427 206.501569 
L 331.807383 210.069649 
L 332.900496 214.304376 
L 333.993609 219.29151 
L 335.086722 225.163514 
L 336.179835 231.975771 
L 337.272948 239.741901 
L 339.459174 257.823771 
L 341.645399 277.027602 
L 342.738512 285.342294 
L 343.831625 291.48153 
L 344.924738 294.493741 
L 346.017851 293.727047 
L 347.110964 289.023892 
L 348.204077 281.970356 
L 349.29719 272.036577 
L 352.576529 233.040406 
L 353.669642 222.340841 
L 354.762755 213.112142 
L 355.855868 205.404203 
L 356.948981 199.130642 
L 358.042094 194.129806 
L 359.135207 190.207523 
L 360.22832 187.167489 
L 361.321433 184.826536 
L 362.414545 183.025442 
L 363.507658 181.637416 
L 364.600771 180.543835 
L 366.786997 178.984398 
L 370.066336 176.91432 
L 372.252562 175.215769 
L 373.345675 174.156864 
L 374.438788 172.90152 
L 375.531901 171.399031 
L 376.625014 169.591422 
L 377.718127 167.405745 
L 378.81124 164.834459 
L 379.904353 161.755343 
L 380.997466 158.045906 
L 382.090579 153.572468 
L 383.183691 148.191563 
L 384.276804 141.800944 
L 385.369917 134.299823 
L 386.46303 125.519871 
L 387.556143 115.347839 
L 388.649256 103.690968 
L 389.742369 90.634774 
L 390.835482 79.186694 
L 391.928595 71.055307 
L 393.021708 65.531748 
L 394.114821 62.89554 
L 395.207934 62.924109 
L 396.301047 66.012252 
L 397.39416 75.319549 
L 398.487273 91.081683 
L 398.487273 91.081683 
" style="fill:none;opacity:0.4;stroke:#ff7f0e;stroke-linecap:square;stroke-width:1.5;"/>
   </g>
   <g id="line2d_15">
    <path clip-path="url(#p5777712646)" d="M 73.832727 179.945677 
L 76.018953 178.43016 
L 79.298292 176.329946 
L 81.484518 174.566772 
L 82.577631 173.462298 
L 83.670744 172.153302 
L 84.763857 170.589271 
L 85.85697 168.711497 
L 86.950083 166.449682 
L 88.043196 163.711444 
L 89.136309 160.280099 
L 90.229421 156.088644 
L 91.322534 151.005128 
L 92.415647 144.868518 
L 93.50876 137.511701 
L 94.601873 128.834401 
L 95.694986 118.860918 
L 98.974325 85.327115 
L 100.067438 72.290327 
L 101.160551 62.124295 
L 102.253664 55.779867 
L 103.346777 53.75871 
L 104.43989 57.45839 
L 105.533003 66.473324 
L 106.626116 76.642734 
L 107.719229 90.011318 
L 109.905455 126.371876 
L 110.998567 144.045271 
L 112.09168 156.935081 
L 113.184793 167.383501 
L 114.277906 175.778655 
L 115.371019 182.520693 
L 116.464132 187.932653 
L 117.557245 192.329576 
L 118.650358 195.997525 
L 120.836584 202.105673 
L 124.115923 210.89022 
L 126.302149 217.830698 
L 127.395262 221.954745 
L 128.488375 226.657895 
L 129.581488 231.998339 
L 130.674601 237.999538 
L 132.860826 251.757678 
L 135.047052 265.900318 
L 136.140165 272.123985 
L 137.233278 277.122092 
L 138.326391 280.297671 
L 139.419504 281.296952 
L 140.512617 279.817924 
L 141.60573 275.878937 
L 142.698843 269.834061 
L 143.791956 262.24964 
L 145.978182 244.866851 
L 147.071295 235.741075 
L 148.164408 227.656744 
L 149.257521 220.836379 
L 150.350634 215.283034 
L 151.443747 210.901842 
L 152.53686 207.56542 
L 153.629972 205.14595 
L 154.723085 203.525889 
L 155.816198 202.603016 
L 156.909311 202.29268 
L 158.002424 202.534798 
L 159.095537 203.287799 
L 160.18865 204.530603 
L 161.281763 206.259424 
L 162.374876 208.489643 
L 163.467989 211.250856 
L 164.561102 214.588224 
L 165.654215 218.559698 
L 166.747328 223.231604 
L 167.840441 228.668052 
L 168.933554 234.923422 
L 170.026667 242.010933 
L 174.399118 273.816265 
L 175.492231 279.931225 
L 176.585344 283.972648 
L 177.678457 285.791365 
L 178.77157 285.250642 
L 179.864683 281.61991 
L 180.957796 274.865115 
L 182.050909 266.098785 
L 184.237135 245.905349 
L 185.330248 235.064266 
L 186.423361 225.536042 
L 187.516474 217.569931 
L 188.609587 211.112202 
L 189.7027 205.99955 
L 190.795813 202.04886 
L 191.888926 199.08729 
L 192.982039 196.959885 
L 194.075152 195.532021 
L 195.168264 194.691827 
L 196.261377 194.350408 
L 197.35449 194.440925 
L 198.447603 194.891104 
L 199.540716 195.680972 
L 200.633829 196.85453 
L 201.726942 198.423859 
L 202.820055 200.415961 
L 203.913168 202.869675 
L 205.006281 205.836652 
L 206.099394 209.319972 
L 207.192507 213.462155 
L 208.28562 218.366096 
L 209.378733 224.139665 
L 210.471846 230.900217 
L 211.564959 238.742134 
L 213.751185 257.337347 
L 215.93741 276.839109 
L 217.030523 284.385555 
L 218.123636 289.463327 
L 219.216749 291.919125 
L 220.309862 291.788769 
L 221.402975 288.875865 
L 222.496088 281.492797 
L 223.589201 270.373298 
L 227.961653 219.871396 
L 229.054766 210.404472 
L 230.147879 202.79897 
L 231.240992 196.754229 
L 232.334105 191.999104 
L 233.427218 188.292991 
L 234.520331 185.424694 
L 235.613444 183.206502 
L 236.706556 181.460085 
L 237.799669 179.995922 
L 239.985895 177.75654 
L 244.358347 173.888719 
L 245.45146 172.719567 
L 246.544573 171.369814 
L 247.637686 169.785673 
L 248.730799 167.908386 
L 249.823912 165.661112 
L 250.917025 162.948902 
L 252.010138 159.575856 
L 253.103251 155.504405 
L 254.196364 150.598518 
L 255.289477 144.712242 
L 256.38259 137.701762 
L 257.475702 129.466885 
L 258.568815 120.029232 
L 261.848154 88.035352 
L 264.03438 66.149879 
L 265.127493 59.761017 
L 266.220606 57.072483 
L 267.313719 59.398192 
L 268.406832 66.558651 
L 269.499945 75.638588 
L 270.593058 87.239079 
L 271.686171 102.681363 
L 273.872397 137.260746 
L 274.96551 151.084617 
L 276.058623 161.708423 
L 277.151736 170.153822 
L 278.244848 176.957051 
L 279.337961 182.401472 
L 280.431074 186.778015 
L 281.524187 190.359015 
L 282.6173 193.385561 
L 284.803526 198.573865 
L 286.989752 203.662786 
L 288.082865 206.481108 
L 289.175978 209.621956 
L 290.269091 213.102277 
L 291.362204 217.05002 
L 292.455317 221.610192 
L 293.54843 226.868308 
L 294.641543 232.889995 
L 295.734656 239.714008 
L 297.920882 255.398383 
L 300.107107 271.280467 
L 301.20022 277.933096 
L 302.293333 282.58992 
L 303.386446 285.098393 
L 304.479559 285.312725 
L 305.572672 282.769143 
L 306.665785 276.908679 
L 307.758898 268.810428 
L 309.945124 249.254097 
L 312.13135 228.680485 
L 313.224463 220.298277 
L 314.317576 213.437695 
L 315.410689 207.964462 
L 316.503802 203.702896 
L 317.596915 200.478964 
L 318.690028 198.13501 
L 319.78314 196.532247 
L 320.876253 195.554184 
L 321.969366 195.105842 
L 323.062479 195.116464 
L 324.155592 195.535426 
L 325.248705 196.290833 
L 326.341818 197.433687 
L 327.434931 198.981961 
L 328.528044 200.959657 
L 329.621157 203.407858 
L 330.71427 206.352212 
L 331.807383 209.83564 
L 332.900496 213.976472 
L 333.993609 218.874332 
L 335.086722 224.633711 
L 336.179835 231.366424 
L 337.272948 239.156879 
L 339.459174 257.538193 
L 341.645399 276.678292 
L 342.738512 284.058164 
L 343.831625 289.015851 
L 344.924738 291.390862 
L 346.017851 291.196079 
L 347.110964 288.22724 
L 348.204077 280.748499 
L 349.29719 269.844872 
L 353.669642 220.343009 
L 354.762755 211.038902 
L 355.855868 203.561323 
L 356.948981 197.622964 
L 358.042094 192.960005 
L 359.135207 189.339598 
L 360.22832 186.554737 
L 361.321433 184.42444 
L 362.414545 182.783892 
L 363.507658 181.427246 
L 364.600771 180.352152 
L 366.786997 178.691522 
L 371.159449 175.768006 
L 372.252562 174.866459 
L 373.345675 173.820203 
L 374.438788 172.586021 
L 375.531901 171.116615 
L 376.625014 169.35717 
L 377.718127 167.242036 
L 378.81124 164.684859 
L 379.904353 161.52547 
L 380.997466 157.620215 
L 382.090579 152.88309 
L 383.183691 147.155307 
L 384.276804 140.271129 
L 385.369917 132.098389 
L 386.46303 122.60887 
L 388.649256 100.604825 
L 390.835482 77.100318 
L 391.928595 65.533964 
L 393.021708 58.07217 
L 394.114821 54.120453 
L 395.207934 55.654997 
L 396.301047 62.784779 
L 397.39416 72.983109 
L 398.487273 84.559599 
L 398.487273 84.559599 
" style="fill:none;opacity:0.4;stroke:#2ca02c;stroke-linecap:square;stroke-width:1.5;"/>
   </g>
   <g id="line2d_16">
    <path clip-path="url(#p5777712646)" d="M 73.832727 180.115467 
L 76.018953 178.567841 
L 79.298292 176.449383 
L 81.484518 174.687425 
L 82.577631 173.586843 
L 83.670744 172.28247 
L 84.763857 170.724032 
L 85.85697 168.85234 
L 86.950083 166.59658 
L 88.043196 163.873234 
L 89.136309 160.582299 
L 90.229421 156.606204 
L 91.322534 151.810347 
L 92.415647 146.044455 
L 93.50876 139.151222 
L 94.601873 130.985239 
L 95.694986 121.448393 
L 96.788099 110.548524 
L 101.160551 62.82997 
L 102.253664 55.675917 
L 103.346777 53.568 
L 104.43989 57.382198 
L 105.533003 66.876879 
L 106.626116 80.743888 
L 110.998567 144.677917 
L 112.09168 157.065951 
L 113.184793 167.351203 
L 114.277906 175.715301 
L 115.371019 182.442311 
L 116.464132 187.850893 
L 117.557245 192.251329 
L 118.650358 195.926062 
L 120.836584 202.049806 
L 123.02281 207.786509 
L 125.209036 214.267293 
L 126.302149 218.057166 
L 127.395262 222.328137 
L 128.488375 227.143184 
L 129.581488 232.541765 
L 131.767713 245.036019 
L 136.140165 272.112715 
L 137.233278 277.10993 
L 138.326391 280.322483 
L 139.419504 281.287925 
L 140.512617 279.762732 
L 141.60573 275.79988 
L 142.698843 269.751004 
L 143.791956 262.187746 
L 148.164408 229.303535 
L 149.257521 222.656798 
L 150.350634 217.043614 
L 151.443747 212.473172 
L 152.53686 208.894929 
L 153.629972 206.227531 
L 154.723085 204.378272 
L 155.816198 203.25769 
L 156.909311 202.787942 
L 158.002424 202.907947 
L 159.095537 203.57581 
L 160.18865 204.768017 
L 161.281763 206.480784 
L 162.374876 208.726815 
L 163.467989 211.534488 
L 164.561102 214.944346 
L 165.654215 219.00558 
L 166.747328 223.768462 
L 167.840441 229.274615 
L 168.933554 235.541878 
L 171.11978 250.165131 
L 174.399118 273.86224 
L 175.492231 280.286806 
L 176.585344 284.802922 
L 177.678457 286.738941 
L 178.77157 285.670252 
L 179.864683 281.556043 
L 180.957796 274.771734 
L 182.050909 266.019242 
L 186.423361 227.324812 
L 187.516474 219.533708 
L 188.609587 212.962379 
L 189.7027 207.59515 
L 190.795813 203.345531 
L 191.888926 200.091084 
L 192.982039 197.699643 
L 194.075152 196.044715 
L 195.168264 195.015488 
L 196.261377 194.521955 
L 197.35449 194.494927 
L 198.447603 194.887645 
L 199.540716 195.67362 
L 200.633829 196.845016 
L 201.726942 198.412642 
L 202.820055 200.404069 
L 203.913168 202.86281 
L 205.006281 205.848328 
L 206.099394 209.433328 
L 207.192507 213.703218 
L 208.28562 218.750435 
L 209.378733 224.665793 
L 210.471846 231.52497 
L 211.564959 239.362022 
L 213.751185 257.659468 
L 215.93741 277.2648 
L 217.030523 285.850259 
L 218.123636 292.272636 
L 219.216749 295.488 
L 220.309862 294.755053 
L 221.402975 289.898438 
L 222.496088 281.402253 
L 223.589201 270.271564 
L 226.86854 232.843939 
L 227.961653 221.946772 
L 229.054766 212.547769 
L 230.147879 204.699095 
L 231.240992 198.310747 
L 232.334105 193.212717 
L 233.427218 189.203377 
L 234.520331 186.079205 
L 235.613444 183.651276 
L 236.706556 181.753637 
L 237.799669 180.244661 
L 238.892782 179.007858 
L 241.079008 176.982376 
L 244.358347 174.04659 
L 245.45146 172.878168 
L 246.544573 171.53109 
L 247.637686 169.951571 
L 248.730799 168.079879 
L 249.823912 165.846822 
L 250.917025 163.172937 
L 252.010138 159.964708 
L 253.103251 156.114023 
L 254.196364 151.498173 
L 255.289477 145.98175 
L 256.38259 139.424476 
L 257.475702 131.698239 
L 258.568815 122.717901 
L 259.661928 112.490759 
L 264.03438 67.300949 
L 265.127493 59.956349 
L 266.220606 57.006508 
L 267.313719 59.3793 
L 268.406832 67.075806 
L 269.499945 79.121665 
L 271.686171 109.726871 
L 273.872397 139.204197 
L 274.96551 151.434658 
L 276.058623 161.704233 
L 277.151736 170.116442 
L 278.244848 176.900211 
L 279.337961 182.336632 
L 280.431074 186.712743 
L 281.524187 190.297472 
L 282.6173 193.329478 
L 284.803526 198.529133 
L 286.989752 203.627433 
L 288.082865 206.456189 
L 289.175978 209.615226 
L 290.269091 213.201037 
L 291.362204 217.304705 
L 292.455317 222.008396 
L 293.54843 227.379138 
L 294.641543 233.459367 
L 296.827769 247.669362 
L 300.107107 271.311603 
L 301.20022 278.090237 
L 302.293333 283.207457 
L 303.386446 285.967831 
L 304.479559 285.865394 
L 305.572672 282.735006 
L 306.665785 276.820189 
L 307.758898 268.723127 
L 313.224463 222.231377 
L 314.317576 215.338685 
L 315.410689 209.650363 
L 316.503802 205.101543 
L 317.596915 201.582762 
L 318.690028 198.965907 
L 319.78314 197.125297 
L 320.876253 195.946874 
L 321.969366 195.33631 
L 323.062479 195.22009 
L 324.155592 195.546859 
L 325.248705 196.284995 
L 326.341818 197.423957 
L 327.434931 198.971042 
L 328.528044 200.950576 
L 329.621157 203.403641 
L 330.71427 206.386997 
L 331.807383 209.970645 
L 332.900496 214.236752 
L 333.993609 219.274239 
L 335.086722 225.169596 
L 336.179835 231.991745 
L 337.272948 239.767713 
L 339.459174 257.841637 
L 341.645399 277.06155 
L 342.738512 285.413215 
L 343.831625 291.611097 
L 344.924738 294.652779 
L 346.017851 293.837181 
L 347.110964 289.011729 
L 348.204077 280.655739 
L 349.29719 269.745598 
L 352.576529 233.08557 
L 353.669642 222.395978 
L 354.762755 213.167252 
L 355.855868 205.456151 
L 356.948981 199.178617 
L 358.042094 194.173564 
L 359.135207 190.24693 
L 360.22832 187.202491 
L 361.321433 184.857267 
L 362.414545 183.051253 
L 363.507658 181.648228 
L 364.600771 180.536294 
L 366.786997 178.838933 
L 371.159449 175.889632 
L 373.345675 173.945235 
L 374.438788 172.715189 
L 375.531901 171.25162 
L 376.625014 169.49777 
L 377.718127 167.388231 
L 378.81124 164.844081 
L 379.904353 161.771804 
L 380.997466 158.061123 
L 382.090579 153.584468 
L 383.183691 148.196968 
L 384.276804 141.744022 
L 385.369917 134.074815 
L 386.46303 125.069611 
L 387.556143 114.690571 
L 389.742369 90.573718 
L 391.928595 66.62714 
L 393.021708 58.044655 
L 394.114821 53.948285 
L 395.207934 55.528614 
L 396.301047 62.976462 
L 397.39416 75.349901 
L 398.487273 90.919677 
L 398.487273 90.919677 
" style="fill:none;stroke:#000000;stroke-linecap:square;stroke-width:1.5;"/>
   </g>
   <g id="patch_3">
    <path d="M 57.6 307.584 
L 57.6 41.472 
" style="fill:none;stroke:#000000;stroke-linecap:square;stroke-linejoin:miter;stroke-width:0.8;"/>
   </g>
   <g id="patch_4">
    <path d="M 414.72 307.584 
L 414.72 41.472 
" style="fill:none;stroke:#000000;stroke-linecap:square;stroke-linejoin:miter;stroke-width:0.8;"/>
   </g>
   <g id="patch_5">
    <path d="M 57.6 307.584 
L 414.72 307.584 
" style="fill:none;stroke:#000000;stroke-linecap:square;stroke-linejoin:miter;stroke-width:0.8;"/>
   </g>
   <g id="patch_6">
    <path d="M 57.6 41.472 
L 414.72 41.472 
" style="fill:none;stroke:#000000;stroke-linecap:square;stroke-linejoin:miter;stroke-width:0.8;"/>
   </g>
   <g id="text_13">
    <!-- Plot of Train Data for Lorenz -->
    <defs>
     <path d="M 19.671875 64.796875 
L 19.671875 37.40625 
L 32.078125 37.40625 
Q 38.96875 37.40625 42.71875 40.96875 
Q 46.484375 44.53125 46.484375 51.125 
Q 46.484375 57.671875 42.71875 61.234375 
Q 38.96875 64.796875 32.078125 64.796875 
z
M 9.8125 72.90625 
L 32.078125 72.90625 
Q 44.34375 72.90625 50.609375 67.359375 
Q 56.890625 61.8125 56.890625 51.125 
Q 56.890625 40.328125 50.609375 34.8125 
Q 44.34375 29.296875 32.078125 29.296875 
L 19.671875 29.296875 
L 19.671875 0 
L 9.8125 0 
z
" id="DejaVuSans-50"/>
     <path d="M 9.421875 75.984375 
L 18.40625 75.984375 
L 18.40625 0 
L 9.421875 0 
z
" id="DejaVuSans-6c"/>
     <path d="M 30.609375 48.390625 
Q 23.390625 48.390625 19.1875 42.75 
Q 14.984375 37.109375 14.984375 27.296875 
Q 14.984375 17.484375 19.15625 11.84375 
Q 23.34375 6.203125 30.609375 6.203125 
Q 37.796875 6.203125 41.984375 11.859375 
Q 46.1875 17.53125 46.1875 27.296875 
Q 46.1875 37.015625 41.984375 42.703125 
Q 37.796875 48.390625 30.609375 48.390625 
z
M 30.609375 56 
Q 42.328125 56 49.015625 48.375 
Q 55.71875 40.765625 55.71875 27.296875 
Q 55.71875 13.875 49.015625 6.21875 
Q 42.328125 -1.421875 30.609375 -1.421875 
Q 18.84375 -1.421875 12.171875 6.21875 
Q 5.515625 13.875 5.515625 27.296875 
Q 5.515625 40.765625 12.171875 48.375 
Q 18.84375 56 30.609375 56 
z
" id="DejaVuSans-6f"/>
     <path d="M 18.3125 70.21875 
L 18.3125 54.6875 
L 36.8125 54.6875 
L 36.8125 47.703125 
L 18.3125 47.703125 
L 18.3125 18.015625 
Q 18.3125 11.328125 20.140625 9.421875 
Q 21.96875 7.515625 27.59375 7.515625 
L 36.8125 7.515625 
L 36.8125 0 
L 27.59375 0 
Q 17.1875 0 13.234375 3.875 
Q 9.28125 7.765625 9.28125 18.015625 
L 9.28125 47.703125 
L 2.6875 47.703125 
L 2.6875 54.6875 
L 9.28125 54.6875 
L 9.28125 70.21875 
z
" id="DejaVuSans-74"/>
     <path id="DejaVuSans-20"/>
     <path d="M 37.109375 75.984375 
L 37.109375 68.5 
L 28.515625 68.5 
Q 23.6875 68.5 21.796875 66.546875 
Q 19.921875 64.59375 19.921875 59.515625 
L 19.921875 54.6875 
L 34.71875 54.6875 
L 34.71875 47.703125 
L 19.921875 47.703125 
L 19.921875 0 
L 10.890625 0 
L 10.890625 47.703125 
L 2.296875 47.703125 
L 2.296875 54.6875 
L 10.890625 54.6875 
L 10.890625 58.5 
Q 10.890625 67.625 15.140625 71.796875 
Q 19.390625 75.984375 28.609375 75.984375 
z
" id="DejaVuSans-66"/>
     <path d="M -0.296875 72.90625 
L 61.375 72.90625 
L 61.375 64.59375 
L 35.5 64.59375 
L 35.5 0 
L 25.59375 0 
L 25.59375 64.59375 
L -0.296875 64.59375 
z
" id="DejaVuSans-54"/>
     <path d="M 41.109375 46.296875 
Q 39.59375 47.171875 37.8125 47.578125 
Q 36.03125 48 33.890625 48 
Q 26.265625 48 22.1875 43.046875 
Q 18.109375 38.09375 18.109375 28.8125 
L 18.109375 0 
L 9.078125 0 
L 9.078125 54.6875 
L 18.109375 54.6875 
L 18.109375 46.1875 
Q 20.953125 51.171875 25.484375 53.578125 
Q 30.03125 56 36.53125 56 
Q 37.453125 56 38.578125 55.875 
Q 39.703125 55.765625 41.0625 55.515625 
z
" id="DejaVuSans-72"/>
     <path d="M 34.28125 27.484375 
Q 23.390625 27.484375 19.1875 25 
Q 14.984375 22.515625 14.984375 16.5 
Q 14.984375 11.71875 18.140625 8.90625 
Q 21.296875 6.109375 26.703125 6.109375 
Q 34.1875 6.109375 38.703125 11.40625 
Q 43.21875 16.703125 43.21875 25.484375 
L 43.21875 27.484375 
z
M 52.203125 31.203125 
L 52.203125 0 
L 43.21875 0 
L 43.21875 8.296875 
Q 40.140625 3.328125 35.546875 0.953125 
Q 30.953125 -1.421875 24.3125 -1.421875 
Q 15.921875 -1.421875 10.953125 3.296875 
Q 6 8.015625 6 15.921875 
Q 6 25.140625 12.171875 29.828125 
Q 18.359375 34.515625 30.609375 34.515625 
L 43.21875 34.515625 
L 43.21875 35.40625 
Q 43.21875 41.609375 39.140625 45 
Q 35.0625 48.390625 27.6875 48.390625 
Q 23 48.390625 18.546875 47.265625 
Q 14.109375 46.140625 10.015625 43.890625 
L 10.015625 52.203125 
Q 14.9375 54.109375 19.578125 55.046875 
Q 24.21875 56 28.609375 56 
Q 40.484375 56 46.34375 49.84375 
Q 52.203125 43.703125 52.203125 31.203125 
z
" id="DejaVuSans-61"/>
     <path d="M 9.421875 54.6875 
L 18.40625 54.6875 
L 18.40625 0 
L 9.421875 0 
z
M 9.421875 75.984375 
L 18.40625 75.984375 
L 18.40625 64.59375 
L 9.421875 64.59375 
z
" id="DejaVuSans-69"/>
     <path d="M 54.890625 33.015625 
L 54.890625 0 
L 45.90625 0 
L 45.90625 32.71875 
Q 45.90625 40.484375 42.875 44.328125 
Q 39.84375 48.1875 33.796875 48.1875 
Q 26.515625 48.1875 22.3125 43.546875 
Q 18.109375 38.921875 18.109375 30.90625 
L 18.109375 0 
L 9.078125 0 
L 9.078125 54.6875 
L 18.109375 54.6875 
L 18.109375 46.1875 
Q 21.34375 51.125 25.703125 53.5625 
Q 30.078125 56 35.796875 56 
Q 45.21875 56 50.046875 50.171875 
Q 54.890625 44.34375 54.890625 33.015625 
z
" id="DejaVuSans-6e"/>
     <path d="M 19.671875 64.796875 
L 19.671875 8.109375 
L 31.59375 8.109375 
Q 46.6875 8.109375 53.6875 14.9375 
Q 60.6875 21.78125 60.6875 36.53125 
Q 60.6875 51.171875 53.6875 57.984375 
Q 46.6875 64.796875 31.59375 64.796875 
z
M 9.8125 72.90625 
L 30.078125 72.90625 
Q 51.265625 72.90625 61.171875 64.09375 
Q 71.09375 55.28125 71.09375 36.53125 
Q 71.09375 17.671875 61.125 8.828125 
Q 51.171875 0 30.078125 0 
L 9.8125 0 
z
" id="DejaVuSans-44"/>
     <path d="M 9.8125 72.90625 
L 19.671875 72.90625 
L 19.671875 8.296875 
L 55.171875 8.296875 
L 55.171875 0 
L 9.8125 0 
z
" id="DejaVuSans-4c"/>
     <path d="M 56.203125 29.59375 
L 56.203125 25.203125 
L 14.890625 25.203125 
Q 15.484375 15.921875 20.484375 11.0625 
Q 25.484375 6.203125 34.421875 6.203125 
Q 39.59375 6.203125 44.453125 7.46875 
Q 49.3125 8.734375 54.109375 11.28125 
L 54.109375 2.78125 
Q 49.265625 0.734375 44.1875 -0.34375 
Q 39.109375 -1.421875 33.890625 -1.421875 
Q 20.796875 -1.421875 13.15625 6.1875 
Q 5.515625 13.8125 5.515625 26.8125 
Q 5.515625 40.234375 12.765625 48.109375 
Q 20.015625 56 32.328125 56 
Q 43.359375 56 49.78125 48.890625 
Q 56.203125 41.796875 56.203125 29.59375 
z
M 47.21875 32.234375 
Q 47.125 39.59375 43.09375 43.984375 
Q 39.0625 48.390625 32.421875 48.390625 
Q 24.90625 48.390625 20.390625 44.140625 
Q 15.875 39.890625 15.1875 32.171875 
z
" id="DejaVuSans-65"/>
     <path d="M 5.515625 54.6875 
L 48.1875 54.6875 
L 48.1875 46.484375 
L 14.40625 7.171875 
L 48.1875 7.171875 
L 48.1875 0 
L 4.296875 0 
L 4.296875 8.203125 
L 38.09375 47.515625 
L 5.515625 47.515625 
z
" id="DejaVuSans-7a"/>
    </defs>
    <g transform="translate(151.572187 35.472)scale(0.12 -0.12)">
     <use xlink:href="#DejaVuSans-50"/>
     <use x="60.302734" xlink:href="#DejaVuSans-6c"/>
     <use x="88.085938" xlink:href="#DejaVuSans-6f"/>
     <use x="149.267578" xlink:href="#DejaVuSans-74"/>
     <use x="188.476562" xlink:href="#DejaVuSans-20"/>
     <use x="220.263672" xlink:href="#DejaVuSans-6f"/>
     <use x="281.445312" xlink:href="#DejaVuSans-66"/>
     <use x="316.650391" xlink:href="#DejaVuSans-20"/>
     <use x="348.4375" xlink:href="#DejaVuSans-54"/>
     <use x="409.302734" xlink:href="#DejaVuSans-72"/>
     <use x="450.416016" xlink:href="#DejaVuSans-61"/>
     <use x="511.695312" xlink:href="#DejaVuSans-69"/>
     <use x="539.478516" xlink:href="#DejaVuSans-6e"/>
     <use x="602.857422" xlink:href="#DejaVuSans-20"/>
     <use x="634.644531" xlink:href="#DejaVuSans-44"/>
     <use x="711.646484" xlink:href="#DejaVuSans-61"/>
     <use x="772.925781" xlink:href="#DejaVuSans-74"/>
     <use x="812.134766" xlink:href="#DejaVuSans-61"/>
     <use x="873.414062" xlink:href="#DejaVuSans-20"/>
     <use x="905.201172" xlink:href="#DejaVuSans-66"/>
     <use x="940.40625" xlink:href="#DejaVuSans-6f"/>
     <use x="1001.587891" xlink:href="#DejaVuSans-72"/>
     <use x="1042.701172" xlink:href="#DejaVuSans-20"/>
     <use x="1074.488281" xlink:href="#DejaVuSans-4c"/>
     <use x="1130.185547" xlink:href="#DejaVuSans-6f"/>
     <use x="1191.367188" xlink:href="#DejaVuSans-72"/>
     <use x="1232.449219" xlink:href="#DejaVuSans-65"/>
     <use x="1293.972656" xlink:href="#DejaVuSans-6e"/>
     <use x="1357.351562" xlink:href="#DejaVuSans-7a"/>
    </g>
   </g>
   <g id="legend_1">
    <g id="patch_7">
     <path d="M 277.843437 108.1845 
L 407.72 108.1845 
Q 409.72 108.1845 409.72 106.1845 
L 409.72 48.472 
Q 409.72 46.472 407.72 46.472 
L 277.843437 46.472 
Q 275.843437 46.472 275.843437 48.472 
L 275.843437 106.1845 
Q 275.843437 108.1845 277.843437 108.1845 
z
" style="fill:#ffffff;opacity:0.8;stroke:#cccccc;stroke-linejoin:miter;"/>
    </g>
    <g id="line2d_17">
     <path d="M 279.843437 54.570438 
L 299.843437 54.570438 
" style="fill:none;opacity:0.4;stroke:#1f77b4;stroke-linecap:square;stroke-width:1.5;"/>
    </g>
    <g id="line2d_18"/>
    <g id="text_14">
     <!-- pred. (mean) -->
     <defs>
      <path d="M 18.109375 8.203125 
L 18.109375 -20.796875 
L 9.078125 -20.796875 
L 9.078125 54.6875 
L 18.109375 54.6875 
L 18.109375 46.390625 
Q 20.953125 51.265625 25.265625 53.625 
Q 29.59375 56 35.59375 56 
Q 45.5625 56 51.78125 48.09375 
Q 58.015625 40.1875 58.015625 27.296875 
Q 58.015625 14.40625 51.78125 6.484375 
Q 45.5625 -1.421875 35.59375 -1.421875 
Q 29.59375 -1.421875 25.265625 0.953125 
Q 20.953125 3.328125 18.109375 8.203125 
z
M 48.6875 27.296875 
Q 48.6875 37.203125 44.609375 42.84375 
Q 40.53125 48.484375 33.40625 48.484375 
Q 26.265625 48.484375 22.1875 42.84375 
Q 18.109375 37.203125 18.109375 27.296875 
Q 18.109375 17.390625 22.1875 11.75 
Q 26.265625 6.109375 33.40625 6.109375 
Q 40.53125 6.109375 44.609375 11.75 
Q 48.6875 17.390625 48.6875 27.296875 
z
" id="DejaVuSans-70"/>
      <path d="M 45.40625 46.390625 
L 45.40625 75.984375 
L 54.390625 75.984375 
L 54.390625 0 
L 45.40625 0 
L 45.40625 8.203125 
Q 42.578125 3.328125 38.25 0.953125 
Q 33.9375 -1.421875 27.875 -1.421875 
Q 17.96875 -1.421875 11.734375 6.484375 
Q 5.515625 14.40625 5.515625 27.296875 
Q 5.515625 40.1875 11.734375 48.09375 
Q 17.96875 56 27.875 56 
Q 33.9375 56 38.25 53.625 
Q 42.578125 51.265625 45.40625 46.390625 
z
M 14.796875 27.296875 
Q 14.796875 17.390625 18.875 11.75 
Q 22.953125 6.109375 30.078125 6.109375 
Q 37.203125 6.109375 41.296875 11.75 
Q 45.40625 17.390625 45.40625 27.296875 
Q 45.40625 37.203125 41.296875 42.84375 
Q 37.203125 48.484375 30.078125 48.484375 
Q 22.953125 48.484375 18.875 42.84375 
Q 14.796875 37.203125 14.796875 27.296875 
z
" id="DejaVuSans-64"/>
      <path d="M 31 75.875 
Q 24.46875 64.65625 21.28125 53.65625 
Q 18.109375 42.671875 18.109375 31.390625 
Q 18.109375 20.125 21.3125 9.0625 
Q 24.515625 -2 31 -13.1875 
L 23.1875 -13.1875 
Q 15.875 -1.703125 12.234375 9.375 
Q 8.59375 20.453125 8.59375 31.390625 
Q 8.59375 42.28125 12.203125 53.3125 
Q 15.828125 64.359375 23.1875 75.875 
z
" id="DejaVuSans-28"/>
      <path d="M 52 44.1875 
Q 55.375 50.25 60.0625 53.125 
Q 64.75 56 71.09375 56 
Q 79.640625 56 84.28125 50.015625 
Q 88.921875 44.046875 88.921875 33.015625 
L 88.921875 0 
L 79.890625 0 
L 79.890625 32.71875 
Q 79.890625 40.578125 77.09375 44.375 
Q 74.3125 48.1875 68.609375 48.1875 
Q 61.625 48.1875 57.5625 43.546875 
Q 53.515625 38.921875 53.515625 30.90625 
L 53.515625 0 
L 44.484375 0 
L 44.484375 32.71875 
Q 44.484375 40.625 41.703125 44.40625 
Q 38.921875 48.1875 33.109375 48.1875 
Q 26.21875 48.1875 22.15625 43.53125 
Q 18.109375 38.875 18.109375 30.90625 
L 18.109375 0 
L 9.078125 0 
L 9.078125 54.6875 
L 18.109375 54.6875 
L 18.109375 46.1875 
Q 21.1875 51.21875 25.484375 53.609375 
Q 29.78125 56 35.6875 56 
Q 41.65625 56 45.828125 52.96875 
Q 50 49.953125 52 44.1875 
z
" id="DejaVuSans-6d"/>
      <path d="M 8.015625 75.875 
L 15.828125 75.875 
Q 23.140625 64.359375 26.78125 53.3125 
Q 30.421875 42.28125 30.421875 31.390625 
Q 30.421875 20.453125 26.78125 9.375 
Q 23.140625 -1.703125 15.828125 -13.1875 
L 8.015625 -13.1875 
Q 14.5 -2 17.703125 9.0625 
Q 20.90625 20.125 20.90625 31.390625 
Q 20.90625 42.671875 17.703125 53.65625 
Q 14.5 64.65625 8.015625 75.875 
z
" id="DejaVuSans-29"/>
     </defs>
     <g transform="translate(307.843437 58.070438)scale(0.1 -0.1)">
      <use xlink:href="#DejaVuSans-70"/>
      <use x="63.476562" xlink:href="#DejaVuSans-72"/>
      <use x="104.558594" xlink:href="#DejaVuSans-65"/>
      <use x="166.082031" xlink:href="#DejaVuSans-64"/>
      <use x="229.558594" xlink:href="#DejaVuSans-2e"/>
      <use x="261.345703" xlink:href="#DejaVuSans-20"/>
      <use x="293.132812" xlink:href="#DejaVuSans-28"/>
      <use x="332.146484" xlink:href="#DejaVuSans-6d"/>
      <use x="429.558594" xlink:href="#DejaVuSans-65"/>
      <use x="491.082031" xlink:href="#DejaVuSans-61"/>
      <use x="552.361328" xlink:href="#DejaVuSans-6e"/>
      <use x="615.740234" xlink:href="#DejaVuSans-29"/>
     </g>
    </g>
    <g id="line2d_19">
     <path d="M 279.843437 69.248563 
L 299.843437 69.248563 
" style="fill:none;opacity:0.4;stroke:#ff7f0e;stroke-linecap:square;stroke-width:1.5;"/>
    </g>
    <g id="line2d_20"/>
    <g id="text_15">
     <!-- pred.(5th percen.) -->
     <defs>
      <path d="M 54.890625 33.015625 
L 54.890625 0 
L 45.90625 0 
L 45.90625 32.71875 
Q 45.90625 40.484375 42.875 44.328125 
Q 39.84375 48.1875 33.796875 48.1875 
Q 26.515625 48.1875 22.3125 43.546875 
Q 18.109375 38.921875 18.109375 30.90625 
L 18.109375 0 
L 9.078125 0 
L 9.078125 75.984375 
L 18.109375 75.984375 
L 18.109375 46.1875 
Q 21.34375 51.125 25.703125 53.5625 
Q 30.078125 56 35.796875 56 
Q 45.21875 56 50.046875 50.171875 
Q 54.890625 44.34375 54.890625 33.015625 
z
" id="DejaVuSans-68"/>
      <path d="M 48.78125 52.59375 
L 48.78125 44.1875 
Q 44.96875 46.296875 41.140625 47.34375 
Q 37.3125 48.390625 33.40625 48.390625 
Q 24.65625 48.390625 19.8125 42.84375 
Q 14.984375 37.3125 14.984375 27.296875 
Q 14.984375 17.28125 19.8125 11.734375 
Q 24.65625 6.203125 33.40625 6.203125 
Q 37.3125 6.203125 41.140625 7.25 
Q 44.96875 8.296875 48.78125 10.40625 
L 48.78125 2.09375 
Q 45.015625 0.34375 40.984375 -0.53125 
Q 36.96875 -1.421875 32.421875 -1.421875 
Q 20.0625 -1.421875 12.78125 6.34375 
Q 5.515625 14.109375 5.515625 27.296875 
Q 5.515625 40.671875 12.859375 48.328125 
Q 20.21875 56 33.015625 56 
Q 37.15625 56 41.109375 55.140625 
Q 45.0625 54.296875 48.78125 52.59375 
z
" id="DejaVuSans-63"/>
     </defs>
     <g transform="translate(307.843437 72.748563)scale(0.1 -0.1)">
      <use xlink:href="#DejaVuSans-70"/>
      <use x="63.476562" xlink:href="#DejaVuSans-72"/>
      <use x="104.558594" xlink:href="#DejaVuSans-65"/>
      <use x="166.082031" xlink:href="#DejaVuSans-64"/>
      <use x="229.558594" xlink:href="#DejaVuSans-2e"/>
      <use x="261.345703" xlink:href="#DejaVuSans-28"/>
      <use x="300.359375" xlink:href="#DejaVuSans-35"/>
      <use x="363.982422" xlink:href="#DejaVuSans-74"/>
      <use x="403.191406" xlink:href="#DejaVuSans-68"/>
      <use x="466.570312" xlink:href="#DejaVuSans-20"/>
      <use x="498.357422" xlink:href="#DejaVuSans-70"/>
      <use x="561.833984" xlink:href="#DejaVuSans-65"/>
      <use x="623.357422" xlink:href="#DejaVuSans-72"/>
      <use x="664.439453" xlink:href="#DejaVuSans-63"/>
      <use x="719.419922" xlink:href="#DejaVuSans-65"/>
      <use x="780.943359" xlink:href="#DejaVuSans-6e"/>
      <use x="844.322266" xlink:href="#DejaVuSans-2e"/>
      <use x="876.109375" xlink:href="#DejaVuSans-29"/>
     </g>
    </g>
    <g id="line2d_21">
     <path d="M 279.843437 83.926688 
L 299.843437 83.926688 
" style="fill:none;opacity:0.4;stroke:#2ca02c;stroke-linecap:square;stroke-width:1.5;"/>
    </g>
    <g id="line2d_22"/>
    <g id="text_16">
     <!-- pred.(95th percen.) -->
     <defs>
      <path d="M 10.984375 1.515625 
L 10.984375 10.5 
Q 14.703125 8.734375 18.5 7.8125 
Q 22.3125 6.890625 25.984375 6.890625 
Q 35.75 6.890625 40.890625 13.453125 
Q 46.046875 20.015625 46.78125 33.40625 
Q 43.953125 29.203125 39.59375 26.953125 
Q 35.25 24.703125 29.984375 24.703125 
Q 19.046875 24.703125 12.671875 31.3125 
Q 6.296875 37.9375 6.296875 49.421875 
Q 6.296875 60.640625 12.9375 67.421875 
Q 19.578125 74.21875 30.609375 74.21875 
Q 43.265625 74.21875 49.921875 64.515625 
Q 56.59375 54.828125 56.59375 36.375 
Q 56.59375 19.140625 48.40625 8.859375 
Q 40.234375 -1.421875 26.421875 -1.421875 
Q 22.703125 -1.421875 18.890625 -0.6875 
Q 15.09375 0.046875 10.984375 1.515625 
z
M 30.609375 32.421875 
Q 37.25 32.421875 41.125 36.953125 
Q 45.015625 41.5 45.015625 49.421875 
Q 45.015625 57.28125 41.125 61.84375 
Q 37.25 66.40625 30.609375 66.40625 
Q 23.96875 66.40625 20.09375 61.84375 
Q 16.21875 57.28125 16.21875 49.421875 
Q 16.21875 41.5 20.09375 36.953125 
Q 23.96875 32.421875 30.609375 32.421875 
z
" id="DejaVuSans-39"/>
     </defs>
     <g transform="translate(307.843437 87.426688)scale(0.1 -0.1)">
      <use xlink:href="#DejaVuSans-70"/>
      <use x="63.476562" xlink:href="#DejaVuSans-72"/>
      <use x="104.558594" xlink:href="#DejaVuSans-65"/>
      <use x="166.082031" xlink:href="#DejaVuSans-64"/>
      <use x="229.558594" xlink:href="#DejaVuSans-2e"/>
      <use x="261.345703" xlink:href="#DejaVuSans-28"/>
      <use x="300.359375" xlink:href="#DejaVuSans-39"/>
      <use x="363.982422" xlink:href="#DejaVuSans-35"/>
      <use x="427.605469" xlink:href="#DejaVuSans-74"/>
      <use x="466.814453" xlink:href="#DejaVuSans-68"/>
      <use x="530.193359" xlink:href="#DejaVuSans-20"/>
      <use x="561.980469" xlink:href="#DejaVuSans-70"/>
      <use x="625.457031" xlink:href="#DejaVuSans-65"/>
      <use x="686.980469" xlink:href="#DejaVuSans-72"/>
      <use x="728.0625" xlink:href="#DejaVuSans-63"/>
      <use x="783.042969" xlink:href="#DejaVuSans-65"/>
      <use x="844.566406" xlink:href="#DejaVuSans-6e"/>
      <use x="907.945312" xlink:href="#DejaVuSans-2e"/>
      <use x="939.732422" xlink:href="#DejaVuSans-29"/>
     </g>
    </g>
    <g id="line2d_23">
     <path d="M 279.843437 98.604813 
L 299.843437 98.604813 
" style="fill:none;stroke:#000000;stroke-linecap:square;stroke-width:1.5;"/>
    </g>
    <g id="line2d_24"/>
    <g id="text_17">
     <!-- actual -->
     <defs>
      <path d="M 8.5 21.578125 
L 8.5 54.6875 
L 17.484375 54.6875 
L 17.484375 21.921875 
Q 17.484375 14.15625 20.5 10.265625 
Q 23.53125 6.390625 29.59375 6.390625 
Q 36.859375 6.390625 41.078125 11.03125 
Q 45.3125 15.671875 45.3125 23.6875 
L 45.3125 54.6875 
L 54.296875 54.6875 
L 54.296875 0 
L 45.3125 0 
L 45.3125 8.40625 
Q 42.046875 3.421875 37.71875 1 
Q 33.40625 -1.421875 27.6875 -1.421875 
Q 18.265625 -1.421875 13.375 4.4375 
Q 8.5 10.296875 8.5 21.578125 
z
M 31.109375 56 
z
" id="DejaVuSans-75"/>
     </defs>
     <g transform="translate(307.843437 102.104813)scale(0.1 -0.1)">
      <use xlink:href="#DejaVuSans-61"/>
      <use x="61.279297" xlink:href="#DejaVuSans-63"/>
      <use x="116.259766" xlink:href="#DejaVuSans-74"/>
      <use x="155.46875" xlink:href="#DejaVuSans-75"/>
      <use x="218.847656" xlink:href="#DejaVuSans-61"/>
      <use x="280.126953" xlink:href="#DejaVuSans-6c"/>
     </g>
    </g>
   </g>
  </g>
 </g>
 <defs>
  <clipPath id="p5777712646">
   <rect height="266.112" width="357.12" x="57.6" y="41.472"/>
  </clipPath>
 </defs>
</svg>
